<svg width="1189" height="562" viewBox="0 0 1189 562" fill="none" xmlns="http://www.w3.org/2000/svg">
<path fill-rule="evenodd" clip-rule="evenodd" d="M12.6632 256.695L13.4083 260.244C13.7601 261.919 16.2399 261.919 16.5917 260.244L17.3368 256.695C18.0712 253.198 20.9016 250.465 24.5233 249.756L28.1987 249.037C29.9338 248.697 29.9338 246.303 28.1987 245.963L24.5233 245.244C20.9016 244.535 18.0709 241.802 17.3368 238.305L16.5917 234.756C16.2399 233.081 13.7601 233.081 13.4083 234.756L12.6632 238.305C11.9288 241.802 9.09838 244.535 5.47665 245.244L1.80129 245.963C0.0662373 246.303 0.0662373 248.697 1.80129 249.037L5.47665 249.756C9.09838 250.465 11.9291 253.198 12.6632 256.695Z" fill="#8C7FE5"/>
<path fill-rule="evenodd" clip-rule="evenodd" d="M377.663 535.695L378.408 539.244C378.76 540.919 381.24 540.919 381.592 539.244L382.337 535.695C383.071 532.198 385.902 529.465 389.523 528.756L393.199 528.037C394.934 527.697 394.934 525.303 393.199 524.963L389.523 524.244C385.902 523.535 383.071 520.802 382.337 517.305L381.592 513.756C381.24 512.081 378.76 512.081 378.408 513.756L377.663 517.305C376.929 520.802 374.098 523.535 370.477 524.244L366.801 524.963C365.066 525.303 365.066 527.697 366.801 528.037L370.477 528.756C374.098 529.465 376.929 532.198 377.663 535.695Z" fill="#8C7FE5"/>
<path fill-rule="evenodd" clip-rule="evenodd" d="M247.663 118.695L248.408 122.244C248.76 123.919 251.24 123.919 251.592 122.244L252.337 118.695C253.071 115.198 255.902 112.465 259.523 111.756L263.199 111.037C264.934 110.697 264.934 108.303 263.199 107.963L259.523 107.244C255.902 106.535 253.071 103.802 252.337 100.305L251.592 96.7564C251.24 95.0812 248.76 95.0812 248.408 96.7564L247.663 100.305C246.929 103.802 244.098 106.535 240.477 107.244L236.801 107.963C235.066 108.303 235.066 110.697 236.801 111.037L240.477 111.756C244.098 112.465 246.929 115.198 247.663 118.695Z" fill="#8C7FE5"/>
<path fill-rule="evenodd" clip-rule="evenodd" d="M1167.66 23.695L1168.41 27.2436C1168.76 28.9188 1171.24 28.9188 1171.59 27.2436L1172.34 23.695C1173.07 20.1981 1175.9 17.465 1179.52 16.7563L1183.2 16.0368C1184.93 15.6971 1184.93 13.3029 1183.2 12.9632L1179.52 12.2437C1175.9 11.5347 1173.07 8.80189 1172.34 5.30504L1171.59 1.75642C1171.24 0.081195 1168.76 0.081195 1168.41 1.75642L1167.66 5.30504C1166.93 8.80189 1164.1 11.535 1160.48 12.2437L1156.8 12.9632C1155.07 13.3029 1155.07 15.6971 1156.8 16.0368L1160.48 16.7563C1164.1 17.465 1166.93 20.1981 1167.66 23.695Z" fill="#8C7FE5"/>
<path fill-rule="evenodd" clip-rule="evenodd" d="M1025.2 149.4C1053.48 149.4 1076.4 126.477 1076.4 98.2C1076.4 69.923 1053.48 47 1025.2 47C996.923 47 974 69.923 974 98.2C974 126.477 996.923 149.4 1025.2 149.4Z" fill="#8C7FE5"/>
<path fill-rule="evenodd" clip-rule="evenodd" d="M1025.2 147.74C1052.56 147.74 1074.74 125.56 1074.74 98.2C1074.74 70.8397 1052.56 48.6598 1025.2 48.6598C997.84 48.6598 975.66 70.8397 975.66 98.2C975.66 125.56 997.84 147.74 1025.2 147.74Z" fill="#7567DB"/>
<path fill-rule="evenodd" clip-rule="evenodd" d="M1025.2 142.878C1049.88 142.878 1069.88 122.875 1069.88 98.2C1069.88 73.5248 1049.88 53.5216 1025.2 53.5216C1000.52 53.5216 980.521 73.5248 980.521 98.2C980.521 122.875 1000.52 142.878 1025.2 142.878Z" fill="url(#paint0_linear)"/>
<path fill-rule="evenodd" clip-rule="evenodd" d="M1025.2 142.878C1049.88 142.878 1069.88 122.875 1069.88 98.2C1069.88 73.5248 1049.88 53.5216 1025.2 53.5216C1000.52 53.5216 980.521 73.5248 980.521 98.2C980.521 122.875 1000.52 142.878 1025.2 142.878Z" fill="#8C7FE5"/>
<path fill-rule="evenodd" clip-rule="evenodd" d="M1025.52 98.2H1024.88C1023.68 98.2 1022.7 97.2264 1022.7 96.025V69.5718C1022.7 68.3708 1023.68 67.3968 1024.88 67.3968H1025.52C1026.72 67.3968 1027.7 68.3704 1027.7 69.5718V96.0254C1027.7 97.2264 1026.72 98.2 1025.52 98.2Z" fill="#6052BF"/>
<path fill-rule="evenodd" clip-rule="evenodd" d="M1025.52 98.2L1025.98 98.6564C1026.83 99.5056 1026.83 100.883 1025.98 101.732L1010.71 117.006C1009.86 117.855 1008.48 117.855 1007.63 117.006L1007.17 116.55C1006.32 115.7 1006.32 114.323 1007.17 113.474L1022.45 98.2C1023.3 97.3508 1024.67 97.3508 1025.52 98.2Z" fill="#6052BF"/>
<path fill-rule="evenodd" clip-rule="evenodd" d="M1055.55 90.811V90.811C1055.68 91.307 1055.37 91.8082 1054.88 91.9304L1025.66 99.125C1025.17 99.2472 1024.67 98.944 1024.54 98.448V98.448C1024.42 97.952 1024.72 97.4508 1025.22 97.3286L1054.44 90.134C1054.93 90.0118 1055.43 90.3148 1055.55 90.811Z" fill="#FFDE63"/>
<path fill-rule="evenodd" clip-rule="evenodd" d="M1025.2 102.328C1027.48 102.328 1029.33 100.48 1029.33 98.2C1029.33 95.9199 1027.48 94.0716 1025.2 94.0716C1022.92 94.0716 1021.07 95.9199 1021.07 98.2C1021.07 100.48 1022.92 102.328 1025.2 102.328Z" fill="#FFDE63"/>
<path fill-rule="evenodd" clip-rule="evenodd" d="M1025.36 64.7604H1025.04C1023.75 64.7604 1022.7 63.7136 1022.7 62.4222V59.5134C1022.7 58.222 1023.75 57.1752 1025.04 57.1752H1025.36C1026.65 57.1752 1027.7 58.222 1027.7 59.5134V62.4222C1027.7 63.7136 1026.65 64.7604 1025.36 64.7604Z" fill="#6052BF"/>
<path fill-rule="evenodd" clip-rule="evenodd" d="M1025.36 139.225H1025.04C1023.75 139.225 1022.7 138.178 1022.7 136.887V133.978C1022.7 132.687 1023.75 131.64 1025.04 131.64H1025.36C1026.65 131.64 1027.7 132.687 1027.7 133.978V136.887C1027.7 138.178 1026.65 139.225 1025.36 139.225Z" fill="#6052BF"/>
<path fill-rule="evenodd" clip-rule="evenodd" d="M1058.64 98.3594V98.0406C1058.64 96.7492 1059.69 95.7024 1060.98 95.7024H1063.89C1065.18 95.7024 1066.22 96.7492 1066.22 98.0406V98.3594C1066.22 99.6508 1065.18 100.698 1063.89 100.698H1060.98C1059.69 100.697 1058.64 99.6506 1058.64 98.3594Z" fill="#6052BF"/>
<path fill-rule="evenodd" clip-rule="evenodd" d="M984.175 98.3594V98.0406C984.175 96.7492 985.222 95.7024 986.513 95.7024H989.422C990.713 95.7024 991.76 96.7492 991.76 98.0406V98.3594C991.76 99.6508 990.713 100.698 989.422 100.698H986.513C985.222 100.697 984.175 99.6506 984.175 98.3594Z" fill="#6052BF"/>
<path fill-rule="evenodd" clip-rule="evenodd" d="M638.8 221.6H649.2C650.526 221.6 651.6 220.526 651.6 219.2V204.8C651.6 203.475 650.526 202.4 649.2 202.4H423.6C422.275 202.4 421.2 203.475 421.2 204.8V219.2C421.2 220.526 422.275 221.6 423.6 221.6H638.8Z" fill="#8C7FE5" stroke="#6052BF" stroke-width="0.8"/>
<path fill-rule="evenodd" clip-rule="evenodd" d="M434 221.6H536.4V477.6H434V221.6Z" fill="#8C7FE5" stroke="#6052BF" stroke-width="0.8"/>
<path fill-rule="evenodd" clip-rule="evenodd" d="M536.4 221.6H638.8V477.6H536.4V221.6Z" fill="#8C7FE5" stroke="#6052BF" stroke-width="0.8"/>
<path fill-rule="evenodd" clip-rule="evenodd" d="M536.4 477.6H434V552.8C434 553.684 434.716 554.4 435.6 554.4H637.2C638.084 554.4 638.8 553.684 638.8 552.8V477.6H536.4Z" fill="#8C7FE5" stroke="#6052BF" stroke-width="0.8"/>
<path fill-rule="evenodd" clip-rule="evenodd" d="M534 221.6H538.8V477.6H534V221.6Z" fill="#6052BF"/>
<path fill-rule="evenodd" clip-rule="evenodd" d="M558 340C558 338.233 559.433 336.8 561.2 336.8H562.8C564.568 336.8 566 338.233 566 340V384.8C566 386.567 564.568 388 562.8 388H561.2C559.433 388 558 386.567 558 384.8V340Z" fill="#6052BF"/>
<path fill-rule="evenodd" clip-rule="evenodd" d="M506.8 340C506.8 338.233 508.233 336.8 510 336.8H511.6C513.368 336.8 514.8 338.233 514.8 340V384.8C514.8 386.567 513.368 388 511.6 388H510C508.233 388 506.8 386.567 506.8 384.8V340Z" fill="#6052BF"/>
<path fill-rule="evenodd" clip-rule="evenodd" d="M523.6 502.4C523.6 500.633 525.033 499.2 526.8 499.2H546C547.767 499.2 549.2 500.633 549.2 502.4V504C549.2 505.767 547.767 507.2 546 507.2H526.8C525.033 507.2 523.6 505.767 523.6 504V502.4Z" fill="#6052BF"/>
<path fill-rule="evenodd" clip-rule="evenodd" d="M434 221.6H638V228H434V221.6Z" fill="#6052BF"/>
<path fill-rule="evenodd" clip-rule="evenodd" d="M440.4 554.4H632.4V560.8H440.4V554.4Z" fill="#6052BF"/>
<path fill-rule="evenodd" clip-rule="evenodd" d="M1110.23 376.442H1110.22C1109.87 376.404 1109.6 374.023 1109.6 371.119L1109.65 339.588C1109.65 336.711 1109.93 334.4 1110.28 334.4H1110.28C1110.63 334.439 1110.91 336.821 1110.9 339.723C1110.9 339.725 1110.9 339.725 1110.9 339.725L1110.85 371.256C1110.85 374.132 1110.57 376.442 1110.23 376.442Z" fill="#6052BF"/>
<path fill-rule="evenodd" clip-rule="evenodd" d="M1110.47 380.22C1107.34 380.22 1104.8 377.664 1104.8 374.51C1104.8 371.357 1107.34 368.8 1110.47 368.8C1113.6 368.8 1116.13 371.357 1116.13 374.51C1116.13 377.664 1113.6 380.22 1110.47 380.22Z" fill="#6052BF"/>
<path fill-rule="evenodd" clip-rule="evenodd" d="M1132.66 552.633C1130.87 552.633 1129.42 549.997 1129.42 546.74V340.485C1129.42 337.231 1130.87 334.592 1132.66 334.592C1134.44 334.592 1135.89 337.231 1135.89 340.485V546.74C1135.89 549.997 1134.44 552.633 1132.66 552.633Z" fill="#6052BF"/>
<path fill-rule="evenodd" clip-rule="evenodd" d="M1132.53 547.208L1150.49 547.338C1159.53 547.338 1161.47 555.644 1161.89 559.207C1161.99 560.085 1161.28 560.8 1160.4 560.8H1105.2C1104.32 560.8 1103.61 560.086 1103.71 559.208C1104.13 555.618 1106.07 547.2 1115.17 547.2H1132.53V547.208Z" fill="#7567DB" stroke="#6052BF" stroke-width="0.8"/>
<path fill-rule="evenodd" clip-rule="evenodd" d="M1113.18 232.8H1152.14C1157.26 232.8 1161.73 236.263 1163.04 241.231L1187.94 336.236C1188.47 338.264 1186.94 340.247 1184.85 340.247H1080.47C1078.37 340.247 1076.84 338.264 1077.37 336.236L1102.28 241.231C1103.58 236.263 1108.06 232.8 1113.18 232.8Z" fill="#8C7FE5" stroke="#6052BF" stroke-width="0.8"/>
<path fill-rule="evenodd" clip-rule="evenodd" d="M788 462.4C788 463.726 789.075 464.8 790.4 464.8H1062.4C1063.73 464.8 1064.8 463.726 1064.8 462.4V452.8C1064.8 451.475 1063.73 450.4 1062.4 450.4H790.4C789.075 450.4 788 451.475 788 452.8V462.4Z" fill="#8C7FE5" stroke="#6052BF" stroke-width="0.8"/>
<path fill-rule="evenodd" clip-rule="evenodd" d="M926.4 464.8V521.6H1048.8C1049.68 521.6 1050.4 520.884 1050.4 520V464.8H926.4Z" fill="#8C7FE5" stroke="#6052BF" stroke-width="0.8"/>
<path fill-rule="evenodd" clip-rule="evenodd" d="M802.4 464.8V520C802.4 520.884 803.116 521.6 804 521.6H926.4V464.8H802.4Z" fill="#8C7FE5" stroke="#6052BF" stroke-width="0.8"/>
<path fill-rule="evenodd" clip-rule="evenodd" d="M812 522.4H826.4V558.4C826.4 559.284 825.684 560 824.8 560H813.6C812.716 560 812 559.284 812 558.4V522.4Z" fill="#7567DB" stroke="#6052BF" stroke-width="0.8"/>
<path fill-rule="evenodd" clip-rule="evenodd" d="M1026.4 522.4H1040.8V558.4C1040.8 559.284 1040.08 560 1039.2 560H1028C1027.12 560 1026.4 559.284 1026.4 558.4V522.4Z" fill="#7567DB" stroke="#6052BF" stroke-width="0.8"/>
<path fill-rule="evenodd" clip-rule="evenodd" d="M921.6 464.8H931.2V521.6H921.6V464.8Z" fill="#6052BF"/>
<path fill-rule="evenodd" clip-rule="evenodd" d="M979.2 482.4C979.2 480.633 980.633 479.2 982.4 479.2H995.2C996.968 479.2 998.4 480.633 998.4 482.4V485.6C998.4 487.367 996.968 488.8 995.2 488.8H982.4C980.633 488.8 979.2 487.367 979.2 485.6V482.4Z" fill="#6052BF"/>
<path fill-rule="evenodd" clip-rule="evenodd" d="M854.4 482.4C854.4 480.633 855.833 479.2 857.6 479.2H870.4C872.167 479.2 873.6 480.633 873.6 482.4V485.6C873.6 487.367 872.167 488.8 870.4 488.8H857.6C855.833 488.8 854.4 487.367 854.4 485.6V482.4Z" fill="#6052BF"/>
<path fill-rule="evenodd" clip-rule="evenodd" d="M907.2 422.4H945.6V427.2H907.2V422.4Z" fill="#787680"/>
<path fill-rule="evenodd" clip-rule="evenodd" d="M812 522.4H826.4V527.2H812V522.4Z" fill="#6052BF"/>
<path fill-rule="evenodd" clip-rule="evenodd" d="M1026.4 522.4H1040.8V527.2H1026.4V522.4Z" fill="#6052BF"/>
<path fill-rule="evenodd" clip-rule="evenodd" d="M802.4 464.8H921.6V469.6H802.4V464.8Z" fill="#6052BF"/>
<path fill-rule="evenodd" clip-rule="evenodd" d="M931.2 464.8H1050.4V469.6H931.2V464.8Z" fill="#6052BF"/>
<path fill-rule="evenodd" clip-rule="evenodd" d="M875.558 295.2C874.822 295.2 874.087 294.92 873.53 294.361L853.614 274.366C852.515 273.261 852.531 271.487 853.651 270.403C854.772 269.318 856.571 269.335 857.672 270.438L877.586 290.434C878.685 291.539 878.67 293.313 877.549 294.397C876.996 294.932 876.276 295.2 875.558 295.2Z" fill="#6052BF"/>
<path fill-rule="evenodd" clip-rule="evenodd" d="M918.843 295.2C918.123 295.2 917.405 294.934 916.85 294.397C915.731 293.313 915.714 291.537 916.815 290.434L936.73 270.438C937.829 269.335 939.63 269.318 940.749 270.403C941.87 271.487 941.885 273.262 940.786 274.366L920.871 294.361C920.315 294.92 919.579 295.2 918.843 295.2Z" fill="#6052BF"/>
<path fill-rule="evenodd" clip-rule="evenodd" d="M972.184 449.841C922.106 449.841 874.4 449.841 822.215 449.841C815.947 449.841 810.978 444.468 810.384 438.258C806.139 393.82 806.139 349.381 810.384 304.943C810.978 298.733 815.971 293.853 822.215 293.36C872.205 289.413 922.195 289.413 972.184 293.36C978.429 293.853 983.423 298.733 984.016 304.943C988.262 349.381 988.262 393.82 984.016 438.258C983.423 444.468 978.453 449.841 972.184 449.841Z" fill="#8C7FE5" stroke="#6052BF" stroke-width="0.8"/>
<path fill-rule="evenodd" clip-rule="evenodd" d="M984.8 424C984.442 428.784 984.031 433.566 983.572 438.35C982.979 444.523 978.737 449.931 971.746 449.861C922.829 449.37 822.894 449.942 821.851 449.861C815.612 449.37 810.619 444.523 810.029 438.35C809.569 433.566 809.159 428.784 808.8 424H984.8Z" fill="#6052BF"/>
<path fill-rule="evenodd" clip-rule="evenodd" d="M969.716 398.259C968.58 404.342 962.324 409.095 954.461 409.89C916.021 413.77 877.583 413.77 839.141 409.89C831.276 409.095 825.025 404.342 823.884 398.259C818.705 370.619 818.705 342.98 823.884 315.342C825.025 309.257 831.276 304.504 839.141 303.709C862.679 301.336 886.219 300.411 909.758 300.948C924.657 301.282 939.562 302.207 954.461 303.709C962.324 304.504 968.58 309.257 969.716 315.342C974.895 342.98 974.895 370.619 969.716 398.259V398.259Z" fill="#F4F4F4"/>
<path fill-rule="evenodd" clip-rule="evenodd" d="M839.568 413.083C858.821 415.028 878.211 416 897.6 416C916.989 416 936.378 415.028 955.632 413.083C964.903 412.147 972.33 406.406 973.693 399.121C978.902 371.305 978.902 343.095 973.693 315.278C972.33 307.995 964.903 302.254 955.632 301.316C917.125 297.428 878.076 297.428 839.568 301.316C830.296 302.254 822.871 307.995 821.506 315.278C816.298 343.095 816.298 371.305 821.506 399.121C822.871 406.406 830.296 412.147 839.568 413.083ZM840.31 306.873C859.318 304.953 878.459 303.993 897.6 303.993C916.741 303.993 935.883 304.954 954.89 306.873C961.318 307.522 966.438 311.349 967.341 316.176C972.439 343.398 972.439 371.003 967.341 398.224C966.438 403.052 961.318 406.877 954.89 407.526C916.875 411.366 878.326 411.366 840.31 407.526C833.883 406.877 828.762 403.052 827.858 398.224C822.761 371.003 822.761 343.398 827.858 316.176C828.762 311.349 833.883 307.522 840.31 306.873Z" fill="#6052BF"/>
<path fill-rule="evenodd" clip-rule="evenodd" d="M844.8 437.201C844.8 440.513 841.936 443.2 838.4 443.2C834.866 443.2 832 440.513 832 437.201C832 433.886 834.866 431.2 838.4 431.2C841.936 431.2 844.8 433.886 844.8 437.201V437.201Z" fill="#8C7FE5"/>
<path fill-rule="evenodd" clip-rule="evenodd" d="M963.2 437.201C963.2 440.513 960.335 443.2 956.8 443.2C953.266 443.2 950.4 440.513 950.4 437.201C950.4 433.886 953.266 431.2 956.8 431.2C960.335 431.2 963.2 433.886 963.2 437.201V437.201Z" fill="#8C7FE5"/>
<path fill-rule="evenodd" clip-rule="evenodd" d="M936.392 436.8H857.209C855.658 436.8 854.4 435.546 854.4 434C854.4 432.454 855.658 431.2 857.209 431.2H936.392C937.943 431.2 939.2 432.454 939.2 434C939.2 435.546 937.943 436.8 936.392 436.8Z" fill="#8C7FE5"/>
<path fill-rule="evenodd" clip-rule="evenodd" d="M936.392 445.6H857.209C855.658 445.6 854.4 444.346 854.4 442.8C854.4 441.254 855.658 440 857.209 440H936.392C937.943 440 939.2 441.254 939.2 442.8C939.2 444.346 937.943 445.6 936.392 445.6Z" fill="#8C7FE5"/>
<path fill-rule="evenodd" clip-rule="evenodd" d="M917.553 336C922.439 336 926.4 339.978 926.4 344.886H926.399V368.714C926.399 373.621 922.44 377.6 917.552 377.6H876.046C871.161 377.6 867.2 373.622 867.2 368.714V344.886C867.2 339.979 871.16 336 876.046 336H917.553ZM890.878 344.472V366.852L907.785 355.663L890.878 344.472Z" fill="#8C7FE5"/>
<path fill-rule="evenodd" clip-rule="evenodd" d="M1023.87 370.018C1023.25 369.409 1022.27 369.409 1021.66 370.018C1021.48 370.2 1021.26 370.32 1021.04 370.393V388.138C1018.83 385.859 1015.75 384.425 1012.39 384.383C1012.24 381.414 1011.32 378.883 1009.51 377.057C1007.03 374.549 1003.24 373.713 998.803 374.318C998.205 378.784 999.028 382.6 1001.52 385.107C1004.01 387.604 1007.8 388.437 1012.23 387.85C1016.99 387.85 1021.04 391.747 1021.04 396.536V406.963H1024.49V370.393C1024.26 370.32 1024.05 370.2 1023.87 370.018Z" fill="#6052BF"/>
<path fill-rule="evenodd" clip-rule="evenodd" d="M1023.87 339.657V339.657C1024.62 338.907 1025.88 339.108 1026.37 340.056V340.056C1026.76 340.825 1027.7 341.132 1028.47 340.744V340.744C1029.42 340.265 1030.55 340.849 1030.73 341.902V341.902C1030.87 342.757 1031.66 343.34 1032.51 343.21V343.21C1033.56 343.051 1034.46 343.959 1034.3 345.014V345.014C1034.18 345.871 1034.75 346.674 1035.6 346.815V346.815C1036.65 346.989 1037.23 348.133 1036.75 349.088V349.088C1036.37 349.863 1036.67 350.806 1037.44 351.205V351.205C1038.38 351.696 1038.58 352.964 1037.83 353.724V353.724C1037.23 354.341 1037.23 355.333 1037.83 355.95V355.95C1038.58 356.71 1038.38 357.979 1037.44 358.47V358.47C1036.67 358.869 1036.37 359.812 1036.75 360.587V360.587C1037.23 361.541 1036.65 362.686 1035.6 362.86V362.86C1034.75 363.001 1034.18 363.804 1034.3 364.66V364.66C1034.46 365.716 1033.56 366.624 1032.51 366.464V366.464C1031.66 366.335 1030.87 366.918 1030.73 367.773V367.773C1030.55 368.826 1029.42 369.409 1028.47 368.931V368.931C1027.7 368.543 1026.76 368.849 1026.37 369.619V369.619C1025.88 370.567 1024.62 370.768 1023.87 370.018V370.018C1023.25 369.409 1022.27 369.409 1021.66 370.018V370.018C1020.9 370.768 1019.64 370.567 1019.16 369.619V369.619C1018.76 368.849 1017.82 368.543 1017.05 368.931V368.931C1016.11 369.409 1014.97 368.826 1014.8 367.773V367.773C1014.66 366.918 1013.86 366.335 1013.01 366.464V366.464C1011.96 366.624 1011.06 365.716 1011.22 364.66V364.66C1011.35 363.804 1010.77 363.001 1009.92 362.86V362.86C1008.88 362.686 1008.3 361.541 1008.77 360.587V360.587C1009.16 359.812 1008.85 358.869 1008.09 358.47V358.47C1007.15 357.979 1006.95 356.71 1007.69 355.95V355.95C1008.3 355.333 1008.3 354.341 1007.69 353.724V353.724C1006.95 352.964 1007.15 351.695 1008.09 351.205V351.205C1008.85 350.806 1009.16 349.863 1008.77 349.088V349.088C1008.3 348.133 1008.88 346.989 1009.92 346.815V346.815C1010.77 346.674 1011.35 345.871 1011.22 345.014V345.014C1011.06 343.959 1011.96 343.051 1013.01 343.21V343.21C1013.86 343.34 1014.66 342.757 1014.8 341.902V341.902C1014.97 340.849 1016.11 340.266 1017.05 340.744V340.744C1017.82 341.132 1018.76 340.825 1019.16 340.056V340.056C1019.64 339.108 1020.9 338.907 1021.66 339.657V339.657C1022.27 340.266 1023.25 340.266 1023.87 339.657Z" fill="#8C7FE5" stroke="#6052BF" stroke-width="0.72"/>
<path fill-rule="evenodd" clip-rule="evenodd" d="M1022.76 360.05C1025.62 360.05 1027.94 357.716 1027.94 354.838C1027.94 351.959 1025.62 349.625 1022.76 349.625C1019.91 349.625 1017.59 351.959 1017.59 354.838C1017.59 357.716 1019.91 360.05 1022.76 360.05Z" fill="#8C7FE5"/>
<path fill-rule="evenodd" clip-rule="evenodd" d="M1032.54 352.416C1033.17 352.743 1033.31 353.589 1032.81 354.096C1032.41 354.507 1032.41 355.168 1032.81 355.579C1033.31 356.086 1033.17 356.932 1032.54 357.259C1032.04 357.525 1031.83 358.154 1032.09 358.67C1032.41 359.307 1032.02 360.07 1031.32 360.186C1030.76 360.28 1030.37 360.815 1030.46 361.386C1030.56 362.09 1029.96 362.696 1029.26 362.589C1028.7 362.502 1028.17 362.891 1028.07 363.461C1027.96 364.163 1027.2 364.552 1026.57 364.233C1026.05 363.975 1025.43 364.179 1025.17 364.692C1024.84 365.324 1024 365.458 1023.5 364.958C1023.09 364.552 1022.43 364.552 1022.03 364.958C1021.52 365.458 1020.68 365.324 1020.36 364.692C1020.09 364.179 1019.47 363.975 1018.96 364.233C1018.33 364.552 1017.57 364.163 1017.45 363.461C1017.36 362.891 1016.83 362.503 1016.26 362.589C1015.56 362.696 1014.96 362.09 1015.07 361.386C1015.15 360.815 1014.77 360.28 1014.2 360.186C1013.5 360.07 1013.12 359.307 1013.44 358.67C1013.69 358.154 1013.49 357.525 1012.98 357.259C1012.35 356.932 1012.22 356.086 1012.72 355.579C1013.12 355.168 1013.12 354.507 1012.72 354.096C1012.22 353.589 1012.35 352.743 1012.98 352.416C1013.49 352.15 1013.69 351.521 1013.44 351.005C1013.12 350.368 1013.5 349.605 1014.2 349.489C1014.77 349.395 1015.15 348.86 1015.07 348.289C1014.96 347.585 1015.56 346.979 1016.26 347.086C1016.83 347.173 1017.36 346.784 1017.45 346.214C1017.57 345.511 1018.33 345.123 1018.96 345.442C1019.47 345.7 1020.09 345.496 1020.36 344.983C1020.68 344.351 1021.52 344.217 1022.03 344.717C1022.43 345.123 1023.09 345.123 1023.5 344.717C1024 344.217 1024.84 344.351 1025.17 344.983C1025.43 345.496 1026.05 345.7 1026.57 345.442C1027.2 345.123 1027.96 345.511 1028.07 346.214C1028.17 346.784 1028.7 347.172 1029.26 347.086C1029.96 346.979 1030.56 347.585 1030.46 348.289C1030.37 348.86 1030.76 349.395 1031.32 349.489C1032.02 349.605 1032.41 350.368 1032.09 351.005C1031.83 351.521 1032.04 352.15 1032.54 352.416ZM1017.59 354.837C1017.59 357.716 1019.9 360.05 1022.76 360.05C1025.62 360.05 1027.94 357.716 1027.94 354.837C1027.94 351.959 1025.62 349.625 1022.76 349.625C1019.9 349.625 1017.59 351.959 1017.59 354.837Z" fill="#6052BF"/>
<path fill-rule="evenodd" clip-rule="evenodd" d="M1035.82 370.78V370.78C1035.32 370.28 1034.48 370.414 1034.16 371.046V371.046C1033.89 371.559 1033.27 371.763 1032.76 371.504V371.504C1032.12 371.185 1031.37 371.574 1031.25 372.276V372.276C1031.16 372.847 1030.63 373.235 1030.06 373.149V373.149C1029.36 373.042 1028.76 373.648 1028.87 374.351V374.351C1028.95 374.923 1028.57 375.458 1028 375.552V375.552C1027.3 375.668 1026.92 376.431 1027.23 377.067V377.067C1027.49 377.584 1027.29 378.212 1026.78 378.478V378.478C1026.15 378.805 1026.02 379.651 1026.52 380.158V380.158C1026.92 380.569 1026.92 381.231 1026.52 381.642V381.642C1026.02 382.149 1026.15 382.994 1026.78 383.322V383.322C1027.29 383.587 1027.49 384.216 1027.23 384.733V384.733C1026.92 385.369 1027.3 386.132 1028 386.248V386.248C1028.57 386.343 1028.95 386.877 1028.87 387.449V387.449C1028.76 388.152 1029.36 388.758 1030.06 388.651V388.651C1030.63 388.565 1031.16 388.954 1031.25 389.523V389.523C1031.37 390.226 1032.12 390.615 1032.76 390.296V390.296C1033.27 390.037 1033.89 390.241 1034.16 390.754V390.754C1034.48 391.386 1035.32 391.52 1035.82 391.02V391.02C1036.23 390.614 1036.89 390.614 1037.3 391.02V391.02C1037.8 391.52 1038.64 391.386 1038.97 390.754V390.754C1039.23 390.241 1039.85 390.037 1040.37 390.296V390.296C1041 390.615 1041.75 390.226 1041.87 389.523V389.523C1041.96 388.954 1042.49 388.565 1043.06 388.651V388.651C1043.76 388.758 1044.36 388.152 1044.26 387.449V387.449C1044.17 386.877 1044.56 386.342 1045.12 386.248V386.248C1045.82 386.132 1046.2 385.369 1045.89 384.733V384.733C1045.63 384.216 1045.83 383.587 1046.34 383.322V383.322C1046.97 382.994 1047.1 382.148 1046.61 381.642V381.642C1046.2 381.231 1046.2 380.569 1046.61 380.158V380.158C1047.1 379.651 1046.97 378.805 1046.34 378.478V378.478C1045.83 378.212 1045.63 377.584 1045.89 377.067V377.067C1046.2 376.431 1045.82 375.668 1045.12 375.552V375.552C1044.56 375.458 1044.17 374.923 1044.26 374.351V374.351C1044.36 373.648 1043.76 373.042 1043.06 373.149V373.149C1042.49 373.235 1041.96 372.847 1041.87 372.276V372.276C1041.76 371.574 1041 371.185 1040.37 371.504V371.504C1039.85 371.763 1039.23 371.559 1038.97 371.046V371.046C1038.64 370.414 1037.8 370.28 1037.3 370.78V370.78C1036.89 371.185 1036.23 371.185 1035.82 370.78Z" fill="#8C7FE5" stroke="#6052BF" stroke-width="0.72"/>
<path fill-rule="evenodd" clip-rule="evenodd" d="M1046.95 393.018C1043.57 392.555 1040.67 393.194 1038.78 395.109C1038.6 395.282 1038.45 395.48 1038.29 395.675V391.276C1037.95 391.362 1037.57 391.295 1037.3 391.021C1036.89 390.615 1036.23 390.615 1035.82 391.021C1035.55 391.295 1035.18 391.362 1034.84 391.276L1034.84 406.963H1038.29V403.47C1040.99 403.55 1043.29 402.855 1044.88 401.255C1046.78 399.341 1047.41 396.428 1046.95 393.018Z" fill="#6052BF"/>
<path fill-rule="evenodd" clip-rule="evenodd" d="M1036.56 382.638C1037.51 382.638 1038.29 381.86 1038.29 380.9C1038.29 379.94 1037.51 379.163 1036.56 379.163C1035.61 379.163 1034.84 379.94 1034.84 380.9C1034.84 381.86 1035.61 382.638 1036.56 382.638Z" fill="#F6B74E"/>
<path fill-rule="evenodd" clip-rule="evenodd" d="M1036.56 382.638C1037.51 382.638 1038.29 381.86 1038.29 380.9C1038.29 379.94 1037.51 379.163 1036.56 379.163C1035.61 379.163 1034.84 379.94 1034.84 380.9C1034.84 381.86 1035.61 382.638 1036.56 382.638Z" fill="#8C7FE5"/>
<path fill-rule="evenodd" clip-rule="evenodd" d="M1043.08 379.285C1043.5 379.504 1043.59 380.068 1043.26 380.405C1042.99 380.68 1042.99 381.12 1043.26 381.395C1043.59 381.732 1043.5 382.296 1043.08 382.514C1042.74 382.691 1042.61 383.111 1042.78 383.455C1042.99 383.879 1042.73 384.388 1042.27 384.465C1041.89 384.528 1041.63 384.885 1041.69 385.266C1041.76 385.735 1041.36 386.139 1040.89 386.068C1040.52 386.01 1040.16 386.269 1040.1 386.649C1040.02 387.117 1039.52 387.377 1039.1 387.164C1038.76 386.991 1038.34 387.128 1038.16 387.47C1037.95 387.891 1037.39 387.98 1037.05 387.647C1036.78 387.376 1036.34 387.376 1036.07 387.647C1035.74 387.98 1035.18 387.891 1034.96 387.47C1034.78 387.128 1034.37 386.991 1034.02 387.164C1033.6 387.377 1033.1 387.117 1033.02 386.649C1032.96 386.269 1032.61 386.01 1032.23 386.068C1031.76 386.139 1031.36 385.735 1031.43 385.266C1031.49 384.885 1031.23 384.528 1030.85 384.465C1030.39 384.388 1030.13 383.879 1030.34 383.455C1030.51 383.111 1030.38 382.691 1030.04 382.514C1029.62 382.296 1029.53 381.732 1029.86 381.395C1030.13 381.12 1030.13 380.68 1029.86 380.405C1029.53 380.068 1029.62 379.504 1030.04 379.285C1030.38 379.108 1030.51 378.689 1030.34 378.345C1030.13 377.92 1030.39 377.412 1030.85 377.334C1031.23 377.271 1031.49 376.915 1031.43 376.534C1031.36 376.065 1031.76 375.661 1032.23 375.732C1032.61 375.79 1032.96 375.531 1033.02 375.151C1033.1 374.683 1033.6 374.423 1034.02 374.636C1034.37 374.809 1034.78 374.672 1034.96 374.33C1035.18 373.909 1035.74 373.82 1036.07 374.153C1036.34 374.424 1036.78 374.424 1037.05 374.153C1037.39 373.82 1037.95 373.909 1038.16 374.33C1038.34 374.672 1038.76 374.809 1039.1 374.636C1039.52 374.423 1040.02 374.683 1040.1 375.151C1040.16 375.531 1040.52 375.79 1040.89 375.732C1041.36 375.661 1041.76 376.065 1041.69 376.534C1041.63 376.915 1041.89 377.271 1042.27 377.334C1042.73 377.412 1042.99 377.92 1042.78 378.345C1042.61 378.689 1042.74 379.108 1043.08 379.285ZM1034.84 380.9C1034.84 381.86 1035.61 382.638 1036.56 382.638C1037.51 382.638 1038.29 381.86 1038.29 380.9C1038.29 379.94 1037.51 379.163 1036.56 379.163C1035.61 379.163 1034.84 379.94 1034.84 380.9Z" fill="#6052BF"/>
<path fill-rule="evenodd" clip-rule="evenodd" d="M1050.36 406.963H1005.51C1004.57 406.963 1003.79 407.744 1003.79 408.7V415.65C1003.79 416.606 1004.57 417.388 1005.51 417.388H1007.24L1011.95 447.467C1012.22 449.156 1013.66 450.4 1015.36 450.4H1024.49H1027.94H1040.51C1042.21 450.4 1043.66 449.156 1043.92 447.467L1048.63 417.388H1050.36C1051.31 417.388 1052.08 416.606 1052.08 415.65V408.7C1052.08 407.744 1051.31 406.963 1050.36 406.963Z" fill="#7567DB" stroke="#6052BF" stroke-width="0.72"/>
<mask id="mask0" mask-type="alpha" maskUnits="userSpaceOnUse" x="1003" y="406" width="50" height="45">
<path fill-rule="evenodd" clip-rule="evenodd" d="M1050.36 406.963H1005.51C1004.57 406.963 1003.79 407.744 1003.79 408.7V415.65C1003.79 416.606 1004.57 417.388 1005.51 417.388H1007.24L1011.95 447.467C1012.22 449.156 1013.66 450.4 1015.36 450.4H1024.49H1027.94H1040.51C1042.21 450.4 1043.66 449.156 1043.92 447.467L1048.63 417.388H1050.36C1051.31 417.388 1052.08 416.606 1052.08 415.65V408.7C1052.08 407.744 1051.31 406.963 1050.36 406.963Z" fill="white" stroke="white" stroke-width="0.72"/>
</mask>
<g mask="url(#mask0)">
<rect x="1002.4" y="406.4" width="53.6" height="10.4" fill="#8C7FE5"/>
</g>
<path fill-rule="evenodd" clip-rule="evenodd" d="M274.395 209.059L264.415 210.64C263.312 210.814 262.56 211.849 262.734 212.95L271.263 266.801L285.237 264.588L276.708 210.737C276.533 209.636 275.498 208.884 274.395 209.059Z" fill="#6052BF"/>
<rect x="263.366" y="216.939" width="7.07368" height="4.03868" transform="rotate(-9 263.366 216.939)" fill="#8C7FE5"/>
<rect x="269.368" y="254.834" width="7.07368" height="4.03868" transform="rotate(-9 269.368 254.834)" fill="#8C7FE5"/>
<rect x="270.353" y="215.833" width="7.07368" height="4.03868" transform="rotate(-9 270.353 215.833)" fill="#8C7FE5"/>
<rect x="276.354" y="253.728" width="7.07368" height="4.03868" transform="rotate(-9 276.354 253.728)" fill="#8C7FE5"/>
<path fill-rule="evenodd" clip-rule="evenodd" d="M210.498 202.113H198.316C197.2 202.113 196.295 203.018 196.295 204.133V266.732H212.519V204.133C212.519 203.018 211.614 202.113 210.498 202.113Z" fill="#6052BF"/>
<rect x="196.295" y="208.171" width="8.08421" height="4.03868" fill="#8C7FE5"/>
<rect x="204.379" y="208.171" width="8.08421" height="4.03868" fill="#8C7FE5"/>
<rect x="196.295" y="256.635" width="8.08421" height="4.03868" fill="#8C7FE5"/>
<rect x="204.379" y="256.635" width="8.08421" height="4.03868" fill="#8C7FE5"/>
<path fill-rule="evenodd" clip-rule="evenodd" d="M188.211 295.003C187.458 295.003 186.75 294.582 186.403 293.887L176.297 273.693C175.798 272.695 176.203 271.483 177.201 270.984C178.198 270.487 179.414 270.889 179.913 271.887L186.19 284.43V272.79C186.19 271.675 187.093 270.771 188.211 270.771C189.328 270.771 190.232 271.675 190.232 272.79V292.984C190.232 293.92 189.586 294.734 188.674 294.949C188.521 294.985 188.364 295.003 188.211 295.003Z" fill="#6052BF"/>
<path fill-rule="evenodd" clip-rule="evenodd" d="M277.192 295.003C277.038 295.003 276.882 294.985 276.728 294.949C275.816 294.734 275.171 293.92 275.171 292.984V272.79C275.171 271.675 276.075 270.771 277.192 270.771C278.309 270.771 279.213 271.675 279.213 272.79V284.43L285.489 271.887C285.991 270.889 287.202 270.487 288.201 270.984C289.2 271.483 289.604 272.695 289.105 273.693L279 293.887C278.652 294.582 277.944 295.003 277.192 295.003Z" fill="#6052BF"/>
<path fill-rule="evenodd" clip-rule="evenodd" d="M295.437 274.809H170.021C168.905 274.809 168 273.905 168 272.79V268.751C168 267.636 168.905 266.732 170.021 266.732H295.437C296.553 266.732 297.458 267.636 297.458 268.751V272.79C297.458 273.905 296.553 274.809 295.437 274.809Z" fill="#8C7FE5" stroke="#6052BF" stroke-width="0.8"/>
<path fill-rule="evenodd" clip-rule="evenodd" d="M230.653 202.113H226.61C225.494 202.113 224.589 203.018 224.589 204.133V266.732H232.674V204.133C232.674 203.018 231.769 202.113 230.653 202.113Z" fill="#6052BF"/>
<path fill-rule="evenodd" clip-rule="evenodd" d="M260.968 202.113H256.926C255.81 202.113 254.905 203.018 254.905 204.133V266.732H262.989V204.133C262.989 203.018 262.085 202.113 260.968 202.113Z" fill="#8C7FE5" stroke="#6052BF" stroke-width="0.8"/>
<path fill-rule="evenodd" clip-rule="evenodd" d="M194.274 208.171H190.232C189.115 208.171 188.21 209.075 188.21 210.191V266.511C188.21 266.633 188.309 266.732 188.432 266.732H196.295V210.191C196.295 209.075 195.39 208.171 194.274 208.171Z" fill="#8C7FE5" stroke="#6052BF" stroke-width="0.8"/>
<path fill-rule="evenodd" clip-rule="evenodd" d="M186.647 214.286L180.585 214.18C179.469 214.161 178.548 215.049 178.529 216.164L177.648 266.64L187.751 266.816L188.632 216.341C188.652 215.226 187.763 214.306 186.647 214.286Z" fill="#6052BF"/>
<path fill-rule="evenodd" clip-rule="evenodd" d="M252.884 196.055H242.779C241.663 196.055 240.758 196.959 240.758 198.075V266.732H254.905V198.075C254.905 196.959 254 196.055 252.884 196.055Z" fill="#6052BF"/>
<path fill-rule="evenodd" clip-rule="evenodd" d="M238.737 210.191H234.695C233.579 210.191 232.674 211.095 232.674 212.21V266.732H240.758V212.21C240.758 211.095 239.853 210.191 238.737 210.191Z" fill="#8C7FE5" stroke="#6052BF" stroke-width="0.8"/>
<rect x="236.771" y="216.249" width="4.04211" height="4.03868" fill="#6052BF"/>
<path fill-rule="evenodd" clip-rule="evenodd" d="M236.771 254.616H240.813V258.655H236.771V254.616ZM232.674 254.616H236.716V258.655H232.674V254.616Z" fill="#6052BF"/>
<rect x="232.674" y="216.249" width="4.04211" height="4.03868" fill="#6052BF"/>
<path fill-rule="evenodd" clip-rule="evenodd" d="M222.569 206.152H214.484C213.368 206.152 212.463 207.056 212.463 208.171V266.732H224.59V208.171C224.59 207.056 223.685 206.152 222.569 206.152Z" fill="#8C7FE5" stroke="#6052BF" stroke-width="0.8"/>
<path fill-rule="evenodd" clip-rule="evenodd" d="M594.902 330.281L595.521 333.323C595.813 334.759 597.872 334.759 598.165 333.323L598.784 330.281C599.393 327.284 601.744 324.941 604.752 324.334L607.805 323.717C609.246 323.426 609.246 321.374 607.805 321.083L604.752 320.466C601.744 319.858 599.393 317.516 598.784 314.519L598.165 311.477C597.872 310.041 595.813 310.041 595.521 311.477L594.902 314.519C594.292 317.516 591.941 319.859 588.933 320.466L585.881 321.083C584.44 321.374 584.44 323.426 585.881 323.717L588.933 324.334C591.941 324.941 594.292 327.284 594.902 330.281Z" fill="white"/>
<path fill-rule="evenodd" clip-rule="evenodd" d="M704.466 187.938L704.838 189.765C705.013 190.627 706.25 190.627 706.425 189.765L706.797 187.938C707.163 186.139 708.575 184.732 710.381 184.367L712.214 183.997C713.079 183.822 713.079 182.59 712.214 182.415L710.381 182.045C708.575 181.68 707.163 180.273 706.797 178.473L706.425 176.647C706.25 175.784 705.013 175.784 704.838 176.647L704.466 178.473C704.1 180.273 702.688 181.68 700.882 182.045L699.049 182.415C698.184 182.59 698.184 183.822 699.049 183.997L700.882 184.367C702.688 184.732 704.1 186.139 704.466 187.938Z" fill="white"/>
<path fill-rule="evenodd" clip-rule="evenodd" d="M626.066 471.138L626.438 472.965C626.613 473.827 627.85 473.827 628.025 472.965L628.397 471.138C628.763 469.339 630.175 467.932 631.981 467.567L633.814 467.197C634.679 467.022 634.679 465.79 633.814 465.615L631.981 465.245C630.175 464.88 628.763 463.473 628.397 461.673L628.025 459.847C627.85 458.984 626.613 458.984 626.438 459.847L626.066 461.673C625.7 463.473 624.288 464.88 622.482 465.245L620.649 465.615C619.784 465.79 619.784 467.022 620.649 467.197L622.482 467.567C624.288 467.932 625.7 469.339 626.066 471.138Z" fill="white"/>
<path fill-rule="evenodd" clip-rule="evenodd" d="M742.866 531.138L743.238 532.965C743.413 533.827 744.65 533.827 744.826 532.965L745.197 531.138C745.563 529.339 746.975 527.932 748.781 527.567L750.614 527.197C751.48 527.022 751.48 525.79 750.614 525.615L748.781 525.245C746.975 524.88 745.563 523.473 745.197 521.673L744.826 519.847C744.65 518.984 743.413 518.984 743.238 519.847L742.866 521.673C742.5 523.473 741.089 524.88 739.282 525.245L737.449 525.615C736.584 525.79 736.584 527.022 737.449 527.197L739.282 527.567C741.089 527.932 742.5 529.339 742.866 531.138Z" fill="white"/>
<path fill-rule="evenodd" clip-rule="evenodd" d="M760.764 260.422L761.35 263.302C761.627 264.661 763.576 264.661 763.853 263.302L764.439 260.422C765.016 257.585 767.242 255.367 770.089 254.792L772.979 254.208C774.343 253.932 774.343 251.989 772.979 251.714L770.089 251.13C767.242 250.555 765.016 248.337 764.439 245.499L763.853 242.62C763.576 241.26 761.627 241.26 761.35 242.62L760.764 245.499C760.187 248.337 757.961 250.555 755.113 251.13L752.224 251.714C750.859 251.989 750.859 253.932 752.224 254.208L755.113 254.792C757.961 255.367 760.187 257.585 760.764 260.422Z" fill="white"/>
<path d="M717.142 341.738C717.142 341.738 722.334 349.983 724.416 355.324C726.499 360.665 728.985 373.963 728.985 373.963C728.985 373.963 734.028 380.85 742.917 384.112C751.805 387.374 761.691 388.13 761.691 388.13C761.691 388.13 768.232 386.72 770.219 387.192C772.206 387.664 773.251 389.338 774.598 389.792C779.52 391.451 782.195 391.417 782.195 391.9C782.195 392.823 781.104 393.662 781.104 393.662C781.104 393.662 790.498 395.91 790.901 397.919C791.305 399.929 786.223 401.442 782.719 402.423C779.214 403.404 773.594 404.117 770.219 403C766.843 401.883 765.995 401.011 763.724 399.849C761.453 398.688 759.937 398.449 759.937 398.449C759.937 398.449 754.441 399.048 746.059 398.038C737.676 397.028 722.314 393.244 722.314 393.244C722.314 393.244 720.198 391.861 718.157 385.214C716.115 378.567 713.989 366.139 713.989 366.139L717.142 341.738Z" fill="#F3B78B" stroke="#D59B86" stroke-width="0.64"/>
<path d="M773.665 394.182L781.507 394.082" stroke="#E6A67D" stroke-width="0.64"/>
<path d="M772.093 393.096C772.093 393.096 770.8 395.012 770.013 395.779C769.226 396.546 767.932 397.152 767.932 397.152" stroke="#E6A67D" stroke-width="0.64"/>
<path d="M761.567 391.499C761.797 391.499 763.155 392.321 765.439 392.321C766.325 392.321 768.459 391.499 768.459 391.499" stroke="#E6A67D" stroke-width="0.64"/>
<path d="M681.043 327.086C681.043 327.086 682.232 331.622 681.553 333.452C680.875 335.283 676.193 339.046 676.193 339.046C676.193 339.046 684.648 341.531 689.021 341.43C693.395 341.328 703.442 338.28 703.442 338.28C703.442 338.28 699.556 335.402 698.655 333.452C697.754 331.503 697.651 327.086 697.651 327.086H681.043Z" fill="#E1A078"/>
<path d="M684.338 490.146L682.384 548.376L686.223 554.987C686.223 554.987 668.967 557.236 669.452 556.698C669.666 556.462 669.991 555.108 670.728 553.005C671.11 551.917 672.562 549.106 672.562 549.106L665.417 491.901L684.338 490.146Z" fill="#F3B78B" stroke="#D59B86" stroke-width="0.64"/>
<path d="M694.821 491.23L697.795 549.417L694.072 556.094C694.072 556.094 711.365 558.042 710.87 557.513C710.653 557.28 710.304 555.932 709.53 553.843C709.129 552.762 707.628 549.976 707.628 549.976L713.77 492.656L694.821 491.23Z" fill="#F3B78B" stroke="#D59B86" stroke-width="0.64"/>
<path d="M665.817 560.411C665.817 560.411 665.015 554.184 676.045 553.163C687.075 552.142 690.602 556.659 690.602 556.659C690.602 556.659 695.472 551.921 705.457 553.163C715.442 554.405 715.442 560.411 715.442 560.411H665.817Z" fill="#DA3337"/>
<path d="M663.209 364.311C663.209 364.311 664.295 375.594 665.044 381.149C665.612 385.36 666.716 391.699 667.217 394.519C667.383 395.458 667.248 396.419 666.855 397.288C664.777 401.877 658.053 417.929 655.611 438.446C652.707 462.846 653.43 490.426 653.43 490.426H728.091C728.091 490.426 728.962 463.299 725.233 440.346C722.062 420.827 714.312 402.407 712.065 397.333C711.667 396.435 711.56 395.446 711.772 394.487C712.422 391.55 713.872 384.931 714.596 381.149C715.545 376.186 717.038 366.722 717.038 366.722L728.091 365.354C728.091 365.354 725.56 350.377 721.169 345.432C713.403 336.686 702.431 337.42 702.025 337.42C701.627 337.42 696.322 340.007 688.905 340.311C685.152 340.465 676.348 338.454 676.348 338.454C676.348 338.454 666.134 337.543 659.671 343.726C653.209 349.909 652.676 361.806 652.676 361.806L663.209 364.311Z" fill="#1E2147"/>
<path d="M665.044 381.149C665.612 385.36 666.716 391.699 667.217 394.519C667.383 395.458 667.248 396.419 666.855 397.288C664.777 401.877 658.053 417.929 655.611 438.446C653.351 457.434 653.288 479.874 653.371 488.894C653.392 491.151 655.231 492.946 657.488 492.946H724.055C726.303 492.946 728.138 491.166 728.161 488.918C728.251 480.043 728.129 458.176 725.233 440.346C722.062 420.826 714.312 402.407 712.065 397.333C711.667 396.435 711.56 395.446 711.772 394.487C712.422 391.55 713.872 384.931 714.596 381.149C715.545 376.186 717.038 366.722 717.038 366.722C717.038 366.722 707.414 337.913 707.025 337.782C706.862 337.728 705.743 337.565 704.575 337.472C703.88 337.417 702.363 337.424 702.363 337.424C702.363 337.424 707.216 365.52 702.025 377.251C699.63 382.665 682.421 382.883 677.664 378.123C672.908 373.364 676.751 338.557 676.751 338.557C676.751 338.557 674.692 338.333 673.6 338.333C672.508 338.333 670.723 338.557 670.723 338.557L663.262 364.392C663.262 364.392 665.025 381.006 665.044 381.149Z" fill="#48BF82"/>
<path d="M653.832 362.4C652.64 367.374 651.264 379.373 649.567 385.6C645.781 399.487 642.068 431.904 642.068 431.904C642.068 431.904 641.159 435.399 641.159 437.815C641.159 440.231 643.751 444.793 643.751 444.793C643.751 444.793 652.773 448.93 654.302 448.93C655.831 448.93 656.616 447.889 657.099 446.848C657.582 445.807 657.099 442.887 657.099 442.887C657.099 442.887 657.192 436.96 656.698 435.399C656.203 433.837 653.516 430.194 653.516 430.194C653.516 430.194 657.794 402.129 659.988 394.081C660.369 392.687 662.799 386.49 665.057 379.819C664.825 376.186 664.137 373.405 663.826 371.2C663.346 367.793 663.232 365.734 662.938 363.83C656.698 363.2 659.169 363.522 653.832 362.4Z" fill="#F3B78B" stroke="#D59B86" stroke-width="0.5"/>
<path d="M652.676 437.815C652.676 437.815 653.286 440.473 653.286 441.949C653.286 443.424 654.462 444.471 654.838 445.303C655.213 446.134 655.389 445.371 656.038 444.793C656.687 444.215 656.999 443.205 656.999 443.205" stroke="#D59B86" stroke-width="0.52"/>
<path d="M649.557 443.864C649.557 443.989 650.085 445.038 651.58 446.848C652.093 447.47 653.603 448.93 653.603 448.93" stroke="#D59B86" stroke-width="0.52"/>
<path d="M646.843 444.115C646.843 444.115 647.106 445.25 647.676 445.921C648.245 446.591 649.909 447.726 649.909 447.726" stroke="#D59B86" stroke-width="0.52"/>
<path d="M689.778 349.456C691.36 349.456 692.642 348.187 692.642 346.622C692.642 345.057 691.36 343.788 689.778 343.788C688.196 343.788 686.914 345.057 686.914 346.622C686.914 348.187 688.196 349.456 689.778 349.456Z" fill="#FFDE63"/>
<path d="M689.778 362.702C691.36 362.702 692.642 361.434 692.642 359.869C692.642 358.304 691.36 357.035 689.778 357.035C688.196 357.035 686.914 358.304 686.914 359.869C686.914 361.434 688.196 362.702 689.778 362.702Z" fill="#FFDE63"/>
<path d="M689.778 375.003C691.36 375.003 692.642 373.734 692.642 372.169C692.642 370.604 691.36 369.335 689.778 369.335C688.196 369.335 686.914 370.604 686.914 372.169C686.914 373.734 688.196 375.003 689.778 375.003Z" fill="#FFDE63"/>
<path d="M663.826 404.356L714.885 404L711.857 396.13H667.023L663.826 404.356Z" fill="#4C5B9D"/>
<path d="M686.886 257.769C700.676 258.729 712.5 250.314 713.296 238.972C714.092 227.63 703.558 217.656 689.769 216.695C675.979 215.735 664.155 224.15 663.359 235.492C662.563 246.834 673.097 256.808 686.886 257.769Z" fill="#3C1715"/>
<path d="M646.246 304.016C649.691 304.016 652.483 300.319 652.483 295.758C652.483 291.198 649.691 287.501 646.246 287.501C642.802 287.501 640.009 291.198 640.009 295.758C640.009 300.319 642.802 304.016 646.246 304.016Z" fill="#E1A078"/>
<path d="M725.734 300.235C729.179 300.235 731.971 296.538 731.971 291.978C731.971 287.417 729.179 283.72 725.734 283.72C722.289 283.72 719.497 287.417 719.497 291.978C719.497 296.538 722.289 300.235 725.734 300.235Z" fill="#E1A078"/>
<path d="M687.396 329.845C709.768 329.845 727.904 313.087 727.904 292.416C727.904 271.744 709.768 254.987 687.396 254.987C665.024 254.987 646.888 271.744 646.888 292.416C646.888 313.087 665.024 329.845 687.396 329.845Z" fill="#F3B78B"/>
<path d="M641.984 289.686C641.984 289.686 642.487 238.34 685.433 238.34C728.38 238.34 729.856 285.834 729.856 285.834C729.856 285.834 705.619 277.661 696.245 273.74C688.67 270.571 679.986 264.642 669.79 264.642C665.068 264.642 657.727 267.468 652.115 274.557C649.648 277.673 647.203 287.566 647.203 287.566C647.203 287.566 645.636 287.402 644.655 287.802C643.673 288.201 641.984 289.686 641.984 289.686Z" fill="#53231B"/>
<path d="M647.167 287.534C647.167 287.534 647.111 247.859 685.708 247.859C724.304 247.859 727.177 284.843 727.177 284.843C727.177 284.843 709.256 279.801 697.681 274.448C689.327 270.584 675.705 263.399 667.032 264.888C655.23 266.915 647.167 287.534 647.167 287.534Z" fill="#723322"/>
<path d="M665.996 301.111C667.684 301.111 669.053 299.08 669.053 296.575C669.053 294.069 667.684 292.038 665.996 292.038C664.307 292.038 662.938 294.069 662.938 296.575C662.938 299.08 664.307 301.111 665.996 301.111Z" fill="black"/>
<path d="M704.211 299.599C705.899 299.599 707.268 297.568 707.268 295.062C707.268 292.557 705.899 290.525 704.211 290.525C702.523 290.525 701.154 292.557 701.154 295.062C701.154 297.568 702.523 299.599 704.211 299.599Z" fill="black"/>
<path d="M665.995 296.575C666.84 296.575 667.524 295.897 667.524 295.062C667.524 294.227 666.84 293.55 665.995 293.55C665.151 293.55 664.467 294.227 664.467 295.062C664.467 295.897 665.151 296.575 665.995 296.575Z" fill="white"/>
<path d="M704.211 295.062C705.055 295.062 705.739 294.385 705.739 293.55C705.739 292.715 705.055 292.038 704.211 292.038C703.367 292.038 702.682 292.715 702.682 293.55C702.682 294.385 703.367 295.062 704.211 295.062Z" fill="white"/>
<path d="M662.556 313.21C665.3 313.21 667.524 311.009 667.524 308.295C667.524 305.58 665.3 303.38 662.556 303.38C659.813 303.38 657.588 305.58 657.588 308.295C657.588 311.009 659.813 313.21 662.556 313.21Z" fill="#EFA481"/>
<path d="M714.147 308.673C717.101 308.673 719.497 306.303 719.497 303.38C719.497 300.457 717.101 298.087 714.147 298.087C711.192 298.087 708.796 300.457 708.796 303.38C708.796 306.303 711.192 308.673 714.147 308.673Z" fill="#EFA481"/>
<path d="M727.177 305.648C729.288 305.648 730.999 303.617 730.999 301.111C730.999 298.606 729.288 296.575 727.177 296.575C725.066 296.575 723.355 298.606 723.355 301.111C723.355 303.617 725.066 305.648 727.177 305.648Z" fill="#DA3337"/>
<path d="M646.888 307.16C648.998 307.16 650.709 305.129 650.709 302.624C650.709 300.118 648.998 298.087 646.888 298.087C644.777 298.087 643.066 300.118 643.066 302.624C643.066 305.129 644.777 307.16 646.888 307.16Z" fill="#DA3337"/>
<path d="M672.944 310.323C672.944 310.323 683.2 311.7 688.813 311.6C694.426 311.5 703.622 309.411 703.622 309.411C703.622 309.411 697.841 321.588 689.223 322.036C680.605 322.485 672.944 310.323 672.944 310.323Z" fill="#AA4F44"/>
<path d="M673.163 310.432C673.163 310.432 683.24 311.891 688.852 311.861C694.465 311.831 703.304 309.613 703.304 309.613C703.304 309.613 697.841 314.583 689.223 314.717C680.606 314.851 673.163 310.432 673.163 310.432Z" fill="white"/>
<path d="M679.245 317.962C679.245 317.962 681.605 317.996 686.358 317.962C691.111 317.927 697.832 317.962 697.832 317.962C697.832 317.962 693.527 322.015 688.551 322.015C683.574 322.015 679.245 317.962 679.245 317.962Z" fill="#CC5F54"/>
<path d="M689.199 293.933C689.199 293.933 690.857 300.73 690.009 302.467C689.161 304.204 683.82 303.993 683.82 303.993C683.82 303.993 687.718 302.668 688.573 300.918C689.428 299.167 689.199 293.933 689.199 293.933Z" fill="#CC8D66"/>
<path d="M667.659 283.452C667.659 283.452 662.213 283.097 660.594 283.943C658.975 284.789 658.471 288.254 658.471 288.254C658.471 288.254 660.747 286.245 662.373 285.801C663.999 285.356 667.45 285.801 667.45 285.801L667.659 283.452Z" fill="#3C1715"/>
<path d="M702.682 283.825C702.682 283.825 708.128 283.47 709.747 284.316C711.366 285.162 711.87 288.627 711.87 288.627C711.87 288.627 709.593 286.618 707.967 286.174C706.341 285.729 702.891 286.174 702.891 286.174L702.682 283.825Z" fill="#3C1715"/>
<path d="M689.495 409.225C694.138 409.225 697.901 405.46 697.901 400.817C697.901 396.174 694.138 392.41 689.495 392.41C684.853 392.41 681.089 396.174 681.089 400.817C681.089 405.46 684.853 409.225 689.495 409.225Z" fill="#4C5B9D" stroke="#7567DB" stroke-width="1.04"/>
<mask id="mask1" mask-type="alpha" maskUnits="userSpaceOnUse" x="680" y="391" width="19" height="19">
<path d="M689.495 409.225C694.138 409.225 697.901 405.46 697.901 400.817C697.901 396.174 694.138 392.41 689.495 392.41C684.853 392.41 681.089 396.174 681.089 400.817C681.089 405.46 684.853 409.225 689.495 409.225Z" fill="white" stroke="white" stroke-width="1.04"/>
</mask>
<g mask="url(#mask1)">
<path fill-rule="evenodd" clip-rule="evenodd" d="M694.383 408.723C694.098 408.723 693.877 408.641 693.719 408.477C693.562 408.313 693.483 408.093 693.483 407.815V404.249L690.193 404.235C689.698 404.225 689.248 404.155 688.844 404.026C687.46 403.57 686.768 402.58 686.768 401.056V398.608C686.773 398.29 686.86 398.054 687.03 397.9C687.19 397.762 687.397 397.692 687.652 397.692C687.927 397.692 688.149 397.767 688.319 397.915C688.474 398.054 688.551 398.263 688.551 398.541V400.61C688.551 401.314 688.743 401.838 689.125 402.18C689.507 402.523 690.153 402.694 691.062 402.694H691.999C692.854 402.704 693.348 402.709 693.483 402.709V398.6C693.483 398.312 693.563 398.087 693.723 397.923C693.868 397.769 694.088 397.692 694.383 397.692C694.668 397.692 694.886 397.771 695.039 397.93C695.191 398.089 695.267 398.312 695.267 398.6V407.815C695.267 408.093 695.188 408.313 695.031 408.477C694.874 408.641 694.658 408.723 694.383 408.723Z" fill="#FFDE63"/>
</g>
<g filter="url(#filter0_d)">
<path fill-rule="evenodd" clip-rule="evenodd" d="M465.096 206.895C469.504 248.834 514.471 258.632 568.079 252.997C576.853 252.892 585.519 252.053 593.814 250.509C597.938 254.921 603.805 260.972 607.439 263.738C611.743 267.016 618.867 269.798 622.648 271.139C623.283 271.364 623.755 270.589 623.278 270.114C620.255 267.098 614.524 261.233 612.689 258.33C609.515 253.309 608.133 249.537 607.53 247.206C639.276 237.697 662.41 216.779 659.226 186.491C655.327 149.388 609.873 134.968 556.266 140.602C502.658 146.236 461.025 168.163 465.096 206.895Z" fill="white"/>
</g>
<path opacity="0.8" d="M531.586 187.944C531.267 187.978 531.007 187.91 530.805 187.741C530.608 187.572 530.493 187.327 530.46 187.008L529.423 177.146L523.252 177.794L524.289 187.657C524.322 187.976 524.258 188.239 524.095 188.446C523.939 188.653 523.703 188.773 523.39 188.806C523.071 188.839 522.81 188.772 522.608 188.603C522.412 188.433 522.297 188.189 522.263 187.87L521.151 177.289C521.117 176.959 521.175 176.693 521.327 176.493C521.484 176.292 521.728 176.174 522.059 176.139L530.255 175.278C530.58 175.244 530.837 175.309 531.027 175.473C531.223 175.637 531.338 175.884 531.373 176.215L532.485 186.795C532.519 187.115 532.454 187.378 532.292 187.585C532.135 187.791 531.9 187.911 531.586 187.944ZM541.759 185.337C541.067 186.366 540.119 186.944 538.917 187.07C537.515 187.217 536.494 186.924 535.852 186.191L536.273 190.113C536.307 190.438 536.249 190.706 536.098 190.918C535.948 191.135 535.722 191.26 535.42 191.291C535.136 191.321 534.897 191.248 534.706 191.073C534.496 190.882 534.374 190.629 534.342 190.316L533.179 179.257C533.146 178.938 533.211 178.66 533.377 178.424C533.528 178.218 533.746 178.1 534.031 178.07C534.623 178.007 535.003 178.356 535.169 179.117C535.69 178.209 536.634 177.684 538.002 177.54C539.272 177.406 540.331 177.808 541.179 178.744C541.954 179.596 542.411 180.683 542.55 182.005C542.681 183.258 542.418 184.369 541.759 185.337ZM539.786 180.126C539.219 179.448 538.531 179.152 537.722 179.237C536.89 179.325 536.268 179.733 535.855 180.462C535.52 181.056 535.394 181.749 535.477 182.541C535.562 183.35 535.829 184.027 536.278 184.574C536.833 185.247 537.532 185.539 538.375 185.451C539.167 185.367 539.768 184.973 540.178 184.267C540.549 183.635 540.692 182.909 540.606 182.088C540.528 181.347 540.255 180.693 539.786 180.126ZM551.469 185.88C550.933 185.937 550.601 185.6 550.472 184.87C549.948 185.749 548.974 186.264 547.55 186.413C546.513 186.522 545.658 186.313 544.986 185.784C544.314 185.256 543.926 184.49 543.82 183.487L543.27 178.248C543.235 177.923 543.304 177.64 543.474 177.397C543.619 177.186 543.839 177.065 544.136 177.034C544.432 177.002 544.676 177.075 544.867 177.251C545.066 177.443 545.183 177.707 545.218 178.043L545.719 182.812C545.789 183.473 546.042 183.994 546.48 184.374C546.925 184.771 547.489 184.933 548.173 184.861C548.862 184.789 549.38 184.51 549.727 184.024C550.058 183.563 550.19 183.005 550.121 182.35L549.62 177.581C549.586 177.256 549.651 176.972 549.816 176.73C549.966 176.519 550.184 176.398 550.469 176.368C550.776 176.336 551.026 176.407 551.217 176.583C551.416 176.775 551.533 177.04 551.568 177.376L552.336 184.675C552.368 184.988 552.308 185.259 552.153 185.489C551.999 185.718 551.771 185.849 551.469 185.88ZM561.971 183.04C561.854 183.455 561.681 183.759 561.453 183.95C560.804 184.508 559.889 184.848 558.709 184.972L554.966 185.366C554.635 185.401 554.371 185.319 554.171 185.121C553.952 184.902 553.823 184.605 553.784 184.229L553.052 177.272C553.012 176.884 553.078 176.552 553.25 176.274C553.393 176.046 553.627 175.915 553.952 175.881L557.439 175.514C558.806 175.371 559.783 175.706 560.37 176.52C560.545 176.755 560.648 177.026 560.68 177.334C560.734 177.847 560.657 178.319 560.449 178.75C560.216 179.223 559.859 179.552 559.377 179.735C561.005 179.604 561.903 180.331 562.069 181.915C562.109 182.296 562.077 182.671 561.971 183.04ZM556.817 177.083L555.005 177.274L555.253 179.633L557.065 179.442C558.319 179.31 558.901 178.823 558.813 177.98C558.736 177.25 558.071 176.952 556.817 177.083ZM557.742 180.952L555.418 181.197L555.69 183.786L558.228 183.519C559.641 183.371 560.302 182.861 560.21 181.989C560.121 181.134 559.298 180.789 557.742 180.952ZM570.908 179.689L564.575 180.355C564.682 181.202 565.117 181.836 565.881 182.257C566.487 182.591 567.168 182.718 567.926 182.638C568.382 182.591 568.868 182.424 569.386 182.139C569.466 182.079 569.845 181.826 570.524 181.38C570.67 181.284 570.802 181.23 570.922 181.218C571.099 181.199 571.266 181.256 571.424 181.389C571.595 181.538 571.691 181.713 571.712 181.912C571.756 182.328 571.391 182.778 570.619 183.263C569.755 183.814 568.827 184.142 567.836 184.247C566.434 184.394 565.244 184.055 564.264 183.231C563.29 182.406 562.73 181.292 562.582 179.891C562.443 178.563 562.76 177.363 563.535 176.291C564.278 175.256 565.297 174.671 566.59 174.535C567.525 174.437 568.406 174.624 569.233 175.096C570.036 175.559 570.664 176.213 571.116 177.058C571.382 177.56 571.543 178.079 571.599 178.615C571.668 179.275 571.438 179.634 570.908 179.689ZM568.603 176.501C568.099 176.093 567.48 175.928 566.745 176.005C566.027 176.081 565.456 176.377 565.032 176.894C564.828 177.146 564.663 177.463 564.536 177.845C564.413 178.203 564.358 178.509 564.373 178.76L569.655 178.205C569.501 177.507 569.15 176.939 568.603 176.501ZM585.576 182.27C585.302 182.298 585.073 182.225 584.887 182.048C584.681 181.845 584.561 181.581 584.527 181.257L584.026 176.487C583.96 175.861 583.742 175.348 583.372 174.949C582.976 174.53 582.462 174.353 581.83 174.42C581.186 174.487 580.714 174.767 580.415 175.26C580.135 175.727 580.029 176.274 580.095 176.901L580.596 181.67C580.631 182.006 580.572 182.289 580.417 182.518C580.284 182.728 580.069 182.848 579.772 182.88C579.482 182.91 579.249 182.837 579.075 182.659C578.876 182.467 578.759 182.203 578.724 181.866L578.223 177.097C578.157 176.471 577.939 175.958 577.569 175.559C577.173 175.14 576.659 174.963 576.027 175.03C574.711 175.168 574.132 175.995 574.291 177.511L574.793 182.28C574.828 182.616 574.771 182.895 574.622 183.119C574.477 183.335 574.26 183.459 573.969 183.49C573.696 183.518 573.466 183.445 573.281 183.268C573.075 183.065 572.955 182.801 572.921 182.476L572.155 175.186C572.121 174.861 572.183 174.578 572.342 174.337C572.487 174.126 572.696 174.006 572.969 173.977C573.209 173.952 573.424 174.024 573.614 174.194C573.81 174.358 573.936 174.573 573.993 174.837C574.442 174.07 575.334 173.616 576.667 173.476C577.71 173.367 578.579 173.713 579.274 174.516C579.521 174.075 579.928 173.698 580.494 173.385C581.006 173.106 581.525 172.94 582.049 172.885C583.188 172.765 584.079 172.965 584.721 173.485C585.363 173.999 585.739 174.778 585.848 175.821L586.399 181.06C586.434 181.396 586.377 181.676 586.228 181.899C586.084 182.115 585.866 182.239 585.576 182.27ZM590.652 177.537C590.431 177.738 590.133 177.859 589.756 177.899C589.403 177.936 589.098 177.879 588.84 177.727C588.601 177.597 588.469 177.409 588.444 177.164L587.692 170.01C587.664 169.742 587.747 169.521 587.941 169.345C588.135 169.163 588.429 169.051 588.822 169.01C589.637 168.924 590.075 169.172 590.136 169.753L590.888 176.907C590.915 177.163 590.836 177.373 590.652 177.537ZM590.177 181.898C589.841 181.934 589.529 181.877 589.243 181.729C588.914 181.556 588.732 181.31 588.699 180.991C588.665 180.666 588.791 180.388 589.078 180.156C589.327 179.951 589.62 179.831 589.956 179.796C590.292 179.761 590.603 179.817 590.89 179.966C591.218 180.133 591.4 180.379 591.434 180.703C591.467 181.023 591.341 181.301 591.055 181.538C590.806 181.743 590.513 181.863 590.177 181.898ZM491.95 214.913C491.642 214.946 491.39 214.877 491.194 214.707C490.998 214.544 490.884 214.305 490.851 213.992L490.543 211.06L482.919 211.862L483.227 214.793C483.26 215.106 483.198 215.364 483.04 215.564C482.883 215.771 482.651 215.891 482.343 215.923C482.024 215.956 481.767 215.888 481.57 215.719C481.374 215.555 481.26 215.317 481.227 215.003L480.844 211.362C480.795 210.889 480.966 210.546 481.358 210.332C481.379 210.307 481.414 210.286 481.464 210.269C481.52 210.252 481.614 210.219 481.747 210.17C482.57 209.888 482.893 208.903 482.716 207.217L482.708 207.14L481.975 200.494C481.941 200.175 482.003 199.909 482.159 199.697C482.306 199.509 482.542 199.398 482.867 199.363L488.927 198.726C489.257 198.692 489.514 198.751 489.697 198.905C489.893 199.074 490.009 199.321 490.043 199.646L491.049 209.218C491.559 209.194 491.92 209.256 492.132 209.407C492.319 209.543 492.431 209.787 492.468 210.141L492.851 213.782C492.884 214.095 492.821 214.352 492.664 214.553C492.507 214.76 492.269 214.88 491.95 214.913ZM488.109 200.567L484.049 200.993L484.569 206.106C484.709 207.439 484.648 208.719 484.385 209.945L489.043 209.455L488.109 200.567ZM501.325 210.221C500.664 210.29 500.27 209.888 500.144 209.014C499.783 210.02 498.873 210.599 497.414 210.753C496.509 210.848 495.686 210.669 494.947 210.217C494.244 209.778 493.693 209.139 493.294 208.3C493.013 207.707 492.835 207.052 492.759 206.334C492.624 205.052 492.869 203.903 493.494 202.887C494.178 201.772 495.144 201.149 496.391 201.018C497.736 200.877 498.758 201.253 499.457 202.148C499.403 201.641 499.496 201.262 499.735 201.012C499.901 200.839 500.098 200.741 500.326 200.717C500.73 200.674 501.009 200.778 501.162 201.027C501.26 201.189 501.334 201.515 501.386 202.005L502.095 208.749C502.156 209.336 502.101 209.742 501.929 209.967C501.823 210.105 501.621 210.19 501.325 210.221ZM498.131 202.857C497.779 202.687 497.381 202.625 496.937 202.672C496.116 202.758 495.502 203.162 495.094 203.885C494.736 204.533 494.601 205.282 494.691 206.131C494.777 206.951 495.053 207.634 495.519 208.178C496.071 208.823 496.766 209.101 497.603 209.013C498.401 208.93 499.001 208.527 499.403 207.805C499.762 207.162 499.898 206.425 499.81 205.593C499.67 204.26 499.11 203.348 498.131 202.857ZM511.797 207.418C511.679 207.833 511.507 208.137 511.279 208.328C510.629 208.886 509.715 209.227 508.535 209.351L504.792 209.744C504.461 209.779 504.196 209.697 503.997 209.499C503.778 209.28 503.649 208.983 503.609 208.607L502.878 201.65C502.837 201.262 502.903 200.93 503.076 200.653C503.219 200.424 503.453 200.293 503.777 200.259L507.264 199.893C508.632 199.749 509.609 200.084 510.196 200.898C510.37 201.133 510.474 201.404 510.506 201.712C510.56 202.225 510.483 202.697 510.275 203.128C510.042 203.601 509.685 203.93 509.203 204.113C510.831 203.982 511.728 204.709 511.895 206.293C511.935 206.675 511.902 207.05 511.797 207.418ZM506.643 201.461L504.831 201.652L505.079 204.011L506.891 203.82C508.144 203.689 508.727 203.201 508.638 202.358C508.562 201.628 507.897 201.33 506.643 201.461ZM507.568 205.33L505.243 205.575L505.516 208.164L508.054 207.898C509.467 207.749 510.128 207.239 510.036 206.367C509.946 205.513 509.124 205.167 507.568 205.33ZM521.29 208.122C520.629 208.192 520.235 207.79 520.109 206.916C519.748 207.922 518.838 208.501 517.38 208.654C516.474 208.75 515.651 208.571 514.912 208.119C514.21 207.68 513.658 207.041 513.259 206.201C512.978 205.609 512.8 204.953 512.724 204.236C512.589 202.954 512.834 201.804 513.459 200.788C514.143 199.674 515.109 199.051 516.356 198.92C517.701 198.778 518.723 199.155 519.422 200.049C519.368 199.542 519.461 199.164 519.7 198.914C519.866 198.741 520.063 198.642 520.291 198.619C520.696 198.576 520.974 198.679 521.127 198.928C521.225 199.091 521.299 199.417 521.351 199.907L522.06 206.65C522.121 207.237 522.066 207.643 521.894 207.869C521.788 208.007 521.586 208.091 521.29 208.122ZM518.096 200.759C517.744 200.588 517.346 200.527 516.902 200.573C516.081 200.66 515.467 201.064 515.059 201.787C514.701 202.435 514.566 203.184 514.656 204.033C514.742 204.853 515.018 205.535 515.484 206.08C516.036 206.725 516.731 207.003 517.568 206.915C518.366 206.831 518.966 206.428 519.368 205.706C519.727 205.064 519.863 204.326 519.775 203.494C519.635 202.161 519.075 201.249 518.096 200.759ZM528.381 195.841C527.924 196.212 527.371 196.431 526.722 196.5L526.645 196.508C525.99 196.576 525.405 196.465 524.89 196.174C524.375 195.876 524.088 195.446 524.029 194.882C524.008 194.688 524.065 194.518 524.2 194.371C524.333 194.219 524.5 194.132 524.699 194.111C524.905 194.09 525.082 194.137 525.233 194.254C525.389 194.37 525.478 194.528 525.499 194.727C525.545 195.171 525.917 195.363 526.613 195.301C526.63 195.299 526.647 195.298 526.664 195.296C527.229 195.237 527.519 194.984 527.535 194.539C527.514 194.334 527.567 194.155 527.695 194.004C527.829 193.851 527.998 193.764 528.204 193.743C528.403 193.722 528.584 193.772 528.746 193.893C528.908 194.009 529 194.166 529.021 194.366C529.021 194.371 529.022 194.377 529.023 194.383C529.082 194.952 528.869 195.439 528.381 195.841ZM531.002 207.136C530.757 207.162 530.531 207.093 530.324 206.931C530.122 206.762 529.998 206.545 529.953 206.279C529.527 207.049 528.571 207.513 527.084 207.669C526.047 207.778 525.193 207.577 524.523 207.065C523.852 206.548 523.465 205.8 523.362 204.82L522.825 199.709C522.791 199.384 522.854 199.11 523.015 198.885C523.155 198.68 523.381 198.562 523.695 198.529C523.991 198.497 524.235 198.57 524.426 198.746C524.623 198.921 524.739 199.174 524.774 199.504L525.262 204.153C525.329 204.792 525.582 205.304 526.02 205.69C526.458 206.076 527.022 206.232 527.711 206.16C528.401 206.087 528.919 205.814 529.267 205.34C529.599 204.884 529.732 204.335 529.664 203.691L529.175 199.041C529.141 198.717 529.202 198.442 529.357 198.219C529.502 198.013 529.726 197.895 530.028 197.863C530.336 197.831 530.585 197.902 530.776 198.078C530.973 198.253 531.089 198.506 531.124 198.837L531.872 205.956C531.904 206.264 531.843 206.529 531.688 206.753C531.533 206.977 531.304 207.104 531.002 207.136ZM545.931 205.541C545.657 205.57 545.428 205.496 545.242 205.32C545.036 205.117 544.917 204.853 544.882 204.528L544.381 199.759C544.315 199.132 544.097 198.619 543.727 198.221C543.331 197.801 542.818 197.625 542.185 197.691C541.541 197.759 541.069 198.039 540.77 198.531C540.491 198.998 540.384 199.545 540.45 200.172L540.951 204.941C540.986 205.277 540.927 205.56 540.772 205.79C540.639 205.999 540.424 206.12 540.128 206.151C539.837 206.182 539.605 206.108 539.43 205.931C539.232 205.738 539.115 205.474 539.079 205.138L538.578 200.369C538.512 199.742 538.294 199.229 537.924 198.83C537.528 198.411 537.014 198.235 536.382 198.301C535.066 198.44 534.487 199.267 534.647 200.782L535.148 205.551C535.183 205.887 535.126 206.167 534.977 206.39C534.832 206.607 534.615 206.731 534.324 206.761C534.051 206.79 533.821 206.716 533.636 206.54C533.43 206.337 533.31 206.073 533.276 205.748L532.51 198.458C532.476 198.133 532.538 197.85 532.697 197.608C532.842 197.397 533.051 197.277 533.325 197.249C533.564 197.223 533.779 197.296 533.97 197.466C534.165 197.63 534.292 197.844 534.348 198.109C534.798 197.342 535.689 196.888 537.022 196.748C538.065 196.638 538.934 196.985 539.629 197.787C539.876 197.346 540.283 196.969 540.849 196.656C541.362 196.378 541.88 196.211 542.404 196.156C543.543 196.036 544.434 196.236 545.077 196.757C545.718 197.271 546.094 198.049 546.204 199.092L546.754 204.331C546.79 204.667 546.732 204.947 546.583 205.17C546.439 205.387 546.221 205.511 545.931 205.541ZM555.878 200.374L549.545 201.04C549.651 201.887 550.087 202.521 550.851 202.942C551.456 203.275 552.138 203.403 552.896 203.323C553.352 203.275 553.838 203.109 554.355 202.824C554.436 202.764 554.815 202.511 555.494 202.065C555.639 201.969 555.772 201.914 555.892 201.902C556.068 201.883 556.236 201.941 556.394 202.074C556.565 202.223 556.661 202.397 556.682 202.597C556.726 203.012 556.361 203.463 555.588 203.947C554.724 204.499 553.797 204.827 552.805 204.931C551.404 205.078 550.213 204.74 549.234 203.915C548.26 203.09 547.699 201.977 547.552 200.575C547.412 199.247 547.73 198.048 548.504 196.975C549.248 195.941 550.267 195.356 551.56 195.22C552.495 195.121 553.375 195.308 554.203 195.78C555.006 196.243 555.634 196.897 556.085 197.742C556.351 198.245 556.512 198.763 556.569 199.299C556.638 199.96 556.408 200.318 555.878 200.374ZM553.573 197.186C553.069 196.778 552.45 196.612 551.715 196.69C550.997 196.765 550.426 197.061 550.002 197.578C549.798 197.83 549.633 198.147 549.506 198.529C549.382 198.888 549.328 199.193 549.343 199.445L554.625 198.89C554.471 198.192 554.12 197.624 553.573 197.186ZM572.901 202.43C572.273 202.755 571.637 202.952 570.993 203.019C569.625 203.163 568.461 202.802 567.5 201.935C566.571 201.093 566.035 199.998 565.893 198.647C565.753 197.32 566.077 196.119 566.862 195.046C567.629 194.009 568.665 193.422 569.97 193.285C571.223 193.153 572.177 193.318 572.83 193.779C572.998 193.9 573.094 194.068 573.116 194.285C573.142 194.524 573.091 194.754 572.964 194.975C572.867 195.146 572.73 195.241 572.554 195.26C572.343 195.282 571.989 195.23 571.492 195.104C570.994 194.977 570.595 194.93 570.293 194.962C569.387 195.057 568.714 195.476 568.273 196.22C567.912 196.839 567.777 197.579 567.867 198.44C567.955 199.272 568.254 199.957 568.766 200.497C569.374 201.124 570.105 201.393 570.959 201.303C571.324 201.265 571.758 201.119 572.261 200.864C572.687 200.641 572.923 200.527 572.968 200.522C573.196 200.498 573.392 200.555 573.557 200.693C573.726 200.825 573.823 201.005 573.847 201.233C573.893 201.678 573.578 202.077 572.901 202.43ZM582.716 204.31C581.95 205.134 580.798 205.627 579.26 205.788C578.49 205.869 577.655 205.813 576.753 205.62C575.746 205.409 575.218 205.07 575.169 204.603C575.152 204.449 575.22 204.269 575.371 204.063C575.507 203.876 575.646 203.775 575.789 203.76C575.988 203.739 576.437 203.818 577.136 203.998C577.965 204.216 578.69 204.293 579.312 204.228C580.121 204.143 580.756 203.854 581.217 203.362C581.678 202.876 581.867 202.231 581.782 201.427L581.674 200.393L581.528 200.573C581.014 201.376 580.092 201.847 578.765 201.986C577.437 202.126 576.376 201.759 575.582 200.887C574.845 200.071 574.407 199.002 574.268 197.681C574.17 196.746 574.285 195.87 574.614 195.052C575.244 193.482 576.331 192.616 577.875 192.454C579.226 192.312 580.237 192.666 580.908 193.518C580.907 193.506 580.905 193.495 580.904 193.483C580.819 192.669 581.112 192.226 581.784 192.155C582.086 192.124 582.33 192.193 582.515 192.364C582.713 192.55 582.829 192.809 582.864 193.139L583.675 200.857C583.827 202.304 583.508 203.455 582.716 204.31ZM578.416 194.065C577.624 194.148 577.026 194.542 576.622 195.247C576.251 195.879 576.108 196.603 576.194 197.418C576.279 198.227 576.539 198.899 576.976 199.435C577.505 200.088 578.203 200.369 579.069 200.278C579.907 200.19 580.529 199.779 580.936 199.045C581.271 198.451 581.397 197.761 581.314 196.975C581.226 196.131 580.939 195.43 580.454 194.87C579.91 194.248 579.231 193.979 578.416 194.065ZM592.748 196.499L586.415 197.164C586.522 198.011 586.957 198.645 587.721 199.066C588.327 199.4 589.008 199.527 589.766 199.448C590.222 199.4 590.708 199.233 591.226 198.949C591.306 198.888 591.685 198.635 592.364 198.189C592.51 198.094 592.642 198.039 592.762 198.027C592.939 198.008 593.106 198.065 593.264 198.199C593.435 198.348 593.531 198.522 593.552 198.721C593.596 199.137 593.231 199.587 592.459 200.072C591.595 200.624 590.667 200.952 589.676 201.056C588.274 201.203 587.084 200.864 586.104 200.04C585.13 199.215 584.57 198.101 584.422 196.7C584.283 195.372 584.6 194.172 585.375 193.1C586.118 192.066 587.137 191.48 588.43 191.344C589.365 191.246 590.246 191.433 591.073 191.905C591.876 192.368 592.504 193.022 592.956 193.867C593.222 194.369 593.383 194.888 593.439 195.424C593.508 196.085 593.278 196.443 592.748 196.499ZM590.443 193.31C589.939 192.903 589.32 192.737 588.585 192.814C587.867 192.89 587.296 193.186 586.872 193.703C586.668 193.955 586.503 194.272 586.376 194.654C586.252 195.012 586.198 195.318 586.213 195.57L591.495 195.015C591.341 194.316 590.99 193.748 590.443 193.31ZM602.381 199.522C601.76 199.587 601.425 199.386 601.376 198.919L600.619 191.714L597.089 192.085L597.459 195.934C597.651 197.763 597.292 199.037 596.383 199.755C596.01 200.047 595.573 200.22 595.072 200.273C595.061 200.274 595.049 200.275 595.038 200.276C594.741 200.302 594.495 200.241 594.301 200.094C594.17 199.993 594.089 199.855 594.059 199.679C594.057 199.495 594.124 199.338 594.26 199.209C594.291 199.171 594.443 199.112 594.717 199.031C595.521 198.785 595.851 197.987 595.709 196.637L595.701 196.56L595.121 191.445C595.072 190.983 595.361 190.72 595.988 190.654L601.389 190.086C602.005 190.021 602.337 190.223 602.386 190.69L603.231 198.724C603.28 199.191 602.997 199.457 602.381 199.522ZM612.756 198.509C612.095 198.578 611.702 198.176 611.575 197.302C611.214 198.308 610.305 198.888 608.846 199.041C607.94 199.136 607.118 198.958 606.379 198.505C605.676 198.066 605.125 197.427 604.726 196.588C604.444 195.995 604.266 195.34 604.191 194.622C604.056 193.34 604.301 192.191 604.926 191.175C605.609 190.06 606.575 189.437 607.823 189.306C609.168 189.165 610.189 189.541 610.888 190.436C610.835 189.929 610.928 189.55 611.166 189.3C611.333 189.127 611.53 189.029 611.757 189.005C612.162 188.962 612.441 189.066 612.594 189.315C612.691 189.477 612.766 189.803 612.817 190.293L613.526 197.037C613.588 197.624 613.533 198.03 613.36 198.255C613.254 198.393 613.053 198.478 612.756 198.509ZM609.563 191.145C609.211 190.975 608.813 190.913 608.368 190.96C607.548 191.046 606.934 191.45 606.526 192.173C606.167 192.821 606.033 193.57 606.122 194.419C606.208 195.239 606.485 195.922 606.951 196.466C607.503 197.111 608.197 197.389 609.035 197.301C609.832 197.218 610.432 196.815 610.835 196.093C611.193 195.45 611.329 194.713 611.242 193.881C611.102 192.548 610.542 191.636 609.563 191.145ZM622.679 193.353L616.346 194.018C616.452 194.866 616.887 195.5 617.652 195.921C618.257 196.254 618.939 196.381 619.696 196.302C620.152 196.254 620.639 196.088 621.156 195.803C621.236 195.742 621.616 195.489 622.295 195.044C622.44 194.948 622.573 194.893 622.692 194.881C622.869 194.862 623.036 194.92 623.194 195.053C623.366 195.202 623.462 195.376 623.483 195.576C623.526 195.991 623.162 196.442 622.389 196.926C621.525 197.478 620.598 197.806 619.606 197.91C618.205 198.057 617.014 197.719 616.034 196.894C615.061 196.069 614.5 194.956 614.353 193.554C614.213 192.226 614.531 191.026 615.305 189.954C616.049 188.92 617.067 188.335 618.361 188.199C619.295 188.1 620.176 188.287 621.003 188.759C621.807 189.222 622.434 189.876 622.886 190.721C623.152 191.223 623.313 191.742 623.369 192.278C623.439 192.939 623.209 193.297 622.679 193.353ZM620.374 190.165C619.87 189.757 619.25 189.591 618.515 189.669C617.797 189.744 617.227 190.04 616.803 190.557C616.599 190.809 616.433 191.126 616.307 191.508C616.183 191.867 616.129 192.172 616.144 192.424L621.425 191.869C621.271 191.171 620.921 190.603 620.374 190.165ZM624.121 196.39L624.146 196.214L625.297 188.671C625.338 188.396 625.474 188.108 625.708 187.807C625.865 187.606 626.101 187.489 626.414 187.456C626.716 187.424 626.961 187.479 627.149 187.621C627.28 187.716 627.461 187.962 627.693 188.358L630.631 193.295L632.325 187.872C632.454 187.449 632.577 187.168 632.695 187.029C632.844 186.858 633.075 186.756 633.388 186.723C633.707 186.689 633.965 186.754 634.16 186.918C634.432 187.149 634.62 187.403 634.724 187.68L637.125 194.081C637.312 194.43 637.427 194.706 637.472 194.909C637.486 194.988 637.499 195.09 637.513 195.216C637.534 195.421 637.471 195.589 637.324 195.719C637.139 195.883 636.916 195.978 636.654 196.006C636.198 196.054 635.881 195.836 635.704 195.354L633.64 189.444L631.785 195.558C631.711 195.791 631.602 196.062 631.456 196.371C631.337 196.504 631.153 196.584 630.902 196.61C630.628 196.639 630.416 196.592 630.265 196.47C630.201 196.413 630.05 196.179 629.811 195.766L626.707 190.328L625.935 196.381C625.873 196.888 625.611 197.166 625.15 197.215C624.859 197.245 624.62 197.187 624.432 197.04C624.28 196.917 624.177 196.701 624.121 196.39ZM522.188 226.208L522.213 226.033L523.365 218.489C523.405 218.214 523.542 217.926 523.775 217.625C523.932 217.424 524.168 217.307 524.481 217.274C524.783 217.242 525.028 217.297 525.216 217.439C525.347 217.535 525.528 217.78 525.76 218.177L528.698 223.113L530.392 217.69C530.521 217.267 530.644 216.986 530.762 216.847C530.911 216.676 531.142 216.574 531.455 216.541C531.774 216.508 532.032 216.573 532.228 216.736C532.499 216.967 532.687 217.221 532.791 217.498L535.193 223.899C535.379 224.248 535.494 224.524 535.539 224.727C535.553 224.806 535.566 224.909 535.58 225.034C535.601 225.239 535.538 225.407 535.391 225.538C535.206 225.701 534.983 225.797 534.721 225.824C534.265 225.872 533.948 225.655 533.771 225.172L531.707 219.263L529.852 225.377C529.779 225.609 529.669 225.88 529.523 226.189C529.404 226.322 529.22 226.402 528.969 226.429C528.695 226.457 528.483 226.411 528.332 226.288C528.268 226.231 528.117 225.997 527.878 225.584L524.774 220.147L524.002 226.199C523.94 226.707 523.678 226.985 523.217 227.033C522.926 227.064 522.687 227.005 522.499 226.858C522.348 226.736 522.244 226.519 522.188 226.208ZM543.851 224.89C543.316 224.947 542.984 224.61 542.855 223.88C542.331 224.759 541.357 225.273 539.932 225.423C538.895 225.532 538.041 225.322 537.369 224.794C536.697 224.265 536.308 223.5 536.203 222.497L535.652 217.258C535.618 216.933 535.686 216.649 535.857 216.407C536.002 216.196 536.222 216.075 536.518 216.044C536.815 216.012 537.059 216.085 537.25 216.26C537.449 216.453 537.566 216.717 537.601 217.053L538.102 221.822C538.172 222.483 538.425 223.004 538.863 223.384C539.308 223.781 539.872 223.943 540.556 223.871C541.245 223.799 541.763 223.52 542.109 223.034C542.441 222.573 542.573 222.015 542.504 221.359L542.003 216.59C541.968 216.266 542.034 215.982 542.198 215.74C542.349 215.529 542.567 215.408 542.852 215.378C543.159 215.346 543.409 215.417 543.6 215.593C543.799 215.785 543.916 216.049 543.951 216.386L544.718 223.684C544.751 223.998 544.69 224.269 544.536 224.499C544.382 224.728 544.153 224.859 543.851 224.89ZM553.936 222.266C553.244 223.295 552.296 223.873 551.094 223.999C549.692 224.147 548.671 223.854 548.029 223.12L548.45 227.043C548.484 227.367 548.426 227.636 548.275 227.847C548.125 228.065 547.899 228.189 547.597 228.221C547.312 228.251 547.074 228.178 546.883 228.002C546.673 227.811 546.551 227.559 546.518 227.246L545.356 216.186C545.322 215.867 545.388 215.589 545.554 215.353C545.705 215.147 545.923 215.029 546.208 214.999C546.8 214.937 547.18 215.286 547.346 216.046C547.867 215.139 548.811 214.613 550.179 214.469C551.449 214.336 552.508 214.737 553.356 215.674C554.131 216.525 554.588 217.612 554.727 218.934C554.858 220.188 554.595 221.298 553.936 222.266ZM551.963 217.056C551.396 216.378 550.708 216.082 549.899 216.167C549.067 216.254 548.445 216.662 548.032 217.391C547.697 217.985 547.571 218.678 547.654 219.47C547.739 220.279 548.006 220.957 548.455 221.503C549.01 222.176 549.709 222.469 550.552 222.38C551.344 222.297 551.945 221.902 552.355 221.197C552.726 220.564 552.869 219.838 552.782 219.018C552.705 218.277 552.431 217.623 551.963 217.056ZM572.261 221.913C572.244 221.915 572.227 221.917 572.21 221.918C571.976 221.943 571.775 221.886 571.605 221.749C571.416 221.601 571.306 221.377 571.275 221.075L571.066 219.092C571.036 218.801 570.993 218.371 570.939 217.801C570.47 218.599 569.535 219.071 568.133 219.219C567.022 219.336 566.127 219.127 565.449 218.594C564.771 218.06 564.379 217.292 564.274 216.289L564.062 214.272C564.027 213.947 564.095 213.664 564.266 213.421C564.411 213.21 564.628 213.089 564.919 213.058C565.221 213.027 565.468 213.099 565.659 213.275C565.858 213.467 565.975 213.731 566.01 214.067L566.173 215.614C566.241 216.264 566.494 216.781 566.932 217.167C567.39 217.574 567.955 217.743 568.627 217.672C569.299 217.601 569.813 217.311 570.169 216.801C570.505 216.328 570.64 215.778 570.574 215.151L570.412 213.605C570.377 213.274 570.439 212.991 570.599 212.755C570.744 212.544 570.964 212.423 571.261 212.392C571.568 212.36 571.818 212.434 572.01 212.616C572.202 212.797 572.316 213.059 572.352 213.401L573.12 220.708C573.193 221.409 572.907 221.81 572.261 221.913ZM581.987 220.882C581.451 220.938 581.119 220.602 580.99 219.872C580.466 220.751 579.492 221.265 578.068 221.415C577.031 221.524 576.176 221.314 575.504 220.786C574.832 220.257 574.444 219.492 574.338 218.489L573.788 213.25C573.753 212.925 573.822 212.641 573.992 212.399C574.137 212.188 574.357 212.066 574.654 212.035C574.95 212.004 575.194 212.076 575.385 212.252C575.584 212.445 575.701 212.709 575.736 213.045L576.238 217.814C576.307 218.475 576.56 218.996 576.998 219.376C577.443 219.773 578.007 219.935 578.691 219.863C579.38 219.791 579.898 219.512 580.245 219.026C580.576 218.565 580.708 218.007 580.639 217.351L580.138 212.582C580.104 212.257 580.169 211.974 580.334 211.732C580.484 211.52 580.702 211.4 580.987 211.37C581.294 211.337 581.544 211.409 581.735 211.585C581.934 211.777 582.051 212.041 582.086 212.377L582.854 219.676C582.887 219.99 582.826 220.261 582.671 220.49C582.517 220.72 582.289 220.85 581.987 220.882ZM599.352 222.004L599.284 222.011C599.067 222.034 598.878 221.958 598.716 221.785C598.56 221.617 598.465 221.377 598.432 221.063L598.216 219.004C597.528 219.093 597.145 219.142 597.065 219.15C596.592 219.2 596.253 218.879 596.047 218.186C595.42 219.012 594.565 219.482 593.482 219.596C593.477 219.597 593.471 219.597 593.465 219.598C592.308 219.714 591.348 219.374 590.584 218.579C590.249 219.173 589.773 219.597 589.154 219.852C588.779 220.013 588.253 220.128 587.575 220.2C586.578 220.305 585.755 220.1 585.108 219.586C584.485 219.087 584.121 218.331 584.014 217.316L583.474 212.18C583.441 211.861 583.503 211.58 583.662 211.339C583.802 211.134 584.009 211.018 584.282 210.989C584.573 210.958 584.808 211.029 584.987 211.2C585.18 211.387 585.293 211.649 585.329 211.985L585.82 216.66C585.884 217.264 586.094 217.754 586.45 218.132C586.866 218.578 587.381 218.768 587.996 218.704C588.629 218.637 589.102 218.343 589.416 217.82C589.686 217.377 589.789 216.853 589.726 216.249L589.235 211.574C589.2 211.244 589.257 210.964 589.406 210.735C589.54 210.531 589.752 210.414 590.043 210.383C590.333 210.353 590.565 210.423 590.739 210.595C590.938 210.788 591.055 211.049 591.089 211.379L591.581 216.054C591.644 216.658 591.854 217.149 592.211 217.526C592.626 217.972 593.142 218.163 593.757 218.098C595.062 217.961 595.635 217.143 595.478 215.645L594.987 210.97C594.953 210.651 595.019 210.37 595.183 210.128C595.323 209.923 595.527 209.807 595.795 209.779C596.085 209.748 596.323 209.818 596.508 209.989C596.695 210.177 596.806 210.439 596.841 210.775L597.589 217.894L599.025 217.743C599.532 217.69 599.822 218.002 599.893 218.68L600.13 220.937C600.156 221.187 600.095 221.421 599.945 221.639C599.795 221.856 599.597 221.978 599.352 222.004ZM607.802 214.021L601.469 214.687C601.575 215.534 602.011 216.168 602.775 216.589C603.381 216.923 604.062 217.05 604.82 216.97C605.276 216.922 605.762 216.756 606.28 216.471C606.36 216.411 606.739 216.158 607.418 215.712C607.564 215.616 607.696 215.562 607.816 215.549C607.993 215.531 608.16 215.588 608.318 215.721C608.489 215.87 608.585 216.044 608.606 216.244C608.65 216.66 608.285 217.11 607.512 217.594C606.649 218.146 605.721 218.474 604.73 218.578C603.328 218.725 602.137 218.387 601.158 217.562C600.184 216.737 599.623 215.624 599.476 214.222C599.337 212.895 599.654 211.695 600.428 210.622C601.172 209.588 602.191 209.003 603.484 208.867C604.419 208.769 605.3 208.955 606.127 209.427C606.93 209.89 607.558 210.544 608.01 211.39C608.275 211.892 608.437 212.411 608.493 212.946C608.562 213.607 608.332 213.965 607.802 214.021ZM605.497 210.833C604.993 210.425 604.374 210.26 603.639 210.337C602.921 210.412 602.35 210.709 601.926 211.225C601.722 211.477 601.557 211.794 601.43 212.176C601.306 212.535 601.252 212.84 601.267 213.092L606.549 212.537C606.395 211.839 606.044 211.271 605.497 210.833Z" fill="black"/>
<defs>
<filter id="filter0_d" x="453.2" y="126.4" width="220.433" height="168.482" filterUnits="userSpaceOnUse" color-interpolation-filters="sRGB">
<feFlood flood-opacity="0" result="BackgroundImageFix"/>
<feColorMatrix in="SourceAlpha" type="matrix" values="0 0 0 0 0 0 0 0 0 0 0 0 0 0 0 0 0 0 127 0"/>
<feOffset dy="2"/>
<feGaussianBlur stdDeviation="3"/>
<feColorMatrix type="matrix" values="0 0 0 0 0 0 0 0 0 0 0 0 0 0 0 0 0 0 0.5 0"/>
<feBlend mode="normal" in2="BackgroundImageFix" result="effect1_dropShadow"/>
<feBlend mode="normal" in="SourceGraphic" in2="effect1_dropShadow" result="shape"/>
</filter>
<linearGradient id="paint0_linear" x1="977.845" y1="97.0194" x2="1024.02" y2="143.197" gradientUnits="userSpaceOnUse">
<stop stop-color="#1ACEB8"/>
<stop offset="1" stop-color="#0BBFBA"/>
</linearGradient>
</defs>
</svg>
