<svg width="1189" height="515" viewBox="0 0 1189 515" fill="none" xmlns="http://www.w3.org/2000/svg">
<path fill-rule="evenodd" clip-rule="evenodd" d="M12.6632 209.695L13.4083 213.244C13.7601 214.919 16.2399 214.919 16.5917 213.244L17.3368 209.695C18.0712 206.198 20.9016 203.465 24.5233 202.756L28.1987 202.037C29.9338 201.697 29.9338 199.303 28.1987 198.963L24.5233 198.244C20.9016 197.535 18.0709 194.802 17.3368 191.305L16.5917 187.756C16.2399 186.081 13.7601 186.081 13.4083 187.756L12.6632 191.305C11.9288 194.802 9.09838 197.535 5.47665 198.244L1.80129 198.963C0.0662365 199.303 0.0662365 201.697 1.80129 202.037L5.47665 202.756C9.09838 203.465 11.9291 206.198 12.6632 209.695Z" fill="#8C7FE5"/>
<path fill-rule="evenodd" clip-rule="evenodd" d="M377.663 488.695L378.408 492.244C378.76 493.919 381.24 493.919 381.592 492.244L382.337 488.695C383.071 485.198 385.902 482.465 389.523 481.756L393.199 481.037C394.934 480.697 394.934 478.303 393.199 477.963L389.523 477.244C385.902 476.535 383.071 473.802 382.337 470.305L381.592 466.756C381.24 465.081 378.76 465.081 378.408 466.756L377.663 470.305C376.929 473.802 374.098 476.535 370.477 477.244L366.801 477.963C365.066 478.303 365.066 480.697 366.801 481.037L370.477 481.756C374.098 482.465 376.929 485.198 377.663 488.695Z" fill="#8C7FE5"/>
<path fill-rule="evenodd" clip-rule="evenodd" d="M247.663 71.695L248.408 75.2436C248.76 76.9188 251.24 76.9188 251.592 75.2436L252.337 71.695C253.071 68.1981 255.902 65.465 259.523 64.7563L263.199 64.0368C264.934 63.6971 264.934 61.3029 263.199 60.9632L259.523 60.2437C255.902 59.5347 253.071 56.8019 252.337 53.305L251.592 49.7564C251.24 48.0812 248.76 48.0812 248.408 49.7564L247.663 53.305C246.929 56.8019 244.098 59.535 240.477 60.2437L236.801 60.9632C235.066 61.3029 235.066 63.6971 236.801 64.0368L240.477 64.7563C244.098 65.465 246.929 68.1981 247.663 71.695Z" fill="#8C7FE5"/>
<path fill-rule="evenodd" clip-rule="evenodd" d="M1025.2 102.4C1053.48 102.4 1076.4 79.477 1076.4 51.2C1076.4 22.923 1053.48 0 1025.2 0C996.923 0 974 22.923 974 51.2C974 79.477 996.923 102.4 1025.2 102.4Z" fill="#8C7FE5"/>
<path fill-rule="evenodd" clip-rule="evenodd" d="M1025.2 100.74C1052.56 100.74 1074.74 78.5603 1074.74 51.2C1074.74 23.8397 1052.56 1.65979 1025.2 1.65979C997.84 1.65979 975.66 23.8397 975.66 51.2C975.66 78.5603 997.84 100.74 1025.2 100.74Z" fill="#7567DB"/>
<path fill-rule="evenodd" clip-rule="evenodd" d="M1025.2 95.8784C1049.88 95.8784 1069.88 75.8752 1069.88 51.2C1069.88 26.5248 1049.88 6.52161 1025.2 6.52161C1000.52 6.52161 980.521 26.5248 980.521 51.2C980.521 75.8752 1000.52 95.8784 1025.2 95.8784Z" fill="url(#paint0_linear)"/>
<path fill-rule="evenodd" clip-rule="evenodd" d="M1025.2 95.8784C1049.88 95.8784 1069.88 75.8752 1069.88 51.2C1069.88 26.5248 1049.88 6.52161 1025.2 6.52161C1000.52 6.52161 980.521 26.5248 980.521 51.2C980.521 75.8752 1000.52 95.8784 1025.2 95.8784Z" fill="#8C7FE5"/>
<path fill-rule="evenodd" clip-rule="evenodd" d="M1025.52 51.2H1024.88C1023.68 51.2 1022.7 50.2264 1022.7 49.025V22.5718C1022.7 21.3708 1023.68 20.3968 1024.88 20.3968H1025.52C1026.72 20.3968 1027.7 21.3704 1027.7 22.5718V49.0254C1027.7 50.2264 1026.72 51.2 1025.52 51.2Z" fill="#6052BF"/>
<path fill-rule="evenodd" clip-rule="evenodd" d="M1025.52 51.2L1025.98 51.6564C1026.83 52.5056 1026.83 53.8828 1025.98 54.7322L1010.71 70.006C1009.86 70.8552 1008.48 70.8552 1007.63 70.006L1007.17 69.5496C1006.32 68.7004 1006.32 67.3232 1007.17 66.4738L1022.45 51.2C1023.3 50.3508 1024.67 50.3508 1025.52 51.2Z" fill="#6052BF"/>
<path fill-rule="evenodd" clip-rule="evenodd" d="M1055.55 43.811C1055.68 44.307 1055.37 44.8082 1054.88 44.9304L1025.66 52.125C1025.17 52.2472 1024.67 51.944 1024.54 51.448C1024.42 50.952 1024.72 50.4508 1025.22 50.3286L1054.44 43.134C1054.93 43.0118 1055.43 43.3148 1055.55 43.811Z" fill="#FFDE63"/>
<path fill-rule="evenodd" clip-rule="evenodd" d="M1025.2 55.3284C1027.48 55.3284 1029.33 53.48 1029.33 51.2C1029.33 48.9199 1027.48 47.0716 1025.2 47.0716C1022.92 47.0716 1021.07 48.9199 1021.07 51.2C1021.07 53.48 1022.92 55.3284 1025.2 55.3284Z" fill="#FFDE63"/>
<path fill-rule="evenodd" clip-rule="evenodd" d="M1025.36 17.7604H1025.04C1023.75 17.7604 1022.7 16.7136 1022.7 15.4222V12.5134C1022.7 11.222 1023.75 10.1752 1025.04 10.1752H1025.36C1026.65 10.1752 1027.7 11.222 1027.7 12.5134V15.4222C1027.7 16.7136 1026.65 17.7604 1025.36 17.7604Z" fill="#6052BF"/>
<path fill-rule="evenodd" clip-rule="evenodd" d="M1025.36 92.2248H1025.04C1023.75 92.2248 1022.7 91.178 1022.7 89.8866V86.978C1022.7 85.6866 1023.75 84.6398 1025.04 84.6398H1025.36C1026.65 84.6398 1027.7 85.6866 1027.7 86.978V89.8868C1027.7 91.1778 1026.65 92.2248 1025.36 92.2248Z" fill="#6052BF"/>
<path fill-rule="evenodd" clip-rule="evenodd" d="M1058.64 51.3594V51.0406C1058.64 49.7492 1059.69 48.7024 1060.98 48.7024H1063.89C1065.18 48.7024 1066.22 49.7492 1066.22 51.0406V51.3594C1066.22 52.6508 1065.18 53.6976 1063.89 53.6976H1060.98C1059.69 53.6974 1058.64 52.6506 1058.64 51.3594Z" fill="#6052BF"/>
<path fill-rule="evenodd" clip-rule="evenodd" d="M984.175 51.3594V51.0406C984.175 49.7492 985.222 48.7024 986.513 48.7024H989.422C990.713 48.7024 991.76 49.7492 991.76 51.0406V51.3594C991.76 52.6508 990.713 53.6976 989.422 53.6976H986.513C985.222 53.6974 984.175 52.6506 984.175 51.3594Z" fill="#6052BF"/>
<path fill-rule="evenodd" clip-rule="evenodd" d="M638.8 174.6H649.2C650.526 174.6 651.6 173.526 651.6 172.2V157.8C651.6 156.475 650.526 155.4 649.2 155.4H423.6C422.275 155.4 421.2 156.475 421.2 157.8V172.2C421.2 173.526 422.275 174.6 423.6 174.6H638.8Z" fill="#8C7FE5" stroke="#6052BF" stroke-width="0.8"/>
<path fill-rule="evenodd" clip-rule="evenodd" d="M434 174.6H536.4V430.6H434V174.6Z" fill="#8C7FE5" stroke="#6052BF" stroke-width="0.8"/>
<path fill-rule="evenodd" clip-rule="evenodd" d="M536.4 174.6H638.8V430.6H536.4V174.6Z" fill="#8C7FE5" stroke="#6052BF" stroke-width="0.8"/>
<path fill-rule="evenodd" clip-rule="evenodd" d="M536.4 430.6H434V505.8C434 506.684 434.716 507.4 435.6 507.4H637.2C638.084 507.4 638.8 506.684 638.8 505.8V430.6H536.4Z" fill="#8C7FE5" stroke="#6052BF" stroke-width="0.8"/>
<path fill-rule="evenodd" clip-rule="evenodd" d="M534 174.6H538.8V430.6H534V174.6Z" fill="#6052BF"/>
<path fill-rule="evenodd" clip-rule="evenodd" d="M558 293C558 291.233 559.433 289.8 561.2 289.8H562.8C564.568 289.8 566 291.233 566 293V337.8C566 339.567 564.568 341 562.8 341H561.2C559.433 341 558 339.567 558 337.8V293Z" fill="#6052BF"/>
<path fill-rule="evenodd" clip-rule="evenodd" d="M506.8 293C506.8 291.233 508.233 289.8 510 289.8H511.6C513.368 289.8 514.8 291.233 514.8 293V337.8C514.8 339.567 513.368 341 511.6 341H510C508.233 341 506.8 339.567 506.8 337.8V293Z" fill="#6052BF"/>
<path fill-rule="evenodd" clip-rule="evenodd" d="M523.6 455.4C523.6 453.633 525.033 452.2 526.8 452.2H546C547.767 452.2 549.2 453.633 549.2 455.4V457C549.2 458.767 547.767 460.2 546 460.2H526.8C525.033 460.2 523.6 458.767 523.6 457V455.4Z" fill="#6052BF"/>
<path fill-rule="evenodd" clip-rule="evenodd" d="M434 174.6H638V181H434V174.6Z" fill="#6052BF"/>
<path fill-rule="evenodd" clip-rule="evenodd" d="M440.4 507.4H632.4V513.8H440.4V507.4Z" fill="#6052BF"/>
<path fill-rule="evenodd" clip-rule="evenodd" d="M1110.23 329.442H1110.22C1109.87 329.404 1109.6 327.023 1109.6 324.119L1109.65 292.588C1109.65 289.711 1109.93 287.4 1110.28 287.4H1110.28C1110.63 287.439 1110.91 289.821 1110.9 292.723C1110.9 292.725 1110.9 292.725 1110.9 292.725L1110.85 324.256C1110.85 327.132 1110.57 329.442 1110.23 329.442Z" fill="#6052BF"/>
<path fill-rule="evenodd" clip-rule="evenodd" d="M1110.47 333.22C1107.34 333.22 1104.8 330.664 1104.8 327.51C1104.8 324.357 1107.34 321.8 1110.47 321.8C1113.6 321.8 1116.13 324.357 1116.13 327.51C1116.13 330.664 1113.6 333.22 1110.47 333.22Z" fill="#6052BF"/>
<path fill-rule="evenodd" clip-rule="evenodd" d="M1132.66 505.633C1130.87 505.633 1129.42 502.997 1129.42 499.74V293.485C1129.42 290.231 1130.87 287.592 1132.66 287.592C1134.44 287.592 1135.89 290.231 1135.89 293.485V499.74C1135.89 502.997 1134.44 505.633 1132.66 505.633Z" fill="#6052BF"/>
<path fill-rule="evenodd" clip-rule="evenodd" d="M1132.53 500.208L1150.49 500.338C1159.53 500.338 1161.47 508.644 1161.89 512.207C1161.99 513.085 1161.28 513.8 1160.4 513.8H1105.2C1104.32 513.8 1103.61 513.086 1103.71 512.208C1104.13 508.618 1106.07 500.2 1115.17 500.2H1132.53V500.208Z" fill="#7567DB" stroke="#6052BF" stroke-width="0.8"/>
<path fill-rule="evenodd" clip-rule="evenodd" d="M1113.18 185.8H1152.14C1157.26 185.8 1161.73 189.263 1163.04 194.231L1187.94 289.236C1188.47 291.264 1186.94 293.247 1184.85 293.247H1080.47C1078.37 293.247 1076.84 291.264 1077.37 289.236L1102.28 194.231C1103.58 189.263 1108.06 185.8 1113.18 185.8Z" fill="#8C7FE5" stroke="#6052BF" stroke-width="0.8"/>
<path fill-rule="evenodd" clip-rule="evenodd" d="M788 415.4C788 416.726 789.075 417.8 790.4 417.8H1062.4C1063.73 417.8 1064.8 416.726 1064.8 415.4V405.8C1064.8 404.475 1063.73 403.4 1062.4 403.4H790.4C789.075 403.4 788 404.475 788 405.8V415.4Z" fill="#8C7FE5" stroke="#6052BF" stroke-width="0.8"/>
<path fill-rule="evenodd" clip-rule="evenodd" d="M926.4 417.8V474.6H1048.8C1049.68 474.6 1050.4 473.884 1050.4 473V417.8H926.4Z" fill="#8C7FE5" stroke="#6052BF" stroke-width="0.8"/>
<path fill-rule="evenodd" clip-rule="evenodd" d="M802.4 417.8V473C802.4 473.884 803.116 474.6 804 474.6H926.4V417.8H802.4Z" fill="#8C7FE5" stroke="#6052BF" stroke-width="0.8"/>
<path fill-rule="evenodd" clip-rule="evenodd" d="M812 475.4H826.4V511.4C826.4 512.284 825.684 513 824.8 513H813.6C812.716 513 812 512.284 812 511.4V475.4Z" fill="#7567DB" stroke="#6052BF" stroke-width="0.8"/>
<path fill-rule="evenodd" clip-rule="evenodd" d="M1026.4 475.4H1040.8V511.4C1040.8 512.284 1040.08 513 1039.2 513H1028C1027.12 513 1026.4 512.284 1026.4 511.4V475.4Z" fill="#7567DB" stroke="#6052BF" stroke-width="0.8"/>
<path fill-rule="evenodd" clip-rule="evenodd" d="M921.6 417.8H931.2V474.6H921.6V417.8Z" fill="#6052BF"/>
<path fill-rule="evenodd" clip-rule="evenodd" d="M979.2 435.4C979.2 433.633 980.633 432.2 982.4 432.2H995.2C996.968 432.2 998.4 433.633 998.4 435.4V438.6C998.4 440.367 996.968 441.8 995.2 441.8H982.4C980.633 441.8 979.2 440.367 979.2 438.6V435.4Z" fill="#6052BF"/>
<path fill-rule="evenodd" clip-rule="evenodd" d="M854.4 435.4C854.4 433.633 855.833 432.2 857.6 432.2H870.4C872.167 432.2 873.6 433.633 873.6 435.4V438.6C873.6 440.367 872.167 441.8 870.4 441.8H857.6C855.833 441.8 854.4 440.367 854.4 438.6V435.4Z" fill="#6052BF"/>
<path fill-rule="evenodd" clip-rule="evenodd" d="M907.2 375.4H945.6V380.2H907.2V375.4Z" fill="#787680"/>
<path fill-rule="evenodd" clip-rule="evenodd" d="M812 475.4H826.4V480.2H812V475.4Z" fill="#6052BF"/>
<path fill-rule="evenodd" clip-rule="evenodd" d="M1026.4 475.4H1040.8V480.2H1026.4V475.4Z" fill="#6052BF"/>
<path fill-rule="evenodd" clip-rule="evenodd" d="M802.4 417.8H921.6V422.6H802.4V417.8Z" fill="#6052BF"/>
<path fill-rule="evenodd" clip-rule="evenodd" d="M931.2 417.8H1050.4V422.6H931.2V417.8Z" fill="#6052BF"/>
<path fill-rule="evenodd" clip-rule="evenodd" d="M875.558 248.2C874.822 248.2 874.087 247.92 873.53 247.361L853.614 227.366C852.515 226.261 852.531 224.487 853.651 223.403C854.772 222.318 856.571 222.335 857.672 223.438L877.586 243.434C878.685 244.539 878.67 246.313 877.549 247.397C876.996 247.932 876.276 248.2 875.558 248.2Z" fill="#6052BF"/>
<path fill-rule="evenodd" clip-rule="evenodd" d="M918.843 248.2C918.123 248.2 917.405 247.934 916.85 247.397C915.731 246.313 915.714 244.537 916.815 243.434L936.73 223.438C937.829 222.335 939.63 222.318 940.749 223.403C941.87 224.487 941.885 226.262 940.786 227.366L920.871 247.361C920.315 247.92 919.579 248.2 918.843 248.2Z" fill="#6052BF"/>
<path fill-rule="evenodd" clip-rule="evenodd" d="M972.184 402.841C922.106 402.841 874.4 402.841 822.215 402.841C815.947 402.841 810.978 397.468 810.384 391.258C806.139 346.82 806.139 302.381 810.384 257.943C810.978 251.733 815.971 246.853 822.215 246.36C872.205 242.413 922.195 242.413 972.184 246.36C978.429 246.853 983.423 251.733 984.016 257.943C988.262 302.381 988.262 346.82 984.016 391.258C983.423 397.468 978.453 402.841 972.184 402.841Z" fill="#8C7FE5" stroke="#6052BF" stroke-width="0.8"/>
<path fill-rule="evenodd" clip-rule="evenodd" d="M984.8 377C984.442 381.784 984.031 386.566 983.572 391.35C982.979 397.523 978.737 402.931 971.746 402.861C922.829 402.37 822.894 402.942 821.851 402.861C815.612 402.37 810.619 397.523 810.029 391.35C809.569 386.566 809.159 381.784 808.8 377H984.8Z" fill="#6052BF"/>
<path fill-rule="evenodd" clip-rule="evenodd" d="M969.716 351.259C968.58 357.342 962.324 362.095 954.461 362.89C916.021 366.77 877.583 366.77 839.141 362.89C831.276 362.095 825.025 357.342 823.884 351.259C818.705 323.619 818.705 295.98 823.884 268.342C825.025 262.257 831.276 257.504 839.141 256.709C862.679 254.336 886.219 253.411 909.758 253.948C924.657 254.282 939.562 255.207 954.461 256.709C962.324 257.504 968.58 262.257 969.716 268.342C974.895 295.98 974.895 323.619 969.716 351.259Z" fill="#F4F4F4"/>
<path fill-rule="evenodd" clip-rule="evenodd" d="M839.568 366.083C858.821 368.028 878.211 369 897.6 369C916.989 369 936.378 368.028 955.632 366.083C964.903 365.147 972.33 359.406 973.693 352.121C978.902 324.305 978.902 296.095 973.693 268.278C972.33 260.995 964.903 255.254 955.632 254.316C917.125 250.428 878.076 250.428 839.568 254.316C830.296 255.254 822.871 260.995 821.506 268.278C816.298 296.095 816.298 324.305 821.506 352.121C822.871 359.406 830.296 365.147 839.568 366.083ZM840.31 259.873C859.318 257.953 878.459 256.993 897.6 256.993C916.741 256.993 935.883 257.954 954.89 259.873C961.318 260.522 966.438 264.349 967.341 269.176C972.439 296.398 972.439 324.003 967.341 351.224C966.438 356.052 961.318 359.877 954.89 360.526C916.875 364.366 878.326 364.366 840.31 360.526C833.883 359.877 828.762 356.052 827.858 351.224C822.761 324.003 822.761 296.398 827.858 269.176C828.762 264.349 833.883 260.522 840.31 259.873Z" fill="#6052BF"/>
<path fill-rule="evenodd" clip-rule="evenodd" d="M844.8 390.201C844.8 393.513 841.936 396.2 838.4 396.2C834.866 396.2 832 393.513 832 390.201C832 386.886 834.866 384.2 838.4 384.2C841.936 384.2 844.8 386.886 844.8 390.201Z" fill="#8C7FE5"/>
<path fill-rule="evenodd" clip-rule="evenodd" d="M963.2 390.201C963.2 393.513 960.335 396.2 956.8 396.2C953.266 396.2 950.4 393.513 950.4 390.201C950.4 386.886 953.266 384.2 956.8 384.2C960.335 384.2 963.2 386.886 963.2 390.201Z" fill="#8C7FE5"/>
<path fill-rule="evenodd" clip-rule="evenodd" d="M936.392 389.8H857.209C855.658 389.8 854.4 388.546 854.4 387C854.4 385.454 855.658 384.2 857.209 384.2H936.392C937.943 384.2 939.2 385.454 939.2 387C939.2 388.546 937.943 389.8 936.392 389.8Z" fill="#8C7FE5"/>
<path fill-rule="evenodd" clip-rule="evenodd" d="M936.392 398.6H857.209C855.658 398.6 854.4 397.346 854.4 395.8C854.4 394.254 855.658 393 857.209 393H936.392C937.943 393 939.2 394.254 939.2 395.8C939.2 397.346 937.943 398.6 936.392 398.6Z" fill="#8C7FE5"/>
<path fill-rule="evenodd" clip-rule="evenodd" d="M917.553 289C922.439 289 926.4 292.978 926.4 297.886H926.399V321.714C926.399 326.621 922.44 330.6 917.552 330.6H876.046C871.161 330.6 867.2 326.622 867.2 321.714V297.886C867.2 292.979 871.16 289 876.046 289H917.553ZM890.878 297.472V319.852L907.785 308.663L890.878 297.472Z" fill="#8C7FE5"/>
<path fill-rule="evenodd" clip-rule="evenodd" d="M1023.87 323.018C1023.25 322.409 1022.27 322.409 1021.66 323.018C1021.48 323.2 1021.26 323.32 1021.04 323.393V341.138C1018.83 338.859 1015.75 337.425 1012.39 337.383C1012.24 334.414 1011.32 331.883 1009.51 330.057C1007.03 327.549 1003.24 326.713 998.803 327.318C998.205 331.784 999.028 335.6 1001.52 338.107C1004.01 340.604 1007.8 341.437 1012.23 340.85C1016.99 340.85 1021.04 344.747 1021.04 349.536V359.963H1024.49V323.393C1024.26 323.32 1024.05 323.2 1023.87 323.018Z" fill="#6052BF"/>
<path fill-rule="evenodd" clip-rule="evenodd" d="M1023.87 292.657C1024.62 291.907 1025.88 292.108 1026.37 293.056C1026.76 293.825 1027.7 294.132 1028.47 293.744C1029.42 293.265 1030.55 293.849 1030.73 294.902C1030.87 295.757 1031.66 296.34 1032.51 296.21C1033.56 296.051 1034.46 296.959 1034.3 298.014C1034.18 298.871 1034.75 299.674 1035.6 299.815C1036.65 299.989 1037.23 301.133 1036.75 302.088C1036.37 302.863 1036.67 303.806 1037.44 304.205C1038.38 304.696 1038.58 305.964 1037.83 306.724C1037.23 307.341 1037.23 308.333 1037.83 308.95C1038.58 309.71 1038.38 310.979 1037.44 311.47C1036.67 311.869 1036.37 312.812 1036.75 313.587C1037.23 314.541 1036.65 315.686 1035.6 315.86C1034.75 316.001 1034.18 316.804 1034.3 317.66C1034.46 318.716 1033.56 319.624 1032.51 319.464C1031.66 319.335 1030.87 319.918 1030.73 320.773C1030.55 321.826 1029.42 322.409 1028.47 321.931C1027.7 321.543 1026.76 321.849 1026.37 322.619C1025.88 323.567 1024.62 323.768 1023.87 323.018C1023.25 322.409 1022.27 322.409 1021.66 323.018C1020.9 323.768 1019.64 323.567 1019.16 322.619C1018.76 321.849 1017.82 321.543 1017.05 321.931C1016.11 322.409 1014.97 321.826 1014.8 320.773C1014.66 319.918 1013.86 319.335 1013.01 319.464C1011.96 319.624 1011.06 318.716 1011.22 317.66C1011.35 316.804 1010.77 316.001 1009.92 315.86C1008.88 315.686 1008.3 314.541 1008.77 313.587C1009.16 312.812 1008.85 311.869 1008.09 311.47C1007.15 310.979 1006.95 309.71 1007.69 308.95C1008.3 308.333 1008.3 307.341 1007.69 306.724C1006.95 305.964 1007.15 304.695 1008.09 304.205C1008.85 303.806 1009.16 302.863 1008.77 302.088C1008.3 301.133 1008.88 299.989 1009.92 299.815C1010.77 299.674 1011.35 298.871 1011.22 298.014C1011.06 296.959 1011.96 296.051 1013.01 296.21C1013.86 296.34 1014.66 295.757 1014.8 294.902C1014.97 293.849 1016.11 293.266 1017.05 293.744C1017.82 294.132 1018.76 293.825 1019.16 293.056C1019.64 292.108 1020.9 291.907 1021.66 292.657C1022.27 293.266 1023.25 293.266 1023.87 292.657Z" fill="#8C7FE5" stroke="#6052BF" stroke-width="0.72"/>
<path fill-rule="evenodd" clip-rule="evenodd" d="M1022.76 313.05C1025.62 313.05 1027.94 310.716 1027.94 307.838C1027.94 304.959 1025.62 302.625 1022.76 302.625C1019.91 302.625 1017.59 304.959 1017.59 307.838C1017.59 310.716 1019.91 313.05 1022.76 313.05Z" fill="#8C7FE5"/>
<path fill-rule="evenodd" clip-rule="evenodd" d="M1032.54 305.416C1033.17 305.743 1033.31 306.589 1032.81 307.096C1032.41 307.507 1032.41 308.168 1032.81 308.579C1033.31 309.086 1033.17 309.932 1032.54 310.259C1032.04 310.525 1031.83 311.154 1032.09 311.67C1032.41 312.307 1032.02 313.07 1031.32 313.186C1030.76 313.28 1030.37 313.815 1030.46 314.386C1030.56 315.09 1029.96 315.696 1029.26 315.589C1028.7 315.502 1028.17 315.891 1028.07 316.461C1027.96 317.163 1027.2 317.552 1026.57 317.233C1026.05 316.975 1025.43 317.179 1025.17 317.692C1024.84 318.324 1024 318.458 1023.5 317.958C1023.09 317.552 1022.43 317.552 1022.03 317.958C1021.52 318.458 1020.68 318.324 1020.36 317.692C1020.09 317.179 1019.47 316.975 1018.96 317.233C1018.33 317.552 1017.57 317.163 1017.45 316.461C1017.36 315.891 1016.83 315.503 1016.26 315.589C1015.56 315.696 1014.96 315.09 1015.07 314.386C1015.15 313.815 1014.77 313.28 1014.2 313.186C1013.5 313.07 1013.12 312.307 1013.44 311.67C1013.69 311.154 1013.49 310.525 1012.98 310.259C1012.35 309.932 1012.22 309.086 1012.72 308.579C1013.12 308.168 1013.12 307.507 1012.72 307.096C1012.22 306.589 1012.35 305.743 1012.98 305.416C1013.49 305.15 1013.69 304.521 1013.44 304.005C1013.12 303.368 1013.5 302.605 1014.2 302.489C1014.77 302.395 1015.15 301.86 1015.07 301.289C1014.96 300.585 1015.56 299.979 1016.26 300.086C1016.83 300.173 1017.36 299.784 1017.45 299.214C1017.57 298.511 1018.33 298.123 1018.96 298.442C1019.47 298.7 1020.09 298.496 1020.36 297.983C1020.68 297.351 1021.52 297.217 1022.03 297.717C1022.43 298.123 1023.09 298.123 1023.5 297.717C1024 297.217 1024.84 297.351 1025.17 297.983C1025.43 298.496 1026.05 298.7 1026.57 298.442C1027.2 298.123 1027.96 298.511 1028.07 299.214C1028.17 299.784 1028.7 300.172 1029.26 300.086C1029.96 299.979 1030.56 300.585 1030.46 301.289C1030.37 301.86 1030.76 302.395 1031.32 302.489C1032.02 302.605 1032.41 303.368 1032.09 304.005C1031.83 304.521 1032.04 305.15 1032.54 305.416ZM1017.59 307.837C1017.59 310.716 1019.9 313.05 1022.76 313.05C1025.62 313.05 1027.94 310.716 1027.94 307.837C1027.94 304.959 1025.62 302.625 1022.76 302.625C1019.9 302.625 1017.59 304.959 1017.59 307.837Z" fill="#6052BF"/>
<path fill-rule="evenodd" clip-rule="evenodd" d="M1035.82 323.78C1035.32 323.28 1034.48 323.414 1034.16 324.046C1033.89 324.559 1033.27 324.763 1032.76 324.504C1032.12 324.185 1031.37 324.574 1031.25 325.276C1031.16 325.847 1030.63 326.235 1030.06 326.149C1029.36 326.042 1028.76 326.648 1028.87 327.351C1028.95 327.923 1028.57 328.458 1028 328.552C1027.3 328.668 1026.92 329.431 1027.23 330.067C1027.49 330.584 1027.29 331.212 1026.78 331.478C1026.15 331.805 1026.02 332.651 1026.52 333.158C1026.92 333.569 1026.92 334.231 1026.52 334.642C1026.02 335.149 1026.15 335.994 1026.78 336.322C1027.29 336.587 1027.49 337.216 1027.23 337.733C1026.92 338.369 1027.3 339.132 1028 339.248C1028.57 339.343 1028.95 339.877 1028.87 340.449C1028.76 341.152 1029.36 341.758 1030.06 341.651C1030.63 341.565 1031.16 341.954 1031.25 342.523C1031.37 343.226 1032.12 343.615 1032.76 343.296C1033.27 343.037 1033.89 343.241 1034.16 343.754C1034.48 344.386 1035.32 344.52 1035.82 344.02C1036.23 343.614 1036.89 343.614 1037.3 344.02C1037.8 344.52 1038.64 344.386 1038.97 343.754C1039.23 343.241 1039.85 343.037 1040.37 343.296C1041 343.615 1041.75 343.226 1041.87 342.523C1041.96 341.954 1042.49 341.565 1043.06 341.651C1043.76 341.758 1044.36 341.152 1044.26 340.449C1044.17 339.877 1044.56 339.342 1045.12 339.248C1045.82 339.132 1046.2 338.369 1045.89 337.733C1045.63 337.216 1045.83 336.587 1046.34 336.322C1046.97 335.994 1047.1 335.148 1046.61 334.642C1046.2 334.231 1046.2 333.569 1046.61 333.158C1047.1 332.651 1046.97 331.805 1046.34 331.478C1045.83 331.212 1045.63 330.584 1045.89 330.067C1046.2 329.431 1045.82 328.668 1045.12 328.552C1044.56 328.458 1044.17 327.923 1044.26 327.351C1044.36 326.648 1043.76 326.042 1043.06 326.149C1042.49 326.235 1041.96 325.847 1041.87 325.276C1041.76 324.574 1041 324.185 1040.37 324.504C1039.85 324.763 1039.23 324.559 1038.97 324.046C1038.64 323.414 1037.8 323.28 1037.3 323.78C1036.89 324.185 1036.23 324.185 1035.82 323.78Z" fill="#8C7FE5" stroke="#6052BF" stroke-width="0.72"/>
<path fill-rule="evenodd" clip-rule="evenodd" d="M1046.95 346.018C1043.57 345.555 1040.67 346.194 1038.78 348.109C1038.6 348.282 1038.45 348.48 1038.29 348.675V344.276C1037.95 344.362 1037.57 344.295 1037.3 344.021C1036.89 343.615 1036.23 343.615 1035.82 344.021C1035.55 344.295 1035.18 344.362 1034.84 344.276L1034.84 359.963H1038.29V356.47C1040.99 356.55 1043.29 355.855 1044.88 354.255C1046.78 352.341 1047.41 349.428 1046.95 346.018Z" fill="#6052BF"/>
<path fill-rule="evenodd" clip-rule="evenodd" d="M1036.56 335.638C1037.51 335.638 1038.29 334.86 1038.29 333.9C1038.29 332.94 1037.51 332.163 1036.56 332.163C1035.61 332.163 1034.84 332.94 1034.84 333.9C1034.84 334.86 1035.61 335.638 1036.56 335.638Z" fill="#F6B74E"/>
<path fill-rule="evenodd" clip-rule="evenodd" d="M1036.56 335.638C1037.51 335.638 1038.29 334.86 1038.29 333.9C1038.29 332.94 1037.51 332.163 1036.56 332.163C1035.61 332.163 1034.84 332.94 1034.84 333.9C1034.84 334.86 1035.61 335.638 1036.56 335.638Z" fill="#8C7FE5"/>
<path fill-rule="evenodd" clip-rule="evenodd" d="M1043.08 332.285C1043.5 332.504 1043.59 333.068 1043.26 333.405C1042.99 333.68 1042.99 334.12 1043.26 334.395C1043.59 334.732 1043.5 335.296 1043.08 335.514C1042.74 335.691 1042.61 336.111 1042.78 336.455C1042.99 336.879 1042.73 337.388 1042.27 337.465C1041.89 337.528 1041.63 337.885 1041.69 338.266C1041.76 338.735 1041.36 339.139 1040.89 339.068C1040.52 339.01 1040.16 339.269 1040.1 339.649C1040.02 340.117 1039.52 340.377 1039.1 340.164C1038.76 339.991 1038.34 340.128 1038.16 340.47C1037.95 340.891 1037.39 340.98 1037.05 340.647C1036.78 340.376 1036.34 340.376 1036.07 340.647C1035.74 340.98 1035.18 340.891 1034.96 340.47C1034.78 340.128 1034.37 339.991 1034.02 340.164C1033.6 340.377 1033.1 340.117 1033.02 339.649C1032.96 339.269 1032.61 339.01 1032.23 339.068C1031.76 339.139 1031.36 338.735 1031.43 338.266C1031.49 337.885 1031.23 337.528 1030.85 337.465C1030.39 337.388 1030.13 336.879 1030.34 336.455C1030.51 336.111 1030.38 335.691 1030.04 335.514C1029.62 335.296 1029.53 334.732 1029.86 334.395C1030.13 334.12 1030.13 333.68 1029.86 333.405C1029.53 333.068 1029.62 332.504 1030.04 332.285C1030.38 332.108 1030.51 331.689 1030.34 331.345C1030.13 330.92 1030.39 330.412 1030.85 330.334C1031.23 330.271 1031.49 329.915 1031.43 329.534C1031.36 329.065 1031.76 328.661 1032.23 328.732C1032.61 328.79 1032.96 328.531 1033.02 328.151C1033.1 327.683 1033.6 327.423 1034.02 327.636C1034.37 327.809 1034.78 327.672 1034.96 327.33C1035.18 326.909 1035.74 326.82 1036.07 327.153C1036.34 327.424 1036.78 327.424 1037.05 327.153C1037.39 326.82 1037.95 326.909 1038.16 327.33C1038.34 327.672 1038.76 327.809 1039.1 327.636C1039.52 327.423 1040.02 327.683 1040.1 328.151C1040.16 328.531 1040.52 328.79 1040.89 328.732C1041.36 328.661 1041.76 329.065 1041.69 329.534C1041.63 329.915 1041.89 330.271 1042.27 330.334C1042.73 330.412 1042.99 330.92 1042.78 331.345C1042.61 331.689 1042.74 332.108 1043.08 332.285ZM1034.84 333.9C1034.84 334.86 1035.61 335.638 1036.56 335.638C1037.51 335.638 1038.29 334.86 1038.29 333.9C1038.29 332.94 1037.51 332.163 1036.56 332.163C1035.61 332.163 1034.84 332.94 1034.84 333.9Z" fill="#6052BF"/>
<path fill-rule="evenodd" clip-rule="evenodd" d="M1050.36 359.963H1005.51C1004.57 359.963 1003.79 360.744 1003.79 361.7V368.65C1003.79 369.606 1004.57 370.388 1005.51 370.388H1007.24L1011.95 400.467C1012.22 402.156 1013.66 403.4 1015.36 403.4H1024.49H1027.94H1040.51C1042.21 403.4 1043.66 402.156 1043.92 400.467L1048.63 370.388H1050.36C1051.31 370.388 1052.08 369.606 1052.08 368.65V361.7C1052.08 360.744 1051.31 359.963 1050.36 359.963Z" fill="#7567DB" stroke="#6052BF" stroke-width="0.72"/>
<mask id="mask0" mask-type="alpha" maskUnits="userSpaceOnUse" x="1003" y="359" width="50" height="45">
<path fill-rule="evenodd" clip-rule="evenodd" d="M1050.36 359.963H1005.51C1004.57 359.963 1003.79 360.744 1003.79 361.7V368.65C1003.79 369.606 1004.57 370.388 1005.51 370.388H1007.24L1011.95 400.467C1012.22 402.156 1013.66 403.4 1015.36 403.4H1024.49H1027.94H1040.51C1042.21 403.4 1043.66 402.156 1043.92 400.467L1048.63 370.388H1050.36C1051.31 370.388 1052.08 369.606 1052.08 368.65V361.7C1052.08 360.744 1051.31 359.963 1050.36 359.963Z" fill="white" stroke="white" stroke-width="0.72"/>
</mask>
<g mask="url(#mask0)">
<rect x="1002.4" y="359.4" width="53.6" height="10.4" fill="#8C7FE5"/>
</g>
<path fill-rule="evenodd" clip-rule="evenodd" d="M274.395 162.059L264.415 163.64C263.312 163.814 262.56 164.849 262.734 165.95L271.263 219.801L285.237 217.588L276.708 163.737C276.533 162.636 275.498 161.884 274.395 162.059Z" fill="#6052BF"/>
<rect x="263.366" y="169.939" width="7.07368" height="4.03868" transform="rotate(-9 263.366 169.939)" fill="#8C7FE5"/>
<rect x="269.368" y="207.834" width="7.07368" height="4.03868" transform="rotate(-9 269.368 207.834)" fill="#8C7FE5"/>
<rect x="270.353" y="168.833" width="7.07368" height="4.03868" transform="rotate(-9 270.353 168.833)" fill="#8C7FE5"/>
<rect x="276.354" y="206.728" width="7.07368" height="4.03868" transform="rotate(-9 276.354 206.728)" fill="#8C7FE5"/>
<path fill-rule="evenodd" clip-rule="evenodd" d="M210.498 155.113H198.316C197.2 155.113 196.295 156.018 196.295 157.133V219.732H212.519V157.133C212.519 156.018 211.614 155.113 210.498 155.113Z" fill="#6052BF"/>
<rect x="196.295" y="161.171" width="8.08421" height="4.03868" fill="#8C7FE5"/>
<rect x="204.379" y="161.171" width="8.08421" height="4.03868" fill="#8C7FE5"/>
<rect x="196.295" y="209.635" width="8.08421" height="4.03868" fill="#8C7FE5"/>
<rect x="204.379" y="209.635" width="8.08421" height="4.03868" fill="#8C7FE5"/>
<path fill-rule="evenodd" clip-rule="evenodd" d="M188.211 248.003C187.458 248.003 186.75 247.582 186.403 246.887L176.297 226.693C175.798 225.695 176.203 224.483 177.201 223.984C178.198 223.487 179.414 223.889 179.913 224.887L186.19 237.43V225.79C186.19 224.675 187.093 223.771 188.211 223.771C189.328 223.771 190.232 224.675 190.232 225.79V245.984C190.232 246.92 189.586 247.734 188.674 247.949C188.521 247.985 188.364 248.003 188.211 248.003Z" fill="#6052BF"/>
<path fill-rule="evenodd" clip-rule="evenodd" d="M277.192 248.003C277.038 248.003 276.882 247.985 276.728 247.949C275.816 247.734 275.171 246.92 275.171 245.984V225.79C275.171 224.675 276.075 223.771 277.192 223.771C278.309 223.771 279.213 224.675 279.213 225.79V237.43L285.489 224.887C285.991 223.889 287.202 223.487 288.201 223.984C289.2 224.483 289.604 225.695 289.105 226.693L279 246.887C278.652 247.582 277.944 248.003 277.192 248.003Z" fill="#6052BF"/>
<path fill-rule="evenodd" clip-rule="evenodd" d="M295.437 227.809H170.021C168.905 227.809 168 226.905 168 225.79V221.751C168 220.636 168.905 219.732 170.021 219.732H295.437C296.553 219.732 297.458 220.636 297.458 221.751V225.79C297.458 226.905 296.553 227.809 295.437 227.809Z" fill="#8C7FE5" stroke="#6052BF" stroke-width="0.8"/>
<path fill-rule="evenodd" clip-rule="evenodd" d="M230.653 155.113H226.61C225.494 155.113 224.589 156.018 224.589 157.133V219.732H232.674V157.133C232.674 156.018 231.769 155.113 230.653 155.113Z" fill="#6052BF"/>
<path fill-rule="evenodd" clip-rule="evenodd" d="M260.968 155.113H256.926C255.81 155.113 254.905 156.018 254.905 157.133V219.732H262.989V157.133C262.989 156.018 262.085 155.113 260.968 155.113Z" fill="#8C7FE5" stroke="#6052BF" stroke-width="0.8"/>
<path fill-rule="evenodd" clip-rule="evenodd" d="M194.274 161.171H190.232C189.115 161.171 188.21 162.075 188.21 163.191V219.511C188.21 219.633 188.309 219.732 188.432 219.732H196.295V163.191C196.295 162.075 195.39 161.171 194.274 161.171Z" fill="#8C7FE5" stroke="#6052BF" stroke-width="0.8"/>
<path fill-rule="evenodd" clip-rule="evenodd" d="M186.647 167.286L180.585 167.18C179.469 167.161 178.548 168.049 178.529 169.164L177.648 219.64L187.751 219.816L188.632 169.341C188.652 168.226 187.763 167.306 186.647 167.286Z" fill="#6052BF"/>
<path fill-rule="evenodd" clip-rule="evenodd" d="M252.884 149.055H242.779C241.663 149.055 240.758 149.959 240.758 151.075V219.732H254.905V151.075C254.905 149.959 254 149.055 252.884 149.055Z" fill="#6052BF"/>
<path fill-rule="evenodd" clip-rule="evenodd" d="M238.737 163.191H234.695C233.579 163.191 232.674 164.095 232.674 165.21V219.732H240.758V165.21C240.758 164.095 239.853 163.191 238.737 163.191Z" fill="#8C7FE5" stroke="#6052BF" stroke-width="0.8"/>
<rect x="236.771" y="169.249" width="4.04211" height="4.03868" fill="#6052BF"/>
<path fill-rule="evenodd" clip-rule="evenodd" d="M236.771 207.616H240.813V211.655H236.771V207.616ZM232.674 207.616H236.716V211.655H232.674V207.616Z" fill="#6052BF"/>
<rect x="232.674" y="169.249" width="4.04211" height="4.03868" fill="#6052BF"/>
<path fill-rule="evenodd" clip-rule="evenodd" d="M222.569 159.152H214.484C213.368 159.152 212.463 160.056 212.463 161.171V219.732H224.59V161.171C224.59 160.056 223.685 159.152 222.569 159.152Z" fill="#8C7FE5" stroke="#6052BF" stroke-width="0.8"/>
<path fill-rule="evenodd" clip-rule="evenodd" d="M594.902 283.281L595.521 286.323C595.813 287.759 597.872 287.759 598.165 286.323L598.784 283.281C599.393 280.284 601.744 277.941 604.752 277.334L607.805 276.717C609.246 276.426 609.246 274.374 607.805 274.083L604.752 273.466C601.744 272.858 599.393 270.516 598.784 267.519L598.165 264.477C597.872 263.041 595.813 263.041 595.521 264.477L594.902 267.519C594.292 270.516 591.941 272.859 588.933 273.466L585.881 274.083C584.44 274.374 584.44 276.426 585.881 276.717L588.933 277.334C591.941 277.941 594.292 280.284 594.902 283.281Z" fill="white"/>
<path fill-rule="evenodd" clip-rule="evenodd" d="M704.466 140.938L704.838 142.765C705.013 143.627 706.25 143.627 706.425 142.765L706.797 140.938C707.163 139.139 708.575 137.732 710.381 137.367L712.214 136.997C713.079 136.822 713.079 135.59 712.214 135.415L710.381 135.045C708.575 134.68 707.163 133.273 706.797 131.473L706.425 129.647C706.25 128.784 705.013 128.784 704.838 129.647L704.466 131.473C704.1 133.273 702.688 134.68 700.882 135.045L699.049 135.415C698.184 135.59 698.184 136.822 699.049 136.997L700.882 137.367C702.688 137.732 704.1 139.139 704.466 140.938Z" fill="white"/>
<path fill-rule="evenodd" clip-rule="evenodd" d="M626.066 424.138L626.438 425.965C626.613 426.827 627.85 426.827 628.025 425.965L628.397 424.138C628.763 422.339 630.175 420.932 631.981 420.567L633.814 420.197C634.679 420.022 634.679 418.79 633.814 418.615L631.981 418.245C630.175 417.88 628.763 416.473 628.397 414.673L628.025 412.847C627.85 411.984 626.613 411.984 626.438 412.847L626.066 414.673C625.7 416.473 624.288 417.88 622.482 418.245L620.649 418.615C619.784 418.79 619.784 420.022 620.649 420.197L622.482 420.567C624.288 420.932 625.7 422.339 626.066 424.138Z" fill="white"/>
<path fill-rule="evenodd" clip-rule="evenodd" d="M742.866 484.138L743.238 485.965C743.413 486.827 744.65 486.827 744.826 485.965L745.197 484.138C745.563 482.339 746.975 480.932 748.781 480.567L750.614 480.197C751.48 480.022 751.48 478.79 750.614 478.615L748.781 478.245C746.975 477.88 745.563 476.473 745.197 474.673L744.826 472.847C744.65 471.984 743.413 471.984 743.238 472.847L742.866 474.673C742.5 476.473 741.089 477.88 739.282 478.245L737.449 478.615C736.584 478.79 736.584 480.022 737.449 480.197L739.282 480.567C741.089 480.932 742.5 482.339 742.866 484.138Z" fill="white"/>
<path fill-rule="evenodd" clip-rule="evenodd" d="M760.764 213.422L761.35 216.302C761.627 217.661 763.576 217.661 763.853 216.302L764.439 213.422C765.016 210.585 767.242 208.367 770.089 207.792L772.979 207.208C774.343 206.932 774.343 204.989 772.979 204.714L770.089 204.13C767.242 203.555 765.016 201.337 764.439 198.499L763.853 195.62C763.576 194.26 761.627 194.26 761.35 195.62L760.764 198.499C760.187 201.337 757.961 203.555 755.113 204.13L752.224 204.714C750.859 204.989 750.859 206.932 752.224 207.208L755.113 207.792C757.961 208.367 760.187 210.585 760.764 213.422Z" fill="white"/>
<path d="M717.142 294.738C717.142 294.738 722.334 302.983 724.416 308.324C726.499 313.665 728.985 326.963 728.985 326.963C728.985 326.963 734.028 333.85 742.917 337.112C751.805 340.374 761.691 341.13 761.691 341.13C761.691 341.13 768.232 339.72 770.219 340.192C772.206 340.664 773.251 342.338 774.598 342.792C779.52 344.451 782.195 344.417 782.195 344.9C782.195 345.823 781.104 346.662 781.104 346.662C781.104 346.662 790.498 348.91 790.901 350.919C791.305 352.929 786.223 354.442 782.719 355.423C779.214 356.404 773.594 357.117 770.219 356C766.843 354.883 765.995 354.011 763.724 352.849C761.453 351.688 759.937 351.449 759.937 351.449C759.937 351.449 754.441 352.048 746.059 351.038C737.676 350.028 722.314 346.244 722.314 346.244C722.314 346.244 720.198 344.861 718.157 338.214C716.115 331.567 713.989 319.139 713.989 319.139L717.142 294.738Z" fill="#F3B78B" stroke="#D59B86" stroke-width="0.64"/>
<path d="M773.665 347.182L781.507 347.082" stroke="#E6A67D" stroke-width="0.64"/>
<path d="M772.093 346.096C772.093 346.096 770.8 348.012 770.013 348.779C769.226 349.546 767.932 350.152 767.932 350.152" stroke="#E6A67D" stroke-width="0.64"/>
<path d="M761.567 344.499C761.797 344.499 763.155 345.321 765.439 345.321C766.325 345.321 768.459 344.499 768.459 344.499" stroke="#E6A67D" stroke-width="0.64"/>
<path d="M681.043 280.086C681.043 280.086 682.232 284.622 681.553 286.452C680.875 288.283 676.193 292.046 676.193 292.046C676.193 292.046 684.648 294.531 689.021 294.43C693.395 294.328 703.442 291.28 703.442 291.28C703.442 291.28 699.556 288.402 698.655 286.452C697.754 284.503 697.651 280.086 697.651 280.086H681.043Z" fill="#E1A078"/>
<path d="M684.338 443.146L682.384 501.376L686.223 507.987C686.223 507.987 668.967 510.236 669.452 509.698C669.666 509.462 669.991 508.108 670.728 506.005C671.11 504.917 672.562 502.106 672.562 502.106L665.417 444.901L684.338 443.146Z" fill="#F3B78B" stroke="#D59B86" stroke-width="0.64"/>
<path d="M694.821 444.23L697.795 502.417L694.072 509.094C694.072 509.094 711.365 511.042 710.87 510.513C710.653 510.28 710.304 508.932 709.53 506.843C709.129 505.762 707.628 502.976 707.628 502.976L713.77 445.656L694.821 444.23Z" fill="#F3B78B" stroke="#D59B86" stroke-width="0.64"/>
<path d="M665.817 513.411C665.817 513.411 665.015 507.184 676.045 506.163C687.075 505.142 690.602 509.659 690.602 509.659C690.602 509.659 695.472 504.921 705.457 506.163C715.442 507.405 715.442 513.411 715.442 513.411H665.817Z" fill="#DA3337"/>
<path d="M663.209 317.311C663.209 317.311 664.295 328.594 665.044 334.149C665.612 338.36 666.716 344.699 667.217 347.519C667.383 348.458 667.248 349.419 666.855 350.288C664.777 354.877 658.053 370.929 655.611 391.446C652.707 415.846 653.43 443.426 653.43 443.426H728.091C728.091 443.426 728.962 416.299 725.233 393.346C722.062 373.827 714.312 355.407 712.065 350.333C711.667 349.435 711.56 348.446 711.772 347.487C712.422 344.55 713.872 337.931 714.596 334.149C715.545 329.186 717.038 319.722 717.038 319.722L728.091 318.354C728.091 318.354 725.56 303.377 721.169 298.432C713.403 289.686 702.431 290.42 702.025 290.42C701.627 290.42 696.322 293.007 688.905 293.311C685.152 293.465 676.348 291.454 676.348 291.454C676.348 291.454 666.134 290.543 659.671 296.726C653.209 302.909 652.676 314.806 652.676 314.806L663.209 317.311Z" fill="#1E2147"/>
<path d="M665.044 334.149C665.612 338.36 666.716 344.699 667.217 347.519C667.383 348.458 667.248 349.419 666.855 350.288C664.777 354.877 658.053 370.929 655.611 391.446C653.351 410.434 653.288 432.874 653.371 441.894C653.392 444.151 655.231 445.946 657.488 445.946H724.055C726.303 445.946 728.138 444.166 728.161 441.918C728.251 433.043 728.129 411.176 725.233 393.346C722.062 373.826 714.312 355.407 712.065 350.333C711.667 349.435 711.56 348.446 711.772 347.487C712.422 344.55 713.872 337.931 714.596 334.149C715.545 329.186 717.038 319.722 717.038 319.722C717.038 319.722 707.414 290.913 707.025 290.782C706.862 290.728 705.743 290.565 704.575 290.472C703.88 290.417 702.363 290.424 702.363 290.424C702.363 290.424 707.216 318.52 702.025 330.251C699.63 335.665 682.421 335.883 677.664 331.123C672.908 326.364 676.751 291.557 676.751 291.557C676.751 291.557 674.692 291.333 673.6 291.333C672.508 291.333 670.723 291.557 670.723 291.557L663.262 317.392C663.262 317.392 665.025 334.006 665.044 334.149Z" fill="#48BF82"/>
<path d="M653.832 315.4C652.64 320.374 651.264 332.373 649.567 338.6C645.781 352.487 642.068 384.904 642.068 384.904C642.068 384.904 641.159 388.399 641.159 390.815C641.159 393.231 643.751 397.793 643.751 397.793C643.751 397.793 652.773 401.93 654.302 401.93C655.831 401.93 656.616 400.889 657.099 399.848C657.582 398.807 657.099 395.887 657.099 395.887C657.099 395.887 657.192 389.96 656.698 388.399C656.203 386.837 653.516 383.194 653.516 383.194C653.516 383.194 657.794 355.129 659.988 347.081C660.369 345.687 662.799 339.49 665.057 332.819C664.825 329.186 664.137 326.405 663.826 324.2C663.346 320.793 663.232 318.734 662.938 316.83C656.698 316.2 659.169 316.522 653.832 315.4Z" fill="#F3B78B" stroke="#D59B86" stroke-width="0.5"/>
<path d="M652.676 390.815C652.676 390.815 653.286 393.473 653.286 394.949C653.286 396.424 654.462 397.471 654.838 398.303C655.213 399.134 655.389 398.371 656.038 397.793C656.687 397.215 656.999 396.205 656.999 396.205" stroke="#D59B86" stroke-width="0.52"/>
<path d="M649.557 396.864C649.557 396.989 650.085 398.038 651.58 399.848C652.093 400.47 653.603 401.93 653.603 401.93" stroke="#D59B86" stroke-width="0.52"/>
<path d="M646.843 397.115C646.843 397.115 647.106 398.25 647.676 398.921C648.245 399.591 649.909 400.726 649.909 400.726" stroke="#D59B86" stroke-width="0.52"/>
<path d="M689.778 302.456C691.36 302.456 692.642 301.187 692.642 299.622C692.642 298.057 691.36 296.788 689.778 296.788C688.196 296.788 686.914 298.057 686.914 299.622C686.914 301.187 688.196 302.456 689.778 302.456Z" fill="#FFDE63"/>
<path d="M689.778 315.702C691.36 315.702 692.642 314.434 692.642 312.869C692.642 311.304 691.36 310.035 689.778 310.035C688.196 310.035 686.914 311.304 686.914 312.869C686.914 314.434 688.196 315.702 689.778 315.702Z" fill="#FFDE63"/>
<path d="M689.778 328.003C691.36 328.003 692.642 326.734 692.642 325.169C692.642 323.604 691.36 322.335 689.778 322.335C688.196 322.335 686.914 323.604 686.914 325.169C686.914 326.734 688.196 328.003 689.778 328.003Z" fill="#FFDE63"/>
<path d="M663.826 357.356L714.885 357L711.857 349.13H667.023L663.826 357.356Z" fill="#4C5B9D"/>
<path d="M686.886 210.769C700.676 211.729 712.5 203.314 713.296 191.972C714.092 180.63 703.558 170.656 689.769 169.695C675.979 168.735 664.155 177.15 663.359 188.492C662.563 199.834 673.097 209.808 686.886 210.769Z" fill="#3C1715"/>
<path d="M646.246 257.016C649.691 257.016 652.483 253.319 652.483 248.758C652.483 244.198 649.691 240.501 646.246 240.501C642.802 240.501 640.009 244.198 640.009 248.758C640.009 253.319 642.802 257.016 646.246 257.016Z" fill="#E1A078"/>
<path d="M725.734 253.235C729.179 253.235 731.971 249.538 731.971 244.978C731.971 240.417 729.179 236.72 725.734 236.72C722.289 236.72 719.497 240.417 719.497 244.978C719.497 249.538 722.289 253.235 725.734 253.235Z" fill="#E1A078"/>
<path d="M687.396 282.845C709.768 282.845 727.904 266.087 727.904 245.416C727.904 224.744 709.768 207.987 687.396 207.987C665.024 207.987 646.888 224.744 646.888 245.416C646.888 266.087 665.024 282.845 687.396 282.845Z" fill="#F3B78B"/>
<path d="M641.984 242.686C641.984 242.686 642.487 191.34 685.433 191.34C728.38 191.34 729.856 238.834 729.856 238.834C729.856 238.834 705.619 230.661 696.245 226.74C688.67 223.571 679.986 217.642 669.79 217.642C665.068 217.642 657.727 220.468 652.115 227.557C649.648 230.673 647.203 240.566 647.203 240.566C647.203 240.566 645.636 240.402 644.655 240.802C643.673 241.201 641.984 242.686 641.984 242.686Z" fill="#53231B"/>
<path d="M647.167 240.534C647.167 240.534 647.111 200.859 685.708 200.859C724.304 200.859 727.177 237.843 727.177 237.843C727.177 237.843 709.256 232.801 697.681 227.448C689.327 223.584 675.705 216.399 667.032 217.888C655.23 219.915 647.167 240.534 647.167 240.534Z" fill="#723322"/>
<path d="M665.996 254.111C667.684 254.111 669.053 252.08 669.053 249.575C669.053 247.069 667.684 245.038 665.996 245.038C664.307 245.038 662.938 247.069 662.938 249.575C662.938 252.08 664.307 254.111 665.996 254.111Z" fill="black"/>
<path d="M704.211 252.599C705.899 252.599 707.268 250.568 707.268 248.062C707.268 245.557 705.899 243.525 704.211 243.525C702.523 243.525 701.154 245.557 701.154 248.062C701.154 250.568 702.523 252.599 704.211 252.599Z" fill="black"/>
<path d="M665.995 249.575C666.84 249.575 667.524 248.897 667.524 248.062C667.524 247.227 666.84 246.55 665.995 246.55C665.151 246.55 664.467 247.227 664.467 248.062C664.467 248.897 665.151 249.575 665.995 249.575Z" fill="white"/>
<path d="M704.211 248.062C705.055 248.062 705.739 247.385 705.739 246.55C705.739 245.715 705.055 245.038 704.211 245.038C703.367 245.038 702.682 245.715 702.682 246.55C702.682 247.385 703.367 248.062 704.211 248.062Z" fill="white"/>
<path d="M662.556 266.21C665.3 266.21 667.524 264.009 667.524 261.295C667.524 258.58 665.3 256.38 662.556 256.38C659.813 256.38 657.588 258.58 657.588 261.295C657.588 264.009 659.813 266.21 662.556 266.21Z" fill="#EFA481"/>
<path d="M714.147 261.673C717.101 261.673 719.497 259.303 719.497 256.38C719.497 253.457 717.101 251.087 714.147 251.087C711.192 251.087 708.796 253.457 708.796 256.38C708.796 259.303 711.192 261.673 714.147 261.673Z" fill="#EFA481"/>
<path d="M727.177 258.648C729.288 258.648 730.999 256.617 730.999 254.111C730.999 251.606 729.288 249.575 727.177 249.575C725.066 249.575 723.355 251.606 723.355 254.111C723.355 256.617 725.066 258.648 727.177 258.648Z" fill="#DA3337"/>
<path d="M646.888 260.16C648.998 260.16 650.709 258.129 650.709 255.624C650.709 253.118 648.998 251.087 646.888 251.087C644.777 251.087 643.066 253.118 643.066 255.624C643.066 258.129 644.777 260.16 646.888 260.16Z" fill="#DA3337"/>
<path d="M672.944 263.323C672.944 263.323 683.2 264.7 688.813 264.6C694.426 264.5 703.622 262.411 703.622 262.411C703.622 262.411 697.841 274.588 689.223 275.036C680.605 275.485 672.944 263.323 672.944 263.323Z" fill="#AA4F44"/>
<path d="M673.163 263.432C673.163 263.432 683.24 264.891 688.852 264.861C694.465 264.831 703.304 262.613 703.304 262.613C703.304 262.613 697.841 267.583 689.223 267.717C680.606 267.851 673.163 263.432 673.163 263.432Z" fill="white"/>
<path d="M679.245 270.962C679.245 270.962 681.605 270.996 686.358 270.962C691.111 270.927 697.832 270.962 697.832 270.962C697.832 270.962 693.527 275.015 688.551 275.015C683.574 275.015 679.245 270.962 679.245 270.962Z" fill="#CC5F54"/>
<path d="M689.199 246.933C689.199 246.933 690.857 253.73 690.009 255.467C689.161 257.204 683.82 256.993 683.82 256.993C683.82 256.993 687.718 255.668 688.573 253.918C689.428 252.167 689.199 246.933 689.199 246.933Z" fill="#CC8D66"/>
<path d="M667.659 236.452C667.659 236.452 662.213 236.097 660.594 236.943C658.975 237.789 658.471 241.254 658.471 241.254C658.471 241.254 660.747 239.245 662.373 238.801C663.999 238.356 667.45 238.801 667.45 238.801L667.659 236.452Z" fill="#3C1715"/>
<path d="M702.682 236.825C702.682 236.825 708.128 236.47 709.747 237.316C711.366 238.162 711.87 241.627 711.87 241.627C711.87 241.627 709.593 239.618 707.967 239.174C706.341 238.729 702.891 239.174 702.891 239.174L702.682 236.825Z" fill="#3C1715"/>
<path d="M689.495 362.225C694.138 362.225 697.901 358.46 697.901 353.817C697.901 349.174 694.138 345.41 689.495 345.41C684.853 345.41 681.089 349.174 681.089 353.817C681.089 358.46 684.853 362.225 689.495 362.225Z" fill="#4C5B9D" stroke="#7567DB" stroke-width="1.04"/>
<mask id="mask1" mask-type="alpha" maskUnits="userSpaceOnUse" x="680" y="344" width="19" height="19">
<path d="M689.495 362.225C694.138 362.225 697.901 358.46 697.901 353.817C697.901 349.174 694.138 345.41 689.495 345.41C684.853 345.41 681.089 349.174 681.089 353.817C681.089 358.46 684.853 362.225 689.495 362.225Z" fill="white" stroke="white" stroke-width="1.04"/>
</mask>
<g mask="url(#mask1)">
<path fill-rule="evenodd" clip-rule="evenodd" d="M694.383 361.723C694.098 361.723 693.877 361.641 693.719 361.477C693.562 361.313 693.483 361.093 693.483 360.815V357.249L690.193 357.235C689.698 357.225 689.248 357.155 688.844 357.026C687.46 356.57 686.768 355.58 686.768 354.056V351.608C686.773 351.29 686.86 351.054 687.03 350.9C687.19 350.762 687.397 350.692 687.652 350.692C687.927 350.692 688.149 350.767 688.319 350.915C688.474 351.054 688.551 351.263 688.551 351.541V353.61C688.551 354.314 688.743 354.838 689.125 355.18C689.507 355.523 690.153 355.694 691.062 355.694H691.999C692.854 355.704 693.348 355.709 693.483 355.709V351.6C693.483 351.312 693.563 351.087 693.723 350.923C693.868 350.769 694.088 350.692 694.383 350.692C694.668 350.692 694.886 350.771 695.039 350.93C695.191 351.089 695.267 351.312 695.267 351.6V360.815C695.267 361.093 695.188 361.313 695.031 361.477C694.874 361.641 694.658 361.723 694.383 361.723Z" fill="#FFDE63"/>
</g>
<g filter="url(#filter0_d)">
<path fill-rule="evenodd" clip-rule="evenodd" d="M465.096 159.895C469.504 201.834 514.471 211.632 568.079 205.997C576.853 205.892 585.519 205.053 593.814 203.509C597.938 207.921 603.805 213.972 607.439 216.738C611.743 220.016 618.867 222.798 622.648 224.139C623.283 224.364 623.755 223.589 623.278 223.114C620.255 220.098 614.524 214.233 612.689 211.33C609.515 206.309 608.133 202.537 607.53 200.206C639.276 190.697 662.41 169.779 659.226 139.491C655.327 102.388 609.873 87.9676 556.266 93.602C502.658 99.2364 461.025 121.163 465.096 159.895Z" fill="white"/>
</g>
<path opacity="0.8" d="M531.586 140.944C531.267 140.978 531.007 140.91 530.805 140.741C530.608 140.572 530.493 140.327 530.46 140.008L529.423 130.146L523.252 130.794L524.289 140.657C524.322 140.976 524.258 141.239 524.095 141.446C523.939 141.653 523.703 141.773 523.39 141.806C523.071 141.839 522.81 141.772 522.608 141.603C522.412 141.433 522.297 141.189 522.263 140.87L521.151 130.289C521.117 129.959 521.175 129.693 521.327 129.493C521.484 129.292 521.728 129.174 522.059 129.139L530.255 128.278C530.58 128.244 530.837 128.309 531.027 128.473C531.223 128.637 531.338 128.884 531.373 129.215L532.485 139.795C532.519 140.115 532.454 140.378 532.292 140.585C532.135 140.791 531.9 140.911 531.586 140.944ZM541.759 138.337C541.067 139.366 540.119 139.944 538.917 140.07C537.515 140.217 536.494 139.924 535.852 139.191L536.273 143.113C536.307 143.438 536.249 143.706 536.098 143.918C535.948 144.135 535.722 144.26 535.42 144.291C535.136 144.321 534.897 144.248 534.706 144.073C534.496 143.882 534.374 143.629 534.342 143.316L533.179 132.257C533.146 131.938 533.211 131.66 533.377 131.424C533.528 131.218 533.746 131.1 534.031 131.07C534.623 131.007 535.003 131.356 535.169 132.117C535.69 131.209 536.634 130.684 538.002 130.54C539.272 130.406 540.331 130.808 541.179 131.744C541.954 132.596 542.411 133.683 542.55 135.005C542.681 136.258 542.418 137.369 541.759 138.337ZM539.786 133.126C539.219 132.448 538.531 132.152 537.722 132.237C536.89 132.325 536.268 132.733 535.855 133.462C535.52 134.056 535.394 134.749 535.477 135.541C535.562 136.35 535.829 137.027 536.278 137.574C536.833 138.247 537.532 138.539 538.375 138.451C539.167 138.367 539.768 137.973 540.178 137.267C540.549 136.635 540.692 135.909 540.606 135.088C540.528 134.347 540.255 133.693 539.786 133.126ZM551.469 138.88C550.933 138.937 550.601 138.6 550.472 137.87C549.948 138.749 548.974 139.264 547.55 139.413C546.513 139.522 545.658 139.313 544.986 138.784C544.314 138.256 543.926 137.49 543.82 136.487L543.27 131.248C543.235 130.923 543.304 130.64 543.474 130.397C543.619 130.186 543.839 130.065 544.136 130.034C544.432 130.002 544.676 130.075 544.867 130.251C545.066 130.443 545.183 130.707 545.218 131.043L545.719 135.812C545.789 136.473 546.042 136.994 546.48 137.374C546.925 137.771 547.489 137.933 548.173 137.861C548.862 137.789 549.38 137.51 549.727 137.024C550.058 136.563 550.19 136.005 550.121 135.35L549.62 130.581C549.586 130.256 549.651 129.972 549.816 129.73C549.966 129.519 550.184 129.398 550.469 129.368C550.776 129.336 551.026 129.407 551.217 129.583C551.416 129.775 551.533 130.04 551.568 130.376L552.336 137.675C552.368 137.988 552.308 138.259 552.153 138.489C551.999 138.718 551.771 138.849 551.469 138.88ZM561.971 136.04C561.854 136.455 561.681 136.759 561.453 136.95C560.804 137.508 559.889 137.848 558.709 137.972L554.966 138.366C554.635 138.401 554.371 138.319 554.171 138.121C553.952 137.902 553.823 137.605 553.784 137.229L553.052 130.272C553.012 129.884 553.078 129.552 553.25 129.274C553.393 129.046 553.627 128.915 553.952 128.881L557.439 128.514C558.806 128.371 559.783 128.706 560.37 129.52C560.545 129.755 560.648 130.026 560.68 130.334C560.734 130.847 560.657 131.319 560.449 131.75C560.216 132.223 559.859 132.552 559.377 132.735C561.005 132.604 561.903 133.331 562.069 134.915C562.109 135.296 562.077 135.671 561.971 136.04ZM556.817 130.083L555.005 130.274L555.253 132.633L557.065 132.442C558.319 132.31 558.901 131.823 558.813 130.98C558.736 130.25 558.071 129.952 556.817 130.083ZM557.742 133.952L555.418 134.197L555.69 136.786L558.228 136.519C559.641 136.371 560.302 135.861 560.21 134.989C560.121 134.134 559.298 133.789 557.742 133.952ZM570.908 132.689L564.575 133.355C564.682 134.202 565.117 134.836 565.881 135.257C566.487 135.591 567.168 135.718 567.926 135.638C568.382 135.591 568.868 135.424 569.386 135.139C569.466 135.079 569.845 134.826 570.524 134.38C570.67 134.284 570.802 134.23 570.922 134.218C571.099 134.199 571.266 134.256 571.424 134.389C571.595 134.538 571.691 134.713 571.712 134.912C571.756 135.328 571.391 135.778 570.619 136.263C569.755 136.814 568.827 137.142 567.836 137.247C566.434 137.394 565.244 137.055 564.264 136.231C563.29 135.406 562.73 134.292 562.582 132.891C562.443 131.563 562.76 130.363 563.535 129.291C564.278 128.256 565.297 127.671 566.59 127.535C567.525 127.437 568.406 127.624 569.233 128.096C570.036 128.559 570.664 129.213 571.116 130.058C571.382 130.56 571.543 131.079 571.599 131.615C571.668 132.275 571.438 132.634 570.908 132.689ZM568.603 129.501C568.099 129.093 567.48 128.928 566.745 129.005C566.027 129.081 565.456 129.377 565.032 129.894C564.828 130.146 564.663 130.463 564.536 130.845C564.413 131.203 564.358 131.509 564.373 131.76L569.655 131.205C569.501 130.507 569.15 129.939 568.603 129.501ZM585.576 135.27C585.302 135.298 585.073 135.225 584.887 135.048C584.681 134.845 584.561 134.581 584.527 134.257L584.026 129.487C583.96 128.861 583.742 128.348 583.372 127.949C582.976 127.53 582.462 127.353 581.83 127.42C581.186 127.487 580.714 127.767 580.415 128.26C580.135 128.727 580.029 129.274 580.095 129.901L580.596 134.67C580.631 135.006 580.572 135.289 580.417 135.518C580.284 135.728 580.069 135.848 579.772 135.88C579.482 135.91 579.249 135.837 579.075 135.659C578.876 135.467 578.759 135.203 578.724 134.866L578.223 130.097C578.157 129.471 577.939 128.958 577.569 128.559C577.173 128.14 576.659 127.963 576.027 128.03C574.711 128.168 574.132 128.995 574.291 130.511L574.793 135.28C574.828 135.616 574.771 135.895 574.622 136.119C574.477 136.335 574.26 136.459 573.969 136.49C573.696 136.518 573.466 136.445 573.281 136.268C573.075 136.065 572.955 135.801 572.921 135.476L572.155 128.186C572.121 127.861 572.183 127.578 572.342 127.337C572.487 127.126 572.696 127.006 572.969 126.977C573.209 126.952 573.424 127.024 573.614 127.194C573.81 127.358 573.936 127.573 573.993 127.837C574.442 127.07 575.334 126.616 576.667 126.476C577.71 126.367 578.579 126.713 579.274 127.516C579.521 127.075 579.928 126.698 580.494 126.385C581.006 126.106 581.525 125.94 582.049 125.885C583.188 125.765 584.079 125.965 584.721 126.485C585.363 126.999 585.739 127.778 585.848 128.821L586.399 134.06C586.434 134.396 586.377 134.676 586.228 134.899C586.084 135.115 585.866 135.239 585.576 135.27ZM590.652 130.537C590.431 130.738 590.133 130.859 589.756 130.899C589.403 130.936 589.098 130.879 588.84 130.727C588.601 130.597 588.469 130.409 588.444 130.164L587.692 123.01C587.664 122.742 587.747 122.521 587.941 122.345C588.135 122.163 588.429 122.051 588.822 122.01C589.637 121.924 590.075 122.172 590.136 122.753L590.888 129.907C590.915 130.163 590.836 130.373 590.652 130.537ZM590.177 134.898C589.841 134.934 589.529 134.877 589.243 134.729C588.914 134.556 588.732 134.31 588.699 133.991C588.665 133.666 588.791 133.388 589.078 133.156C589.327 132.951 589.62 132.831 589.956 132.796C590.292 132.761 590.603 132.817 590.89 132.966C591.218 133.133 591.4 133.379 591.434 133.703C591.467 134.023 591.341 134.301 591.055 134.538C590.806 134.743 590.513 134.863 590.177 134.898ZM491.95 167.913C491.642 167.946 491.39 167.877 491.194 167.707C490.998 167.544 490.884 167.305 490.851 166.992L490.543 164.06L482.919 164.862L483.227 167.793C483.26 168.106 483.198 168.364 483.04 168.564C482.883 168.771 482.651 168.891 482.343 168.923C482.024 168.956 481.767 168.888 481.57 168.719C481.374 168.555 481.26 168.317 481.227 168.003L480.844 164.362C480.795 163.889 480.966 163.546 481.358 163.332C481.379 163.307 481.414 163.286 481.464 163.269C481.52 163.252 481.614 163.219 481.747 163.17C482.57 162.888 482.893 161.903 482.716 160.217L482.708 160.14L481.975 153.494C481.941 153.175 482.003 152.909 482.159 152.697C482.306 152.509 482.542 152.398 482.867 152.363L488.927 151.726C489.257 151.692 489.514 151.751 489.697 151.905C489.893 152.074 490.009 152.321 490.043 152.646L491.049 162.218C491.559 162.194 491.92 162.256 492.132 162.407C492.319 162.543 492.431 162.787 492.468 163.141L492.851 166.782C492.884 167.095 492.821 167.352 492.664 167.553C492.507 167.76 492.269 167.88 491.95 167.913ZM488.109 153.567L484.049 153.993L484.569 159.106C484.709 160.439 484.648 161.719 484.385 162.945L489.043 162.455L488.109 153.567ZM501.325 163.221C500.664 163.29 500.27 162.888 500.144 162.014C499.783 163.02 498.873 163.599 497.414 163.753C496.509 163.848 495.686 163.669 494.947 163.217C494.244 162.778 493.693 162.139 493.294 161.3C493.013 160.707 492.835 160.052 492.759 159.334C492.624 158.052 492.869 156.903 493.494 155.887C494.178 154.772 495.144 154.149 496.391 154.018C497.736 153.877 498.758 154.253 499.457 155.148C499.403 154.641 499.496 154.262 499.735 154.012C499.901 153.839 500.098 153.741 500.326 153.717C500.73 153.674 501.009 153.778 501.162 154.027C501.26 154.189 501.334 154.515 501.386 155.005L502.095 161.749C502.156 162.336 502.101 162.742 501.929 162.967C501.823 163.105 501.621 163.19 501.325 163.221ZM498.131 155.857C497.779 155.687 497.381 155.625 496.937 155.672C496.116 155.758 495.502 156.162 495.094 156.885C494.736 157.533 494.601 158.282 494.691 159.131C494.777 159.951 495.053 160.634 495.519 161.178C496.071 161.823 496.766 162.101 497.603 162.013C498.401 161.93 499.001 161.527 499.403 160.805C499.762 160.162 499.898 159.425 499.81 158.593C499.67 157.26 499.11 156.348 498.131 155.857ZM511.797 160.418C511.679 160.833 511.507 161.137 511.279 161.328C510.629 161.886 509.715 162.227 508.535 162.351L504.792 162.744C504.461 162.779 504.196 162.697 503.997 162.499C503.778 162.28 503.649 161.983 503.609 161.607L502.878 154.65C502.837 154.262 502.903 153.93 503.076 153.653C503.219 153.424 503.453 153.293 503.777 153.259L507.264 152.893C508.632 152.749 509.609 153.084 510.196 153.898C510.37 154.133 510.474 154.404 510.506 154.712C510.56 155.225 510.483 155.697 510.275 156.128C510.042 156.601 509.685 156.93 509.203 157.113C510.831 156.982 511.728 157.709 511.895 159.293C511.935 159.675 511.902 160.05 511.797 160.418ZM506.643 154.461L504.831 154.652L505.079 157.011L506.891 156.82C508.144 156.689 508.727 156.201 508.638 155.358C508.562 154.628 507.897 154.33 506.643 154.461ZM507.568 158.33L505.243 158.575L505.516 161.164L508.054 160.898C509.467 160.749 510.128 160.239 510.036 159.367C509.946 158.513 509.124 158.167 507.568 158.33ZM521.29 161.122C520.629 161.192 520.235 160.79 520.109 159.916C519.748 160.922 518.838 161.501 517.38 161.654C516.474 161.75 515.651 161.571 514.912 161.119C514.21 160.68 513.658 160.041 513.259 159.201C512.978 158.609 512.8 157.953 512.724 157.236C512.589 155.954 512.834 154.804 513.459 153.788C514.143 152.674 515.109 152.051 516.356 151.92C517.701 151.778 518.723 152.155 519.422 153.049C519.368 152.542 519.461 152.164 519.7 151.914C519.866 151.741 520.063 151.642 520.291 151.619C520.696 151.576 520.974 151.679 521.127 151.928C521.225 152.091 521.299 152.417 521.351 152.907L522.06 159.65C522.121 160.237 522.066 160.643 521.894 160.869C521.788 161.007 521.586 161.091 521.29 161.122ZM518.096 153.759C517.744 153.588 517.346 153.527 516.902 153.573C516.081 153.66 515.467 154.064 515.059 154.787C514.701 155.435 514.566 156.184 514.656 157.033C514.742 157.853 515.018 158.535 515.484 159.08C516.036 159.725 516.731 160.003 517.568 159.915C518.366 159.831 518.966 159.428 519.368 158.706C519.727 158.064 519.863 157.326 519.775 156.494C519.635 155.161 519.075 154.249 518.096 153.759ZM528.381 148.841C527.924 149.212 527.371 149.431 526.722 149.5L526.645 149.508C525.99 149.576 525.405 149.465 524.89 149.174C524.375 148.876 524.088 148.446 524.029 147.882C524.008 147.688 524.065 147.518 524.2 147.371C524.333 147.219 524.5 147.132 524.699 147.111C524.905 147.09 525.082 147.137 525.233 147.254C525.389 147.37 525.478 147.528 525.499 147.727C525.545 148.171 525.917 148.363 526.613 148.301C526.63 148.299 526.647 148.298 526.664 148.296C527.229 148.237 527.519 147.984 527.535 147.539C527.514 147.334 527.567 147.155 527.695 147.004C527.829 146.851 527.998 146.764 528.204 146.743C528.403 146.722 528.584 146.772 528.746 146.893C528.908 147.009 529 147.166 529.021 147.366C529.021 147.371 529.022 147.377 529.023 147.383C529.082 147.952 528.869 148.439 528.381 148.841ZM531.002 160.136C530.757 160.162 530.531 160.093 530.324 159.931C530.122 159.762 529.998 159.545 529.953 159.279C529.527 160.049 528.571 160.513 527.084 160.669C526.047 160.778 525.193 160.577 524.523 160.065C523.852 159.548 523.465 158.8 523.362 157.82L522.825 152.709C522.791 152.384 522.854 152.11 523.015 151.885C523.155 151.68 523.381 151.562 523.695 151.529C523.991 151.497 524.235 151.57 524.426 151.746C524.623 151.921 524.739 152.174 524.774 152.504L525.262 157.153C525.329 157.792 525.582 158.304 526.02 158.69C526.458 159.076 527.022 159.232 527.711 159.16C528.401 159.087 528.919 158.814 529.267 158.34C529.599 157.884 529.732 157.335 529.664 156.691L529.175 152.041C529.141 151.717 529.202 151.442 529.357 151.219C529.502 151.013 529.726 150.895 530.028 150.863C530.336 150.831 530.585 150.902 530.776 151.078C530.973 151.253 531.089 151.506 531.124 151.837L531.872 158.956C531.904 159.264 531.843 159.529 531.688 159.753C531.533 159.977 531.304 160.104 531.002 160.136ZM545.931 158.541C545.657 158.57 545.428 158.496 545.242 158.32C545.036 158.117 544.917 157.853 544.882 157.528L544.381 152.759C544.315 152.132 544.097 151.619 543.727 151.221C543.331 150.801 542.818 150.625 542.185 150.691C541.541 150.759 541.069 151.039 540.77 151.531C540.491 151.998 540.384 152.545 540.45 153.172L540.951 157.941C540.986 158.277 540.927 158.56 540.772 158.79C540.639 158.999 540.424 159.12 540.128 159.151C539.837 159.182 539.605 159.108 539.43 158.931C539.232 158.738 539.115 158.474 539.079 158.138L538.578 153.369C538.512 152.742 538.294 152.229 537.924 151.83C537.528 151.411 537.014 151.235 536.382 151.301C535.066 151.44 534.487 152.267 534.647 153.782L535.148 158.551C535.183 158.887 535.126 159.167 534.977 159.39C534.832 159.607 534.615 159.731 534.324 159.761C534.051 159.79 533.821 159.716 533.636 159.54C533.43 159.337 533.31 159.073 533.276 158.748L532.51 151.458C532.476 151.133 532.538 150.85 532.697 150.608C532.842 150.397 533.051 150.277 533.325 150.249C533.564 150.223 533.779 150.296 533.97 150.466C534.165 150.63 534.292 150.844 534.348 151.109C534.798 150.342 535.689 149.888 537.022 149.748C538.065 149.638 538.934 149.985 539.629 150.787C539.876 150.346 540.283 149.969 540.849 149.656C541.362 149.378 541.88 149.211 542.404 149.156C543.543 149.036 544.434 149.236 545.077 149.757C545.718 150.271 546.094 151.049 546.204 152.092L546.754 157.331C546.79 157.667 546.732 157.947 546.583 158.17C546.439 158.387 546.221 158.511 545.931 158.541ZM555.878 153.374L549.545 154.04C549.651 154.887 550.087 155.521 550.851 155.942C551.456 156.275 552.138 156.403 552.896 156.323C553.352 156.275 553.838 156.109 554.355 155.824C554.436 155.764 554.815 155.511 555.494 155.065C555.639 154.969 555.772 154.914 555.892 154.902C556.068 154.883 556.236 154.941 556.394 155.074C556.565 155.223 556.661 155.397 556.682 155.597C556.726 156.012 556.361 156.463 555.588 156.947C554.724 157.499 553.797 157.827 552.805 157.931C551.404 158.078 550.213 157.74 549.234 156.915C548.26 156.09 547.699 154.977 547.552 153.575C547.412 152.247 547.73 151.048 548.504 149.975C549.248 148.941 550.267 148.356 551.56 148.22C552.495 148.121 553.375 148.308 554.203 148.78C555.006 149.243 555.634 149.897 556.085 150.742C556.351 151.245 556.512 151.763 556.569 152.299C556.638 152.96 556.408 153.318 555.878 153.374ZM553.573 150.186C553.069 149.778 552.45 149.612 551.715 149.69C550.997 149.765 550.426 150.061 550.002 150.578C549.798 150.83 549.633 151.147 549.506 151.529C549.382 151.888 549.328 152.193 549.343 152.445L554.625 151.89C554.471 151.192 554.12 150.624 553.573 150.186ZM572.901 155.43C572.273 155.755 571.637 155.952 570.993 156.019C569.625 156.163 568.461 155.802 567.5 154.935C566.571 154.093 566.035 152.998 565.893 151.647C565.753 150.32 566.077 149.119 566.862 148.046C567.629 147.009 568.665 146.422 569.97 146.285C571.223 146.153 572.177 146.318 572.83 146.779C572.998 146.9 573.094 147.068 573.116 147.285C573.142 147.524 573.091 147.754 572.964 147.975C572.867 148.146 572.73 148.241 572.554 148.26C572.343 148.282 571.989 148.23 571.492 148.104C570.994 147.977 570.595 147.93 570.293 147.962C569.387 148.057 568.714 148.476 568.273 149.22C567.912 149.839 567.777 150.579 567.867 151.44C567.955 152.272 568.254 152.957 568.766 153.497C569.374 154.124 570.105 154.393 570.959 154.303C571.324 154.265 571.758 154.119 572.261 153.864C572.687 153.641 572.923 153.527 572.968 153.522C573.196 153.498 573.392 153.555 573.557 153.693C573.726 153.825 573.823 154.005 573.847 154.233C573.893 154.678 573.578 155.077 572.901 155.43ZM582.716 157.31C581.95 158.134 580.798 158.627 579.26 158.788C578.49 158.869 577.655 158.813 576.753 158.62C575.746 158.409 575.218 158.07 575.169 157.603C575.152 157.449 575.22 157.269 575.371 157.063C575.507 156.876 575.646 156.775 575.789 156.76C575.988 156.739 576.437 156.818 577.136 156.998C577.965 157.216 578.69 157.293 579.312 157.228C580.121 157.143 580.756 156.854 581.217 156.362C581.678 155.876 581.867 155.231 581.782 154.427L581.674 153.393L581.528 153.573C581.014 154.376 580.092 154.847 578.765 154.986C577.437 155.126 576.376 154.759 575.582 153.887C574.845 153.071 574.407 152.002 574.268 150.681C574.17 149.746 574.285 148.87 574.614 148.052C575.244 146.482 576.331 145.616 577.875 145.454C579.226 145.312 580.237 145.666 580.908 146.518C580.907 146.506 580.905 146.495 580.904 146.483C580.819 145.669 581.112 145.226 581.784 145.155C582.086 145.124 582.33 145.193 582.515 145.364C582.713 145.55 582.829 145.809 582.864 146.139L583.675 153.857C583.827 155.304 583.508 156.455 582.716 157.31ZM578.416 147.065C577.624 147.148 577.026 147.542 576.622 148.247C576.251 148.879 576.108 149.603 576.194 150.418C576.279 151.227 576.539 151.899 576.976 152.435C577.505 153.088 578.203 153.369 579.069 153.278C579.907 153.19 580.529 152.779 580.936 152.045C581.271 151.451 581.397 150.761 581.314 149.975C581.226 149.131 580.939 148.43 580.454 147.87C579.91 147.248 579.231 146.979 578.416 147.065ZM592.748 149.499L586.415 150.164C586.522 151.011 586.957 151.645 587.721 152.066C588.327 152.4 589.008 152.527 589.766 152.448C590.222 152.4 590.708 152.233 591.226 151.949C591.306 151.888 591.685 151.635 592.364 151.189C592.51 151.094 592.642 151.039 592.762 151.027C592.939 151.008 593.106 151.065 593.264 151.199C593.435 151.348 593.531 151.522 593.552 151.721C593.596 152.137 593.231 152.587 592.459 153.072C591.595 153.624 590.667 153.952 589.676 154.056C588.274 154.203 587.084 153.864 586.104 153.04C585.13 152.215 584.57 151.101 584.422 149.7C584.283 148.372 584.6 147.172 585.375 146.1C586.118 145.066 587.137 144.48 588.43 144.344C589.365 144.246 590.246 144.433 591.073 144.905C591.876 145.368 592.504 146.022 592.956 146.867C593.222 147.369 593.383 147.888 593.439 148.424C593.508 149.085 593.278 149.443 592.748 149.499ZM590.443 146.31C589.939 145.903 589.32 145.737 588.585 145.814C587.867 145.89 587.296 146.186 586.872 146.703C586.668 146.955 586.503 147.272 586.376 147.654C586.252 148.012 586.198 148.318 586.213 148.57L591.495 148.015C591.341 147.316 590.99 146.748 590.443 146.31ZM602.381 152.522C601.76 152.587 601.425 152.386 601.376 151.919L600.619 144.714L597.089 145.085L597.459 148.934C597.651 150.763 597.292 152.037 596.383 152.755C596.01 153.047 595.573 153.22 595.072 153.273C595.061 153.274 595.049 153.275 595.038 153.276C594.741 153.302 594.495 153.241 594.301 153.094C594.17 152.993 594.089 152.855 594.059 152.679C594.057 152.495 594.124 152.338 594.26 152.209C594.291 152.171 594.443 152.112 594.717 152.031C595.521 151.785 595.851 150.987 595.709 149.637L595.701 149.56L595.121 144.445C595.072 143.983 595.361 143.72 595.988 143.654L601.389 143.086C602.005 143.021 602.337 143.223 602.386 143.69L603.231 151.724C603.28 152.191 602.997 152.457 602.381 152.522ZM612.756 151.509C612.095 151.578 611.702 151.176 611.575 150.302C611.214 151.308 610.305 151.888 608.846 152.041C607.94 152.136 607.118 151.958 606.379 151.505C605.676 151.066 605.125 150.427 604.726 149.588C604.444 148.995 604.266 148.34 604.191 147.622C604.056 146.34 604.301 145.191 604.926 144.175C605.609 143.06 606.575 142.437 607.823 142.306C609.168 142.165 610.189 142.541 610.888 143.436C610.835 142.929 610.928 142.55 611.166 142.3C611.333 142.127 611.53 142.029 611.757 142.005C612.162 141.962 612.441 142.066 612.594 142.315C612.691 142.477 612.766 142.803 612.817 143.293L613.526 150.037C613.588 150.624 613.533 151.03 613.36 151.255C613.254 151.393 613.053 151.478 612.756 151.509ZM609.563 144.145C609.211 143.975 608.813 143.913 608.368 143.96C607.548 144.046 606.934 144.45 606.526 145.173C606.167 145.821 606.033 146.57 606.122 147.419C606.208 148.239 606.485 148.922 606.951 149.466C607.503 150.111 608.197 150.389 609.035 150.301C609.832 150.218 610.432 149.815 610.835 149.093C611.193 148.45 611.329 147.713 611.242 146.881C611.102 145.548 610.542 144.636 609.563 144.145ZM622.679 146.353L616.346 147.018C616.452 147.866 616.887 148.5 617.652 148.921C618.257 149.254 618.939 149.381 619.696 149.302C620.152 149.254 620.639 149.088 621.156 148.803C621.236 148.742 621.616 148.489 622.295 148.044C622.44 147.948 622.573 147.893 622.692 147.881C622.869 147.862 623.036 147.92 623.194 148.053C623.366 148.202 623.462 148.376 623.483 148.576C623.526 148.991 623.162 149.442 622.389 149.926C621.525 150.478 620.598 150.806 619.606 150.91C618.205 151.057 617.014 150.719 616.034 149.894C615.061 149.069 614.5 147.956 614.353 146.554C614.213 145.226 614.531 144.026 615.305 142.954C616.049 141.92 617.067 141.335 618.361 141.199C619.295 141.1 620.176 141.287 621.003 141.759C621.807 142.222 622.434 142.876 622.886 143.721C623.152 144.223 623.313 144.742 623.369 145.278C623.439 145.939 623.209 146.297 622.679 146.353ZM620.374 143.165C619.87 142.757 619.25 142.591 618.515 142.669C617.797 142.744 617.227 143.04 616.803 143.557C616.599 143.809 616.433 144.126 616.307 144.508C616.183 144.867 616.129 145.172 616.144 145.424L621.425 144.869C621.271 144.171 620.921 143.603 620.374 143.165ZM624.121 149.39L624.146 149.214L625.297 141.671C625.338 141.396 625.474 141.108 625.708 140.807C625.865 140.606 626.101 140.489 626.414 140.456C626.716 140.424 626.961 140.479 627.149 140.621C627.28 140.716 627.461 140.962 627.693 141.358L630.631 146.295L632.325 140.872C632.454 140.449 632.577 140.168 632.695 140.029C632.844 139.858 633.075 139.756 633.388 139.723C633.707 139.689 633.965 139.754 634.16 139.918C634.432 140.149 634.62 140.403 634.724 140.68L637.125 147.081C637.312 147.43 637.427 147.706 637.472 147.909C637.486 147.988 637.499 148.09 637.513 148.216C637.534 148.421 637.471 148.589 637.324 148.719C637.139 148.883 636.916 148.978 636.654 149.006C636.198 149.054 635.881 148.836 635.704 148.354L633.64 142.444L631.785 148.558C631.711 148.791 631.602 149.062 631.456 149.371C631.337 149.504 631.153 149.584 630.902 149.61C630.628 149.639 630.416 149.592 630.265 149.47C630.201 149.413 630.05 149.179 629.811 148.766L626.707 143.328L625.935 149.381C625.873 149.888 625.611 150.166 625.15 150.215C624.859 150.245 624.62 150.187 624.432 150.04C624.28 149.917 624.177 149.701 624.121 149.39ZM522.188 179.208L522.213 179.033L523.365 171.489C523.405 171.214 523.542 170.926 523.775 170.625C523.932 170.424 524.168 170.307 524.481 170.274C524.783 170.242 525.028 170.297 525.216 170.439C525.347 170.535 525.528 170.78 525.76 171.177L528.698 176.113L530.392 170.69C530.521 170.267 530.644 169.986 530.762 169.847C530.911 169.676 531.142 169.574 531.455 169.541C531.774 169.508 532.032 169.573 532.228 169.736C532.499 169.967 532.687 170.221 532.791 170.498L535.193 176.899C535.379 177.248 535.494 177.524 535.539 177.727C535.553 177.806 535.566 177.909 535.58 178.034C535.601 178.239 535.538 178.407 535.391 178.538C535.206 178.701 534.983 178.797 534.721 178.824C534.265 178.872 533.948 178.655 533.771 178.172L531.707 172.263L529.852 178.377C529.779 178.609 529.669 178.88 529.523 179.189C529.404 179.322 529.22 179.402 528.969 179.429C528.695 179.457 528.483 179.411 528.332 179.288C528.268 179.231 528.117 178.997 527.878 178.584L524.774 173.147L524.002 179.199C523.94 179.707 523.678 179.985 523.217 180.033C522.926 180.064 522.687 180.005 522.499 179.858C522.348 179.736 522.244 179.519 522.188 179.208ZM543.851 177.89C543.316 177.947 542.984 177.61 542.855 176.88C542.331 177.759 541.357 178.273 539.932 178.423C538.895 178.532 538.041 178.322 537.369 177.794C536.697 177.265 536.308 176.5 536.203 175.497L535.652 170.258C535.618 169.933 535.686 169.649 535.857 169.407C536.002 169.196 536.222 169.075 536.518 169.044C536.815 169.012 537.059 169.085 537.25 169.26C537.449 169.453 537.566 169.717 537.601 170.053L538.102 174.822C538.172 175.483 538.425 176.004 538.863 176.384C539.308 176.781 539.872 176.943 540.556 176.871C541.245 176.799 541.763 176.52 542.109 176.034C542.441 175.573 542.573 175.015 542.504 174.359L542.003 169.59C541.968 169.266 542.034 168.982 542.198 168.74C542.349 168.529 542.567 168.408 542.852 168.378C543.159 168.346 543.409 168.417 543.6 168.593C543.799 168.785 543.916 169.049 543.951 169.386L544.718 176.684C544.751 176.998 544.69 177.269 544.536 177.499C544.382 177.728 544.153 177.859 543.851 177.89ZM553.936 175.266C553.244 176.295 552.296 176.873 551.094 176.999C549.692 177.147 548.671 176.854 548.029 176.12L548.45 180.043C548.484 180.367 548.426 180.636 548.275 180.847C548.125 181.065 547.899 181.189 547.597 181.221C547.312 181.251 547.074 181.178 546.883 181.002C546.673 180.811 546.551 180.559 546.518 180.246L545.356 169.186C545.322 168.867 545.388 168.589 545.554 168.353C545.705 168.147 545.923 168.029 546.208 167.999C546.8 167.937 547.18 168.286 547.346 169.046C547.867 168.139 548.811 167.613 550.179 167.469C551.449 167.336 552.508 167.737 553.356 168.674C554.131 169.525 554.588 170.612 554.727 171.934C554.858 173.188 554.595 174.298 553.936 175.266ZM551.963 170.056C551.396 169.378 550.708 169.082 549.899 169.167C549.067 169.254 548.445 169.662 548.032 170.391C547.697 170.985 547.571 171.678 547.654 172.47C547.739 173.279 548.006 173.957 548.455 174.503C549.01 175.176 549.709 175.469 550.552 175.38C551.344 175.297 551.945 174.902 552.355 174.197C552.726 173.564 552.869 172.838 552.782 172.018C552.705 171.277 552.431 170.623 551.963 170.056ZM572.261 174.913C572.244 174.915 572.227 174.917 572.21 174.918C571.976 174.943 571.775 174.886 571.605 174.749C571.416 174.601 571.306 174.377 571.275 174.075L571.066 172.092C571.036 171.801 570.993 171.371 570.939 170.801C570.47 171.599 569.535 172.071 568.133 172.219C567.022 172.336 566.127 172.127 565.449 171.594C564.771 171.06 564.379 170.292 564.274 169.289L564.062 167.272C564.027 166.947 564.095 166.664 564.266 166.421C564.411 166.21 564.628 166.089 564.919 166.058C565.221 166.027 565.468 166.099 565.659 166.275C565.858 166.467 565.975 166.731 566.01 167.067L566.173 168.614C566.241 169.264 566.494 169.781 566.932 170.167C567.39 170.574 567.955 170.743 568.627 170.672C569.299 170.601 569.813 170.311 570.169 169.801C570.505 169.328 570.64 168.778 570.574 168.151L570.412 166.605C570.377 166.274 570.439 165.991 570.599 165.755C570.744 165.544 570.964 165.423 571.261 165.392C571.568 165.36 571.818 165.434 572.01 165.616C572.202 165.797 572.316 166.059 572.352 166.401L573.12 173.708C573.193 174.409 572.907 174.81 572.261 174.913ZM581.987 173.882C581.451 173.938 581.119 173.602 580.99 172.872C580.466 173.751 579.492 174.265 578.068 174.415C577.031 174.524 576.176 174.314 575.504 173.786C574.832 173.257 574.444 172.492 574.338 171.489L573.788 166.25C573.753 165.925 573.822 165.641 573.992 165.399C574.137 165.188 574.357 165.066 574.654 165.035C574.95 165.004 575.194 165.076 575.385 165.252C575.584 165.445 575.701 165.709 575.736 166.045L576.238 170.814C576.307 171.475 576.56 171.996 576.998 172.376C577.443 172.773 578.007 172.935 578.691 172.863C579.38 172.791 579.898 172.512 580.245 172.026C580.576 171.565 580.708 171.007 580.639 170.351L580.138 165.582C580.104 165.257 580.169 164.974 580.334 164.732C580.484 164.52 580.702 164.4 580.987 164.37C581.294 164.337 581.544 164.409 581.735 164.585C581.934 164.777 582.051 165.041 582.086 165.377L582.854 172.676C582.887 172.99 582.826 173.261 582.671 173.49C582.517 173.72 582.289 173.85 581.987 173.882ZM599.352 175.004L599.284 175.011C599.067 175.034 598.878 174.958 598.716 174.785C598.56 174.617 598.465 174.377 598.432 174.063L598.216 172.004C597.528 172.093 597.145 172.142 597.065 172.15C596.592 172.2 596.253 171.879 596.047 171.186C595.42 172.012 594.565 172.482 593.482 172.596C593.477 172.597 593.471 172.597 593.465 172.598C592.308 172.714 591.348 172.374 590.584 171.579C590.249 172.173 589.773 172.597 589.154 172.852C588.779 173.013 588.253 173.128 587.575 173.2C586.578 173.305 585.755 173.1 585.108 172.586C584.485 172.087 584.121 171.331 584.014 170.316L583.474 165.18C583.441 164.861 583.503 164.58 583.662 164.339C583.802 164.134 584.009 164.018 584.282 163.989C584.573 163.958 584.808 164.029 584.987 164.2C585.18 164.387 585.293 164.649 585.329 164.985L585.82 169.66C585.884 170.264 586.094 170.754 586.45 171.132C586.866 171.578 587.381 171.768 587.996 171.704C588.629 171.637 589.102 171.343 589.416 170.82C589.686 170.377 589.789 169.853 589.726 169.249L589.235 164.574C589.2 164.244 589.257 163.964 589.406 163.735C589.54 163.531 589.752 163.414 590.043 163.383C590.333 163.353 590.565 163.423 590.739 163.595C590.938 163.788 591.055 164.049 591.089 164.379L591.581 169.054C591.644 169.658 591.854 170.149 592.211 170.526C592.626 170.972 593.142 171.163 593.757 171.098C595.062 170.961 595.635 170.143 595.478 168.645L594.987 163.97C594.953 163.651 595.019 163.37 595.183 163.128C595.323 162.923 595.527 162.807 595.795 162.779C596.085 162.748 596.323 162.818 596.508 162.989C596.695 163.177 596.806 163.439 596.841 163.775L597.589 170.894L599.025 170.743C599.532 170.69 599.822 171.002 599.893 171.68L600.13 173.937C600.156 174.187 600.095 174.421 599.945 174.639C599.795 174.856 599.597 174.978 599.352 175.004ZM607.802 167.021L601.469 167.687C601.575 168.534 602.011 169.168 602.775 169.589C603.381 169.923 604.062 170.05 604.82 169.97C605.276 169.922 605.762 169.756 606.28 169.471C606.36 169.411 606.739 169.158 607.418 168.712C607.564 168.616 607.696 168.562 607.816 168.549C607.993 168.531 608.16 168.588 608.318 168.721C608.489 168.87 608.585 169.044 608.606 169.244C608.65 169.66 608.285 170.11 607.512 170.594C606.649 171.146 605.721 171.474 604.73 171.578C603.328 171.725 602.137 171.387 601.158 170.562C600.184 169.737 599.623 168.624 599.476 167.222C599.337 165.895 599.654 164.695 600.428 163.622C601.172 162.588 602.191 162.003 603.484 161.867C604.419 161.769 605.3 161.955 606.127 162.427C606.93 162.89 607.558 163.544 608.01 164.39C608.275 164.892 608.437 165.411 608.493 165.946C608.562 166.607 608.332 166.965 607.802 167.021ZM605.497 163.833C604.993 163.425 604.374 163.26 603.639 163.337C602.921 163.412 602.35 163.709 601.926 164.225C601.722 164.477 601.557 164.794 601.43 165.176C601.306 165.535 601.252 165.84 601.267 166.092L606.549 165.537C606.395 164.839 606.044 164.271 605.497 163.833Z" fill="black"/>
<defs>
<filter id="filter0_d" x="453.2" y="79.4" width="220.433" height="168.482" filterUnits="userSpaceOnUse" color-interpolation-filters="sRGB">
<feFlood flood-opacity="0" result="BackgroundImageFix"/>
<feColorMatrix in="SourceAlpha" type="matrix" values="0 0 0 0 0 0 0 0 0 0 0 0 0 0 0 0 0 0 127 0"/>
<feOffset dy="2"/>
<feGaussianBlur stdDeviation="3"/>
<feColorMatrix type="matrix" values="0 0 0 0 0 0 0 0 0 0 0 0 0 0 0 0 0 0 0.5 0"/>
<feBlend mode="normal" in2="BackgroundImageFix" result="effect1_dropShadow"/>
<feBlend mode="normal" in="SourceGraphic" in2="effect1_dropShadow" result="shape"/>
</filter>
<linearGradient id="paint0_linear" x1="977.845" y1="50.0194" x2="1024.02" y2="96.1969" gradientUnits="userSpaceOnUse">
<stop stop-color="#1ACEB8"/>
<stop offset="1" stop-color="#0BBFBA"/>
</linearGradient>
</defs>
</svg>
