<svg width="1189" height="663" viewBox="0 0 1189 663" fill="none" xmlns="http://www.w3.org/2000/svg">
<path fill-rule="evenodd" clip-rule="evenodd" d="M12.6632 357.695L13.4083 361.244C13.7601 362.919 16.2399 362.919 16.5917 361.244L17.3368 357.695C18.0712 354.198 20.9016 351.465 24.5233 350.756L28.1987 350.037C29.9338 349.697 29.9338 347.303 28.1987 346.963L24.5233 346.244C20.9016 345.535 18.0709 342.802 17.3368 339.305L16.5917 335.756C16.2399 334.081 13.7601 334.081 13.4083 335.756L12.6632 339.305C11.9288 342.802 9.09838 345.535 5.47665 346.244L1.80129 346.963C0.0662365 347.303 0.0662365 349.697 1.80129 350.037L5.47665 350.756C9.09838 351.465 11.9291 354.198 12.6632 357.695Z" fill="#8C7FE5"/>
<path fill-rule="evenodd" clip-rule="evenodd" d="M377.663 636.695L378.408 640.244C378.76 641.919 381.24 641.919 381.592 640.244L382.337 636.695C383.071 633.198 385.902 630.465 389.523 629.756L393.199 629.037C394.934 628.697 394.934 626.303 393.199 625.963L389.523 625.244C385.902 624.535 383.071 621.802 382.337 618.305L381.592 614.756C381.24 613.081 378.76 613.081 378.408 614.756L377.663 618.305C376.929 621.802 374.098 624.535 370.477 625.244L366.801 625.963C365.066 626.303 365.066 628.697 366.801 629.037L370.477 629.756C374.098 630.465 376.929 633.198 377.663 636.695Z" fill="#8C7FE5"/>
<path fill-rule="evenodd" clip-rule="evenodd" d="M247.663 219.695L248.408 223.244C248.76 224.919 251.24 224.919 251.592 223.244L252.337 219.695C253.071 216.198 255.902 213.465 259.523 212.756L263.199 212.037C264.934 211.697 264.934 209.303 263.199 208.963L259.523 208.244C255.902 207.535 253.071 204.802 252.337 201.305L251.592 197.756C251.24 196.081 248.76 196.081 248.408 197.756L247.663 201.305C246.929 204.802 244.098 207.535 240.477 208.244L236.801 208.963C235.066 209.303 235.066 211.697 236.801 212.037L240.477 212.756C244.098 213.465 246.929 216.198 247.663 219.695Z" fill="#8C7FE5"/>
<path fill-rule="evenodd" clip-rule="evenodd" d="M1167.66 124.695L1168.41 128.244C1168.76 129.919 1171.24 129.919 1171.59 128.244L1172.34 124.695C1173.07 121.198 1175.9 118.465 1179.52 117.756L1183.2 117.037C1184.93 116.697 1184.93 114.303 1183.2 113.963L1179.52 113.244C1175.9 112.535 1173.07 109.802 1172.34 106.305L1171.59 102.756C1171.24 101.081 1168.76 101.081 1168.41 102.756L1167.66 106.305C1166.93 109.802 1164.1 112.535 1160.48 113.244L1156.8 113.963C1155.07 114.303 1155.07 116.697 1156.8 117.037L1160.48 117.756C1164.1 118.465 1166.93 121.198 1167.66 124.695Z" fill="#8C7FE5"/>
<path fill-rule="evenodd" clip-rule="evenodd" d="M1025.2 250.4C1053.48 250.4 1076.4 227.477 1076.4 199.2C1076.4 170.923 1053.48 148 1025.2 148C996.923 148 974 170.923 974 199.2C974 227.477 996.923 250.4 1025.2 250.4Z" fill="#8C7FE5"/>
<path fill-rule="evenodd" clip-rule="evenodd" d="M1025.2 248.74C1052.56 248.74 1074.74 226.56 1074.74 199.2C1074.74 171.84 1052.56 149.66 1025.2 149.66C997.84 149.66 975.66 171.84 975.66 199.2C975.66 226.56 997.84 248.74 1025.2 248.74Z" fill="#7567DB"/>
<path fill-rule="evenodd" clip-rule="evenodd" d="M1025.2 243.878C1049.88 243.878 1069.88 223.875 1069.88 199.2C1069.88 174.525 1049.88 154.522 1025.2 154.522C1000.52 154.522 980.521 174.525 980.521 199.2C980.521 223.875 1000.52 243.878 1025.2 243.878Z" fill="url(#paint0_linear)"/>
<path fill-rule="evenodd" clip-rule="evenodd" d="M1025.2 243.878C1049.88 243.878 1069.88 223.875 1069.88 199.2C1069.88 174.525 1049.88 154.522 1025.2 154.522C1000.52 154.522 980.521 174.525 980.521 199.2C980.521 223.875 1000.52 243.878 1025.2 243.878Z" fill="#8C7FE5"/>
<path fill-rule="evenodd" clip-rule="evenodd" d="M1025.52 199.2H1024.88C1023.68 199.2 1022.7 198.226 1022.7 197.025V170.572C1022.7 169.371 1023.68 168.397 1024.88 168.397H1025.52C1026.72 168.397 1027.7 169.37 1027.7 170.572V197.025C1027.7 198.226 1026.72 199.2 1025.52 199.2Z" fill="#6052BF"/>
<path fill-rule="evenodd" clip-rule="evenodd" d="M1025.52 199.2L1025.98 199.656C1026.83 200.506 1026.83 201.883 1025.98 202.732L1010.71 218.006C1009.86 218.855 1008.48 218.855 1007.63 218.006L1007.17 217.55C1006.32 216.7 1006.32 215.323 1007.17 214.474L1022.45 199.2C1023.3 198.351 1024.67 198.351 1025.52 199.2Z" fill="#6052BF"/>
<path fill-rule="evenodd" clip-rule="evenodd" d="M1055.55 191.811C1055.68 192.307 1055.37 192.808 1054.88 192.93L1025.66 200.125C1025.17 200.247 1024.66 199.944 1024.54 199.448C1024.42 198.952 1024.72 198.451 1025.22 198.329L1054.44 191.134C1054.93 191.012 1055.43 191.315 1055.55 191.811Z" fill="#FFDE63"/>
<path fill-rule="evenodd" clip-rule="evenodd" d="M1025.2 203.328C1027.48 203.328 1029.33 201.48 1029.33 199.2C1029.33 196.92 1027.48 195.072 1025.2 195.072C1022.92 195.072 1021.07 196.92 1021.07 199.2C1021.07 201.48 1022.92 203.328 1025.2 203.328Z" fill="#FFDE63"/>
<path fill-rule="evenodd" clip-rule="evenodd" d="M1025.36 165.76H1025.04C1023.75 165.76 1022.7 164.714 1022.7 163.422V160.513C1022.7 159.222 1023.75 158.175 1025.04 158.175H1025.36C1026.65 158.175 1027.7 159.222 1027.7 160.513V163.422C1027.7 164.714 1026.65 165.76 1025.36 165.76Z" fill="#6052BF"/>
<path fill-rule="evenodd" clip-rule="evenodd" d="M1025.36 240.225H1025.04C1023.75 240.225 1022.7 239.178 1022.7 237.887V234.978C1022.7 233.687 1023.75 232.64 1025.04 232.64H1025.36C1026.65 232.64 1027.7 233.687 1027.7 234.978V237.887C1027.7 239.178 1026.65 240.225 1025.36 240.225Z" fill="#6052BF"/>
<path fill-rule="evenodd" clip-rule="evenodd" d="M1058.64 199.359V199.041C1058.64 197.749 1059.69 196.702 1060.98 196.702H1063.89C1065.18 196.702 1066.22 197.749 1066.22 199.041V199.359C1066.22 200.651 1065.18 201.698 1063.89 201.698H1060.98C1059.69 201.697 1058.64 200.651 1058.64 199.359Z" fill="#6052BF"/>
<path fill-rule="evenodd" clip-rule="evenodd" d="M984.175 199.359V199.041C984.175 197.749 985.222 196.702 986.513 196.702H989.422C990.713 196.702 991.76 197.749 991.76 199.041V199.359C991.76 200.651 990.713 201.698 989.422 201.698H986.513C985.222 201.697 984.175 200.651 984.175 199.359Z" fill="#6052BF"/>
<path fill-rule="evenodd" clip-rule="evenodd" d="M638.8 322.6H649.2C650.526 322.6 651.6 321.526 651.6 320.2V305.8C651.6 304.475 650.526 303.4 649.2 303.4H423.6C422.275 303.4 421.2 304.475 421.2 305.8V320.2C421.2 321.526 422.275 322.6 423.6 322.6H638.8Z" fill="#8C7FE5" stroke="#6052BF" stroke-width="0.8"/>
<path fill-rule="evenodd" clip-rule="evenodd" d="M434 322.6H536.4V578.6H434V322.6Z" fill="#8C7FE5" stroke="#6052BF" stroke-width="0.8"/>
<path fill-rule="evenodd" clip-rule="evenodd" d="M536.4 322.6H638.8V578.6H536.4V322.6Z" fill="#8C7FE5" stroke="#6052BF" stroke-width="0.8"/>
<path fill-rule="evenodd" clip-rule="evenodd" d="M536.4 578.6H434V653.8C434 654.684 434.716 655.4 435.6 655.4H637.2C638.084 655.4 638.8 654.684 638.8 653.8V578.6H536.4Z" fill="#8C7FE5" stroke="#6052BF" stroke-width="0.8"/>
<path fill-rule="evenodd" clip-rule="evenodd" d="M534 322.6H538.8V578.6H534V322.6Z" fill="#6052BF"/>
<path fill-rule="evenodd" clip-rule="evenodd" d="M558 441C558 439.233 559.433 437.8 561.2 437.8H562.8C564.568 437.8 566 439.233 566 441V485.8C566 487.567 564.568 489 562.8 489H561.2C559.433 489 558 487.567 558 485.8V441Z" fill="#6052BF"/>
<path fill-rule="evenodd" clip-rule="evenodd" d="M506.8 441C506.8 439.233 508.233 437.8 510 437.8H511.6C513.368 437.8 514.8 439.233 514.8 441V485.8C514.8 487.567 513.368 489 511.6 489H510C508.233 489 506.8 487.567 506.8 485.8V441Z" fill="#6052BF"/>
<path fill-rule="evenodd" clip-rule="evenodd" d="M523.6 603.4C523.6 601.633 525.033 600.2 526.8 600.2H546C547.767 600.2 549.2 601.633 549.2 603.4V605C549.2 606.767 547.767 608.2 546 608.2H526.8C525.033 608.2 523.6 606.767 523.6 605V603.4Z" fill="#6052BF"/>
<path fill-rule="evenodd" clip-rule="evenodd" d="M434 322.6H638V329H434V322.6Z" fill="#6052BF"/>
<path fill-rule="evenodd" clip-rule="evenodd" d="M440.4 655.4H632.4V661.8H440.4V655.4Z" fill="#6052BF"/>
<path fill-rule="evenodd" clip-rule="evenodd" d="M1110.23 477.442H1110.22C1109.87 477.404 1109.6 475.023 1109.6 472.119L1109.65 440.588C1109.65 437.711 1109.93 435.4 1110.28 435.4H1110.28C1110.63 435.439 1110.91 437.821 1110.9 440.723C1110.9 440.725 1110.9 440.725 1110.9 440.725L1110.85 472.256C1110.85 475.132 1110.57 477.442 1110.23 477.442Z" fill="#6052BF"/>
<path fill-rule="evenodd" clip-rule="evenodd" d="M1110.47 481.22C1107.34 481.22 1104.8 478.664 1104.8 475.51C1104.8 472.357 1107.34 469.8 1110.47 469.8C1113.6 469.8 1116.13 472.357 1116.13 475.51C1116.13 478.664 1113.6 481.22 1110.47 481.22Z" fill="#6052BF"/>
<path fill-rule="evenodd" clip-rule="evenodd" d="M1132.66 653.633C1130.87 653.633 1129.42 650.997 1129.42 647.74V441.485C1129.42 438.231 1130.87 435.592 1132.66 435.592C1134.44 435.592 1135.89 438.231 1135.89 441.485V647.74C1135.89 650.997 1134.44 653.633 1132.66 653.633Z" fill="#6052BF"/>
<path fill-rule="evenodd" clip-rule="evenodd" d="M1132.53 648.208L1150.49 648.338C1159.53 648.338 1161.47 656.644 1161.89 660.207C1161.99 661.085 1161.28 661.8 1160.4 661.8H1105.2C1104.32 661.8 1103.61 661.086 1103.71 660.208C1104.13 656.618 1106.07 648.2 1115.17 648.2H1132.53V648.208Z" fill="#7567DB" stroke="#6052BF" stroke-width="0.8"/>
<path fill-rule="evenodd" clip-rule="evenodd" d="M1113.18 333.8H1152.14C1157.26 333.8 1161.73 337.263 1163.04 342.231L1187.94 437.236C1188.47 439.264 1186.94 441.247 1184.85 441.247H1080.47C1078.37 441.247 1076.84 439.264 1077.37 437.236L1102.28 342.231C1103.58 337.263 1108.06 333.8 1113.18 333.8Z" fill="#8C7FE5" stroke="#6052BF" stroke-width="0.8"/>
<path fill-rule="evenodd" clip-rule="evenodd" d="M788 563.4C788 564.726 789.075 565.8 790.4 565.8H1062.4C1063.73 565.8 1064.8 564.726 1064.8 563.4V553.8C1064.8 552.475 1063.73 551.4 1062.4 551.4H790.4C789.075 551.4 788 552.475 788 553.8V563.4Z" fill="#8C7FE5" stroke="#6052BF" stroke-width="0.8"/>
<path fill-rule="evenodd" clip-rule="evenodd" d="M926.4 565.8V622.6H1048.8C1049.68 622.6 1050.4 621.884 1050.4 621V565.8H926.4Z" fill="#8C7FE5" stroke="#6052BF" stroke-width="0.8"/>
<path fill-rule="evenodd" clip-rule="evenodd" d="M802.4 565.8V621C802.4 621.884 803.116 622.6 804 622.6H926.4V565.8H802.4Z" fill="#8C7FE5" stroke="#6052BF" stroke-width="0.8"/>
<path fill-rule="evenodd" clip-rule="evenodd" d="M812 623.4H826.4V659.4C826.4 660.284 825.684 661 824.8 661H813.6C812.716 661 812 660.284 812 659.4V623.4Z" fill="#7567DB" stroke="#6052BF" stroke-width="0.8"/>
<path fill-rule="evenodd" clip-rule="evenodd" d="M1026.4 623.4H1040.8V659.4C1040.8 660.284 1040.08 661 1039.2 661H1028C1027.12 661 1026.4 660.284 1026.4 659.4V623.4Z" fill="#7567DB" stroke="#6052BF" stroke-width="0.8"/>
<path fill-rule="evenodd" clip-rule="evenodd" d="M921.6 565.8H931.2V622.6H921.6V565.8Z" fill="#6052BF"/>
<path fill-rule="evenodd" clip-rule="evenodd" d="M979.2 583.4C979.2 581.633 980.633 580.2 982.4 580.2H995.2C996.968 580.2 998.4 581.633 998.4 583.4V586.6C998.4 588.367 996.968 589.8 995.2 589.8H982.4C980.633 589.8 979.2 588.367 979.2 586.6V583.4Z" fill="#6052BF"/>
<path fill-rule="evenodd" clip-rule="evenodd" d="M854.4 583.4C854.4 581.633 855.833 580.2 857.6 580.2H870.4C872.167 580.2 873.6 581.633 873.6 583.4V586.6C873.6 588.367 872.167 589.8 870.4 589.8H857.6C855.833 589.8 854.4 588.367 854.4 586.6V583.4Z" fill="#6052BF"/>
<path fill-rule="evenodd" clip-rule="evenodd" d="M907.2 523.4H945.6V528.2H907.2V523.4Z" fill="#787680"/>
<path fill-rule="evenodd" clip-rule="evenodd" d="M812 623.4H826.4V628.2H812V623.4Z" fill="#6052BF"/>
<path fill-rule="evenodd" clip-rule="evenodd" d="M1026.4 623.4H1040.8V628.2H1026.4V623.4Z" fill="#6052BF"/>
<path fill-rule="evenodd" clip-rule="evenodd" d="M802.4 565.8H921.6V570.6H802.4V565.8Z" fill="#6052BF"/>
<path fill-rule="evenodd" clip-rule="evenodd" d="M931.2 565.8H1050.4V570.6H931.2V565.8Z" fill="#6052BF"/>
<path fill-rule="evenodd" clip-rule="evenodd" d="M875.558 396.2C874.822 396.2 874.087 395.92 873.53 395.361L853.614 375.366C852.515 374.261 852.531 372.487 853.651 371.403C854.772 370.318 856.571 370.335 857.672 371.438L877.586 391.434C878.685 392.539 878.67 394.313 877.549 395.397C876.996 395.932 876.276 396.2 875.558 396.2Z" fill="#6052BF"/>
<path fill-rule="evenodd" clip-rule="evenodd" d="M918.843 396.2C918.123 396.2 917.405 395.934 916.85 395.397C915.731 394.313 915.714 392.537 916.815 391.434L936.73 371.438C937.829 370.335 939.63 370.318 940.749 371.403C941.87 372.487 941.885 374.262 940.786 375.366L920.871 395.361C920.315 395.92 919.579 396.2 918.843 396.2Z" fill="#6052BF"/>
<path fill-rule="evenodd" clip-rule="evenodd" d="M972.184 550.841C922.106 550.841 874.4 550.841 822.215 550.841C815.947 550.841 810.978 545.468 810.384 539.258C806.139 494.82 806.139 450.381 810.384 405.943C810.978 399.733 815.971 394.853 822.215 394.36C872.205 390.413 922.195 390.413 972.184 394.36C978.429 394.853 983.423 399.733 984.016 405.943C988.262 450.381 988.262 494.82 984.016 539.258C983.423 545.468 978.453 550.841 972.184 550.841Z" fill="#8C7FE5" stroke="#6052BF" stroke-width="0.8"/>
<path fill-rule="evenodd" clip-rule="evenodd" d="M984.8 525C984.442 529.784 984.031 534.566 983.572 539.35C982.979 545.523 978.737 550.931 971.746 550.861C922.829 550.37 822.894 550.942 821.851 550.861C815.612 550.37 810.619 545.523 810.029 539.35C809.569 534.566 809.159 529.784 808.8 525H984.8Z" fill="#6052BF"/>
<path fill-rule="evenodd" clip-rule="evenodd" d="M969.716 499.259C968.58 505.342 962.324 510.095 954.461 510.89C916.021 514.77 877.583 514.77 839.141 510.89C831.276 510.095 825.025 505.342 823.884 499.259C818.705 471.619 818.705 443.98 823.884 416.342C825.025 410.257 831.276 405.504 839.141 404.709C862.679 402.336 886.219 401.411 909.758 401.948C924.657 402.282 939.562 403.207 954.461 404.709C962.324 405.504 968.58 410.257 969.716 416.342C974.895 443.98 974.895 471.619 969.716 499.259Z" fill="#F4F4F4"/>
<path fill-rule="evenodd" clip-rule="evenodd" d="M839.568 514.083C858.821 516.028 878.211 517 897.6 517C916.989 517 936.378 516.028 955.632 514.083C964.903 513.147 972.33 507.406 973.693 500.121C978.902 472.305 978.902 444.095 973.693 416.278C972.33 408.995 964.903 403.254 955.632 402.316C917.125 398.428 878.076 398.428 839.568 402.316C830.296 403.254 822.871 408.995 821.506 416.278C816.298 444.095 816.298 472.305 821.506 500.121C822.871 507.406 830.296 513.147 839.568 514.083ZM840.31 407.873C859.318 405.953 878.459 404.993 897.6 404.993C916.741 404.993 935.883 405.954 954.89 407.873C961.318 408.522 966.438 412.349 967.341 417.176C972.439 444.398 972.439 472.003 967.341 499.224C966.438 504.052 961.318 507.877 954.89 508.526C916.875 512.366 878.326 512.366 840.31 508.526C833.883 507.877 828.762 504.052 827.858 499.224C822.761 472.003 822.761 444.398 827.858 417.176C828.762 412.349 833.883 408.522 840.31 407.873Z" fill="#6052BF"/>
<path fill-rule="evenodd" clip-rule="evenodd" d="M844.8 538.201C844.8 541.513 841.936 544.2 838.4 544.2C834.866 544.2 832 541.513 832 538.201C832 534.886 834.866 532.2 838.4 532.2C841.936 532.2 844.8 534.886 844.8 538.201Z" fill="#8C7FE5"/>
<path fill-rule="evenodd" clip-rule="evenodd" d="M963.2 538.201C963.2 541.513 960.335 544.2 956.8 544.2C953.266 544.2 950.4 541.513 950.4 538.201C950.4 534.886 953.266 532.2 956.8 532.2C960.335 532.2 963.2 534.886 963.2 538.201Z" fill="#8C7FE5"/>
<path fill-rule="evenodd" clip-rule="evenodd" d="M936.392 537.8H857.209C855.658 537.8 854.4 536.546 854.4 535C854.4 533.454 855.658 532.2 857.209 532.2H936.392C937.943 532.2 939.2 533.454 939.2 535C939.2 536.546 937.943 537.8 936.392 537.8Z" fill="#8C7FE5"/>
<path fill-rule="evenodd" clip-rule="evenodd" d="M936.392 546.6H857.209C855.658 546.6 854.4 545.346 854.4 543.8C854.4 542.254 855.658 541 857.209 541H936.392C937.943 541 939.2 542.254 939.2 543.8C939.2 545.346 937.943 546.6 936.392 546.6Z" fill="#8C7FE5"/>
<path fill-rule="evenodd" clip-rule="evenodd" d="M917.553 437C922.439 437 926.4 440.978 926.4 445.886H926.399V469.714C926.399 474.621 922.44 478.6 917.552 478.6H876.046C871.161 478.6 867.2 474.622 867.2 469.714V445.886C867.2 440.979 871.16 437 876.046 437H917.553ZM890.878 445.472V467.852L907.785 456.663L890.878 445.472Z" fill="#8C7FE5"/>
<path fill-rule="evenodd" clip-rule="evenodd" d="M1023.87 471.018C1023.25 470.409 1022.27 470.409 1021.66 471.018C1021.48 471.2 1021.26 471.32 1021.04 471.393V489.138C1018.83 486.859 1015.75 485.425 1012.39 485.383C1012.24 482.414 1011.32 479.883 1009.51 478.057C1007.03 475.549 1003.24 474.713 998.803 475.318C998.205 479.784 999.028 483.6 1001.52 486.107C1004.01 488.604 1007.8 489.437 1012.23 488.85C1016.99 488.85 1021.04 492.747 1021.04 497.536V507.963H1024.49V471.393C1024.26 471.32 1024.05 471.2 1023.87 471.018Z" fill="#6052BF"/>
<path fill-rule="evenodd" clip-rule="evenodd" d="M1023.87 440.657C1024.62 439.907 1025.88 440.108 1026.37 441.056C1026.76 441.825 1027.7 442.132 1028.47 441.744C1029.42 441.265 1030.55 441.849 1030.73 442.902C1030.87 443.757 1031.66 444.34 1032.51 444.21C1033.56 444.051 1034.46 444.959 1034.3 446.014C1034.18 446.871 1034.75 447.674 1035.6 447.815C1036.65 447.989 1037.23 449.133 1036.75 450.088C1036.37 450.863 1036.67 451.806 1037.44 452.205C1038.38 452.696 1038.58 453.964 1037.83 454.724C1037.23 455.341 1037.23 456.333 1037.83 456.95C1038.58 457.71 1038.38 458.979 1037.44 459.47C1036.67 459.869 1036.37 460.812 1036.75 461.587C1037.23 462.541 1036.65 463.686 1035.6 463.86C1034.75 464.001 1034.18 464.804 1034.3 465.66C1034.46 466.716 1033.56 467.624 1032.51 467.464C1031.66 467.335 1030.87 467.918 1030.73 468.773C1030.55 469.826 1029.42 470.409 1028.47 469.931C1027.7 469.543 1026.76 469.849 1026.37 470.619C1025.88 471.567 1024.62 471.768 1023.87 471.018C1023.25 470.409 1022.27 470.409 1021.66 471.018C1020.9 471.768 1019.64 471.567 1019.16 470.619C1018.76 469.849 1017.82 469.543 1017.05 469.931C1016.11 470.409 1014.97 469.826 1014.8 468.773C1014.66 467.918 1013.86 467.335 1013.01 467.464C1011.96 467.624 1011.06 466.716 1011.22 465.66C1011.35 464.804 1010.77 464.001 1009.92 463.86C1008.88 463.686 1008.3 462.541 1008.77 461.587C1009.16 460.812 1008.85 459.869 1008.09 459.47C1007.15 458.979 1006.95 457.71 1007.69 456.95C1008.3 456.333 1008.3 455.341 1007.69 454.724C1006.95 453.964 1007.15 452.695 1008.09 452.205C1008.85 451.806 1009.16 450.863 1008.77 450.088C1008.3 449.133 1008.88 447.989 1009.92 447.815C1010.77 447.674 1011.35 446.871 1011.22 446.014C1011.06 444.959 1011.96 444.051 1013.01 444.21C1013.86 444.34 1014.66 443.757 1014.8 442.902C1014.97 441.849 1016.11 441.266 1017.05 441.744C1017.82 442.132 1018.76 441.825 1019.16 441.056C1019.64 440.108 1020.9 439.907 1021.66 440.657C1022.27 441.266 1023.25 441.266 1023.87 440.657Z" fill="#8C7FE5" stroke="#6052BF" stroke-width="0.72"/>
<path fill-rule="evenodd" clip-rule="evenodd" d="M1022.76 461.05C1025.62 461.05 1027.94 458.716 1027.94 455.838C1027.94 452.959 1025.62 450.625 1022.76 450.625C1019.91 450.625 1017.59 452.959 1017.59 455.838C1017.59 458.716 1019.91 461.05 1022.76 461.05Z" fill="#8C7FE5"/>
<path fill-rule="evenodd" clip-rule="evenodd" d="M1032.54 453.416C1033.17 453.743 1033.31 454.589 1032.81 455.096C1032.41 455.507 1032.41 456.168 1032.81 456.579C1033.31 457.086 1033.17 457.932 1032.54 458.259C1032.04 458.525 1031.83 459.154 1032.09 459.67C1032.41 460.307 1032.02 461.07 1031.32 461.186C1030.76 461.28 1030.37 461.815 1030.46 462.386C1030.56 463.09 1029.96 463.696 1029.26 463.589C1028.7 463.502 1028.17 463.891 1028.07 464.461C1027.96 465.163 1027.2 465.552 1026.57 465.233C1026.05 464.975 1025.43 465.179 1025.17 465.692C1024.84 466.324 1024 466.458 1023.5 465.958C1023.09 465.552 1022.43 465.552 1022.03 465.958C1021.52 466.458 1020.68 466.324 1020.36 465.692C1020.09 465.179 1019.47 464.975 1018.96 465.233C1018.33 465.552 1017.57 465.163 1017.45 464.461C1017.36 463.891 1016.83 463.503 1016.26 463.589C1015.56 463.696 1014.96 463.09 1015.07 462.386C1015.15 461.815 1014.77 461.28 1014.2 461.186C1013.5 461.07 1013.12 460.307 1013.44 459.67C1013.69 459.154 1013.49 458.525 1012.98 458.259C1012.35 457.932 1012.22 457.086 1012.72 456.579C1013.12 456.168 1013.12 455.507 1012.72 455.096C1012.22 454.589 1012.35 453.743 1012.98 453.416C1013.49 453.15 1013.69 452.521 1013.44 452.005C1013.12 451.368 1013.5 450.605 1014.2 450.489C1014.77 450.395 1015.15 449.86 1015.07 449.289C1014.96 448.585 1015.56 447.979 1016.26 448.086C1016.83 448.173 1017.36 447.784 1017.45 447.214C1017.57 446.511 1018.33 446.123 1018.96 446.442C1019.47 446.7 1020.09 446.496 1020.36 445.983C1020.68 445.351 1021.52 445.217 1022.03 445.717C1022.43 446.123 1023.09 446.123 1023.5 445.717C1024 445.217 1024.84 445.351 1025.17 445.983C1025.43 446.496 1026.05 446.7 1026.57 446.442C1027.2 446.123 1027.96 446.511 1028.07 447.214C1028.17 447.784 1028.7 448.172 1029.26 448.086C1029.96 447.979 1030.56 448.585 1030.46 449.289C1030.37 449.86 1030.76 450.395 1031.32 450.489C1032.02 450.605 1032.41 451.368 1032.09 452.005C1031.83 452.521 1032.04 453.15 1032.54 453.416ZM1017.59 455.837C1017.59 458.716 1019.9 461.05 1022.76 461.05C1025.62 461.05 1027.94 458.716 1027.94 455.837C1027.94 452.959 1025.62 450.625 1022.76 450.625C1019.9 450.625 1017.59 452.959 1017.59 455.837Z" fill="#6052BF"/>
<path fill-rule="evenodd" clip-rule="evenodd" d="M1035.82 471.78C1035.32 471.28 1034.48 471.414 1034.16 472.046C1033.89 472.559 1033.27 472.763 1032.76 472.504C1032.12 472.185 1031.37 472.574 1031.25 473.276C1031.16 473.847 1030.63 474.235 1030.06 474.149C1029.36 474.042 1028.76 474.648 1028.87 475.351C1028.95 475.923 1028.57 476.458 1028 476.552C1027.3 476.668 1026.92 477.431 1027.23 478.067C1027.49 478.584 1027.29 479.212 1026.78 479.478C1026.15 479.805 1026.02 480.651 1026.52 481.158C1026.92 481.569 1026.92 482.231 1026.52 482.642C1026.02 483.149 1026.15 483.994 1026.78 484.322C1027.29 484.587 1027.49 485.216 1027.23 485.733C1026.92 486.369 1027.3 487.132 1028 487.248C1028.57 487.343 1028.95 487.877 1028.87 488.449C1028.76 489.152 1029.36 489.758 1030.06 489.651C1030.63 489.565 1031.16 489.954 1031.25 490.523C1031.37 491.226 1032.12 491.615 1032.76 491.296C1033.27 491.037 1033.89 491.241 1034.16 491.754C1034.48 492.386 1035.32 492.52 1035.82 492.02C1036.23 491.614 1036.89 491.614 1037.3 492.02C1037.8 492.52 1038.64 492.386 1038.97 491.754C1039.23 491.241 1039.85 491.037 1040.37 491.296C1041 491.615 1041.75 491.226 1041.87 490.523C1041.96 489.954 1042.49 489.565 1043.06 489.651C1043.76 489.758 1044.36 489.152 1044.26 488.449C1044.17 487.877 1044.56 487.342 1045.12 487.248C1045.82 487.132 1046.2 486.369 1045.89 485.733C1045.63 485.216 1045.83 484.587 1046.34 484.322C1046.97 483.994 1047.1 483.148 1046.61 482.642C1046.2 482.231 1046.2 481.569 1046.61 481.158C1047.1 480.651 1046.97 479.805 1046.34 479.478C1045.83 479.212 1045.63 478.584 1045.89 478.067C1046.2 477.431 1045.82 476.668 1045.12 476.552C1044.56 476.458 1044.17 475.923 1044.26 475.351C1044.36 474.648 1043.76 474.042 1043.06 474.149C1042.49 474.235 1041.96 473.847 1041.87 473.276C1041.76 472.574 1041 472.185 1040.37 472.504C1039.85 472.763 1039.23 472.559 1038.97 472.046C1038.64 471.414 1037.8 471.28 1037.3 471.78C1036.89 472.185 1036.23 472.185 1035.82 471.78Z" fill="#8C7FE5" stroke="#6052BF" stroke-width="0.72"/>
<path fill-rule="evenodd" clip-rule="evenodd" d="M1046.95 494.018C1043.57 493.555 1040.67 494.194 1038.77 496.109C1038.6 496.282 1038.44 496.48 1038.29 496.675V492.276C1037.95 492.362 1037.57 492.295 1037.3 492.021C1036.89 491.615 1036.23 491.615 1035.82 492.021C1035.55 492.295 1035.17 492.362 1034.84 492.276L1034.84 507.963H1038.29V504.47C1040.99 504.55 1043.29 503.855 1044.88 502.255C1046.78 500.341 1047.41 497.428 1046.95 494.018Z" fill="#6052BF"/>
<path fill-rule="evenodd" clip-rule="evenodd" d="M1036.56 483.638C1037.51 483.638 1038.29 482.86 1038.29 481.9C1038.29 480.94 1037.51 480.163 1036.56 480.163C1035.61 480.163 1034.84 480.94 1034.84 481.9C1034.84 482.86 1035.61 483.638 1036.56 483.638Z" fill="#F6B74E"/>
<path fill-rule="evenodd" clip-rule="evenodd" d="M1036.56 483.638C1037.51 483.638 1038.29 482.86 1038.29 481.9C1038.29 480.94 1037.51 480.163 1036.56 480.163C1035.61 480.163 1034.84 480.94 1034.84 481.9C1034.84 482.86 1035.61 483.638 1036.56 483.638Z" fill="#8C7FE5"/>
<path fill-rule="evenodd" clip-rule="evenodd" d="M1043.08 480.285C1043.5 480.504 1043.59 481.068 1043.26 481.405C1042.99 481.68 1042.99 482.12 1043.26 482.395C1043.59 482.732 1043.5 483.296 1043.08 483.514C1042.74 483.691 1042.61 484.111 1042.78 484.455C1042.99 484.879 1042.73 485.388 1042.27 485.465C1041.89 485.528 1041.63 485.885 1041.69 486.266C1041.76 486.735 1041.36 487.139 1040.89 487.068C1040.52 487.01 1040.16 487.269 1040.1 487.649C1040.02 488.117 1039.52 488.377 1039.1 488.164C1038.76 487.991 1038.34 488.128 1038.16 488.47C1037.95 488.891 1037.39 488.98 1037.05 488.647C1036.78 488.376 1036.34 488.376 1036.07 488.647C1035.74 488.98 1035.18 488.891 1034.96 488.47C1034.78 488.128 1034.37 487.991 1034.02 488.164C1033.6 488.377 1033.1 488.117 1033.02 487.649C1032.96 487.269 1032.61 487.01 1032.23 487.068C1031.76 487.139 1031.36 486.735 1031.43 486.266C1031.49 485.885 1031.23 485.528 1030.85 485.465C1030.39 485.388 1030.13 484.879 1030.34 484.455C1030.51 484.111 1030.38 483.691 1030.04 483.514C1029.62 483.296 1029.53 482.732 1029.86 482.395C1030.13 482.12 1030.13 481.68 1029.86 481.405C1029.53 481.068 1029.62 480.504 1030.04 480.285C1030.38 480.108 1030.51 479.689 1030.34 479.345C1030.13 478.92 1030.39 478.412 1030.85 478.334C1031.23 478.271 1031.49 477.915 1031.43 477.534C1031.36 477.065 1031.76 476.661 1032.23 476.732C1032.61 476.79 1032.96 476.531 1033.02 476.151C1033.1 475.683 1033.6 475.423 1034.02 475.636C1034.37 475.809 1034.78 475.672 1034.96 475.33C1035.18 474.909 1035.74 474.82 1036.07 475.153C1036.34 475.424 1036.78 475.424 1037.05 475.153C1037.39 474.82 1037.95 474.909 1038.16 475.33C1038.34 475.672 1038.76 475.809 1039.1 475.636C1039.52 475.423 1040.02 475.683 1040.1 476.151C1040.16 476.531 1040.52 476.79 1040.89 476.732C1041.36 476.661 1041.76 477.065 1041.69 477.534C1041.63 477.915 1041.89 478.271 1042.27 478.334C1042.73 478.412 1042.99 478.92 1042.78 479.345C1042.61 479.689 1042.74 480.108 1043.08 480.285ZM1034.84 481.9C1034.84 482.86 1035.61 483.638 1036.56 483.638C1037.51 483.638 1038.29 482.86 1038.29 481.9C1038.29 480.94 1037.51 480.163 1036.56 480.163C1035.61 480.163 1034.84 480.94 1034.84 481.9Z" fill="#6052BF"/>
<path fill-rule="evenodd" clip-rule="evenodd" d="M1050.36 507.963H1005.51C1004.57 507.963 1003.79 508.744 1003.79 509.7V516.65C1003.79 517.606 1004.57 518.388 1005.51 518.388H1007.24L1011.95 548.467C1012.22 550.156 1013.66 551.4 1015.36 551.4H1024.49H1027.94H1040.51C1042.21 551.4 1043.65 550.156 1043.92 548.467L1048.63 518.388H1050.36C1051.31 518.388 1052.08 517.606 1052.08 516.65V509.7C1052.08 508.744 1051.31 507.963 1050.36 507.963Z" fill="#7567DB" stroke="#6052BF" stroke-width="0.72"/>
<mask id="mask0" mask-type="alpha" maskUnits="userSpaceOnUse" x="1003" y="507" width="50" height="45">
<path fill-rule="evenodd" clip-rule="evenodd" d="M1050.36 507.963H1005.51C1004.57 507.963 1003.79 508.744 1003.79 509.7V516.65C1003.79 517.606 1004.57 518.388 1005.51 518.388H1007.24L1011.95 548.467C1012.22 550.156 1013.66 551.4 1015.36 551.4H1024.49H1027.94H1040.51C1042.21 551.4 1043.65 550.156 1043.92 548.467L1048.63 518.388H1050.36C1051.31 518.388 1052.08 517.606 1052.08 516.65V509.7C1052.08 508.744 1051.31 507.963 1050.36 507.963Z" fill="white" stroke="white" stroke-width="0.72"/>
</mask>
<g mask="url(#mask0)">
<rect x="1002.4" y="507.4" width="53.6" height="10.4" fill="#8C7FE5"/>
</g>
<path fill-rule="evenodd" clip-rule="evenodd" d="M426.729 106.375V120.25C426.729 133.001 416.425 143.375 403.762 143.375C391.098 143.375 380.794 133.001 380.794 120.25H378.497V117.938C378.497 116.66 377.47 115.625 376.2 115.625C374.931 115.625 373.903 116.66 373.903 117.938V120.25H371.607C371.607 133.001 361.302 143.375 348.639 143.375C335.975 143.375 325.671 133.001 325.671 120.25V106.375H321.078V120.25C321.078 135.551 333.441 148 348.639 148C359.933 148 369.651 141.119 373.903 131.307V145.688C373.903 146.965 374.931 148 376.2 148C377.47 148 378.497 146.965 378.497 145.688V131.307C382.75 141.119 392.467 148 403.762 148C418.96 148 431.323 135.551 431.323 120.25V106.375H426.729Z" fill="#6052BF"/>
<path fill-rule="evenodd" clip-rule="evenodd" d="M394.574 4.625H357.826C356.557 4.625 355.529 3.58958 355.529 2.3125C355.529 1.03542 356.557 0 357.826 0H394.574C395.842 0 396.871 1.03542 396.871 2.3125C396.871 3.58958 395.842 4.625 394.574 4.625Z" fill="#8C7FE5"/>
<path fill-rule="evenodd" clip-rule="evenodd" d="M383.091 13.875H369.31C366.773 13.875 364.716 11.8044 364.716 9.25V4.625H387.684V9.25C387.684 11.8044 385.628 13.875 383.091 13.875Z" fill="#6052BF"/>
<rect x="373.616" y="13.875" width="4.59355" height="4.625" fill="#8C7FE5"/>
<rect x="373.616" y="106.375" width="4.59355" height="4.625" fill="#35495C"/>
<rect x="426.729" y="106.375" width="4.59355" height="4.625" fill="#8C7FE5"/>
<rect x="321.078" y="106.375" width="4.59355" height="4.625" fill="#8C7FE5"/>
<path fill-rule="evenodd" clip-rule="evenodd" d="M447.279 96.7014L440.389 68.9514C440.133 67.9227 439.216 67.2 438.161 67.2H419.787C418.733 67.2 417.816 67.9227 417.56 68.9514L410.67 96.7014C410.622 96.8853 410.6 97.074 410.6 97.2625V104.2C410.6 105.477 411.627 106.513 412.897 106.513H445.052C446.321 106.513 447.348 105.477 447.348 104.2V97.2625C447.348 97.074 447.326 96.8853 447.279 96.7014Z" fill="#8C7FE5" stroke="#6052BF" stroke-width="0.8"/>
<path fill-rule="evenodd" clip-rule="evenodd" d="M394.479 96.7014L387.588 68.9514C387.333 67.9227 386.415 67.2 385.361 67.2H366.987C365.933 67.2 365.015 67.9227 364.76 68.9514L357.869 96.7014C357.822 96.8853 357.8 97.074 357.8 97.2625V104.2C357.8 105.477 358.827 106.513 360.097 106.513H392.251C393.521 106.513 394.548 105.477 394.548 104.2V97.2625C394.548 97.074 394.526 96.8853 394.479 96.7014Z" fill="#8C7FE5" stroke="#6052BF" stroke-width="0.8"/>
<path fill-rule="evenodd" clip-rule="evenodd" d="M341.679 96.7014L334.789 68.9514C334.533 67.9227 333.616 67.2 332.561 67.2H314.187C313.133 67.2 312.216 67.9227 311.96 68.9514L305.069 96.7014C305.022 96.8853 305 97.074 305 97.2625V104.2C305 105.477 306.027 106.513 307.297 106.513H339.452C340.721 106.513 341.748 105.477 341.748 104.2V97.2625C341.748 97.074 341.726 96.8853 341.679 96.7014Z" fill="#8C7FE5" stroke="#6052BF" stroke-width="0.8"/>
<rect x="373.616" y="106.375" width="4.59355" height="6.9375" fill="#6052BF"/>
<rect x="373.616" y="18.5" width="4.59355" height="48.5625" fill="#6052BF"/>
<path fill-rule="evenodd" clip-rule="evenodd" d="M380.793 120.25H371.606C370.338 120.25 369.31 119.215 369.31 117.938V115.625C369.31 114.348 370.338 113.312 371.606 113.312H380.793C382.062 113.312 383.09 114.348 383.09 115.625V117.938C383.09 119.215 382.062 120.25 380.793 120.25Z" fill="#6052BF"/>
<path fill-rule="evenodd" clip-rule="evenodd" d="M381.257 124.875C380.954 123.38 380.794 121.834 380.794 120.25H378.497H373.903H371.607C371.607 121.834 371.446 123.38 371.144 124.875H381.257Z" fill="#8C7FE5"/>
<path fill-rule="evenodd" clip-rule="evenodd" d="M274.396 310.059L264.415 311.639C263.313 311.814 262.56 312.849 262.735 313.95L271.264 367.801L285.237 365.588L276.708 311.737C276.534 310.636 275.498 309.884 274.396 310.059Z" fill="#6052BF"/>
<rect x="263.366" y="317.939" width="7.07368" height="4.03868" transform="rotate(-9 263.366 317.939)" fill="#8C7FE5"/>
<rect x="269.369" y="355.834" width="7.07368" height="4.03868" transform="rotate(-9 269.369 355.834)" fill="#8C7FE5"/>
<rect x="270.353" y="316.833" width="7.07368" height="4.03868" transform="rotate(-9 270.353 316.833)" fill="#8C7FE5"/>
<rect x="276.355" y="354.728" width="7.07368" height="4.03868" transform="rotate(-9 276.355 354.728)" fill="#8C7FE5"/>
<path fill-rule="evenodd" clip-rule="evenodd" d="M210.498 303.113H198.316C197.2 303.113 196.295 304.017 196.295 305.133V367.732H212.519V305.133C212.519 304.017 211.614 303.113 210.498 303.113Z" fill="#6052BF"/>
<rect x="196.295" y="309.171" width="8.08421" height="4.03868" fill="#8C7FE5"/>
<rect x="204.379" y="309.171" width="8.08421" height="4.03868" fill="#8C7FE5"/>
<rect x="196.295" y="357.635" width="8.08421" height="4.03868" fill="#8C7FE5"/>
<rect x="204.379" y="357.635" width="8.08421" height="4.03868" fill="#8C7FE5"/>
<path fill-rule="evenodd" clip-rule="evenodd" d="M188.211 396.003C187.458 396.003 186.75 395.582 186.403 394.887L176.297 374.693C175.798 373.695 176.203 372.483 177.201 371.984C178.198 371.487 179.414 371.889 179.913 372.887L186.19 385.43V373.79C186.19 372.675 187.093 371.771 188.211 371.771C189.328 371.771 190.232 372.675 190.232 373.79V393.984C190.232 394.92 189.586 395.734 188.674 395.949C188.521 395.985 188.364 396.003 188.211 396.003Z" fill="#6052BF"/>
<path fill-rule="evenodd" clip-rule="evenodd" d="M277.192 396.003C277.038 396.003 276.882 395.985 276.728 395.949C275.816 395.734 275.171 394.92 275.171 393.984V373.79C275.171 372.675 276.075 371.771 277.192 371.771C278.309 371.771 279.213 372.675 279.213 373.79V385.43L285.489 372.887C285.991 371.889 287.202 371.487 288.201 371.984C289.2 372.483 289.604 373.695 289.105 374.693L279 394.887C278.652 395.582 277.944 396.003 277.192 396.003Z" fill="#6052BF"/>
<path fill-rule="evenodd" clip-rule="evenodd" d="M295.437 375.81H170.021C168.905 375.81 168 374.905 168 373.79V369.752C168 368.636 168.905 367.732 170.021 367.732H295.437C296.553 367.732 297.458 368.636 297.458 369.752V373.79C297.458 374.905 296.553 375.81 295.437 375.81Z" fill="#8C7FE5" stroke="#6052BF" stroke-width="0.8"/>
<path fill-rule="evenodd" clip-rule="evenodd" d="M230.653 303.113H226.61C225.494 303.113 224.589 304.017 224.589 305.133V367.732H232.674V305.133C232.674 304.017 231.769 303.113 230.653 303.113Z" fill="#6052BF"/>
<path fill-rule="evenodd" clip-rule="evenodd" d="M260.968 303.113H256.926C255.81 303.113 254.905 304.017 254.905 305.133V367.732H262.989V305.133C262.989 304.017 262.085 303.113 260.968 303.113Z" fill="#8C7FE5" stroke="#6052BF" stroke-width="0.8"/>
<path fill-rule="evenodd" clip-rule="evenodd" d="M194.274 309.171H190.232C189.115 309.171 188.21 310.075 188.21 311.191V367.511C188.21 367.633 188.309 367.732 188.432 367.732H196.295V311.191C196.295 310.075 195.39 309.171 194.274 309.171Z" fill="#8C7FE5" stroke="#6052BF" stroke-width="0.8"/>
<path fill-rule="evenodd" clip-rule="evenodd" d="M186.647 315.286L180.585 315.18C179.469 315.161 178.548 316.049 178.529 317.164L177.648 367.64L187.751 367.816L188.632 317.341C188.652 316.226 187.763 315.306 186.647 315.286Z" fill="#6052BF"/>
<path fill-rule="evenodd" clip-rule="evenodd" d="M252.884 297.055H242.779C241.663 297.055 240.758 297.959 240.758 299.075V367.732H254.905V299.075C254.905 297.959 254 297.055 252.884 297.055Z" fill="#6052BF"/>
<path fill-rule="evenodd" clip-rule="evenodd" d="M238.737 311.191H234.695C233.579 311.191 232.674 312.095 232.674 313.21V367.732H240.758V313.21C240.758 312.095 239.853 311.191 238.737 311.191Z" fill="#8C7FE5" stroke="#6052BF" stroke-width="0.8"/>
<rect x="236.771" y="317.249" width="4.04211" height="4.03868" fill="#6052BF"/>
<path fill-rule="evenodd" clip-rule="evenodd" d="M236.771 355.616H240.813V359.655H236.771V355.616ZM232.674 355.616H236.716V359.655H232.674V355.616Z" fill="#6052BF"/>
<rect x="232.674" y="317.249" width="4.04211" height="4.03868" fill="#6052BF"/>
<path fill-rule="evenodd" clip-rule="evenodd" d="M222.569 307.152H214.484C213.368 307.152 212.463 308.056 212.463 309.171V367.732H224.59V309.171C224.59 308.056 223.685 307.152 222.569 307.152Z" fill="#8C7FE5" stroke="#6052BF" stroke-width="0.8"/>
<path fill-rule="evenodd" clip-rule="evenodd" d="M594.902 431.281L595.521 434.323C595.813 435.759 597.872 435.759 598.165 434.323L598.784 431.281C599.393 428.284 601.744 425.941 604.752 425.334L607.805 424.717C609.246 424.426 609.246 422.374 607.805 422.083L604.752 421.466C601.744 420.858 599.393 418.516 598.784 415.519L598.165 412.477C597.872 411.041 595.813 411.041 595.521 412.477L594.902 415.519C594.292 418.516 591.941 420.859 588.933 421.466L585.881 422.083C584.44 422.374 584.44 424.426 585.881 424.717L588.933 425.334C591.941 425.941 594.292 428.284 594.902 431.281Z" fill="white"/>
<path fill-rule="evenodd" clip-rule="evenodd" d="M704.466 288.938L704.838 290.765C705.013 291.627 706.25 291.627 706.425 290.765L706.797 288.938C707.163 287.139 708.575 285.732 710.381 285.367L712.214 284.997C713.079 284.822 713.079 283.59 712.214 283.415L710.381 283.045C708.575 282.68 707.163 281.273 706.797 279.473L706.425 277.647C706.25 276.784 705.013 276.784 704.838 277.647L704.466 279.473C704.1 281.273 702.688 282.68 700.882 283.045L699.049 283.415C698.184 283.59 698.184 284.822 699.049 284.997L700.882 285.367C702.688 285.732 704.1 287.139 704.466 288.938Z" fill="white"/>
<path fill-rule="evenodd" clip-rule="evenodd" d="M626.066 572.138L626.438 573.965C626.613 574.827 627.85 574.827 628.025 573.965L628.397 572.138C628.763 570.339 630.175 568.932 631.981 568.567L633.814 568.197C634.679 568.022 634.679 566.79 633.814 566.615L631.981 566.245C630.175 565.88 628.763 564.473 628.397 562.673L628.025 560.847C627.85 559.984 626.613 559.984 626.438 560.847L626.066 562.673C625.7 564.473 624.288 565.88 622.482 566.245L620.649 566.615C619.784 566.79 619.784 568.022 620.649 568.197L622.482 568.567C624.288 568.932 625.7 570.339 626.066 572.138Z" fill="white"/>
<path fill-rule="evenodd" clip-rule="evenodd" d="M742.866 632.138L743.238 633.965C743.413 634.827 744.65 634.827 744.826 633.965L745.197 632.138C745.563 630.339 746.975 628.932 748.781 628.567L750.614 628.197C751.48 628.022 751.48 626.79 750.614 626.615L748.781 626.245C746.975 625.88 745.563 624.473 745.197 622.673L744.826 620.847C744.65 619.984 743.413 619.984 743.238 620.847L742.866 622.673C742.5 624.473 741.089 625.88 739.282 626.245L737.449 626.615C736.584 626.79 736.584 628.022 737.449 628.197L739.282 628.567C741.089 628.932 742.5 630.339 742.866 632.138Z" fill="white"/>
<path fill-rule="evenodd" clip-rule="evenodd" d="M760.764 361.422L761.35 364.302C761.627 365.661 763.576 365.661 763.853 364.302L764.439 361.422C765.016 358.585 767.242 356.367 770.089 355.792L772.979 355.208C774.343 354.932 774.343 352.989 772.979 352.714L770.089 352.13C767.242 351.555 765.016 349.337 764.439 346.499L763.853 343.62C763.576 342.26 761.627 342.26 761.35 343.62L760.764 346.499C760.187 349.337 757.961 351.555 755.113 352.13L752.224 352.714C750.859 352.989 750.859 354.932 752.224 355.208L755.113 355.792C757.961 356.367 760.187 358.585 760.764 361.422Z" fill="white"/>
<path d="M717.142 442.738C717.142 442.738 722.334 450.983 724.416 456.324C726.499 461.665 728.985 474.963 728.985 474.963C728.985 474.963 734.028 481.85 742.917 485.112C751.805 488.374 761.691 489.13 761.691 489.13C761.691 489.13 768.232 487.72 770.219 488.192C772.206 488.664 773.251 490.338 774.598 490.792C779.52 492.451 782.195 492.417 782.195 492.9C782.195 493.823 781.104 494.662 781.104 494.662C781.104 494.662 790.498 496.91 790.901 498.919C791.305 500.929 786.223 502.442 782.719 503.423C779.214 504.404 773.594 505.117 770.219 504C766.843 502.883 765.995 502.011 763.724 500.849C761.453 499.688 759.937 499.449 759.937 499.449C759.937 499.449 754.441 500.048 746.059 499.038C737.676 498.028 722.314 494.244 722.314 494.244C722.314 494.244 720.198 492.861 718.157 486.214C716.115 479.567 713.989 467.139 713.989 467.139L717.142 442.738Z" fill="#F3B78B" stroke="#D59B86" stroke-width="0.64"/>
<path d="M773.665 495.182L781.507 495.082" stroke="#E6A67D" stroke-width="0.64"/>
<path d="M772.093 494.096C772.093 494.096 770.8 496.012 770.013 496.779C769.226 497.546 767.932 498.152 767.932 498.152" stroke="#E6A67D" stroke-width="0.64"/>
<path d="M761.567 492.499C761.797 492.499 763.155 493.321 765.439 493.321C766.325 493.321 768.459 492.499 768.459 492.499" stroke="#E6A67D" stroke-width="0.64"/>
<path d="M681.043 428.086C681.043 428.086 682.232 432.622 681.553 434.452C680.875 436.283 676.193 440.046 676.193 440.046C676.193 440.046 684.648 442.531 689.021 442.43C693.395 442.328 703.442 439.28 703.442 439.28C703.442 439.28 699.556 436.402 698.655 434.452C697.754 432.503 697.651 428.086 697.651 428.086H681.043Z" fill="#E1A078"/>
<path d="M684.338 591.146L682.384 649.376L686.223 655.987C686.223 655.987 668.967 658.236 669.452 657.698C669.666 657.462 669.991 656.108 670.728 654.005C671.11 652.917 672.562 650.106 672.562 650.106L665.417 592.901L684.338 591.146Z" fill="#F3B78B" stroke="#D59B86" stroke-width="0.64"/>
<path d="M694.821 592.23L697.795 650.417L694.072 657.094C694.072 657.094 711.365 659.042 710.87 658.513C710.653 658.28 710.304 656.932 709.53 654.842C709.129 653.762 707.628 650.976 707.628 650.976L713.77 593.656L694.821 592.23Z" fill="#F3B78B" stroke="#D59B86" stroke-width="0.64"/>
<path d="M665.817 661.411C665.817 661.411 665.015 655.184 676.045 654.163C687.075 653.142 690.602 657.659 690.602 657.659C690.602 657.659 695.472 652.921 705.457 654.163C715.442 655.405 715.442 661.411 715.442 661.411H665.817Z" fill="#DA3337"/>
<path d="M663.209 465.311C663.209 465.311 664.295 476.594 665.044 482.149C665.612 486.359 666.716 492.699 667.217 495.519C667.383 496.458 667.248 497.419 666.855 498.288C664.777 502.877 658.053 518.929 655.611 539.446C652.707 563.846 653.43 591.426 653.43 591.426H728.091C728.091 591.426 728.962 564.299 725.233 541.346C722.062 521.826 714.312 503.407 712.065 498.333C711.667 497.435 711.56 496.446 711.772 495.486C712.422 492.55 713.872 485.931 714.596 482.149C715.545 477.186 717.038 467.722 717.038 467.722L728.091 466.354C728.091 466.354 725.56 451.377 721.169 446.432C713.403 437.686 702.431 438.42 702.025 438.42C701.627 438.42 696.322 441.007 688.905 441.311C685.152 441.465 676.348 439.453 676.348 439.453C676.348 439.453 666.134 438.543 659.671 444.726C653.209 450.909 652.676 462.806 652.676 462.806L663.209 465.311Z" fill="#1E2147"/>
<path d="M665.044 482.149C665.612 486.359 666.716 492.699 667.217 495.519C667.383 496.458 667.248 497.419 666.855 498.288C664.777 502.877 658.053 518.929 655.611 539.446C653.351 558.434 653.288 580.874 653.371 589.894C653.392 592.151 655.231 593.946 657.488 593.946H724.055C726.303 593.946 728.138 592.166 728.161 589.918C728.251 581.043 728.129 559.176 725.233 541.346C722.062 521.826 714.312 503.407 712.065 498.333C711.667 497.435 711.56 496.446 711.772 495.486C712.422 492.55 713.872 485.931 714.596 482.149C715.545 477.186 717.038 467.722 717.038 467.722C717.038 467.722 707.414 438.913 707.025 438.782C706.862 438.728 705.743 438.565 704.575 438.472C703.88 438.417 702.363 438.424 702.363 438.424C702.363 438.424 707.216 466.52 702.025 478.251C699.63 483.665 682.421 483.883 677.664 479.123C672.908 474.364 676.751 439.557 676.751 439.557C676.751 439.557 674.692 439.333 673.6 439.333C672.508 439.333 670.723 439.557 670.723 439.557L663.262 465.392C663.262 465.392 665.025 482.006 665.044 482.149Z" fill="#48BF82"/>
<path d="M653.832 463.4C652.64 468.374 651.264 480.373 649.566 486.6C645.78 500.487 642.068 532.904 642.068 532.904C642.068 532.904 641.158 536.399 641.158 538.815C641.158 541.231 643.751 545.793 643.751 545.793C643.751 545.793 652.773 549.93 654.301 549.93C655.83 549.93 656.616 548.889 657.099 547.848C657.582 546.807 657.099 543.887 657.099 543.887C657.099 543.887 657.192 537.96 656.697 536.399C656.203 534.837 653.516 531.194 653.516 531.194C653.516 531.194 657.794 503.129 659.988 495.081C660.368 493.687 662.799 487.49 665.057 480.819C664.825 477.186 664.137 474.405 663.826 472.2C663.346 468.793 663.231 466.734 662.938 464.83C656.697 464.2 659.168 464.522 653.832 463.4Z" fill="#F3B78B" stroke="#D59B86" stroke-width="0.5"/>
<path d="M652.676 538.815C652.676 538.815 653.286 541.473 653.286 542.949C653.286 544.424 654.462 545.471 654.837 546.303C655.213 547.134 655.388 546.371 656.037 545.793C656.686 545.215 656.999 544.205 656.999 544.205" stroke="#D59B86" stroke-width="0.52"/>
<path d="M649.556 544.864C649.556 544.989 650.085 546.038 651.579 547.848C652.093 548.47 653.603 549.93 653.603 549.93" stroke="#D59B86" stroke-width="0.52"/>
<path d="M646.843 545.115C646.843 545.115 647.106 546.25 647.676 546.921C648.245 547.591 649.909 548.726 649.909 548.726" stroke="#D59B86" stroke-width="0.52"/>
<path d="M689.778 450.456C691.36 450.456 692.642 449.187 692.642 447.622C692.642 446.057 691.36 444.788 689.778 444.788C688.196 444.788 686.914 446.057 686.914 447.622C686.914 449.187 688.196 450.456 689.778 450.456Z" fill="#FFDE63"/>
<path d="M689.778 463.702C691.36 463.702 692.642 462.434 692.642 460.869C692.642 459.304 691.36 458.035 689.778 458.035C688.196 458.035 686.914 459.304 686.914 460.869C686.914 462.434 688.196 463.702 689.778 463.702Z" fill="#FFDE63"/>
<path d="M689.778 476.003C691.36 476.003 692.642 474.734 692.642 473.169C692.642 471.604 691.36 470.335 689.778 470.335C688.196 470.335 686.914 471.604 686.914 473.169C686.914 474.734 688.196 476.003 689.778 476.003Z" fill="#FFDE63"/>
<path d="M663.826 505.356L714.885 505L711.857 497.13H667.023L663.826 505.356Z" fill="#4C5B9D"/>
<path d="M686.886 358.768C700.676 359.729 712.5 351.314 713.296 339.972C714.092 328.63 703.558 318.656 689.769 317.695C675.979 316.735 664.155 325.15 663.359 336.492C662.563 347.834 673.097 357.808 686.886 358.768Z" fill="#3C1715"/>
<path d="M646.246 405.016C649.691 405.016 652.483 401.319 652.483 396.758C652.483 392.198 649.691 388.501 646.246 388.501C642.802 388.501 640.009 392.198 640.009 396.758C640.009 401.319 642.802 405.016 646.246 405.016Z" fill="#E1A078"/>
<path d="M725.734 401.235C729.179 401.235 731.971 397.538 731.971 392.978C731.971 388.417 729.179 384.72 725.734 384.72C722.289 384.72 719.497 388.417 719.497 392.978C719.497 397.538 722.289 401.235 725.734 401.235Z" fill="#E1A078"/>
<path d="M687.396 430.845C709.768 430.845 727.904 414.087 727.904 393.416C727.904 372.744 709.768 355.987 687.396 355.987C665.024 355.987 646.888 372.744 646.888 393.416C646.888 414.087 665.024 430.845 687.396 430.845Z" fill="#F3B78B"/>
<path d="M641.984 390.686C641.984 390.686 642.487 339.34 685.433 339.34C728.38 339.34 729.856 386.834 729.856 386.834C729.856 386.834 705.619 378.661 696.245 374.74C688.67 371.571 679.986 365.642 669.79 365.642C665.068 365.642 657.727 368.468 652.115 375.557C649.648 378.673 647.203 388.566 647.203 388.566C647.203 388.566 645.636 388.402 644.655 388.802C643.673 389.201 641.984 390.686 641.984 390.686Z" fill="#53231B"/>
<path d="M647.167 388.534C647.167 388.534 647.111 348.859 685.708 348.859C724.304 348.859 727.177 385.843 727.177 385.843C727.177 385.843 709.256 380.801 697.681 375.448C689.327 371.584 675.705 364.399 667.032 365.888C655.23 367.915 647.167 388.534 647.167 388.534Z" fill="#723322"/>
<path d="M665.996 402.111C667.684 402.111 669.053 400.08 669.053 397.575C669.053 395.069 667.684 393.038 665.996 393.038C664.307 393.038 662.938 395.069 662.938 397.575C662.938 400.08 664.307 402.111 665.996 402.111Z" fill="black"/>
<path d="M704.211 400.599C705.899 400.599 707.268 398.568 707.268 396.062C707.268 393.557 705.899 391.525 704.211 391.525C702.523 391.525 701.154 393.557 701.154 396.062C701.154 398.568 702.523 400.599 704.211 400.599Z" fill="black"/>
<path d="M665.995 397.575C666.84 397.575 667.524 396.897 667.524 396.062C667.524 395.227 666.84 394.55 665.995 394.55C665.151 394.55 664.467 395.227 664.467 396.062C664.467 396.897 665.151 397.575 665.995 397.575Z" fill="white"/>
<path d="M704.211 396.062C705.055 396.062 705.739 395.385 705.739 394.55C705.739 393.715 705.055 393.038 704.211 393.038C703.367 393.038 702.682 393.715 702.682 394.55C702.682 395.385 703.367 396.062 704.211 396.062Z" fill="white"/>
<path d="M662.556 414.21C665.3 414.21 667.524 412.009 667.524 409.295C667.524 406.58 665.3 404.38 662.556 404.38C659.813 404.38 657.588 406.58 657.588 409.295C657.588 412.009 659.813 414.21 662.556 414.21Z" fill="#EFA481"/>
<path d="M714.147 409.673C717.101 409.673 719.497 407.303 719.497 404.38C719.497 401.457 717.101 399.087 714.147 399.087C711.192 399.087 708.796 401.457 708.796 404.38C708.796 407.303 711.192 409.673 714.147 409.673Z" fill="#EFA481"/>
<path d="M727.177 406.648C729.288 406.648 730.999 404.617 730.999 402.111C730.999 399.606 729.288 397.575 727.177 397.575C725.066 397.575 723.355 399.606 723.355 402.111C723.355 404.617 725.066 406.648 727.177 406.648Z" fill="#DA3337"/>
<path d="M646.888 408.16C648.998 408.16 650.709 406.129 650.709 403.624C650.709 401.118 648.998 399.087 646.888 399.087C644.777 399.087 643.066 401.118 643.066 403.624C643.066 406.129 644.777 408.16 646.888 408.16Z" fill="#DA3337"/>
<path d="M672.945 411.323C672.945 411.323 683.201 412.7 688.813 412.6C694.426 412.5 703.622 410.411 703.622 410.411C703.622 410.411 697.841 422.588 689.224 423.036C680.606 423.485 672.945 411.323 672.945 411.323Z" fill="#AA4F44"/>
<path d="M673.163 411.432C673.163 411.432 683.24 412.891 688.852 412.861C694.465 412.831 703.304 410.613 703.304 410.613C703.304 410.613 697.841 415.583 689.223 415.717C680.606 415.851 673.163 411.432 673.163 411.432Z" fill="white"/>
<path d="M679.245 418.962C679.245 418.962 681.606 418.996 686.359 418.962C691.112 418.927 697.832 418.962 697.832 418.962C697.832 418.962 693.528 423.015 688.551 423.015C683.575 423.015 679.245 418.962 679.245 418.962Z" fill="#CC5F54"/>
<path d="M689.199 394.933C689.199 394.933 690.857 401.73 690.009 403.467C689.161 405.204 683.82 404.993 683.82 404.993C683.82 404.993 687.718 403.668 688.573 401.918C689.428 400.167 689.199 394.933 689.199 394.933Z" fill="#CC8D66"/>
<path d="M667.659 384.452C667.659 384.452 662.213 384.097 660.594 384.943C658.975 385.789 658.471 389.254 658.471 389.254C658.471 389.254 660.747 387.245 662.373 386.801C663.999 386.356 667.45 386.801 667.45 386.801L667.659 384.452Z" fill="#3C1715"/>
<path d="M702.682 384.825C702.682 384.825 708.128 384.47 709.747 385.316C711.366 386.162 711.87 389.627 711.87 389.627C711.87 389.627 709.593 387.618 707.967 387.174C706.341 386.729 702.891 387.174 702.891 387.174L702.682 384.825Z" fill="#3C1715"/>
<path d="M689.495 510.225C694.138 510.225 697.901 506.46 697.901 501.817C697.901 497.174 694.138 493.41 689.495 493.41C684.853 493.41 681.089 497.174 681.089 501.817C681.089 506.46 684.853 510.225 689.495 510.225Z" fill="#4C5B9D" stroke="#7567DB" stroke-width="1.04"/>
<mask id="mask1" mask-type="alpha" maskUnits="userSpaceOnUse" x="680" y="492" width="19" height="19">
<path d="M689.495 510.225C694.138 510.225 697.901 506.46 697.901 501.817C697.901 497.174 694.138 493.41 689.495 493.41C684.853 493.41 681.089 497.174 681.089 501.817C681.089 506.46 684.853 510.225 689.495 510.225Z" fill="white" stroke="white" stroke-width="1.04"/>
</mask>
<g mask="url(#mask1)">
<path fill-rule="evenodd" clip-rule="evenodd" d="M694.383 509.723C694.098 509.723 693.877 509.641 693.719 509.477C693.562 509.313 693.483 509.092 693.483 508.815V505.249L690.193 505.234C689.698 505.225 689.248 505.155 688.844 505.026C687.46 504.57 686.768 503.58 686.768 502.056V499.608C686.773 499.29 686.86 499.054 687.03 498.9C687.19 498.761 687.397 498.692 687.652 498.692C687.927 498.692 688.149 498.766 688.319 498.915C688.474 499.054 688.551 499.263 688.551 499.541V501.61C688.551 502.314 688.743 502.838 689.125 503.18C689.507 503.523 690.153 503.694 691.062 503.694H691.999C692.854 503.704 693.348 503.709 693.483 503.709V499.6C693.483 499.312 693.563 499.086 693.723 498.923C693.868 498.769 694.088 498.692 694.383 498.692C694.668 498.692 694.886 498.771 695.039 498.93C695.191 499.089 695.267 499.312 695.267 499.6V508.815C695.267 509.092 695.188 509.313 695.031 509.477C694.874 509.641 694.658 509.723 694.383 509.723Z" fill="#FFDE63"/>
</g>
<g filter="url(#filter0_d)">
<path fill-rule="evenodd" clip-rule="evenodd" d="M465.096 307.895C469.504 349.834 514.471 359.632 568.079 353.997C576.853 353.892 585.519 353.053 593.814 351.509C597.938 355.921 603.805 361.972 607.439 364.738C611.743 368.016 618.867 370.798 622.648 372.139C623.283 372.364 623.755 371.589 623.278 371.114C620.255 368.098 614.524 362.233 612.689 359.33C609.515 354.309 608.133 350.537 607.53 348.206C639.276 338.697 662.41 317.779 659.226 287.491C655.327 250.388 609.873 235.968 556.266 241.602C502.658 247.236 461.025 269.163 465.096 307.895Z" fill="white"/>
</g>
<path opacity="0.8" d="M531.586 288.944C531.267 288.978 531.007 288.91 530.805 288.741C530.608 288.572 530.493 288.327 530.46 288.008L529.423 278.146L523.252 278.794L524.289 288.657C524.322 288.976 524.258 289.239 524.095 289.446C523.939 289.653 523.703 289.773 523.39 289.806C523.071 289.839 522.81 289.772 522.608 289.603C522.412 289.433 522.297 289.189 522.263 288.87L521.151 278.289C521.117 277.959 521.175 277.693 521.327 277.493C521.484 277.292 521.728 277.174 522.059 277.139L530.255 276.278C530.58 276.244 530.837 276.309 531.027 276.473C531.223 276.637 531.338 276.884 531.373 277.215L532.485 287.795C532.519 288.115 532.454 288.378 532.292 288.585C532.135 288.791 531.9 288.911 531.586 288.944ZM541.759 286.337C541.067 287.366 540.119 287.944 538.917 288.07C537.515 288.217 536.494 287.924 535.852 287.191L536.273 291.113C536.307 291.438 536.249 291.706 536.098 291.918C535.948 292.135 535.722 292.26 535.42 292.291C535.136 292.321 534.897 292.248 534.706 292.073C534.496 291.882 534.374 291.629 534.342 291.316L533.179 280.257C533.146 279.938 533.211 279.66 533.377 279.424C533.528 279.218 533.746 279.1 534.031 279.07C534.623 279.007 535.003 279.356 535.169 280.117C535.69 279.209 536.634 278.684 538.002 278.54C539.272 278.406 540.331 278.808 541.179 279.744C541.954 280.596 542.411 281.683 542.55 283.005C542.681 284.258 542.418 285.369 541.759 286.337ZM539.786 281.126C539.219 280.448 538.531 280.152 537.722 280.237C536.89 280.325 536.268 280.733 535.855 281.462C535.52 282.056 535.394 282.749 535.477 283.541C535.562 284.35 535.829 285.027 536.278 285.574C536.833 286.247 537.532 286.539 538.375 286.451C539.167 286.367 539.768 285.973 540.178 285.267C540.549 284.635 540.692 283.909 540.606 283.088C540.528 282.347 540.255 281.693 539.786 281.126ZM551.469 286.88C550.933 286.937 550.601 286.6 550.472 285.87C549.948 286.749 548.974 287.264 547.55 287.413C546.513 287.522 545.658 287.313 544.986 286.784C544.314 286.256 543.926 285.49 543.82 284.487L543.27 279.248C543.235 278.923 543.304 278.64 543.474 278.397C543.619 278.186 543.839 278.065 544.136 278.034C544.432 278.002 544.676 278.075 544.867 278.251C545.066 278.443 545.183 278.707 545.218 279.043L545.719 283.812C545.789 284.473 546.042 284.994 546.48 285.374C546.925 285.771 547.489 285.933 548.173 285.861C548.862 285.789 549.38 285.51 549.727 285.024C550.058 284.563 550.19 284.005 550.121 283.35L549.62 278.581C549.586 278.256 549.651 277.972 549.816 277.73C549.966 277.519 550.184 277.398 550.469 277.368C550.776 277.336 551.026 277.407 551.217 277.583C551.416 277.775 551.533 278.04 551.568 278.376L552.336 285.675C552.368 285.988 552.308 286.259 552.153 286.489C551.999 286.718 551.771 286.849 551.469 286.88ZM561.971 284.04C561.854 284.455 561.681 284.759 561.453 284.95C560.804 285.508 559.889 285.848 558.709 285.972L554.966 286.366C554.635 286.401 554.371 286.319 554.171 286.121C553.952 285.902 553.823 285.605 553.784 285.229L553.052 278.272C553.012 277.884 553.078 277.552 553.25 277.274C553.393 277.046 553.627 276.915 553.952 276.881L557.439 276.514C558.806 276.371 559.783 276.706 560.37 277.52C560.545 277.755 560.648 278.026 560.68 278.334C560.734 278.847 560.657 279.319 560.449 279.75C560.216 280.223 559.859 280.552 559.377 280.735C561.005 280.604 561.903 281.331 562.069 282.915C562.109 283.296 562.077 283.671 561.971 284.04ZM556.817 278.083L555.005 278.274L555.253 280.633L557.065 280.442C558.319 280.31 558.901 279.823 558.813 278.98C558.736 278.25 558.071 277.952 556.817 278.083ZM557.742 281.952L555.418 282.197L555.69 284.786L558.228 284.519C559.641 284.371 560.302 283.861 560.21 282.989C560.121 282.134 559.298 281.789 557.742 281.952ZM570.908 280.689L564.575 281.355C564.682 282.202 565.117 282.836 565.881 283.257C566.487 283.591 567.168 283.718 567.926 283.638C568.382 283.591 568.868 283.424 569.386 283.139C569.466 283.079 569.845 282.826 570.524 282.38C570.67 282.284 570.802 282.23 570.922 282.218C571.099 282.199 571.266 282.256 571.424 282.389C571.595 282.538 571.691 282.713 571.712 282.912C571.756 283.328 571.391 283.778 570.619 284.263C569.755 284.814 568.827 285.142 567.836 285.247C566.434 285.394 565.244 285.055 564.264 284.231C563.29 283.406 562.73 282.292 562.582 280.891C562.443 279.563 562.76 278.363 563.535 277.291C564.278 276.256 565.297 275.671 566.59 275.535C567.525 275.437 568.406 275.624 569.233 276.096C570.036 276.559 570.664 277.213 571.116 278.058C571.382 278.56 571.543 279.079 571.599 279.615C571.668 280.275 571.438 280.634 570.908 280.689ZM568.603 277.501C568.099 277.093 567.48 276.928 566.745 277.005C566.027 277.081 565.456 277.377 565.032 277.894C564.828 278.146 564.663 278.463 564.536 278.845C564.413 279.203 564.358 279.509 564.373 279.76L569.655 279.205C569.501 278.507 569.15 277.939 568.603 277.501ZM585.576 283.27C585.302 283.298 585.073 283.225 584.887 283.048C584.681 282.845 584.561 282.581 584.527 282.257L584.026 277.487C583.96 276.861 583.742 276.348 583.372 275.949C582.976 275.53 582.462 275.353 581.83 275.42C581.186 275.487 580.714 275.767 580.415 276.26C580.135 276.727 580.029 277.274 580.095 277.901L580.596 282.67C580.631 283.006 580.572 283.289 580.417 283.518C580.284 283.728 580.069 283.848 579.772 283.88C579.482 283.91 579.249 283.837 579.075 283.659C578.876 283.467 578.759 283.203 578.724 282.866L578.223 278.097C578.157 277.471 577.939 276.958 577.569 276.559C577.173 276.14 576.659 275.963 576.027 276.03C574.711 276.168 574.132 276.995 574.291 278.511L574.793 283.28C574.828 283.616 574.771 283.895 574.622 284.119C574.477 284.335 574.26 284.459 573.969 284.49C573.696 284.518 573.466 284.445 573.281 284.268C573.075 284.065 572.955 283.801 572.921 283.476L572.155 276.186C572.121 275.861 572.183 275.578 572.342 275.337C572.487 275.126 572.696 275.006 572.969 274.977C573.209 274.952 573.424 275.024 573.614 275.194C573.81 275.358 573.936 275.573 573.993 275.837C574.442 275.07 575.334 274.616 576.667 274.476C577.71 274.367 578.579 274.713 579.274 275.516C579.521 275.075 579.928 274.698 580.494 274.385C581.006 274.106 581.525 273.94 582.049 273.885C583.188 273.765 584.079 273.965 584.721 274.485C585.363 274.999 585.739 275.778 585.848 276.821L586.399 282.06C586.434 282.396 586.377 282.676 586.228 282.899C586.084 283.115 585.866 283.239 585.576 283.27ZM590.652 278.537C590.431 278.738 590.133 278.859 589.756 278.899C589.403 278.936 589.098 278.879 588.84 278.727C588.601 278.597 588.469 278.409 588.444 278.164L587.692 271.01C587.664 270.742 587.747 270.521 587.941 270.345C588.135 270.163 588.429 270.051 588.822 270.01C589.637 269.924 590.075 270.172 590.136 270.753L590.888 277.907C590.915 278.163 590.836 278.373 590.652 278.537ZM590.177 282.898C589.841 282.934 589.529 282.877 589.243 282.729C588.914 282.556 588.732 282.31 588.699 281.991C588.665 281.666 588.791 281.388 589.078 281.156C589.327 280.951 589.62 280.831 589.956 280.796C590.292 280.761 590.603 280.817 590.89 280.966C591.218 281.133 591.4 281.379 591.434 281.703C591.467 282.023 591.341 282.301 591.055 282.538C590.806 282.743 590.513 282.863 590.177 282.898ZM491.95 315.913C491.642 315.946 491.39 315.877 491.194 315.707C490.998 315.544 490.884 315.305 490.851 314.992L490.543 312.06L482.919 312.862L483.227 315.793C483.26 316.106 483.198 316.364 483.04 316.564C482.883 316.771 482.651 316.891 482.343 316.923C482.024 316.956 481.767 316.888 481.57 316.719C481.374 316.555 481.26 316.317 481.227 316.003L480.844 312.362C480.795 311.889 480.966 311.546 481.358 311.332C481.379 311.307 481.414 311.286 481.464 311.269C481.52 311.252 481.614 311.219 481.747 311.17C482.57 310.888 482.893 309.903 482.716 308.217L482.708 308.14L481.975 301.494C481.941 301.175 482.003 300.909 482.159 300.697C482.306 300.509 482.542 300.398 482.867 300.363L488.927 299.726C489.257 299.692 489.514 299.751 489.697 299.905C489.893 300.074 490.009 300.321 490.043 300.646L491.049 310.218C491.559 310.194 491.92 310.256 492.132 310.407C492.319 310.543 492.431 310.787 492.468 311.141L492.851 314.782C492.884 315.095 492.821 315.352 492.664 315.553C492.507 315.76 492.269 315.88 491.95 315.913ZM488.109 301.567L484.049 301.993L484.569 307.106C484.709 308.439 484.648 309.719 484.385 310.945L489.043 310.455L488.109 301.567ZM501.325 311.221C500.664 311.29 500.27 310.888 500.144 310.014C499.783 311.02 498.873 311.599 497.414 311.753C496.509 311.848 495.686 311.669 494.947 311.217C494.244 310.778 493.693 310.139 493.294 309.3C493.013 308.707 492.835 308.052 492.759 307.334C492.624 306.052 492.869 304.903 493.494 303.887C494.178 302.772 495.144 302.149 496.391 302.018C497.736 301.877 498.758 302.253 499.457 303.148C499.403 302.641 499.496 302.262 499.735 302.012C499.901 301.839 500.098 301.741 500.326 301.717C500.73 301.674 501.009 301.778 501.162 302.027C501.26 302.189 501.334 302.515 501.386 303.005L502.095 309.749C502.156 310.336 502.101 310.742 501.929 310.967C501.823 311.105 501.621 311.19 501.325 311.221ZM498.131 303.857C497.779 303.687 497.381 303.625 496.937 303.672C496.116 303.758 495.502 304.162 495.094 304.885C494.736 305.533 494.601 306.282 494.691 307.131C494.777 307.951 495.053 308.634 495.519 309.178C496.071 309.823 496.766 310.101 497.603 310.013C498.401 309.93 499.001 309.527 499.403 308.805C499.762 308.162 499.898 307.425 499.81 306.593C499.67 305.26 499.11 304.348 498.131 303.857ZM511.797 308.418C511.679 308.833 511.507 309.137 511.279 309.328C510.629 309.886 509.715 310.227 508.535 310.351L504.792 310.744C504.461 310.779 504.196 310.697 503.997 310.499C503.778 310.28 503.649 309.983 503.609 309.607L502.878 302.65C502.837 302.262 502.903 301.93 503.076 301.653C503.219 301.424 503.453 301.293 503.777 301.259L507.264 300.893C508.632 300.749 509.609 301.084 510.196 301.898C510.37 302.133 510.474 302.404 510.506 302.712C510.56 303.225 510.483 303.697 510.275 304.128C510.042 304.601 509.685 304.93 509.203 305.113C510.831 304.982 511.728 305.709 511.895 307.293C511.935 307.675 511.902 308.05 511.797 308.418ZM506.643 302.461L504.831 302.652L505.079 305.011L506.891 304.82C508.144 304.689 508.727 304.201 508.638 303.358C508.562 302.628 507.897 302.33 506.643 302.461ZM507.568 306.33L505.243 306.575L505.516 309.164L508.054 308.898C509.467 308.749 510.128 308.239 510.036 307.367C509.946 306.513 509.124 306.167 507.568 306.33ZM521.29 309.122C520.629 309.192 520.235 308.79 520.109 307.916C519.748 308.922 518.838 309.501 517.38 309.654C516.474 309.75 515.651 309.571 514.912 309.119C514.21 308.68 513.658 308.041 513.259 307.201C512.978 306.609 512.8 305.953 512.724 305.236C512.589 303.954 512.834 302.804 513.459 301.788C514.143 300.674 515.109 300.051 516.356 299.92C517.701 299.778 518.723 300.155 519.422 301.049C519.368 300.542 519.461 300.164 519.7 299.914C519.866 299.741 520.063 299.642 520.291 299.619C520.696 299.576 520.974 299.679 521.127 299.928C521.225 300.091 521.299 300.417 521.351 300.907L522.06 307.65C522.121 308.237 522.066 308.643 521.894 308.869C521.788 309.007 521.586 309.091 521.29 309.122ZM518.096 301.759C517.744 301.588 517.346 301.527 516.902 301.573C516.081 301.66 515.467 302.064 515.059 302.787C514.701 303.435 514.566 304.184 514.656 305.033C514.742 305.853 515.018 306.535 515.484 307.08C516.036 307.725 516.731 308.003 517.568 307.915C518.366 307.831 518.966 307.428 519.368 306.706C519.727 306.064 519.863 305.326 519.775 304.494C519.635 303.161 519.075 302.249 518.096 301.759ZM528.381 296.841C527.924 297.212 527.371 297.431 526.722 297.5L526.645 297.508C525.99 297.576 525.405 297.465 524.89 297.174C524.375 296.876 524.088 296.446 524.029 295.882C524.008 295.688 524.065 295.518 524.2 295.371C524.333 295.219 524.5 295.132 524.699 295.111C524.905 295.09 525.082 295.137 525.233 295.254C525.389 295.37 525.478 295.528 525.499 295.727C525.545 296.171 525.917 296.363 526.613 296.301C526.63 296.299 526.647 296.298 526.664 296.296C527.229 296.237 527.519 295.984 527.535 295.539C527.514 295.334 527.567 295.155 527.695 295.004C527.829 294.851 527.998 294.764 528.204 294.743C528.403 294.722 528.584 294.772 528.746 294.893C528.908 295.009 529 295.166 529.021 295.366C529.021 295.371 529.022 295.377 529.023 295.383C529.082 295.952 528.869 296.439 528.381 296.841ZM531.002 308.136C530.757 308.162 530.531 308.093 530.324 307.931C530.122 307.762 529.998 307.545 529.953 307.279C529.527 308.049 528.571 308.513 527.084 308.669C526.047 308.778 525.193 308.577 524.523 308.065C523.852 307.548 523.465 306.8 523.362 305.82L522.825 300.709C522.791 300.384 522.854 300.11 523.015 299.885C523.155 299.68 523.381 299.562 523.695 299.529C523.991 299.497 524.235 299.57 524.426 299.746C524.623 299.921 524.739 300.174 524.774 300.504L525.262 305.153C525.329 305.792 525.582 306.304 526.02 306.69C526.458 307.076 527.022 307.232 527.711 307.16C528.401 307.087 528.919 306.814 529.267 306.34C529.599 305.884 529.732 305.335 529.664 304.691L529.175 300.041C529.141 299.717 529.202 299.442 529.357 299.219C529.502 299.013 529.726 298.895 530.028 298.863C530.336 298.831 530.585 298.902 530.776 299.078C530.973 299.253 531.089 299.506 531.124 299.837L531.872 306.956C531.904 307.264 531.843 307.529 531.688 307.753C531.533 307.977 531.304 308.104 531.002 308.136ZM545.931 306.541C545.657 306.57 545.428 306.496 545.242 306.32C545.036 306.117 544.917 305.853 544.882 305.528L544.381 300.759C544.315 300.132 544.097 299.619 543.727 299.221C543.331 298.801 542.818 298.625 542.185 298.691C541.541 298.759 541.069 299.039 540.77 299.531C540.491 299.998 540.384 300.545 540.45 301.172L540.951 305.941C540.986 306.277 540.927 306.56 540.772 306.79C540.639 306.999 540.424 307.12 540.128 307.151C539.837 307.182 539.605 307.108 539.43 306.931C539.232 306.738 539.115 306.474 539.079 306.138L538.578 301.369C538.512 300.742 538.294 300.229 537.924 299.83C537.528 299.411 537.014 299.235 536.382 299.301C535.066 299.44 534.487 300.267 534.647 301.782L535.148 306.551C535.183 306.887 535.126 307.167 534.977 307.39C534.832 307.607 534.615 307.731 534.324 307.761C534.051 307.79 533.821 307.716 533.636 307.54C533.43 307.337 533.31 307.073 533.276 306.748L532.51 299.458C532.476 299.133 532.538 298.85 532.697 298.608C532.842 298.397 533.051 298.277 533.325 298.249C533.564 298.223 533.779 298.296 533.97 298.466C534.165 298.63 534.292 298.844 534.348 299.109C534.798 298.342 535.689 297.888 537.022 297.748C538.065 297.638 538.934 297.985 539.629 298.787C539.876 298.346 540.283 297.969 540.849 297.656C541.362 297.378 541.88 297.211 542.404 297.156C543.543 297.036 544.434 297.236 545.077 297.757C545.718 298.271 546.094 299.049 546.204 300.092L546.754 305.331C546.79 305.667 546.732 305.947 546.583 306.17C546.439 306.387 546.221 306.511 545.931 306.541ZM555.878 301.374L549.545 302.04C549.651 302.887 550.087 303.521 550.851 303.942C551.456 304.275 552.138 304.403 552.896 304.323C553.352 304.275 553.838 304.109 554.355 303.824C554.436 303.764 554.815 303.511 555.494 303.065C555.639 302.969 555.772 302.914 555.892 302.902C556.068 302.883 556.236 302.941 556.394 303.074C556.565 303.223 556.661 303.397 556.682 303.597C556.726 304.012 556.361 304.463 555.588 304.947C554.724 305.499 553.797 305.827 552.805 305.931C551.404 306.078 550.213 305.74 549.234 304.915C548.26 304.09 547.699 302.977 547.552 301.575C547.412 300.247 547.73 299.048 548.504 297.975C549.248 296.941 550.267 296.356 551.56 296.22C552.495 296.121 553.375 296.308 554.203 296.78C555.006 297.243 555.634 297.897 556.085 298.742C556.351 299.245 556.512 299.763 556.569 300.299C556.638 300.96 556.408 301.318 555.878 301.374ZM553.573 298.186C553.069 297.778 552.45 297.612 551.715 297.69C550.997 297.765 550.426 298.061 550.002 298.578C549.798 298.83 549.633 299.147 549.506 299.529C549.382 299.888 549.328 300.193 549.343 300.445L554.625 299.89C554.471 299.192 554.12 298.624 553.573 298.186ZM572.901 303.43C572.273 303.755 571.637 303.952 570.993 304.019C569.625 304.163 568.461 303.802 567.5 302.935C566.571 302.093 566.035 300.998 565.893 299.647C565.753 298.32 566.077 297.119 566.862 296.046C567.629 295.009 568.665 294.422 569.97 294.285C571.223 294.153 572.177 294.318 572.83 294.779C572.998 294.9 573.094 295.068 573.116 295.285C573.142 295.524 573.091 295.754 572.964 295.975C572.867 296.146 572.73 296.241 572.554 296.26C572.343 296.282 571.989 296.23 571.492 296.104C570.994 295.977 570.595 295.93 570.293 295.962C569.387 296.057 568.714 296.476 568.273 297.22C567.912 297.839 567.777 298.579 567.867 299.44C567.955 300.272 568.254 300.957 568.766 301.497C569.374 302.124 570.105 302.393 570.959 302.303C571.324 302.265 571.758 302.119 572.261 301.864C572.687 301.641 572.923 301.527 572.968 301.522C573.196 301.498 573.392 301.555 573.557 301.693C573.726 301.825 573.823 302.005 573.847 302.233C573.893 302.678 573.578 303.077 572.901 303.43ZM582.716 305.31C581.95 306.134 580.798 306.627 579.26 306.788C578.49 306.869 577.655 306.813 576.753 306.62C575.746 306.409 575.218 306.07 575.169 305.603C575.152 305.449 575.22 305.269 575.371 305.063C575.507 304.876 575.646 304.775 575.789 304.76C575.988 304.739 576.437 304.818 577.136 304.998C577.965 305.216 578.69 305.293 579.312 305.228C580.121 305.143 580.756 304.854 581.217 304.362C581.678 303.876 581.867 303.231 581.782 302.427L581.674 301.393L581.528 301.573C581.014 302.376 580.092 302.847 578.765 302.986C577.437 303.126 576.376 302.759 575.582 301.887C574.845 301.071 574.407 300.002 574.268 298.681C574.17 297.746 574.285 296.87 574.614 296.052C575.244 294.482 576.331 293.616 577.875 293.454C579.226 293.312 580.237 293.666 580.908 294.518C580.907 294.506 580.905 294.495 580.904 294.483C580.819 293.669 581.112 293.226 581.784 293.155C582.086 293.124 582.33 293.193 582.515 293.364C582.713 293.55 582.829 293.809 582.864 294.139L583.675 301.857C583.827 303.304 583.508 304.455 582.716 305.31ZM578.416 295.065C577.624 295.148 577.026 295.542 576.622 296.247C576.251 296.879 576.108 297.603 576.194 298.418C576.279 299.227 576.539 299.899 576.976 300.435C577.505 301.088 578.203 301.369 579.069 301.278C579.907 301.19 580.529 300.779 580.936 300.045C581.271 299.451 581.397 298.761 581.314 297.975C581.226 297.131 580.939 296.43 580.454 295.87C579.91 295.248 579.231 294.979 578.416 295.065ZM592.748 297.499L586.415 298.164C586.522 299.011 586.957 299.645 587.721 300.066C588.327 300.4 589.008 300.527 589.766 300.448C590.222 300.4 590.708 300.233 591.226 299.949C591.306 299.888 591.685 299.635 592.364 299.189C592.51 299.094 592.642 299.039 592.762 299.027C592.939 299.008 593.106 299.065 593.264 299.199C593.435 299.348 593.531 299.522 593.552 299.721C593.596 300.137 593.231 300.587 592.459 301.072C591.595 301.624 590.667 301.952 589.676 302.056C588.274 302.203 587.084 301.864 586.104 301.04C585.13 300.215 584.57 299.101 584.422 297.7C584.283 296.372 584.6 295.172 585.375 294.1C586.118 293.066 587.137 292.48 588.43 292.344C589.365 292.246 590.246 292.433 591.073 292.905C591.876 293.368 592.504 294.022 592.956 294.867C593.222 295.369 593.383 295.888 593.439 296.424C593.508 297.085 593.278 297.443 592.748 297.499ZM590.443 294.31C589.939 293.903 589.32 293.737 588.585 293.814C587.867 293.89 587.296 294.186 586.872 294.703C586.668 294.955 586.503 295.272 586.376 295.654C586.252 296.012 586.198 296.318 586.213 296.57L591.495 296.015C591.341 295.316 590.99 294.748 590.443 294.31ZM602.381 300.522C601.76 300.587 601.425 300.386 601.376 299.919L600.619 292.714L597.089 293.085L597.459 296.934C597.651 298.763 597.292 300.037 596.383 300.755C596.01 301.047 595.573 301.22 595.072 301.273C595.061 301.274 595.049 301.275 595.038 301.276C594.741 301.302 594.495 301.241 594.301 301.094C594.17 300.993 594.089 300.855 594.059 300.679C594.057 300.495 594.124 300.338 594.26 300.209C594.291 300.171 594.443 300.112 594.717 300.031C595.521 299.785 595.851 298.987 595.709 297.637L595.701 297.56L595.121 292.445C595.072 291.983 595.361 291.72 595.988 291.654L601.389 291.086C602.005 291.021 602.337 291.223 602.386 291.69L603.231 299.724C603.28 300.191 602.997 300.457 602.381 300.522ZM612.756 299.509C612.095 299.578 611.702 299.176 611.575 298.302C611.214 299.308 610.305 299.888 608.846 300.041C607.94 300.136 607.118 299.958 606.379 299.505C605.676 299.066 605.125 298.427 604.726 297.588C604.444 296.995 604.266 296.34 604.191 295.622C604.056 294.34 604.301 293.191 604.926 292.175C605.609 291.06 606.575 290.437 607.823 290.306C609.168 290.165 610.189 290.541 610.888 291.436C610.835 290.929 610.928 290.55 611.166 290.3C611.333 290.127 611.53 290.029 611.757 290.005C612.162 289.962 612.441 290.066 612.594 290.315C612.691 290.477 612.766 290.803 612.817 291.293L613.526 298.037C613.588 298.624 613.533 299.03 613.36 299.255C613.254 299.393 613.053 299.478 612.756 299.509ZM609.563 292.145C609.211 291.975 608.813 291.913 608.368 291.96C607.548 292.046 606.934 292.45 606.526 293.173C606.167 293.821 606.033 294.57 606.122 295.419C606.208 296.239 606.485 296.922 606.951 297.466C607.503 298.111 608.197 298.389 609.035 298.301C609.832 298.218 610.432 297.815 610.835 297.093C611.193 296.45 611.329 295.713 611.242 294.881C611.102 293.548 610.542 292.636 609.563 292.145ZM622.679 294.353L616.346 295.018C616.452 295.866 616.887 296.5 617.652 296.921C618.257 297.254 618.939 297.381 619.696 297.302C620.152 297.254 620.639 297.088 621.156 296.803C621.236 296.742 621.616 296.489 622.295 296.044C622.44 295.948 622.573 295.893 622.692 295.881C622.869 295.862 623.036 295.92 623.194 296.053C623.366 296.202 623.462 296.376 623.483 296.576C623.526 296.991 623.162 297.442 622.389 297.926C621.525 298.478 620.598 298.806 619.606 298.91C618.205 299.057 617.014 298.719 616.034 297.894C615.061 297.069 614.5 295.956 614.353 294.554C614.213 293.226 614.531 292.026 615.305 290.954C616.049 289.92 617.067 289.335 618.361 289.199C619.295 289.1 620.176 289.287 621.003 289.759C621.807 290.222 622.434 290.876 622.886 291.721C623.152 292.223 623.313 292.742 623.369 293.278C623.439 293.939 623.209 294.297 622.679 294.353ZM620.374 291.165C619.87 290.757 619.25 290.591 618.515 290.669C617.797 290.744 617.227 291.04 616.803 291.557C616.599 291.809 616.433 292.126 616.307 292.508C616.183 292.867 616.129 293.172 616.144 293.424L621.425 292.869C621.271 292.171 620.921 291.603 620.374 291.165ZM624.121 297.39L624.146 297.214L625.297 289.671C625.338 289.396 625.474 289.108 625.708 288.807C625.865 288.606 626.101 288.489 626.414 288.456C626.716 288.424 626.961 288.479 627.149 288.621C627.28 288.716 627.461 288.962 627.693 289.358L630.631 294.295L632.325 288.872C632.454 288.449 632.577 288.168 632.695 288.029C632.844 287.858 633.075 287.756 633.388 287.723C633.707 287.689 633.965 287.754 634.16 287.918C634.432 288.149 634.62 288.403 634.724 288.68L637.125 295.081C637.312 295.43 637.427 295.706 637.472 295.909C637.486 295.988 637.499 296.09 637.513 296.216C637.534 296.421 637.471 296.589 637.324 296.719C637.139 296.883 636.916 296.978 636.654 297.006C636.198 297.054 635.881 296.836 635.704 296.354L633.64 290.444L631.785 296.558C631.711 296.791 631.602 297.062 631.456 297.371C631.337 297.504 631.153 297.584 630.902 297.61C630.628 297.639 630.416 297.592 630.265 297.47C630.201 297.413 630.05 297.179 629.811 296.766L626.707 291.328L625.935 297.381C625.873 297.888 625.611 298.166 625.15 298.215C624.859 298.245 624.62 298.187 624.432 298.04C624.28 297.917 624.177 297.701 624.121 297.39ZM522.188 327.208L522.213 327.033L523.365 319.489C523.405 319.214 523.542 318.926 523.775 318.625C523.932 318.424 524.168 318.307 524.481 318.274C524.783 318.242 525.028 318.297 525.216 318.439C525.347 318.535 525.528 318.78 525.76 319.177L528.698 324.113L530.392 318.69C530.521 318.267 530.644 317.986 530.762 317.847C530.911 317.676 531.142 317.574 531.455 317.541C531.774 317.508 532.032 317.573 532.228 317.736C532.499 317.967 532.687 318.221 532.791 318.498L535.193 324.899C535.379 325.248 535.494 325.524 535.539 325.727C535.553 325.806 535.566 325.909 535.58 326.034C535.601 326.239 535.538 326.407 535.391 326.538C535.206 326.701 534.983 326.797 534.721 326.824C534.265 326.872 533.948 326.655 533.771 326.172L531.707 320.263L529.852 326.377C529.779 326.609 529.669 326.88 529.523 327.189C529.404 327.322 529.22 327.402 528.969 327.429C528.695 327.457 528.483 327.411 528.332 327.288C528.268 327.231 528.117 326.997 527.878 326.584L524.774 321.147L524.002 327.199C523.94 327.707 523.678 327.985 523.217 328.033C522.926 328.064 522.687 328.005 522.499 327.858C522.348 327.736 522.244 327.519 522.188 327.208ZM543.851 325.89C543.316 325.947 542.984 325.61 542.855 324.88C542.331 325.759 541.357 326.273 539.932 326.423C538.895 326.532 538.041 326.322 537.369 325.794C536.697 325.265 536.308 324.5 536.203 323.497L535.652 318.258C535.618 317.933 535.686 317.649 535.857 317.407C536.002 317.196 536.222 317.075 536.518 317.044C536.815 317.012 537.059 317.085 537.25 317.26C537.449 317.453 537.566 317.717 537.601 318.053L538.102 322.822C538.172 323.483 538.425 324.004 538.863 324.384C539.308 324.781 539.872 324.943 540.556 324.871C541.245 324.799 541.763 324.52 542.109 324.034C542.441 323.573 542.573 323.015 542.504 322.359L542.003 317.59C541.968 317.266 542.034 316.982 542.198 316.74C542.349 316.529 542.567 316.408 542.852 316.378C543.159 316.346 543.409 316.417 543.6 316.593C543.799 316.785 543.916 317.049 543.951 317.386L544.718 324.684C544.751 324.998 544.69 325.269 544.536 325.499C544.382 325.728 544.153 325.859 543.851 325.89ZM553.936 323.266C553.244 324.295 552.296 324.873 551.094 324.999C549.692 325.147 548.671 324.854 548.029 324.12L548.45 328.043C548.484 328.367 548.426 328.636 548.275 328.847C548.125 329.065 547.899 329.189 547.597 329.221C547.312 329.251 547.074 329.178 546.883 329.002C546.673 328.811 546.551 328.559 546.518 328.246L545.356 317.186C545.322 316.867 545.388 316.589 545.554 316.353C545.705 316.147 545.923 316.029 546.208 315.999C546.8 315.937 547.18 316.286 547.346 317.046C547.867 316.139 548.811 315.613 550.179 315.469C551.449 315.336 552.508 315.737 553.356 316.674C554.131 317.525 554.588 318.612 554.727 319.934C554.858 321.188 554.595 322.298 553.936 323.266ZM551.963 318.056C551.396 317.378 550.708 317.082 549.899 317.167C549.067 317.254 548.445 317.662 548.032 318.391C547.697 318.985 547.571 319.678 547.654 320.47C547.739 321.279 548.006 321.957 548.455 322.503C549.01 323.176 549.709 323.469 550.552 323.38C551.344 323.297 551.945 322.902 552.355 322.197C552.726 321.564 552.869 320.838 552.782 320.018C552.705 319.277 552.431 318.623 551.963 318.056ZM572.261 322.913C572.244 322.915 572.227 322.917 572.21 322.918C571.976 322.943 571.775 322.886 571.605 322.749C571.416 322.601 571.306 322.377 571.275 322.075L571.066 320.092C571.036 319.801 570.993 319.371 570.939 318.801C570.47 319.599 569.535 320.071 568.133 320.219C567.022 320.336 566.127 320.127 565.449 319.594C564.771 319.06 564.379 318.292 564.274 317.289L564.062 315.272C564.027 314.947 564.095 314.664 564.266 314.421C564.411 314.21 564.628 314.089 564.919 314.058C565.221 314.027 565.468 314.099 565.659 314.275C565.858 314.467 565.975 314.731 566.01 315.067L566.173 316.614C566.241 317.264 566.494 317.781 566.932 318.167C567.39 318.574 567.955 318.743 568.627 318.672C569.299 318.601 569.813 318.311 570.169 317.801C570.505 317.328 570.64 316.778 570.574 316.151L570.412 314.605C570.377 314.274 570.439 313.991 570.599 313.755C570.744 313.544 570.964 313.423 571.261 313.392C571.568 313.36 571.818 313.434 572.01 313.616C572.202 313.797 572.316 314.059 572.352 314.401L573.12 321.708C573.193 322.409 572.907 322.81 572.261 322.913ZM581.987 321.882C581.451 321.938 581.119 321.602 580.99 320.872C580.466 321.751 579.492 322.265 578.068 322.415C577.031 322.524 576.176 322.314 575.504 321.786C574.832 321.257 574.444 320.492 574.338 319.489L573.788 314.25C573.753 313.925 573.822 313.641 573.992 313.399C574.137 313.188 574.357 313.066 574.654 313.035C574.95 313.004 575.194 313.076 575.385 313.252C575.584 313.445 575.701 313.709 575.736 314.045L576.238 318.814C576.307 319.475 576.56 319.996 576.998 320.376C577.443 320.773 578.007 320.935 578.691 320.863C579.38 320.791 579.898 320.512 580.245 320.026C580.576 319.565 580.708 319.007 580.639 318.351L580.138 313.582C580.104 313.257 580.169 312.974 580.334 312.732C580.484 312.52 580.702 312.4 580.987 312.37C581.294 312.337 581.544 312.409 581.735 312.585C581.934 312.777 582.051 313.041 582.086 313.377L582.854 320.676C582.887 320.99 582.826 321.261 582.671 321.49C582.517 321.72 582.289 321.85 581.987 321.882ZM599.352 323.004L599.284 323.011C599.067 323.034 598.878 322.958 598.716 322.785C598.56 322.617 598.465 322.377 598.432 322.063L598.216 320.004C597.528 320.093 597.145 320.142 597.065 320.15C596.592 320.2 596.253 319.879 596.047 319.186C595.42 320.012 594.565 320.482 593.482 320.596C593.477 320.597 593.471 320.597 593.465 320.598C592.308 320.714 591.348 320.374 590.584 319.579C590.249 320.173 589.773 320.597 589.154 320.852C588.779 321.013 588.253 321.128 587.575 321.2C586.578 321.305 585.755 321.1 585.108 320.586C584.485 320.087 584.121 319.331 584.014 318.316L583.474 313.18C583.441 312.861 583.503 312.58 583.662 312.339C583.802 312.134 584.009 312.018 584.282 311.989C584.573 311.958 584.808 312.029 584.987 312.2C585.18 312.387 585.293 312.649 585.329 312.985L585.82 317.66C585.884 318.264 586.094 318.754 586.45 319.132C586.866 319.578 587.381 319.768 587.996 319.704C588.629 319.637 589.102 319.343 589.416 318.82C589.686 318.377 589.789 317.853 589.726 317.249L589.235 312.574C589.2 312.244 589.257 311.964 589.406 311.735C589.54 311.531 589.752 311.414 590.043 311.383C590.333 311.353 590.565 311.423 590.739 311.595C590.938 311.788 591.055 312.049 591.089 312.379L591.581 317.054C591.644 317.658 591.854 318.149 592.211 318.526C592.626 318.972 593.142 319.163 593.757 319.098C595.062 318.961 595.635 318.143 595.478 316.645L594.987 311.97C594.953 311.651 595.019 311.37 595.183 311.128C595.323 310.923 595.527 310.807 595.795 310.779C596.085 310.748 596.323 310.818 596.508 310.989C596.695 311.177 596.806 311.439 596.841 311.775L597.589 318.894L599.025 318.743C599.532 318.69 599.822 319.002 599.893 319.68L600.13 321.937C600.156 322.187 600.095 322.421 599.945 322.639C599.795 322.856 599.597 322.978 599.352 323.004ZM607.802 315.021L601.469 315.687C601.575 316.534 602.011 317.168 602.775 317.589C603.381 317.923 604.062 318.05 604.82 317.97C605.276 317.922 605.762 317.756 606.28 317.471C606.36 317.411 606.739 317.158 607.418 316.712C607.564 316.616 607.696 316.562 607.816 316.549C607.993 316.531 608.16 316.588 608.318 316.721C608.489 316.87 608.585 317.044 608.606 317.244C608.65 317.66 608.285 318.11 607.512 318.594C606.649 319.146 605.721 319.474 604.73 319.578C603.328 319.725 602.137 319.387 601.158 318.562C600.184 317.737 599.623 316.624 599.476 315.222C599.337 313.895 599.654 312.695 600.428 311.622C601.172 310.588 602.191 310.003 603.484 309.867C604.419 309.769 605.3 309.955 606.127 310.427C606.93 310.89 607.558 311.544 608.01 312.39C608.275 312.892 608.437 313.411 608.493 313.946C608.562 314.607 608.332 314.965 607.802 315.021ZM605.497 311.833C604.993 311.425 604.374 311.26 603.639 311.337C602.921 311.412 602.35 311.709 601.926 312.225C601.722 312.477 601.557 312.794 601.43 313.176C601.306 313.535 601.252 313.84 601.267 314.092L606.549 313.537C606.395 312.839 606.044 312.271 605.497 311.833Z" fill="black"/>
<defs>
<filter id="filter0_d" x="453.2" y="227.4" width="220.433" height="168.482" filterUnits="userSpaceOnUse" color-interpolation-filters="sRGB">
<feFlood flood-opacity="0" result="BackgroundImageFix"/>
<feColorMatrix in="SourceAlpha" type="matrix" values="0 0 0 0 0 0 0 0 0 0 0 0 0 0 0 0 0 0 127 0"/>
<feOffset dy="2"/>
<feGaussianBlur stdDeviation="3"/>
<feColorMatrix type="matrix" values="0 0 0 0 0 0 0 0 0 0 0 0 0 0 0 0 0 0 0.5 0"/>
<feBlend mode="normal" in2="BackgroundImageFix" result="effect1_dropShadow"/>
<feBlend mode="normal" in="SourceGraphic" in2="effect1_dropShadow" result="shape"/>
</filter>
<linearGradient id="paint0_linear" x1="977.845" y1="198.019" x2="1024.02" y2="244.197" gradientUnits="userSpaceOnUse">
<stop stop-color="#1ACEB8"/>
<stop offset="1" stop-color="#0BBFBA"/>
</linearGradient>
</defs>
</svg>
