<svg width="1440" height="900" viewBox="0 0 1440 900" fill="none" xmlns="http://www.w3.org/2000/svg">
<g clip-path="url(#clip0)">
<path d="M0 0L1440 0.000125889L1440 900L-7.86805e-05 900L0 0Z" fill="#7567DB"/>
<path opacity="0.698986" d="M1440.5 273C1591.55 273 1714 150.55 1714 -0.499845C1714 -151.55 1591.55 -274 1440.5 -274C1289.45 -274 1167 -151.55 1167 -0.499893C1167 150.55 1289.45 273 1440.5 273Z" fill="#A89DFF"/>
<path opacity="0.698986" d="M1440.5 610C1777.67 610 2051 336.67 2051 -0.499832C2051 -337.67 1777.67 -611 1440.5 -611C1103.33 -611 830 -337.67 830 -0.499939C830 336.67 1103.33 610 1440.5 610Z" fill="#8072EB"/>
<path opacity="0.698986" d="M1440.5 976C1979.81 976 2417 538.806 2417 -0.499768C2417 -539.806 1979.81 -977 1440.5 -977C901.194 -977 464 -539.806 464 -0.499939C464 538.806 901.194 976 1440.5 976Z" fill="#7A6DDA"/>
</g>
<defs>
<clipPath id="clip0">
<rect width="1440" height="900" fill="white"/>
</clipPath>
</defs>
</svg>
