<svg width="1440" height="900" viewBox="0 0 1440 900" fill="none" xmlns="http://www.w3.org/2000/svg">
<g clip-path="url(#clip0)">
<path d="M1440 900L0 900L7.86805e-05 -6.48536e-05L1440 6.10352e-05L1440 900Z" fill="#7567DB"/>
<path opacity="0.698986" d="M-0.499952 627C-151.55 627 -274 749.45 -274 900.5C-274 1051.55 -151.55 1174 -0.5 1174C150.55 1174 273 1051.55 273 900.5C273 749.45 150.55 627 -0.499952 627Z" fill="#A89DFF"/>
<path opacity="0.698986" d="M-0.499893 290C-337.67 290 -611 563.33 -611 900.5C-611 1237.67 -337.67 1511 -0.5 1511C336.67 1511 610 1237.67 610 900.5C610 563.33 336.67 290 -0.499893 290Z" fill="#8072EB"/>
<path opacity="0.698986" d="M-0.499829 -76.0001C-539.806 -76.0001 -977 361.194 -977 900.5C-977 1439.81 -539.806 1877 -0.5 1877C538.806 1877 976 1439.81 976 900.5C976 361.194 538.806 -76 -0.499829 -76.0001Z" fill="#7A6DDA"/>
</g>
<defs>
<clipPath id="clip0">
<rect width="1440" height="900" fill="white" transform="translate(1440 900) rotate(-180)"/>
</clipPath>
</defs>
</svg>
