<svg width="332" height="433" viewBox="0 0 332 433" fill="none" xmlns="http://www.w3.org/2000/svg">
<path fill-rule="evenodd" clip-rule="evenodd" d="M232.323 382.511H142.662C142.268 382.51 141.876 382.471 141.49 382.393C129.493 379.985 106.798 368.758 106.798 343.511C106.798 318.263 129.493 307.036 141.49 304.628C144.727 303.979 142.674 305.474 143.322 308.723C143.968 311.967 147.078 315.738 143.847 316.394C142.733 316.623 118.753 321.89 118.753 343.511C118.753 363.673 139.609 369.614 143.322 370.511H232.323C235.624 370.511 238.301 373.198 238.301 376.511C238.301 379.824 235.624 382.511 232.323 382.511Z" fill="#1E2147"/>
<path fill-rule="evenodd" clip-rule="evenodd" d="M151.82 373C151.82 376.313 149.143 379 145.842 379C142.54 379 139.864 376.313 139.864 373C139.864 369.686 142.54 367 145.842 367C149.143 367 151.82 369.686 151.82 373Z" fill="#080B36"/>
<path fill-rule="evenodd" clip-rule="evenodd" d="M139.864 301C143.165 301 145.842 303.687 145.842 307V409C145.842 412.314 143.165 415 139.864 415C136.564 415 133.887 412.314 133.887 409V307C133.887 303.687 136.564 301 139.864 301Z" fill="#7C7F95"/>
<path fill-rule="evenodd" clip-rule="evenodd" d="M145.842 397C145.842 400.314 143.165 403 139.864 403C136.564 403 133.887 400.314 133.887 397C133.887 393.687 136.564 391 139.864 391C143.165 391 145.842 393.687 145.842 397Z" fill="#4C4F6E"/>
<path fill-rule="evenodd" clip-rule="evenodd" d="M199.638 421C199.638 427.627 194.286 433 187.683 433C181.081 433 175.729 427.627 175.729 421C175.729 414.373 181.081 409 187.683 409C194.286 409 199.638 414.373 199.638 421Z" fill="#1E2147"/>
<path fill-rule="evenodd" clip-rule="evenodd" d="M211.593 313C218.195 313 223.547 318.373 223.547 325V344.482C223.547 346.644 223.547 363.356 223.547 365.519V374.482C223.547 376.644 223.547 393.356 223.547 395.518V409C223.547 415.628 218.195 421 211.593 421H163.774C157.171 421 151.82 415.627 151.82 409V325C151.82 318.373 157.172 313 163.774 313H211.593Z" fill="#FFCF11"/>
<path fill-rule="evenodd" clip-rule="evenodd" d="M199.638 395.518C199.638 393.356 200.7 391.217 202.627 390.25C204.121 389.5 205.616 388 205.616 385.001C205.616 382 204.121 380.5 202.627 379.75C200.7 378.783 199.638 376.644 199.638 374.482V365.519C199.638 363.356 200.7 361.217 202.627 360.251C204.121 359.5 205.616 358 205.616 355C205.616 352.001 204.121 350.5 202.627 349.75C200.7 348.783 199.638 346.644 199.638 344.482V325C199.638 318.373 194.286 313 187.683 313H163.774C157.171 313 151.82 318.373 151.82 325V344.482C151.82 346.644 151.82 363.356 151.82 365.519V374.482C151.82 376.644 151.82 393.356 151.82 395.518V409C151.82 415.628 157.172 421 163.774 421H187.683C194.286 421 199.638 415.628 199.638 409V395.518Z" fill="#FFCF11"/>
<path fill-rule="evenodd" clip-rule="evenodd" d="M162.046 315.107C163.176 315.107 164.091 320.375 164.091 326.872V345.974C164.091 348.094 164.091 364.481 164.091 366.601V375.389C164.091 377.509 164.091 393.895 164.091 396.015V409.234C164.091 415.733 163.176 421 162.046 421H153.865C152.735 421 151.82 415.732 151.82 409.234V326.872C151.82 320.375 152.735 315.107 153.865 315.107H162.046Z" fill="#FF9E00"/>
<path fill-rule="evenodd" clip-rule="evenodd" d="M208.605 349H220.559C222.209 349 223.547 350.343 223.547 352.001C223.547 353.657 222.209 355 220.559 355H208.605C206.954 355 205.616 353.657 205.616 352.001C205.616 350.343 206.954 349 208.605 349Z" fill="#FFEEAB"/>
<path fill-rule="evenodd" clip-rule="evenodd" d="M154.808 349H196.649C198.3 349 199.638 350.343 199.638 352.001C199.638 353.657 198.3 355 196.649 355H154.808C153.157 355 151.82 353.657 151.82 352.001C151.82 350.343 153.157 349 154.808 349Z" fill="#FFEEAB"/>
<path fill-rule="evenodd" clip-rule="evenodd" d="M154.808 379H196.649C198.3 379 199.638 380.343 199.638 382C199.638 383.657 198.3 385.001 196.649 385.001H154.808C153.157 385.001 151.82 383.657 151.82 382C151.82 380.343 153.157 379 154.808 379Z" fill="#FFEEAB"/>
<path fill-rule="evenodd" clip-rule="evenodd" d="M217.57 313H163.774C157.171 313 151.82 318.373 151.82 325V337H223.547C226.849 337 229.525 334.314 229.525 331V325C229.525 318.373 224.172 313 217.57 313Z" fill="#080B36"/>
<path fill-rule="evenodd" clip-rule="evenodd" d="M193.661 313H157.796C151.195 313 145.842 318.373 145.842 325V331C145.842 334.314 148.518 337 151.82 337H199.638C202.939 337 205.616 334.314 205.616 331V325C205.616 318.373 200.263 313 193.661 313Z" fill="#2C2F53"/>
<path fill-rule="evenodd" clip-rule="evenodd" d="M154.808 331H196.649C198.3 331 199.638 332.343 199.638 334C199.638 335.657 198.3 337 196.649 337H154.808C153.157 337 151.82 335.657 151.82 334C151.82 332.343 153.157 331 154.808 331Z" fill="#1E2147"/>
<path fill-rule="evenodd" clip-rule="evenodd" d="M148.831 403H226.536C231.488 403 235.503 407.029 235.503 412C235.503 416.97 231.488 421 226.536 421H148.831C143.879 421 139.864 416.97 139.864 412C139.864 407.029 143.879 403 148.831 403V403Z" fill="#1E2147"/>
<path fill-rule="evenodd" clip-rule="evenodd" d="M148.831 403H190.672C195.624 403 199.638 407.029 199.638 412C199.638 416.97 195.624 421 190.672 421H148.831C143.879 421 139.864 416.97 139.864 412C139.864 407.029 143.879 403 148.831 403V403Z" fill="#2C2F53"/>
<path fill-rule="evenodd" clip-rule="evenodd" d="M229.525 421C229.525 427.627 224.172 433 217.57 433C210.968 433 205.616 427.627 205.616 421C205.616 414.373 210.968 409 217.57 409C224.172 409 229.525 414.373 229.525 421Z" fill="#4C4F6E"/>
<path fill-rule="evenodd" clip-rule="evenodd" d="M229.525 421H205.616C202.314 421 199.638 418.314 199.638 415V403C199.638 396.372 204.991 391 211.593 391H223.547C230.15 391 235.503 396.372 235.503 403V415C235.503 418.314 232.826 421 229.525 421Z" fill="#1E2147"/>
<path fill-rule="evenodd" clip-rule="evenodd" d="M175.729 313C175.729 307 181.706 307 181.706 307V301H175.729L169.751 307V313H175.729Z" fill="#1E2147"/>
<path fill-rule="evenodd" clip-rule="evenodd" d="M157.796 427C157.796 430.314 155.12 433 151.82 433C148.518 433 145.842 430.314 145.842 427C145.842 423.687 148.518 421 151.82 421C155.12 421 157.796 423.687 157.796 427Z" fill="#4C4F6E"/>
<path fill-rule="evenodd" clip-rule="evenodd" d="M193.661 427C193.661 430.314 190.985 433 187.683 433C184.382 433 181.706 430.314 181.706 427C181.706 423.687 184.382 421 187.683 421C190.985 421 193.661 423.687 193.661 427Z" fill="#4C4F6E"/>
<path fill-rule="evenodd" clip-rule="evenodd" d="M199.638 313C199.638 313 199.638 307 193.661 307H175.729C169.751 307 169.751 313 169.751 313H157.796C157.796 313 157.796 301 175.729 301H199.638C211.593 301 217.57 307 217.57 313H199.638Z" fill="#2C2F53"/>
<path fill-rule="evenodd" clip-rule="evenodd" d="M187.683 373C187.683 379.628 182.331 385.001 175.729 385.001C169.126 385.001 163.774 379.628 163.774 373C163.774 366.373 169.126 361 175.729 361C182.331 361 187.683 366.373 187.683 373Z" fill="#4C4F6E"/>
<path fill-rule="evenodd" clip-rule="evenodd" d="M187.683 376C187.683 380.971 183.669 385.001 178.718 385.001C173.765 385.001 169.751 380.971 169.751 376C169.751 371.029 173.765 367 178.718 367C183.669 367 187.683 371.029 187.683 376Z" fill="#080B36"/>
<path fill-rule="evenodd" clip-rule="evenodd" d="M148.831 415H190.672C192.322 415 193.661 416.343 193.661 418C193.661 419.657 192.322 421 190.672 421H148.831C147.179 421 145.842 419.657 145.842 418C145.842 416.343 147.179 415 148.831 415Z" fill="#1E2147"/>
<path fill-rule="evenodd" clip-rule="evenodd" d="M206.124 392.212C182.682 392.212 175.047 381.737 174.253 380.541C172.422 377.784 173.164 374.058 175.911 372.22C178.601 370.42 182.228 371.093 184.1 373.739C184.392 374.096 189.693 380.213 206.124 380.213C222.97 380.213 228.113 373.785 228.16 373.72C230.133 371.166 233.84 370.551 236.443 372.426C239.071 374.258 239.76 377.862 237.996 380.541C237.202 381.737 229.567 392.212 206.124 392.212Z" fill="#2C2F53"/>
<path fill-rule="evenodd" clip-rule="evenodd" d="M133.887 403L107.757 413.492C105.488 414.402 104 416.609 104 419.062V427C104 430.314 106.677 433 109.978 433H169.751C173.052 433 175.729 430.314 175.729 427V419.062C175.729 416.609 174.241 414.402 171.972 413.492L145.842 403H133.887Z" fill="#4C4F6E"/>
<path fill-rule="evenodd" clip-rule="evenodd" d="M133.887 409H145.842C149.143 409 151.82 411.686 151.82 415C151.82 418.314 149.143 421 145.842 421H133.887C130.586 421 127.909 418.314 127.909 415C127.909 411.686 130.586 409 133.887 409Z" fill="#2C2F53"/>
<path fill-rule="evenodd" clip-rule="evenodd" d="M136.876 397H142.853C147.804 397 151.82 401.029 151.82 406C151.82 410.97 147.805 415 142.853 415H136.876C131.924 415 127.909 410.971 127.909 406C127.909 401.029 131.923 397 136.876 397V397Z" fill="#999AAC"/>
<path fill-rule="evenodd" clip-rule="evenodd" d="M139.864 367C143.165 367 145.842 369.687 145.842 373V385.001C145.842 388.314 143.165 391 139.864 391C136.564 391 133.887 388.314 133.887 385.001V373C133.887 369.687 136.564 367 139.864 367Z" fill="#4C4F6E"/>
<path fill-rule="evenodd" clip-rule="evenodd" d="M109.978 421H169.751C173.052 421 175.729 423.687 175.729 427C175.729 430.314 173.052 433 169.751 433H109.978C106.677 433 104 430.314 104 427C104 423.687 106.677 421 109.978 421Z" fill="#2C2F53"/>
<path fill-rule="evenodd" clip-rule="evenodd" d="M112.966 427H166.762C168.413 427 169.751 428.343 169.751 430C169.751 431.657 168.413 433 166.762 433H112.966C111.316 433 109.978 431.657 109.978 430C109.978 428.343 111.316 427 112.966 427V427Z" fill="#1E2147"/>
<path fill-rule="evenodd" clip-rule="evenodd" d="M223.547 391H211.534C211.528 391 211.523 391 211.517 391.001H211.476C211.47 391.001 211.465 391.001 211.458 391.001H211.441C211.439 391.001 211.437 391.002 211.435 391.001H211.418C211.412 391.002 211.406 391.002 211.4 391.002H211.399C211.394 391.002 211.388 391.002 211.383 391.002H211.358C211.354 391.002 211.349 391.003 211.344 391.003H211.341C211.335 391.003 211.33 391.003 211.324 391.003H211.318C211.314 391.004 211.31 391.004 211.306 391.004H211.3C211.297 391.004 211.292 391.004 211.289 391.004H211.282C211.277 391.004 211.272 391.004 211.266 391.005H211.261C211.257 391.005 211.253 391.005 211.248 391.005H211.243C211.239 391.005 211.234 391.005 211.23 391.006H211.225C211.219 391.006 211.214 391.006 211.208 391.006H211.205C211.2 391.006 211.195 391.007 211.19 391.007H211.185C211.181 391.007 211.177 391.007 211.173 391.007H211.167C211.162 391.008 211.157 391.008 211.152 391.008H211.15C211.143 391.009 211.138 391.009 211.132 391.009H211.127L211.115 391.01H211.109C211.105 391.01 211.1 391.01 211.096 391.01H211.091C211.086 391.011 211.08 391.011 211.075 391.011H211.07C211.066 391.011 211.061 391.012 211.056 391.012H211.038L211.033 391.013C211.027 391.013 211.022 391.013 211.017 391.013L211.012 391.014C211.008 391.014 211.003 391.014 210.998 391.015H210.981L210.975 391.016C210.971 391.016 210.966 391.016 210.961 391.016H210.958L210.941 391.017L210.936 391.018H210.918C210.913 391.019 210.909 391.019 210.905 391.019L210.9 391.02L210.883 391.021H210.88C210.875 391.021 210.871 391.021 210.866 391.021L210.86 391.022L210.848 391.023H210.843L210.826 391.024H210.822C210.818 391.024 210.813 391.025 210.808 391.025H210.803C210.799 391.026 210.795 391.026 210.791 391.026L210.785 391.027L210.75 391.029H210.745C210.741 391.029 210.737 391.03 210.732 391.03H210.727L210.714 391.031L210.71 391.032L210.692 391.033H210.688L210.675 391.034H210.669L210.656 391.035L210.652 391.036L210.635 391.037H210.633L210.618 391.038L210.612 391.039L210.6 391.04H210.595C210.59 391.041 210.584 391.041 210.579 391.041H210.578C210.572 391.042 210.567 391.043 210.561 391.043L210.555 391.044C210.551 391.044 210.548 391.044 210.544 391.044L210.538 391.045L210.526 391.046H210.52C210.515 391.047 210.51 391.048 210.504 391.048H210.498L210.487 391.049L210.481 391.05L210.469 391.051H210.464C210.458 391.052 210.453 391.052 210.446 391.053L210.442 391.054L210.429 391.055H210.423L210.411 391.056L210.406 391.057L210.392 391.058L210.385 391.059L210.373 391.06C210.37 391.06 210.368 391.061 210.365 391.061L210.356 391.062C210.353 391.062 210.35 391.062 210.348 391.062L210.338 391.063L210.331 391.064C210.326 391.065 210.321 391.065 210.316 391.066C210.313 391.066 210.311 391.066 210.309 391.067L210.299 391.068C210.296 391.068 210.294 391.068 210.291 391.068L210.281 391.069C210.279 391.069 210.277 391.07 210.275 391.07C210.269 391.071 210.264 391.071 210.259 391.072H210.253C210.249 391.073 210.245 391.074 210.242 391.074H210.235L210.225 391.076C210.223 391.076 210.22 391.076 210.218 391.076C210.213 391.077 210.208 391.077 210.203 391.078H210.201C210.196 391.079 210.19 391.079 210.185 391.08L210.179 391.081L210.168 391.082L210.162 391.083C210.158 391.083 210.154 391.084 210.149 391.084L210.145 391.085L210.127 391.087H210.123L210.11 391.091L210.104 391.092C210.101 391.093 210.097 391.093 210.093 391.093C210.091 391.094 210.089 391.094 210.087 391.094L210.071 391.096L210.066 391.097C210.062 391.097 210.058 391.097 210.054 391.098C210.052 391.098 210.05 391.099 210.048 391.099L210.037 391.1L210.031 391.101L210.016 391.103L210.012 391.104L209.998 391.105C209.996 391.106 209.994 391.106 209.992 391.106C209.988 391.107 209.984 391.107 209.981 391.107L209.975 391.108C209.971 391.109 209.966 391.111 209.961 391.111L209.958 391.112L209.942 391.114H209.936C209.932 391.115 209.929 391.116 209.925 391.116L209.918 391.117L209.907 391.118C209.906 391.119 209.904 391.119 209.902 391.119C209.897 391.12 209.891 391.121 209.886 391.122H209.88C209.876 391.123 209.873 391.124 209.869 391.124L209.863 391.125C209.859 391.126 209.856 391.126 209.852 391.126L209.846 391.127C209.841 391.128 209.836 391.128 209.832 391.129C209.829 391.129 209.826 391.13 209.823 391.131C209.819 391.131 209.816 391.131 209.812 391.132L209.805 391.133L209.795 391.134L209.789 391.135C209.785 391.136 209.782 391.137 209.778 391.137L209.772 391.138C209.767 391.139 209.761 391.139 209.756 391.141H209.751C209.747 391.142 209.743 391.142 209.739 391.143L209.734 391.144L209.721 391.146L209.717 391.147C209.711 391.147 209.706 391.148 209.7 391.149L209.695 391.15C209.692 391.15 209.687 391.151 209.684 391.152L209.677 391.153C209.674 391.153 209.671 391.154 209.667 391.154C209.665 391.155 209.662 391.155 209.66 391.156L209.645 391.158H209.64L209.628 391.161L209.621 391.162L209.611 391.163L209.605 391.164C209.601 391.165 209.597 391.165 209.593 391.166L209.587 391.167C209.582 391.168 209.577 391.169 209.573 391.17L209.566 391.171C209.562 391.171 209.56 391.172 209.556 391.172C209.554 391.173 209.551 391.174 209.549 391.174L209.539 391.176L209.531 391.177C209.526 391.177 209.521 391.178 209.516 391.179L209.51 391.18C209.506 391.181 209.503 391.182 209.499 391.182C209.497 391.182 209.495 391.183 209.492 391.183C209.489 391.184 209.487 391.184 209.484 391.185L209.475 391.186C209.472 391.187 209.469 391.187 209.466 391.188C209.462 391.188 209.458 391.189 209.454 391.19L209.444 391.192C209.442 391.192 209.439 391.193 209.437 391.193L209.427 391.195L209.42 391.196C209.417 391.197 209.414 391.197 209.411 391.198L209.389 391.202L209.381 391.203L209.373 391.205L209.364 391.206C209.362 391.207 209.359 391.207 209.356 391.208L209.348 391.209L209.334 391.212L209.325 391.214C209.322 391.214 209.32 391.215 209.318 391.215L209.309 391.217L209.301 391.218C209.298 391.219 209.295 391.219 209.293 391.22C209.288 391.221 209.283 391.222 209.278 391.223L209.271 391.224C209.268 391.225 209.265 391.225 209.262 391.226L209.253 391.227C209.251 391.228 209.248 391.229 209.246 391.229C209.243 391.23 209.24 391.23 209.237 391.231L209.23 391.232L209.212 391.235L209.206 391.237C209.203 391.237 209.199 391.238 209.196 391.239L209.191 391.24L209.18 391.242L209.176 391.243C209.164 391.245 209.153 391.248 209.141 391.25L209.135 391.251L209.125 391.254L209.119 391.255L209.109 391.257L209.102 391.259L209.087 391.262L209.08 391.264L209.07 391.266C209.068 391.266 209.066 391.266 209.064 391.267C209.061 391.268 209.058 391.268 209.055 391.269L209.047 391.27C209.042 391.272 209.037 391.273 209.031 391.274L209.025 391.275C209.022 391.276 209.019 391.277 209.016 391.277L209.009 391.279C209.006 391.279 209.003 391.28 209 391.281L208.992 391.282L208.981 391.285C208.978 391.286 208.974 391.286 208.97 391.287L208.962 391.289C208.959 391.29 208.956 391.29 208.953 391.291L208.946 391.292L208.937 391.295C208.935 391.295 208.932 391.296 208.929 391.296L208.923 391.297C208.916 391.299 208.911 391.3 208.905 391.302L208.898 391.303L208.889 391.305L208.882 391.307C208.879 391.308 208.876 391.308 208.873 391.309L208.866 391.31L208.851 391.314L208.843 391.316C208.84 391.316 208.838 391.317 208.835 391.318L208.827 391.319L208.819 391.321C208.816 391.322 208.814 391.322 208.811 391.323L208.801 391.325C208.796 391.326 208.793 391.327 208.789 391.328L208.78 391.33C208.777 391.331 208.775 391.332 208.772 391.332L208.764 391.334L208.757 391.336L208.748 391.338L208.741 391.34C208.736 391.341 208.731 391.342 208.726 391.343L208.718 391.345C208.715 391.346 208.712 391.347 208.709 391.347C208.707 391.348 208.704 391.349 208.702 391.349L208.694 391.351L208.687 391.353C208.681 391.354 208.676 391.356 208.671 391.357L208.664 391.359L208.655 391.361C208.653 391.361 208.651 391.362 208.649 391.362C208.646 391.363 208.642 391.364 208.639 391.365L208.634 391.366C208.626 391.368 208.619 391.37 208.61 391.372H208.609C208.606 391.373 208.602 391.374 208.599 391.375L208.594 391.376C208.59 391.377 208.587 391.378 208.584 391.379L208.579 391.38C208.567 391.383 208.555 391.386 208.543 391.389L208.54 391.39C208.536 391.391 208.533 391.392 208.529 391.393L208.524 391.396C208.521 391.396 208.517 391.397 208.514 391.398L208.511 391.399C208.504 391.401 208.497 391.403 208.489 391.405L208.486 391.406C208.482 391.406 208.478 391.408 208.475 391.409L208.47 391.41C208.467 391.411 208.463 391.412 208.459 391.413L208.456 391.414L208.432 391.42H208.431C208.428 391.421 208.425 391.422 208.421 391.423L208.416 391.425L208.406 391.427L208.401 391.429L208.391 391.432H208.389C208.381 391.434 208.374 391.436 208.367 391.438L208.362 391.44C208.359 391.441 208.355 391.441 208.352 391.442L208.348 391.444L208.337 391.447H208.336C208.327 391.449 208.319 391.452 208.311 391.454L208.308 391.455L208.297 391.458L208.293 391.459L208.282 391.462L208.278 391.463C208.267 391.467 208.255 391.47 208.243 391.473L208.239 391.475L208.228 391.478L208.224 391.479C208.213 391.483 208.2 391.486 208.189 391.489L208.185 391.49L208.175 391.493L208.17 391.495L208.159 391.498C208.151 391.501 208.143 391.503 208.135 391.505L208.132 391.506C208.128 391.507 208.125 391.509 208.121 391.51L208.117 391.511L208.106 391.514H208.105C208.093 391.518 208.08 391.522 208.068 391.526L208.064 391.527L208.052 391.531H208.051C208.039 391.535 208.026 391.54 208.013 391.544L208.011 391.545L207.998 391.549H207.996C207.984 391.553 207.972 391.557 207.96 391.56L207.956 391.562L207.945 391.565L207.941 391.566C207.937 391.568 207.934 391.568 207.93 391.57H207.929C207.916 391.574 207.904 391.578 207.891 391.583H207.889C207.885 391.584 207.881 391.586 207.878 391.587L207.875 391.588C207.863 391.592 207.85 391.596 207.838 391.6L207.836 391.601C207.832 391.602 207.828 391.603 207.825 391.605L207.822 391.606C207.808 391.61 207.796 391.614 207.783 391.618L207.771 391.623H207.769L207.718 391.641H207.716C207.698 391.647 207.681 391.653 207.664 391.659L207.662 391.66C207.658 391.661 207.654 391.662 207.65 391.664H207.648C207.631 391.67 207.614 391.676 207.597 391.683V391.684C207.579 391.69 207.562 391.696 207.545 391.702L207.543 391.703L207.531 391.707H207.53C207.495 391.72 207.461 391.732 207.426 391.746H207.425C207.408 391.752 207.39 391.759 207.373 391.765H207.372L207.321 391.785H207.32C204.897 392.72 202.842 394.418 201.462 396.625C201.452 396.641 201.443 396.655 201.433 396.672L201.432 396.674C201.423 396.689 201.413 396.704 201.404 396.719L201.403 396.72C201.394 396.735 201.384 396.751 201.375 396.766V396.767C201.372 396.771 201.37 396.774 201.368 396.778V396.779C201.36 396.79 201.354 396.803 201.347 396.814L201.346 396.815C201.344 396.819 201.342 396.822 201.34 396.826L201.339 396.828C201.337 396.832 201.334 396.835 201.333 396.838L201.331 396.839C201.327 396.847 201.323 396.854 201.319 396.861L201.318 396.862L201.312 396.872L201.31 396.875L201.303 396.889C201.297 396.899 201.291 396.909 201.284 396.919L201.281 396.923L201.276 396.932L201.273 396.937C201.267 396.948 201.262 396.958 201.256 396.967L201.253 396.971C201.252 396.974 201.25 396.977 201.249 396.98C201.248 396.982 201.246 396.984 201.245 396.986L201.241 396.994L201.237 396.999C201.234 397.004 201.231 397.009 201.229 397.014L201.226 397.019C201.224 397.021 201.222 397.024 201.221 397.027L201.218 397.033L201.213 397.041L201.21 397.047L201.201 397.062L201.198 397.066C201.197 397.069 201.195 397.072 201.194 397.075L201.19 397.08C201.189 397.083 201.187 397.087 201.186 397.089L201.182 397.095L201.178 397.103C201.177 397.105 201.176 397.107 201.174 397.109L201.167 397.123C201.166 397.126 201.165 397.127 201.163 397.129C201.162 397.132 201.16 397.135 201.159 397.137L201.156 397.142L201.151 397.151L201.149 397.155C201.146 397.16 201.143 397.166 201.14 397.171L201.137 397.177L201.132 397.185L201.129 397.19C201.128 397.193 201.126 397.196 201.124 397.199L201.121 397.204C201.119 397.209 201.116 397.213 201.114 397.218C201.112 397.22 201.111 397.223 201.11 397.225C201.109 397.228 201.107 397.231 201.106 397.233L201.102 397.239L201.095 397.253C201.09 397.263 201.084 397.272 201.079 397.282L201.077 397.287L201.072 397.296L201.069 397.301L201.064 397.31L201.061 397.316C201.058 397.32 201.056 397.324 201.054 397.328C201.053 397.331 201.052 397.333 201.05 397.336C201.049 397.338 201.048 397.341 201.046 397.343L201.042 397.35L201.039 397.357L201.034 397.365L201.03 397.375L201.024 397.385L201.021 397.392L201.013 397.406L201.006 397.42L200.998 397.434L200.997 397.438C200.995 397.442 200.993 397.445 200.991 397.448L200.988 397.454L200.983 397.463L200.979 397.468C200.977 397.473 200.975 397.478 200.972 397.483L200.965 397.497L200.962 397.502C200.961 397.505 200.958 397.509 200.957 397.513L200.954 397.517L200.948 397.531L200.947 397.532C200.945 397.537 200.942 397.542 200.94 397.547L200.938 397.551C200.936 397.555 200.934 397.558 200.932 397.562L200.93 397.566C200.928 397.57 200.925 397.575 200.924 397.579L200.923 397.581L200.915 397.596L200.914 397.599L200.907 397.61L200.906 397.614C200.904 397.618 200.901 397.623 200.899 397.627L200.89 397.645L200.883 397.661L200.881 397.664L200.876 397.676L200.874 397.679L200.859 397.71L200.858 397.712C200.856 397.716 200.853 397.721 200.852 397.725L200.85 397.728C200.845 397.739 200.84 397.748 200.835 397.759L200.834 397.761C200.832 397.765 200.83 397.769 200.828 397.774L200.826 397.777C200.824 397.781 200.822 397.786 200.82 397.79L200.819 397.792L200.804 397.825L200.803 397.826C200.801 397.831 200.799 397.836 200.796 397.841V397.842C200.791 397.853 200.786 397.864 200.781 397.874H200.78C200.778 397.879 200.776 397.885 200.773 397.89V397.891C200.765 397.907 200.758 397.923 200.75 397.941C200.742 397.958 200.735 397.973 200.727 397.99V397.991L200.698 398.055L200.697 398.056C200.609 398.251 200.53 398.45 200.449 398.647C199.94 400.041 199.667 401.511 199.641 402.995V414.994C199.639 418.308 202.315 420.996 205.616 420.997C208.916 420.998 211.594 418.313 211.595 414.999C211.595 414.997 211.595 414.996 211.595 414.994V403C211.595 399.687 214.272 397 217.573 397H223.55C225.201 397 226.539 395.656 226.539 394C226.536 392.343 225.198 391 223.547 391V391Z" fill="#2C2F53"/>
<path fill-rule="evenodd" clip-rule="evenodd" d="M136.876 409H142.853C144.504 409 145.842 410.343 145.842 412C145.842 413.657 144.504 415 142.853 415H136.876C135.225 415 133.887 413.657 133.887 412C133.887 410.343 135.225 409 136.876 409V409Z" fill="#7C7F95"/>
<path fill-rule="evenodd" clip-rule="evenodd" d="M39.1018 101.881L39.7206 104.923C40.0128 106.359 42.0723 106.359 42.3645 104.923L42.9833 101.881C43.5932 98.8841 45.944 96.5415 48.9519 95.9339L52.0043 95.3173C53.4453 95.0261 53.4453 92.9739 52.0043 92.6827L48.9519 92.0661C45.944 91.4584 43.593 89.1159 42.9833 86.1186L42.3645 83.0769C42.0723 81.641 40.0128 81.641 39.7206 83.0769L39.1018 86.1186C38.4919 89.1159 36.1412 91.4585 33.1332 92.0661L30.0808 92.6827C28.6398 92.9739 28.6398 95.0261 30.0808 95.3173L33.1332 95.9339C36.1412 96.5415 38.4921 98.8841 39.1018 101.881Z" fill="#E1DDFF"/>
<path fill-rule="evenodd" clip-rule="evenodd" d="M110.066 39.9385L110.437 41.765C110.613 42.6272 111.85 42.6272 112.025 41.765L112.397 39.9385C112.763 38.1387 114.175 36.7319 115.981 36.3671L117.814 35.9968C118.679 35.822 118.679 34.5897 117.814 34.4148L115.981 34.0445C114.175 33.6796 112.763 32.273 112.397 30.4732L112.025 28.6467C111.85 27.7844 110.613 27.7844 110.437 28.6467L110.066 30.4732C109.7 32.273 108.288 33.6797 106.482 34.0445L104.649 34.4148C103.784 34.5897 103.784 35.822 104.649 35.9968L106.482 36.3671C108.288 36.7319 109.7 38.1387 110.066 39.9385Z" fill="#E1DDFF"/>
<path fill-rule="evenodd" clip-rule="evenodd" d="M46.8659 340.739L47.2375 342.565C47.413 343.427 48.6497 343.427 48.8251 342.565L49.1968 340.739C49.563 338.939 50.9746 337.532 52.7808 337.167L54.6137 336.797C55.479 336.622 55.479 335.39 54.6137 335.215L52.7808 334.845C50.9746 334.48 49.5629 333.073 49.1968 331.273L48.8251 329.447C48.6497 328.584 47.413 328.584 47.2375 329.447L46.8659 331.273C46.4997 333.073 45.0881 334.48 43.2819 334.845L41.449 335.215C40.5837 335.39 40.5837 336.622 41.449 336.797L43.2819 337.167C45.0881 337.532 46.4998 338.939 46.8659 340.739Z" fill="#E1DDFF"/>
<path fill-rule="evenodd" clip-rule="evenodd" d="M163.666 400.738L164.038 402.565C164.213 403.427 165.45 403.427 165.625 402.565L165.997 400.738C166.363 398.939 167.775 397.532 169.581 397.167L171.414 396.797C172.279 396.622 172.279 395.39 171.414 395.215L169.581 394.845C167.775 394.48 166.363 393.073 165.997 391.273L165.625 389.447C165.45 388.584 164.213 388.584 164.038 389.447L163.666 391.273C163.3 393.073 161.888 394.48 160.082 394.845L158.249 395.215C157.384 395.39 157.384 396.622 158.249 396.797L160.082 397.167C161.888 397.532 163.3 398.939 163.666 400.738Z" fill="#E1DDFF"/>
<path fill-rule="evenodd" clip-rule="evenodd" d="M174.564 205.822L175.15 208.702C175.426 210.061 177.376 210.061 177.653 208.702L178.238 205.822C178.816 202.985 181.041 200.767 183.889 200.192L186.779 199.608C188.143 199.332 188.143 197.389 186.779 197.114L183.889 196.53C181.041 195.955 178.816 193.737 178.238 190.899L177.653 188.02C177.376 186.66 175.426 186.66 175.15 188.02L174.564 190.899C173.986 193.737 171.761 195.955 168.913 196.53L166.023 197.114C164.659 197.389 164.659 199.332 166.023 199.608L168.913 200.192C171.761 200.767 173.986 202.985 174.564 205.822Z" fill="#E1DDFF"/>
<path d="M74.259 211.338C74.259 211.338 69.0671 219.583 66.9844 224.924C64.9017 230.265 62.4161 243.563 62.4161 243.563C62.4161 243.563 57.3726 250.45 48.4839 253.712C39.5953 256.974 29.7097 257.73 29.7097 257.73C29.7097 257.73 23.1689 256.32 21.1819 256.792C19.195 257.264 18.1497 258.938 16.8031 259.392C11.8806 261.051 9.20589 261.017 9.20589 261.5C9.20589 262.423 10.2962 263.262 10.2962 263.262C10.2962 263.262 0.902733 265.51 0.499352 267.519C0.0959702 269.529 5.17762 271.042 8.68207 272.023C12.1865 273.004 17.8066 273.717 21.1819 272.6C24.5573 271.483 25.406 270.611 27.6771 269.449C29.9481 268.288 31.4638 268.049 31.4638 268.049C31.4638 268.049 36.9597 268.647 45.3421 267.638C53.7244 266.628 69.0865 262.844 69.0865 262.844C69.0865 262.844 71.2026 261.461 73.2441 254.814C75.2857 248.167 77.4114 235.739 77.4114 235.739L74.259 211.338Z" fill="#F3B78B" stroke="#D59B86" stroke-width="0.64"/>
<path d="M17.7361 263.782L9.89404 263.682" stroke="#E6A67D" stroke-width="0.64"/>
<path d="M19.3072 262.696C19.3072 262.696 20.6007 264.612 21.3877 265.379C22.1748 266.146 23.4683 266.752 23.4683 266.752" stroke="#E6A67D" stroke-width="0.64"/>
<path d="M29.8331 261.099C29.6039 261.099 28.2454 261.921 25.9614 261.921C25.0754 261.921 22.9418 261.099 22.9418 261.099" stroke="#E6A67D" stroke-width="0.64"/>
<path d="M110.357 196.686C110.357 196.686 109.168 201.222 109.847 203.052C110.526 204.883 115.208 208.646 115.208 208.646C115.208 208.646 106.753 211.131 102.379 211.03C98.0054 210.928 87.9584 207.88 87.9584 207.88C87.9584 207.88 91.8443 205.002 92.7453 203.052C93.6463 201.103 93.7492 196.686 93.7492 196.686H110.357Z" fill="#E1A078"/>
<path d="M107.063 359.746L109.017 417.976L105.177 424.587C105.177 424.587 122.434 426.836 121.948 426.298C121.735 426.062 121.41 424.708 120.673 422.605C120.291 421.517 118.838 418.706 118.838 418.706L125.984 361.501L107.063 359.746Z" fill="#F3B78B" stroke="#D59B86" stroke-width="0.64"/>
<path d="M96.5796 360.83L93.6058 419.017L97.3288 425.694C97.3288 425.694 80.0357 427.642 80.5305 427.113C80.748 426.88 81.0966 425.532 81.8708 423.442C82.2713 422.362 83.7731 419.576 83.7731 419.576L77.6307 362.256L96.5796 360.83Z" fill="#F3B78B" stroke="#D59B86" stroke-width="0.64"/>
<path d="M126.584 430.011C126.584 430.011 127.386 423.784 116.356 422.763C105.325 421.742 101.798 426.259 101.798 426.259C101.798 426.259 96.9282 421.521 86.9434 422.763C76.9586 424.005 76.9586 430.011 76.9586 430.011H126.584Z" fill="#DA3337"/>
<path d="M128.191 233.911C128.191 233.911 127.105 245.194 126.357 250.749C125.789 254.96 124.685 261.299 124.184 264.119C124.017 265.058 124.152 266.019 124.546 266.888C126.624 271.477 133.347 287.529 135.789 308.046C138.693 332.446 137.97 360.026 137.97 360.026H63.3092C63.3092 360.026 62.4388 332.899 66.1677 309.946C69.3389 290.426 77.0884 272.007 79.3356 266.933C79.7335 266.035 79.8405 265.046 79.6284 264.086C78.979 261.15 77.5285 254.531 76.8051 250.749C75.8557 245.786 74.3628 236.322 74.3628 236.322L63.3092 234.954C63.3092 234.954 65.8402 219.977 70.2315 215.032C77.9978 206.286 88.9694 207.02 89.3753 207.02C89.774 207.02 95.0789 209.607 102.496 209.911C106.248 210.065 115.052 208.054 115.052 208.054C115.052 208.054 125.267 207.143 131.729 213.326C138.192 219.509 138.724 231.406 138.724 231.406L128.191 233.911Z" fill="#1E2147"/>
<path d="M126.356 250.749C125.789 254.96 124.685 261.299 124.184 264.119C124.017 265.058 124.152 266.019 124.546 266.888C126.624 271.477 133.347 287.529 135.789 308.046C138.049 327.034 138.113 349.474 138.029 358.494C138.009 360.751 136.169 362.546 133.913 362.546H67.3452C65.0972 362.546 63.2627 360.766 63.2399 358.518C63.1497 349.643 63.2711 327.776 66.1676 309.946C69.3388 290.426 77.0883 272.007 79.3355 266.933C79.7334 266.035 79.8404 265.046 79.6283 264.086C78.9789 261.15 77.5285 254.531 76.805 250.749C75.8556 245.786 74.3627 236.322 74.3627 236.322C74.3627 236.322 83.9866 207.513 84.3759 207.382C84.5387 207.328 85.6575 207.165 86.8256 207.072C87.5201 207.017 89.038 207.024 89.038 207.024C89.038 207.024 84.1846 235.12 89.3752 246.851C91.7709 252.265 108.98 252.483 113.736 247.723C118.493 242.964 114.65 208.157 114.65 208.157C114.65 208.157 116.708 207.933 117.801 207.933C118.893 207.933 120.677 208.157 120.677 208.157L128.138 233.992C128.138 233.992 126.376 250.606 126.356 250.749Z" fill="#48BF82"/>
<path d="M137.568 232C138.76 236.974 140.136 248.973 141.834 255.2C145.62 269.087 149.332 301.504 149.332 301.504C149.332 301.504 150.242 304.999 150.242 307.415C150.242 309.831 147.649 314.393 147.649 314.393C147.649 314.393 138.627 318.53 137.099 318.53C135.57 318.53 134.784 317.489 134.301 316.448C133.819 315.407 134.301 312.487 134.301 312.487C134.301 312.487 134.208 306.56 134.703 304.999C135.197 303.437 137.884 299.794 137.884 299.794C137.884 299.794 133.606 271.728 131.412 263.681C131.032 262.287 128.601 256.09 126.343 249.419C126.575 245.786 127.263 243.005 127.574 240.8C128.054 237.393 128.169 235.334 128.462 233.43C134.703 232.8 132.232 233.122 137.568 232Z" fill="#F3B78B" stroke="#D59B86" stroke-width="0.5"/>
<path d="M138.724 307.415C138.724 307.415 138.114 310.073 138.114 311.549C138.114 313.024 136.938 314.071 136.563 314.903C136.187 315.734 136.012 314.971 135.363 314.393C134.714 313.815 134.402 312.805 134.402 312.805" stroke="#D59B86" stroke-width="0.52"/>
<path d="M141.844 313.464C141.844 313.589 141.315 314.638 139.821 316.448C139.307 317.07 137.797 318.53 137.797 318.53" stroke="#D59B86" stroke-width="0.52"/>
<path d="M144.558 313.715C144.558 313.715 144.294 314.85 143.725 315.52C143.155 316.191 141.491 317.326 141.491 317.326" stroke="#D59B86" stroke-width="0.52"/>
<path d="M101.622 219.056C100.041 219.056 98.7581 217.787 98.7581 216.222C98.7581 214.657 100.041 213.388 101.622 213.388C103.204 213.388 104.487 214.657 104.487 216.222C104.487 217.787 103.204 219.056 101.622 219.056Z" fill="#FFDE63"/>
<path d="M101.622 232.302C100.041 232.302 98.7581 231.034 98.7581 229.469C98.7581 227.904 100.041 226.635 101.622 226.635C103.204 226.635 104.487 227.904 104.487 229.469C104.487 231.034 103.204 232.302 101.622 232.302Z" fill="#FFDE63"/>
<path d="M101.622 244.603C100.041 244.603 98.7581 243.334 98.7581 241.769C98.7581 240.204 100.041 238.935 101.622 238.935C103.204 238.935 104.487 240.204 104.487 241.769C104.487 243.334 103.204 244.603 101.622 244.603Z" fill="#FFDE63"/>
<path d="M127.574 273.956L76.5156 273.6L79.5433 265.73H124.378L127.574 273.956Z" fill="#4C5B9D"/>
<path d="M101.268 127.369C115.058 128.329 126.882 119.914 127.678 108.572C128.474 97.2298 117.94 87.2563 104.15 86.2954C90.3607 85.3346 78.5367 93.7501 77.7407 105.092C76.9448 116.434 87.4784 126.408 101.268 127.369Z" fill="#3C1715"/>
<path d="M60.6281 173.616C64.0728 173.616 66.8652 169.919 66.8652 165.358C66.8652 160.798 64.0728 157.101 60.6281 157.101C57.1835 157.101 54.3911 160.798 54.3911 165.358C54.3911 169.919 57.1835 173.616 60.6281 173.616Z" fill="#E1A078"/>
<path d="M140.116 169.835C143.56 169.835 146.353 166.138 146.353 161.578C146.353 157.017 143.56 153.32 140.116 153.32C136.671 153.32 133.879 157.017 133.879 161.578C133.879 166.138 136.671 169.835 140.116 169.835Z" fill="#E1A078"/>
<path d="M101.778 199.445C124.15 199.445 142.286 182.687 142.286 162.016C142.286 141.344 124.15 124.587 101.778 124.587C79.406 124.587 61.2699 141.344 61.2699 162.016C61.2699 182.687 79.406 199.445 101.778 199.445Z" fill="#F3B78B"/>
<path d="M56.3655 159.286C56.3655 159.286 56.8686 107.94 99.815 107.94C142.761 107.94 144.237 155.434 144.237 155.434C144.237 155.434 120 147.261 110.627 143.34C103.052 140.171 94.3674 134.242 84.1716 134.242C79.4501 134.242 72.1085 137.068 66.4966 144.157C64.0296 147.273 61.5847 157.166 61.5847 157.166C61.5847 157.166 60.0177 157.002 59.0364 157.402C58.055 157.801 56.3655 159.286 56.3655 159.286Z" fill="#53231B"/>
<path d="M61.5489 157.134C61.5489 157.134 61.4932 117.459 100.089 117.459C138.685 117.459 141.559 154.443 141.559 154.443C141.559 154.443 123.637 149.401 112.063 144.048C103.708 140.184 90.0868 132.999 81.4135 134.488C69.6119 136.515 61.5489 157.134 61.5489 157.134Z" fill="#723322"/>
<path d="M80.3774 170.711C82.0659 170.711 83.4346 168.68 83.4346 166.175C83.4346 163.669 82.0659 161.638 80.3774 161.638C78.689 161.638 77.3202 163.669 77.3202 166.175C77.3202 168.68 78.689 170.711 80.3774 170.711Z" fill="black"/>
<path d="M118.593 169.199C120.281 169.199 121.65 167.168 121.65 164.662C121.65 162.157 120.281 160.125 118.593 160.125C116.904 160.125 115.535 162.157 115.535 164.662C115.535 167.168 116.904 169.199 118.593 169.199Z" fill="black"/>
<path d="M80.3775 166.175C81.2217 166.175 81.9061 165.497 81.9061 164.662C81.9061 163.827 81.2217 163.15 80.3775 163.15C79.5333 163.15 78.8489 163.827 78.8489 164.662C78.8489 165.497 79.5333 166.175 80.3775 166.175Z" fill="white"/>
<path d="M118.593 164.662C119.437 164.662 120.121 163.985 120.121 163.15C120.121 162.315 119.437 161.638 118.593 161.638C117.748 161.638 117.064 162.315 117.064 163.15C117.064 163.985 117.748 164.662 118.593 164.662Z" fill="white"/>
<path d="M76.9381 182.81C79.6818 182.81 81.906 180.609 81.906 177.895C81.906 175.18 79.6818 172.98 76.9381 172.98C74.1943 172.98 71.9701 175.18 71.9701 177.895C71.9701 180.609 74.1943 182.81 76.9381 182.81Z" fill="#EFA481"/>
<path d="M128.529 178.273C131.483 178.273 133.879 175.903 133.879 172.98C133.879 170.057 131.483 167.687 128.529 167.687C125.574 167.687 123.178 170.057 123.178 172.98C123.178 175.903 125.574 178.273 128.529 178.273Z" fill="#EFA481"/>
<path d="M141.559 175.248C143.669 175.248 145.38 173.217 145.38 170.711C145.38 168.206 143.669 166.174 141.559 166.174C139.448 166.174 137.737 168.206 137.737 170.711C137.737 173.217 139.448 175.248 141.559 175.248Z" fill="#DA3337"/>
<path d="M61.2699 176.76C63.3804 176.76 65.0914 174.729 65.0914 172.224C65.0914 169.718 63.3804 167.687 61.2699 167.687C59.1593 167.687 57.4484 169.718 57.4484 172.224C57.4484 174.729 59.1593 176.76 61.2699 176.76Z" fill="#DA3337"/>
<path d="M87.3264 179.923C87.3264 179.923 97.5822 181.3 103.195 181.2C108.808 181.1 118.004 179.011 118.004 179.011C118.004 179.011 112.223 191.188 103.605 191.636C94.9874 192.085 87.3264 179.923 87.3264 179.923Z" fill="#AA4F44"/>
<path d="M87.5446 180.032C87.5446 180.032 97.6216 181.491 103.234 181.461C108.847 181.431 117.686 179.213 117.686 179.213C117.686 179.213 112.223 184.183 103.605 184.317C94.9875 184.451 87.5446 180.032 87.5446 180.032Z" fill="white"/>
<path d="M93.6267 187.561C93.6267 187.561 95.9875 187.596 100.74 187.561C105.494 187.527 112.214 187.561 112.214 187.561C112.214 187.561 107.909 191.615 102.933 191.615C97.9565 191.615 93.6267 187.561 93.6267 187.561Z" fill="#CC5F54"/>
<path d="M103.581 163.533C103.581 163.533 105.239 170.33 104.391 172.067C103.542 173.804 98.2017 173.593 98.2017 173.593C98.2017 173.593 102.1 172.268 102.955 170.518C103.81 168.767 103.581 163.533 103.581 163.533Z" fill="#CC8D66"/>
<path d="M82.0405 153.052C82.0405 153.052 76.5943 152.697 74.9754 153.543C73.3565 154.389 72.8524 157.854 72.8524 157.854C72.8524 157.854 75.1292 155.845 76.7552 155.401C78.3811 154.956 81.8318 155.401 81.8318 155.401L82.0405 153.052Z" fill="#3C1715"/>
<path d="M117.064 153.425C117.064 153.425 122.51 153.07 124.129 153.916C125.748 154.762 126.252 158.227 126.252 158.227C126.252 158.227 123.975 156.218 122.349 155.774C120.723 155.329 117.273 155.774 117.273 155.774L117.064 153.425Z" fill="#3C1715"/>
<path d="M101.905 278.825C97.2626 278.825 93.4992 275.06 93.4992 270.417C93.4992 265.774 97.2626 262.01 101.905 262.01C106.548 262.01 110.311 265.774 110.311 270.417C110.311 275.06 106.548 278.825 101.905 278.825Z" fill="#4C5B9D" stroke="#7567DB" stroke-width="1.04"/>
<mask id="mask0" mask-type="alpha" maskUnits="userSpaceOnUse" x="92" y="261" width="19" height="19">
<path d="M101.905 278.825C97.2626 278.825 93.4992 275.06 93.4992 270.417C93.4992 265.774 97.2626 262.01 101.905 262.01C106.548 262.01 110.311 265.774 110.311 270.417C110.311 275.06 106.548 278.825 101.905 278.825Z" fill="white" stroke="white" stroke-width="1.04"/>
</mask>
<g mask="url(#mask0)">
<path fill-rule="evenodd" clip-rule="evenodd" d="M97.018 278.323C97.3028 278.323 97.5239 278.241 97.6813 278.077C97.8387 277.913 97.9174 277.692 97.9174 277.415V273.849L101.208 273.834C101.702 273.825 102.152 273.755 102.557 273.626C103.941 273.17 104.633 272.18 104.633 270.656V268.208C104.628 267.89 104.541 267.654 104.371 267.5C104.211 267.362 104.003 267.292 103.749 267.292C103.474 267.292 103.251 267.366 103.082 267.515C102.927 267.654 102.849 267.863 102.849 268.141V270.21C102.849 270.914 102.658 271.438 102.276 271.78C101.894 272.123 101.248 272.294 100.338 272.294H99.4014C98.547 272.304 98.0523 272.309 97.9174 272.309V268.2C97.9174 267.912 97.8374 267.687 97.6775 267.523C97.5326 267.369 97.3128 267.292 97.018 267.292C96.7331 267.292 96.5145 267.371 96.3621 267.53C96.2097 267.689 96.1335 267.912 96.1335 268.2V277.415C96.1335 277.692 96.2122 277.913 96.3696 278.077C96.527 278.241 96.7431 278.323 97.018 278.323Z" fill="#FFDE63"/>
</g>
<g filter="url(#filter0_d)">
<path fill-rule="evenodd" clip-rule="evenodd" d="M324.76 76.495C320.352 118.434 275.385 128.232 221.777 122.597C213.003 122.492 204.337 121.653 196.042 120.109C191.917 124.521 186.051 130.571 182.417 133.338C178.113 136.616 170.989 139.398 167.208 140.739C166.573 140.964 166.101 140.189 166.578 139.714C169.601 136.698 175.332 130.833 177.167 127.93C180.34 122.909 181.723 119.136 182.326 116.806C150.58 107.297 127.446 86.3787 130.629 56.091C134.529 18.9882 179.982 4.56758 233.59 10.202C287.198 15.8364 328.831 37.763 324.76 76.495Z" fill="white"/>
</g>
<path opacity="0.8" d="M198.016 51.2112C197.697 51.1776 197.456 51.0573 197.293 50.8501C197.136 50.6435 197.075 50.3807 197.108 50.0616L198.145 40.1987L191.974 39.5502L190.937 49.413C190.904 49.7321 190.786 49.9761 190.584 50.1449C190.388 50.3144 190.133 50.3827 189.819 50.3497C189.5 50.3162 189.259 50.1958 189.097 49.9886C188.94 49.782 188.878 49.5192 188.912 49.2001L190.024 38.6193C190.059 38.2889 190.171 38.0415 190.361 37.8771C190.557 37.7133 190.82 37.6488 191.151 37.6836L199.347 38.545C199.672 38.5791 199.91 38.6964 200.062 38.8967C200.219 39.0976 200.281 39.3632 200.246 39.6937L199.134 50.2745C199.1 50.5936 198.982 50.8375 198.78 51.0064C198.584 51.1759 198.329 51.2441 198.016 51.2112ZM208.508 50.7759C207.617 51.6385 206.57 52.0066 205.368 51.8803C203.966 51.7329 203.028 51.2339 202.553 50.3833L202.149 54.3071C202.115 54.6318 202.002 54.8821 201.811 55.0579C201.619 55.2393 201.372 55.3142 201.07 55.2825C200.785 55.2525 200.567 55.1317 200.417 54.92C200.251 54.6894 200.185 54.4174 200.217 54.1041L201.38 43.0447C201.413 42.7256 201.536 42.4677 201.746 42.2709C201.937 42.1009 202.175 42.0308 202.46 42.0607C203.052 42.123 203.351 42.5433 203.356 43.3214C204.054 42.5423 205.087 42.2245 206.454 42.3682C207.725 42.5018 208.677 43.1146 209.311 44.2066C209.892 45.201 210.113 46.359 209.974 47.6809C209.843 48.9344 209.354 49.9661 208.508 50.7759ZM207.661 45.2689C207.248 44.4881 206.637 44.0552 205.828 43.9701C204.996 43.8827 204.302 44.1526 203.747 44.7797C203.295 45.2911 203.028 45.9427 202.945 46.7347C202.86 47.5438 202.98 48.2621 203.306 48.8897C203.709 49.6637 204.331 50.0949 205.175 50.1836C205.967 50.2668 206.636 50.006 207.184 49.401C207.679 48.8597 207.969 48.1787 208.055 47.3583C208.133 46.6176 208.002 45.9211 207.661 45.2689ZM217.892 53.3262C217.357 53.27 217.102 52.8716 217.128 52.1312C216.433 52.8819 215.373 53.1824 213.948 53.0327C212.911 52.9237 212.119 52.5409 211.572 51.8842C211.024 51.2276 210.804 50.3979 210.909 49.395L211.46 44.1559C211.494 43.8312 211.619 43.5678 211.836 43.366C212.022 43.1896 212.263 43.117 212.559 43.1482C212.855 43.1793 213.079 43.3007 213.229 43.5124C213.384 43.7418 213.444 44.0246 213.408 44.3607L212.907 49.1298C212.837 49.7907 212.977 50.3527 213.326 50.8156C213.679 51.2963 214.197 51.5725 214.881 51.6444C215.57 51.7169 216.135 51.5515 216.575 51.1484C216.995 50.7663 217.24 50.2477 217.308 49.5924L217.81 44.8234C217.844 44.4986 217.967 44.235 218.178 44.0325C218.369 43.8568 218.607 43.7839 218.892 43.8138C219.2 43.8461 219.429 43.9682 219.58 44.1798C219.734 44.4092 219.794 44.692 219.758 45.0282L218.991 52.327C218.958 52.6404 218.842 52.8932 218.644 53.0855C218.445 53.2777 218.194 53.358 217.892 53.3262ZM228.756 52.7312C228.555 53.1133 228.323 53.3741 228.061 53.5136C227.309 53.9242 226.343 54.0676 225.164 53.9436L221.42 53.5502C221.09 53.5154 220.848 53.3805 220.694 53.1454C220.525 52.8858 220.461 52.5679 220.5 52.1918L221.232 45.2349C221.272 44.8474 221.406 44.536 221.632 44.3005C221.82 44.1071 222.076 44.0274 222.4 44.0615L225.887 44.4281C227.255 44.5718 228.141 45.1027 228.546 46.0209C228.668 46.2872 228.712 46.5741 228.68 46.8818C228.626 47.3946 228.452 47.8401 228.159 48.2183C227.833 48.6334 227.416 48.8804 226.906 48.9594C228.526 49.1699 229.252 50.0672 229.086 51.6512C229.046 52.0329 228.936 52.3929 228.756 52.7312ZM224.953 45.8334L223.142 45.643L222.894 48.0019L224.706 48.1923C225.959 48.3241 226.63 47.9683 226.719 47.125C226.795 46.3957 226.207 45.9652 224.953 45.8334ZM225.054 49.8102L222.729 49.5659L222.457 52.1556L224.995 52.4223C226.408 52.5709 227.161 52.2092 227.252 51.3375C227.342 50.4828 226.609 49.9737 225.054 49.8102ZM238.195 51.3124L231.862 50.6467C231.789 51.4975 232.083 52.2082 232.744 52.7787C233.266 53.2312 233.907 53.4972 234.664 53.5769C235.12 53.6248 235.631 53.5632 236.196 53.3922C236.287 53.3499 236.711 53.1813 237.468 52.8864C237.63 52.8228 237.771 52.7973 237.89 52.8099C238.067 52.8284 238.219 52.9193 238.346 53.0824C238.482 53.2638 238.54 53.4542 238.519 53.6536C238.475 54.0696 238.025 54.4341 237.168 54.7473C236.209 55.1073 235.233 55.2352 234.242 55.131C232.84 54.9837 231.746 54.405 230.959 53.3948C230.178 52.3852 229.861 51.1796 230.009 49.778C230.148 48.4504 230.708 47.3427 231.689 46.4549C232.631 45.5977 233.749 45.2371 235.043 45.373C235.977 45.4712 236.8 45.8371 237.511 46.4706C238.201 47.0904 238.678 47.8607 238.945 48.7816C239.1 49.3279 239.15 49.8689 239.094 50.4045C239.024 51.0654 238.725 51.3681 238.195 51.3124ZM236.603 47.7145C236.195 47.2108 235.623 46.9203 234.888 46.8431C234.17 46.7676 233.55 46.9386 233.028 47.3561C232.776 47.5601 232.549 47.8357 232.345 48.183C232.15 48.5081 232.033 48.7954 231.995 49.0449L237.277 49.6001C237.272 48.8852 237.047 48.2566 236.603 47.7145ZM252.005 56.8857C251.731 56.8569 251.522 56.737 251.377 56.5259C251.218 56.2846 251.156 56.0015 251.19 55.6767L251.691 50.9077C251.757 50.2809 251.651 49.7339 251.371 49.2668C251.072 48.7744 250.606 48.495 249.973 48.4285C249.329 48.3609 248.81 48.5367 248.414 48.956C248.044 49.3549 247.826 49.8677 247.76 50.4945L247.259 55.2635C247.223 55.5997 247.106 55.8639 246.907 56.0561C246.733 56.2337 246.498 56.3069 246.202 56.2758C245.911 56.2452 245.699 56.125 245.566 55.9151C245.411 55.6857 245.352 55.4029 245.387 55.0668L245.888 50.2977C245.954 49.671 245.847 49.124 245.568 48.6568C245.268 48.1645 244.802 47.8851 244.17 47.8186C242.854 47.6803 242.116 48.3689 241.957 49.8845L241.455 54.6536C241.42 54.9897 241.306 55.2514 241.114 55.4385C240.928 55.6206 240.689 55.6964 240.399 55.6658C240.125 55.6371 239.916 55.5171 239.771 55.3061C239.612 55.0647 239.55 54.7816 239.584 54.4568L240.35 47.1665C240.384 46.8417 240.504 46.5778 240.71 46.3748C240.895 46.1984 241.125 46.1246 241.398 46.1534C241.638 46.1785 241.833 46.2941 241.984 46.5001C242.142 46.701 242.22 46.9368 242.221 47.2076C242.82 46.5505 243.786 46.292 245.119 46.4321C246.162 46.5417 246.94 47.0613 247.453 47.9908C247.786 47.6111 248.263 47.3271 248.882 47.1386C249.441 46.9727 249.982 46.9173 250.506 46.9724C251.646 47.0922 252.476 47.4732 252.996 48.1154C253.517 48.752 253.722 49.5916 253.613 50.6343L253.062 55.8734C253.027 56.2096 252.913 56.4713 252.72 56.6584C252.534 56.8405 252.296 56.9162 252.005 56.8857ZM257.954 53.3114C257.696 53.4629 257.379 53.5189 257.003 53.4793C256.65 53.4422 256.363 53.3228 256.142 53.121C255.936 52.9438 255.846 52.7327 255.872 52.4877L256.624 45.3341C256.652 45.0663 256.779 44.8666 257.006 44.7349C257.234 44.5975 257.544 44.5495 257.937 44.5908C258.752 44.6764 259.129 45.0098 259.068 45.591L258.316 52.7446C258.289 53.001 258.169 53.1899 257.954 53.3114ZM256.583 57.4792C256.247 57.4438 255.954 57.3238 255.705 57.119C255.419 56.8816 255.292 56.6033 255.326 56.2842C255.36 55.9594 255.541 55.7135 255.87 55.5464C256.156 55.3979 256.468 55.3414 256.804 55.3767C257.14 55.412 257.433 55.5321 257.682 55.7369C257.969 55.9686 258.095 56.2469 258.061 56.5717C258.027 56.8907 257.846 57.1367 257.517 57.3095C257.23 57.4579 256.919 57.5145 256.583 57.4792ZM153.638 69.35C153.331 69.3176 153.098 69.1982 152.941 68.9916C152.784 68.7907 152.722 68.5335 152.755 68.2202L153.063 65.2887L145.439 64.4874L145.131 67.4189C145.098 67.7323 144.984 67.9708 144.788 68.1346C144.591 68.3041 144.339 68.3726 144.032 68.3403C143.713 68.3068 143.475 68.1867 143.318 67.9801C143.16 67.7792 143.098 67.5221 143.131 67.2087L143.514 63.5678C143.563 63.0949 143.802 62.7945 144.231 62.6667C144.256 62.6463 144.295 62.6331 144.347 62.6271C144.405 62.6217 144.505 62.6091 144.645 62.5893C145.508 62.4842 146.029 61.5884 146.206 59.9018L146.214 59.8249L146.879 53.172C146.912 52.8529 147.028 52.6058 147.225 52.4306C147.408 52.2771 147.662 52.2174 147.987 52.2515L154.046 52.8884C154.377 52.9231 154.616 53.0346 154.763 53.2229C154.92 53.4295 154.981 53.6952 154.947 54.02L153.941 63.5923C154.445 63.674 154.785 63.8106 154.961 64.0019C155.115 64.1737 155.174 64.4362 155.137 64.7895L154.755 68.4304C154.722 68.7437 154.607 68.9823 154.411 69.1461C154.215 69.3155 153.957 69.3835 153.638 69.35ZM152.864 54.5183L148.804 54.0916L148.25 59.2007C148.11 60.534 147.784 61.7728 147.272 62.9172L151.93 63.4068L152.864 54.5183ZM163.784 66.7093C163.123 66.6398 162.821 66.1646 162.88 65.2835C162.317 66.1922 161.307 66.5699 159.848 66.4166C158.942 66.3214 158.175 65.9758 157.547 65.3797C156.95 64.8043 156.544 64.0646 156.328 63.1605C156.176 62.5224 156.138 61.8444 156.213 61.1265C156.348 59.8445 156.827 58.7714 157.649 57.9073C158.55 56.9593 159.624 56.5508 160.872 56.682C162.216 56.8233 163.137 57.404 163.635 58.4241C163.688 57.917 163.858 57.5661 164.143 57.3715C164.342 57.2368 164.555 57.1814 164.783 57.2054C165.187 57.2479 165.438 57.4068 165.536 57.6821C165.598 57.8614 165.603 58.1961 165.552 58.6861L164.843 65.4294C164.781 66.0163 164.643 66.4021 164.428 66.5868C164.295 66.6996 164.08 66.7404 163.784 66.7093ZM162.191 58.8427C161.882 58.6028 161.506 58.4596 161.061 58.4128C160.241 58.3266 159.556 58.5945 159.007 59.2165C158.521 59.7762 158.234 60.4805 158.145 61.3295C158.059 62.1499 158.187 62.8749 158.53 63.5043C158.936 64.2497 159.557 64.6664 160.395 64.7545C161.192 64.8383 161.863 64.5689 162.407 63.9463C162.891 63.3923 163.177 62.6994 163.264 61.8675C163.405 60.5343 163.047 59.526 162.191 58.8427ZM174.61 66.1449C174.409 66.527 174.177 66.7877 173.914 66.9272C173.163 67.3379 172.197 67.4812 171.017 67.3572L167.274 66.9638C166.944 66.9291 166.701 66.7942 166.548 66.5591C166.379 66.2994 166.314 65.9815 166.354 65.6055L167.085 58.6485C167.126 58.2611 167.259 57.9496 167.486 57.7142C167.673 57.5207 167.929 57.4411 168.254 57.4752L171.741 57.8417C173.109 57.9854 173.995 58.5164 174.399 59.4345C174.521 59.7008 174.566 59.9878 174.534 60.2955C174.48 60.8083 174.306 61.2538 174.013 61.632C173.687 62.047 173.269 62.294 172.76 62.373C174.379 62.5836 175.106 63.4808 174.94 65.0648C174.899 65.4466 174.79 65.8066 174.61 66.1449ZM170.807 59.2471L168.995 59.0566L168.747 61.4155L170.559 61.606C171.813 61.7377 172.484 61.3819 172.572 60.5387C172.649 59.8094 172.061 59.3788 170.807 59.2471ZM170.908 63.2239L168.583 62.9796L168.311 65.5692L170.849 65.836C172.262 65.9845 173.014 65.6229 173.106 64.7511C173.196 63.8965 172.463 63.3874 170.908 63.2239ZM183.749 68.8077C183.088 68.7382 182.787 68.263 182.845 67.3819C182.282 68.2906 181.272 68.6684 179.813 68.515C178.907 68.4198 178.14 68.0742 177.512 67.4781C176.915 66.9028 176.509 66.163 176.293 65.2589C176.141 64.6208 176.103 63.9428 176.179 63.2249C176.313 61.9429 176.792 60.8698 177.614 60.0057C178.515 59.0577 179.589 58.6492 180.837 58.7804C182.181 58.9217 183.102 59.5024 183.6 60.5225C183.653 60.0154 183.823 59.6646 184.108 59.4699C184.307 59.3352 184.52 59.2799 184.748 59.3038C185.152 59.3463 185.404 59.5052 185.501 59.7805C185.563 59.9598 185.568 60.2945 185.517 60.7845L184.808 67.5278C184.746 68.1147 184.608 68.5005 184.393 68.6853C184.26 68.798 184.045 68.8388 183.749 68.8077ZM182.156 60.9411C181.847 60.7012 181.471 60.558 181.026 60.5113C180.206 60.425 179.521 60.6929 178.972 61.3149C178.486 61.8746 178.199 62.5789 178.11 63.4279C178.024 64.2484 178.152 64.9733 178.495 65.6027C178.901 66.3481 179.522 66.7649 180.36 66.8529C181.157 66.9367 181.828 66.6673 182.372 66.0447C182.856 65.4907 183.142 64.7978 183.23 63.966C183.37 62.6327 183.012 61.6244 182.156 60.9411ZM193.238 58.2692C192.715 58.5368 192.128 58.6365 191.479 58.5682L191.402 58.5601C190.747 58.4912 190.198 58.2607 189.755 57.8686C189.313 57.4707 189.121 56.9897 189.181 56.4256C189.201 56.2319 189.292 56.0773 189.454 55.9618C189.617 55.8406 189.798 55.7905 189.997 55.8115C190.202 55.8331 190.366 55.9165 190.489 56.062C190.618 56.208 190.672 56.3807 190.651 56.5801C190.604 57.0246 190.928 57.289 191.622 57.3735C191.639 57.3753 191.656 57.3771 191.673 57.3788C192.237 57.4381 192.573 57.2517 192.682 56.8196C192.704 56.6144 192.793 56.451 192.95 56.3292C193.112 56.208 193.296 56.1582 193.501 56.1798C193.701 56.2008 193.867 56.2874 194.001 56.4397C194.135 56.5863 194.192 56.7594 194.171 56.9588C194.171 56.9645 194.17 56.9702 194.169 56.9759C194.109 57.5456 193.799 57.9768 193.238 58.2692ZM193.454 69.8624C193.209 69.8366 193.002 69.7227 192.834 69.5206C192.671 69.3134 192.595 69.075 192.606 68.8054C192.029 69.4706 190.997 69.7251 189.51 69.5688C188.473 69.4598 187.68 69.0855 187.131 68.446C186.582 67.8007 186.36 66.9881 186.463 66.0081L187 60.8972C187.034 60.5724 187.153 60.317 187.357 60.1311C187.536 59.9598 187.783 59.8906 188.096 59.9236C188.392 59.9547 188.616 60.0761 188.766 60.2878C188.922 60.5001 188.983 60.7715 188.948 61.102L188.46 65.7514C188.393 66.3895 188.533 66.9429 188.882 67.4116C189.23 67.8802 189.749 68.1508 190.438 68.2232C191.127 68.2957 191.692 68.1361 192.13 67.7444C192.55 67.368 192.794 66.8578 192.861 66.214L193.35 61.5646C193.384 61.2398 193.5 60.9841 193.699 60.7976C193.884 60.6269 194.127 60.5575 194.429 60.5892C194.737 60.6216 194.966 60.7436 195.116 60.9553C195.273 61.1675 195.333 61.4389 195.299 61.7694L194.55 68.8888C194.518 69.1965 194.403 69.4436 194.205 69.6301C194.006 69.8167 193.756 69.8941 193.454 69.8624ZM208.388 71.406C208.115 71.3773 207.905 71.2574 207.761 71.0463C207.602 70.8049 207.539 70.5218 207.573 70.197L208.075 65.428C208.14 64.8012 208.034 64.2543 207.754 63.7871C207.455 63.2948 206.989 63.0154 206.356 62.9489C205.712 62.8812 205.193 63.057 204.797 63.4763C204.427 63.8752 204.209 64.388 204.143 65.0148L203.642 69.7838C203.606 70.12 203.489 70.3842 203.291 70.5765C203.116 70.754 202.881 70.8272 202.585 70.7961C202.294 70.7655 202.082 70.6453 201.949 70.4354C201.794 70.2061 201.735 69.9233 201.77 69.5871L202.271 64.8181C202.337 64.1913 202.23 63.6443 201.951 63.1772C201.652 62.6848 201.186 62.4054 200.553 62.3389C199.237 62.2006 198.499 62.8892 198.34 64.4048L197.839 69.1739C197.803 69.5101 197.689 69.7717 197.497 69.9589C197.311 70.1409 197.072 70.2167 196.782 70.1861C196.508 70.1574 196.299 70.0375 196.154 69.8264C195.995 69.585 195.933 69.3019 195.967 68.9772L196.733 61.6869C196.767 61.3621 196.887 61.0982 197.093 60.8951C197.278 60.7188 197.508 60.645 197.781 60.6737C198.021 60.6989 198.216 60.8144 198.367 61.0204C198.525 61.2213 198.604 61.4572 198.604 61.7279C199.203 61.0708 200.169 60.8123 201.502 60.9525C202.545 61.062 203.323 61.5816 203.836 62.5112C204.17 62.1315 204.646 61.8474 205.265 61.659C205.824 61.4931 206.365 61.4376 206.89 61.4927C208.029 61.6125 208.859 61.9935 209.379 62.6358C209.9 63.2723 210.105 64.112 209.996 65.1547L209.445 70.3938C209.41 70.7299 209.296 70.9916 209.103 71.1788C208.917 71.3608 208.679 71.4366 208.388 71.406ZM219.192 68.4198L212.859 67.7542C212.787 68.6049 213.081 69.3156 213.741 69.8862C214.264 70.3386 214.904 70.6046 215.662 70.6843C216.118 70.7322 216.628 70.6706 217.194 70.4996C217.284 70.4573 217.708 70.2887 218.465 69.9938C218.627 69.9302 218.768 69.9047 218.888 69.9173C219.065 69.9358 219.216 70.0267 219.343 70.1898C219.48 70.3712 219.537 70.5616 219.516 70.761C219.473 71.177 219.023 71.5416 218.166 71.8548C217.206 72.2148 216.231 72.3427 215.239 72.2385C213.838 72.0911 212.744 71.5124 211.957 70.5022C211.176 69.4927 210.859 68.2871 211.006 66.8854C211.146 65.5578 211.706 64.4501 212.686 63.5623C213.629 62.7051 214.747 62.3445 216.04 62.4804C216.975 62.5787 217.798 62.9445 218.509 63.5781C219.198 64.1978 219.676 64.9681 219.942 65.889C220.098 66.4354 220.148 66.9763 220.091 67.5119C220.022 68.1729 219.722 68.4755 219.192 68.4198ZM217.6 64.822C217.192 64.3182 216.621 64.0277 215.886 63.9505C215.168 63.875 214.548 64.046 214.026 64.4636C213.774 64.6675 213.546 64.9431 213.343 65.2904C213.147 65.6155 213.031 65.9028 212.993 66.1523L218.275 66.7075C218.269 65.9926 218.044 65.3641 217.6 64.822ZM235.416 73.9702C234.734 74.1578 234.071 74.2177 233.427 74.15C232.059 74.0063 230.996 73.4106 230.236 72.363C229.502 71.3468 229.205 70.1635 229.347 68.8131C229.487 67.4856 230.053 66.3785 231.044 65.4919C232.01 64.6371 233.145 64.2782 234.45 64.4154C235.703 64.5471 236.602 64.9065 237.145 65.4936C237.284 65.6465 237.343 65.8312 237.32 66.0478C237.295 66.2871 237.197 66.5015 237.028 66.691C236.897 66.8386 236.743 66.9031 236.567 66.8845C236.356 66.8624 236.02 66.7378 235.56 66.5109C235.1 66.284 234.719 66.1546 234.417 66.1229C233.511 66.0277 232.766 66.2978 232.18 66.9334C231.698 67.4645 231.412 68.1603 231.322 69.0206C231.234 69.8525 231.385 70.5855 231.773 71.2197C232.237 71.9598 232.896 72.3747 233.751 72.4645C234.115 72.5028 234.57 72.4498 235.115 72.3055C235.578 72.1756 235.833 72.113 235.878 72.1178C236.106 72.1418 236.286 72.2385 236.418 72.4079C236.556 72.5722 236.614 72.7683 236.59 72.9962C236.543 73.4406 236.152 73.7653 235.416 73.9702ZM244.625 77.8503C243.705 78.4966 242.475 78.739 240.937 78.5773C240.168 78.4965 239.362 78.2678 238.521 77.8913C237.579 77.4755 237.133 77.034 237.182 76.5668C237.198 76.4129 237.302 76.251 237.492 76.0809C237.664 75.9261 237.821 75.8562 237.964 75.8712C238.163 75.8922 238.586 76.0633 239.232 76.3847C239.998 76.7705 240.691 76.9961 241.312 77.0614C242.122 77.1464 242.803 76.9962 243.356 76.6108C243.909 76.231 244.227 75.6395 244.311 74.8361L244.42 73.8019L244.241 73.9473C243.57 74.6257 242.571 74.8951 241.244 74.7556C239.916 74.6161 238.954 74.0369 238.359 73.018C237.808 72.0671 237.602 70.9308 237.741 69.6089C237.839 68.6745 238.134 67.8413 238.625 67.1096C239.568 65.7051 240.811 65.084 242.356 65.2463C243.706 65.3882 244.621 65.9452 245.101 66.9174C245.102 66.906 245.103 66.8946 245.104 66.8832C245.19 66.0684 245.569 65.6963 246.241 65.767C246.543 65.7988 246.767 65.9173 246.912 66.1227C247.067 66.3464 247.128 66.6235 247.093 66.9539L246.282 74.6716C246.13 76.1188 245.577 77.1784 244.625 77.8503ZM242.55 66.9344C241.758 66.8512 241.091 67.1123 240.549 67.7179C240.054 68.2592 239.764 68.9373 239.678 69.7521C239.593 70.5612 239.709 71.2732 240.024 71.8882C240.406 72.6369 241.031 73.0568 241.897 73.1479C242.734 73.2359 243.428 72.9632 243.979 72.3298C244.43 71.8184 244.697 71.1696 244.779 70.3833C244.868 69.54 244.733 68.7942 244.375 68.1459C243.973 67.4239 243.364 67.0201 242.55 66.9344ZM256.063 72.295L249.729 71.6294C249.657 72.4802 249.951 73.1908 250.611 73.7614C251.134 74.2138 251.774 74.4799 252.532 74.5595C252.988 74.6074 253.499 74.5459 254.064 74.3748C254.155 74.3325 254.579 74.1639 255.335 73.869C255.498 73.8054 255.639 73.7799 255.758 73.7925C255.935 73.8111 256.087 73.9019 256.214 74.065C256.35 74.2464 256.408 74.4368 256.387 74.6363C256.343 75.0522 255.893 75.4168 255.036 75.73C254.077 76.09 253.101 76.2179 252.11 76.1137C250.708 75.9664 249.614 75.3876 248.827 74.3775C248.046 73.3679 247.729 72.1623 247.877 70.7606C248.016 69.433 248.576 68.3254 249.557 67.4376C250.499 66.5804 251.617 66.2197 252.911 66.3557C253.845 66.4539 254.668 66.8198 255.379 67.4533C256.068 68.073 256.546 68.8433 256.812 69.7642C256.968 70.3106 257.018 70.8516 256.962 71.3871C256.892 72.0481 256.592 72.3507 256.063 72.295ZM254.471 68.6972C254.063 68.1934 253.491 67.903 252.756 67.8257C252.038 67.7502 251.418 67.9213 250.896 68.3388C250.644 68.5427 250.417 68.8184 250.213 69.1657C250.018 69.4908 249.901 69.7781 249.863 70.0276L255.145 70.5827C255.14 69.8678 254.915 69.2393 254.471 68.6972ZM264.856 77.2547C264.235 77.1894 263.949 76.9232 263.998 76.4559L264.756 69.2511L261.226 68.8801L260.788 72.7225C260.595 74.5515 259.98 75.7225 258.941 76.2354C258.515 76.4442 258.052 76.5222 257.551 76.4695C257.539 76.4683 257.528 76.4671 257.517 76.4659C257.221 76.4291 256.993 76.3188 256.834 76.135C256.726 76.0085 256.676 75.8563 256.683 75.6785C256.72 75.4979 256.818 75.3585 256.978 75.2601C257.016 75.2295 257.177 75.2032 257.461 75.1813C258.299 75.108 258.788 74.3961 258.93 73.0458L258.938 72.9688L259.434 67.8449C259.482 67.3834 259.82 67.1856 260.447 67.2514L265.848 67.8191C266.463 67.8838 266.747 68.1498 266.697 68.617L265.853 76.6509C265.804 77.1181 265.472 77.3194 264.856 77.2547ZM275.215 78.4212C274.554 78.3518 274.253 77.8765 274.311 76.9954C273.749 77.9042 272.739 78.2819 271.28 78.1286C270.374 78.0333 269.607 77.6877 268.978 77.0916C268.382 76.5163 267.976 75.7765 267.76 74.8724C267.608 74.2343 267.57 73.5563 267.645 72.8384C267.78 71.5564 268.258 70.4833 269.081 69.6193C269.981 68.6712 271.055 68.2627 272.303 68.3939C273.648 68.5352 274.569 69.116 275.067 70.1361C275.12 69.629 275.289 69.2781 275.575 69.0834C275.773 68.9487 275.986 68.8934 276.214 68.9173C276.619 68.9598 276.87 69.1187 276.968 69.394C277.03 69.5733 277.035 69.908 276.983 70.398L276.275 77.1413C276.213 77.7282 276.074 78.114 275.859 78.2988C275.726 78.4115 275.512 78.4524 275.215 78.4212ZM273.623 70.5546C273.314 70.3148 272.937 70.1715 272.493 70.1248C271.672 70.0385 270.987 70.3064 270.438 70.9285C269.953 71.4881 269.666 72.1924 269.577 73.0414C269.49 73.8619 269.619 74.5868 269.961 75.2162C270.367 75.9616 270.989 76.3784 271.826 76.4664C272.624 76.5502 273.294 76.2808 273.838 75.6582C274.323 75.1043 274.609 74.4113 274.696 73.5795C274.836 72.2462 274.478 71.2379 273.623 70.5546ZM285.993 75.4408L279.66 74.7752C279.588 75.626 279.882 76.3366 280.542 76.9072C281.065 77.3596 281.705 77.6257 282.463 77.7053C282.919 77.7532 283.429 77.6917 283.994 77.5207C284.085 77.4784 284.509 77.3098 285.266 77.0149C285.428 76.9513 285.569 76.9258 285.689 76.9383C285.865 76.9569 286.017 77.0477 286.144 77.2108C286.28 77.3922 286.338 77.5827 286.317 77.7821C286.274 78.198 285.823 78.5626 284.967 78.8758C284.007 79.2358 283.032 79.3637 282.04 79.2595C280.638 79.1122 279.544 78.5334 278.758 77.5233C277.977 76.5137 277.66 75.3081 277.807 73.9064C277.947 72.5789 278.507 71.4712 279.487 70.5834C280.43 69.7262 281.548 69.3656 282.841 69.5015C283.776 69.5997 284.598 69.9656 285.309 70.5991C285.999 71.2188 286.477 71.9892 286.743 72.91C286.899 73.4564 286.948 73.9974 286.892 74.533C286.823 75.1939 286.523 75.4965 285.993 75.4408ZM284.401 71.843C283.993 71.3393 283.422 71.0488 282.687 70.9715C281.969 70.8961 281.349 71.0671 280.827 71.4846C280.575 71.6886 280.347 71.9642 280.144 72.3115C279.948 72.6366 279.831 72.9239 279.794 73.1734L285.076 73.7285C285.07 73.0136 284.845 72.3851 284.401 71.843ZM286.773 78.7113L286.833 78.5449L289.528 71.4054C289.624 71.1448 289.818 70.8915 290.109 70.6456C290.305 70.4818 290.559 70.4164 290.873 70.4493C291.175 70.4811 291.403 70.5857 291.557 70.7632C291.665 70.884 291.792 71.1623 291.936 71.598L293.784 77.0374L296.568 72.0849C296.782 71.6983 296.96 71.4492 297.105 71.3377C297.286 71.2012 297.533 71.1494 297.847 71.1824C298.166 71.2159 298.404 71.3331 298.562 71.534C298.78 71.8161 298.911 72.1036 298.955 72.3962L299.973 79.1568C300.082 79.5371 300.138 79.8309 300.139 80.0384C300.136 80.1188 300.129 80.2217 300.115 80.347C300.094 80.5521 299.997 80.7033 299.826 80.8005C299.611 80.922 299.373 80.9689 299.111 80.9414C298.655 80.8935 298.391 80.6151 298.317 80.1062L297.527 73.8966L294.442 79.4915C294.321 79.7035 294.158 79.9455 293.951 80.2175C293.807 80.3234 293.61 80.3632 293.359 80.3368C293.086 80.3081 292.888 80.2182 292.765 80.067C292.715 79.9984 292.616 79.7374 292.467 79.284L290.562 73.3201L288.549 79.0795C288.382 79.5632 288.069 79.7808 287.607 79.7323C287.317 79.7018 287.095 79.5949 286.941 79.4117C286.819 79.2606 286.762 79.0271 286.773 78.7113ZM180.868 86.6849L180.928 86.5185L183.623 79.379C183.719 79.1184 183.913 78.8651 184.204 78.6192C184.4 78.4554 184.654 78.39 184.968 78.4229C185.27 78.4547 185.498 78.5593 185.652 78.7368C185.76 78.8576 185.886 79.1359 186.031 79.5716L187.879 85.011L190.663 80.0585C190.877 79.6719 191.055 79.4228 191.2 79.3112C191.381 79.1748 191.628 79.123 191.942 79.1559C192.261 79.1895 192.499 79.3067 192.657 79.5076C192.875 79.7897 193.006 80.0772 193.05 80.3698L194.068 87.1304C194.177 87.5106 194.233 87.8045 194.234 88.012C194.231 88.0924 194.223 88.1953 194.21 88.3206C194.189 88.5257 194.092 88.6769 193.921 88.7741C193.706 88.8956 193.468 88.9425 193.206 88.915C192.75 88.8671 192.486 88.5887 192.412 88.0798L191.622 81.8702L188.537 87.4651C188.416 87.6771 188.253 87.9191 188.046 88.1911C187.902 88.297 187.705 88.3368 187.454 88.3104C187.181 88.2817 186.983 88.1918 186.86 88.0406C186.81 87.972 186.711 87.7109 186.562 87.2575L184.657 81.2937L182.644 87.053C182.477 87.5368 182.164 87.7544 181.702 87.7059C181.412 87.6753 181.189 87.5685 181.036 87.3853C180.914 87.2341 180.857 87.0007 180.868 86.6849ZM202.331 89.9C201.796 89.8437 201.541 89.4454 201.567 88.705C200.871 89.4557 199.812 89.7562 198.387 89.6064C197.35 89.4974 196.558 89.1146 196.011 88.458C195.463 87.8013 195.242 86.9716 195.348 85.9688L195.898 80.7297C195.932 80.4049 196.058 80.1416 196.275 79.9397C196.461 79.7634 196.702 79.6908 196.998 79.7219C197.294 79.7531 197.518 79.8745 197.668 80.0862C197.823 80.3155 197.882 80.5983 197.847 80.9345L197.346 85.7035C197.276 86.3645 197.416 86.9264 197.765 87.3894C198.117 87.87 198.636 88.1463 199.319 88.2182C200.009 88.2906 200.573 88.1253 201.013 87.7222C201.434 87.3401 201.678 86.8214 201.747 86.1662L202.248 81.3971C202.282 81.0723 202.405 80.8087 202.617 80.6063C202.808 80.4305 203.046 80.3576 203.331 80.3876C203.639 80.4199 203.868 80.5419 204.018 80.7536C204.173 80.983 204.232 81.2658 204.197 81.6019L203.43 88.9008C203.397 89.2142 203.281 89.467 203.082 89.6592C202.883 89.8515 202.633 89.9317 202.331 89.9ZM212.741 89.4301C211.85 90.2927 210.803 90.6608 209.601 90.5344C208.199 90.3871 207.261 89.8881 206.786 89.0374L206.382 92.9613C206.348 93.286 206.235 93.5363 206.044 93.7121C205.852 93.8935 205.605 93.9684 205.303 93.9366C205.018 93.9067 204.8 93.7859 204.65 93.5742C204.484 93.3436 204.417 93.0716 204.45 92.7583L205.613 81.6989C205.646 81.3798 205.768 81.1219 205.979 80.9251C206.17 80.7551 206.408 80.685 206.692 80.7149C207.285 80.7772 207.584 81.1975 207.588 81.9756C208.287 81.1964 209.319 80.8787 210.687 81.0224C211.957 81.156 212.91 81.7688 213.544 82.8608C214.125 83.8551 214.346 85.0132 214.207 86.3351C214.075 87.5886 213.587 88.6203 212.741 89.4301ZM211.894 83.9231C211.481 83.1423 210.87 82.7094 210.061 82.6243C209.229 82.5369 208.535 82.8068 207.979 83.4339C207.528 83.9452 207.261 84.5969 207.178 85.3889C207.093 86.198 207.213 86.9163 207.539 87.5439C207.941 88.3179 208.564 88.7491 209.407 88.8378C210.199 88.921 210.869 88.6602 211.417 88.0552C211.911 87.5139 212.202 86.8329 212.288 86.0125C212.366 85.2717 212.235 84.5753 211.894 83.9231ZM230.739 92.8945C230.722 92.8927 230.705 92.8909 230.688 92.8891C230.454 92.8645 230.269 92.7672 230.131 92.5972C229.978 92.414 229.917 92.1714 229.948 91.8695L230.157 89.8866C230.187 89.596 230.235 89.1662 230.301 88.597C229.676 89.2802 228.663 89.5481 227.261 89.4008C226.15 89.2841 225.318 88.8942 224.766 88.2312C224.213 87.5683 223.99 86.7354 224.095 85.7326L224.307 83.7156C224.341 83.3908 224.467 83.1275 224.684 82.9257C224.87 82.7493 225.108 82.6764 225.398 82.7069C225.7 82.7387 225.927 82.8604 226.077 83.0721C226.232 83.3015 226.291 83.5842 226.256 83.9204L226.093 85.4674C226.025 86.1169 226.165 86.676 226.513 87.1447C226.876 87.6379 227.394 87.9199 228.066 87.9905C228.739 88.0612 229.302 87.8842 229.755 87.4595C230.182 87.0666 230.429 86.5567 230.495 85.93L230.658 84.383C230.692 84.0526 230.812 83.7886 231.017 83.5913C231.203 83.4149 231.444 83.3423 231.74 83.3735C232.048 83.4058 232.277 83.5307 232.427 83.7481C232.577 83.9654 232.634 84.2451 232.598 84.5869L231.83 91.8943C231.756 92.5952 231.392 92.9285 230.739 92.8945ZM240.466 93.9082C239.931 93.8519 239.676 93.4535 239.702 92.7131C239.007 93.4638 237.947 93.7643 236.522 93.6146C235.485 93.5056 234.693 93.1228 234.146 92.4662C233.598 91.8095 233.377 90.9798 233.483 89.977L234.033 84.7379C234.068 84.4131 234.193 84.1498 234.41 83.9479C234.596 83.7716 234.837 83.699 235.133 83.7301C235.429 83.7612 235.653 83.8826 235.803 84.0943C235.958 84.3237 236.017 84.6065 235.982 84.9427L235.481 89.7117C235.411 90.3727 235.551 90.9346 235.9 91.3976C236.253 91.8782 236.771 92.1545 237.455 92.2263C238.144 92.2988 238.709 92.1335 239.149 91.7304C239.569 91.3483 239.814 90.8296 239.882 90.1743L240.384 85.4053C240.418 85.0805 240.541 84.8169 240.752 84.6145C240.943 84.4387 241.181 84.3658 241.466 84.3957C241.774 84.4281 242.003 84.5501 242.154 84.7618C242.308 84.9912 242.368 85.2739 242.332 85.6101L241.565 92.909C241.532 93.2223 241.416 93.4752 241.218 93.6674C241.019 93.8597 240.768 93.9399 240.466 93.9082ZM257.219 98.6156L257.151 98.6084C256.934 98.5856 256.765 98.4728 256.642 98.2698C256.524 98.0731 256.482 97.818 256.515 97.5046L256.732 95.4449C256.04 95.3895 255.655 95.3576 255.575 95.3493C255.102 95.2996 254.837 94.9146 254.781 94.1943C253.995 94.8721 253.061 95.1541 251.978 95.0404C251.973 95.0398 251.967 95.0392 251.961 95.0386C250.805 94.9113 249.936 94.3793 249.355 93.4426C248.904 93.9539 248.349 94.2701 247.691 94.391C247.291 94.47 246.752 94.4738 246.074 94.4025C245.077 94.2977 244.315 93.9268 243.789 93.2896C243.284 92.6719 243.084 91.856 243.191 90.8418L243.731 85.7052C243.764 85.3862 243.884 85.1251 244.09 84.9221C244.269 84.7508 244.495 84.6795 244.769 84.7083C245.059 84.7388 245.275 84.8565 245.414 85.0613C245.564 85.2844 245.621 85.564 245.585 85.9002L245.094 90.5752C245.031 91.1792 245.134 91.7027 245.404 92.1459C245.718 92.6686 246.183 92.9622 246.798 93.0269C247.43 93.0934 247.954 92.9036 248.37 92.4576C248.726 92.0803 248.936 91.5897 249 90.9857L249.491 86.3107C249.526 85.9802 249.64 85.7186 249.833 85.5257C250.007 85.3538 250.239 85.2832 250.529 85.3137C250.82 85.3443 251.032 85.4616 251.166 85.6658C251.321 85.8952 251.381 86.1751 251.346 86.5056L250.854 91.1806C250.791 91.7846 250.894 92.3082 251.165 92.7514C251.478 93.274 251.943 93.5677 252.558 93.6323C253.863 93.7695 254.594 93.0888 254.752 91.5903L255.243 86.9152C255.277 86.5962 255.399 86.3354 255.611 86.1329C255.79 85.9617 256.013 85.8901 256.281 85.9183C256.572 85.9488 256.79 86.0668 256.935 86.2722C257.079 86.4947 257.133 86.774 257.098 87.1102L256.349 94.2295L257.785 94.3805C258.292 94.4338 258.51 94.7994 258.439 95.4775L258.202 97.7338C258.176 97.9845 258.066 98.2006 257.875 98.382C257.683 98.5635 257.464 98.6413 257.219 98.6156ZM267.144 92.5644L260.811 91.8988C260.739 92.7496 261.033 93.4602 261.693 94.0308C262.216 94.4832 262.856 94.7493 263.614 94.8289C264.07 94.8768 264.58 94.8153 265.146 94.6442C265.237 94.6019 265.66 94.4333 266.417 94.1384C266.579 94.0749 266.72 94.0493 266.84 94.0619C267.017 94.0805 267.168 94.1713 267.295 94.3344C267.432 94.5158 267.49 94.7063 267.469 94.9057C267.425 95.3216 266.975 95.6862 266.118 95.9994C265.158 96.3594 264.183 96.4873 263.192 96.3831C261.79 96.2358 260.696 95.657 259.909 94.6469C259.128 93.6373 258.811 92.4317 258.958 91.03C259.098 89.7025 259.658 88.5948 260.638 87.707C261.581 86.8498 262.699 86.4891 263.992 86.6251C264.927 86.7233 265.75 87.0892 266.461 87.7227C267.15 88.3424 267.628 89.1127 267.894 90.0336C268.05 90.58 268.1 91.121 268.043 91.6566C267.974 92.3175 267.674 92.6201 267.144 92.5644ZM265.552 88.9666C265.144 88.4629 264.573 88.1724 263.838 88.0951C263.12 88.0197 262.5 88.1907 261.978 88.6082C261.726 88.8121 261.498 89.0878 261.295 89.4351C261.099 89.7602 260.983 90.0475 260.945 90.297L266.227 90.8521C266.221 90.1372 265.997 89.5087 265.552 88.9666Z" fill="black"/>
<defs>
<filter id="filter0_d" x="124.337" y="5.02191" width="206.699" height="143.757" filterUnits="userSpaceOnUse" color-interpolation-filters="sRGB">
<feFlood flood-opacity="0" result="BackgroundImageFix"/>
<feColorMatrix in="SourceAlpha" type="matrix" values="0 0 0 0 0 0 0 0 0 0 0 0 0 0 0 0 0 0 127 0"/>
<feOffset dy="2"/>
<feGaussianBlur stdDeviation="3"/>
<feColorMatrix type="matrix" values="0 0 0 0 0 0 0 0 0 0 0 0 0 0 0 0 0 0 0.5 0"/>
<feBlend mode="normal" in2="BackgroundImageFix" result="effect1_dropShadow"/>
<feBlend mode="normal" in="SourceGraphic" in2="effect1_dropShadow" result="shape"/>
</filter>
</defs>
</svg>
