<svg width="339" height="435" viewBox="0 0 339 435" fill="none" xmlns="http://www.w3.org/2000/svg">
<path fill-rule="evenodd" clip-rule="evenodd" d="M174.2 372.672H247.8L244.6 422.379H177.4L174.2 372.672Z" fill="#398CC4"/>
<path fill-rule="evenodd" clip-rule="evenodd" d="M209.4 414.362H212.6C238.214 414.333 258.971 393.531 259 367.862V366.655C259 365.551 258.105 364.655 257 364.655H163V367.862C163.029 393.531 183.786 414.333 209.4 414.362ZM209.4 411.155C185.553 411.128 166.227 391.761 166.2 367.862H255.8C255.773 391.761 236.447 411.128 212.6 411.155H209.4Z" fill="#FBBF00"/>
<path fill-rule="evenodd" clip-rule="evenodd" d="M171 359.845H251V370.672C251 371.777 250.105 372.672 249 372.672H171V359.845Z" fill="#4398D1"/>
<path fill-rule="evenodd" clip-rule="evenodd" d="M177.4 422.379H244.6V427C244.6 429.761 242.361 432 239.6 432H177.4V422.379Z" fill="#4398D1"/>
<path fill-rule="evenodd" clip-rule="evenodd" d="M244.6 359.845V355.034C244.6 346.179 237.437 339 228.6 339C219.763 339 212.6 346.179 212.6 355.034V359.845H244.6Z" fill="#EBEBEB"/>
<path fill-rule="evenodd" clip-rule="evenodd" d="M244.6 347.017C249.902 347.017 254.2 351.325 254.2 356.638C254.2 361.951 249.902 366.259 244.6 366.259C239.298 366.259 235 361.951 235 356.638C235 351.325 239.298 347.017 244.6 347.017Z" fill="#F2F2F2"/>
<path fill-rule="evenodd" clip-rule="evenodd" d="M177.4 359.845V356.638C177.4 349.554 183.131 343.81 190.2 343.81C197.269 343.81 203 349.554 203 356.638V358.241V357.44C203 353.455 206.224 350.224 210.2 350.224C214.176 350.224 217.4 353.455 217.4 357.44V366.259C217.4 368.03 215.967 369.466 214.2 369.466C212.433 369.466 211 368.03 211 366.259C211 364.487 209.567 363.052 207.8 363.052C206.033 363.052 204.6 364.487 204.6 366.259V372.672C204.6 374.444 203.167 375.879 201.4 375.879C199.633 375.879 198.2 374.444 198.2 372.672V369.466C198.2 367.694 196.767 366.259 195 366.259C193.233 366.259 191.8 367.694 191.8 369.466C191.8 371.237 190.367 372.672 188.6 372.672C186.833 372.672 185.4 371.237 185.4 369.466V363.052C185.4 361.281 183.967 359.845 182.2 359.845H177.4Z" fill="#EBEBEB"/>
<path fill-rule="evenodd" clip-rule="evenodd" d="M206.2 339C207.967 339 209.4 340.436 209.4 342.207C209.4 343.978 207.967 345.414 206.2 345.414C204.433 345.414 203 343.978 203 342.207C203 340.436 204.433 339 206.2 339Z" fill="#97D3E6"/>
<path fill-rule="evenodd" clip-rule="evenodd" d="M211 379.086C212.767 379.086 214.2 380.522 214.2 382.293C214.2 384.064 212.767 385.5 211 385.5C209.232 385.5 207.8 384.064 207.8 382.293C207.8 380.522 209.232 379.086 211 379.086Z" fill="#97D3E6"/>
<path fill-rule="evenodd" clip-rule="evenodd" d="M172.6 342.207C174.367 342.207 175.8 343.643 175.8 345.414C175.8 347.185 174.367 348.621 172.6 348.621C170.833 348.621 169.4 347.185 169.4 345.414C169.4 343.643 170.833 342.207 172.6 342.207Z" fill="#97D3E6"/>
<path fill-rule="evenodd" clip-rule="evenodd" d="M41.1019 105.881L41.7208 108.923C42.0129 110.359 44.0724 110.359 44.3646 108.923L44.9835 105.881C45.5933 102.884 47.9441 100.541 50.952 99.9339L54.0045 99.3173C55.4455 99.0261 55.4455 96.9739 54.0045 96.6827L50.952 96.0661C47.9441 95.4584 45.5932 93.1159 44.9835 90.1186L44.3646 87.0769C44.0724 85.641 42.0129 85.641 41.7208 87.0769L41.1019 90.1186C40.492 93.1159 38.1413 95.4585 35.1334 96.0661L32.0809 96.6827C30.6399 96.9739 30.6399 99.0261 32.0809 99.3173L35.1334 99.9339C38.1413 100.541 40.4922 102.884 41.1019 105.881Z" fill="#E1DDFF"/>
<path fill-rule="evenodd" clip-rule="evenodd" d="M112.066 43.9385L112.438 45.765C112.613 46.6272 113.85 46.6272 114.025 45.765L114.397 43.9385C114.763 42.1387 116.175 40.7319 117.981 40.3671L119.814 39.9968C120.679 39.822 120.679 38.5897 119.814 38.4148L117.981 38.0445C116.175 37.6796 114.763 36.273 114.397 34.4732L114.025 32.6467C113.85 31.7844 112.613 31.7844 112.438 32.6467L112.066 34.4732C111.7 36.273 110.288 37.6797 108.482 38.0445L106.649 38.4148C105.784 38.5897 105.784 39.822 106.649 39.9968L108.482 40.3671C110.288 40.7319 111.7 42.1387 112.066 43.9385Z" fill="#E1DDFF"/>
<path fill-rule="evenodd" clip-rule="evenodd" d="M48.0661 327.938L48.4377 329.765C48.6132 330.627 49.8499 330.627 50.0253 329.765L50.3969 327.938C50.7632 326.139 52.1748 324.732 53.981 324.367L55.8139 323.997C56.6792 323.822 56.6792 322.59 55.8139 322.415L53.981 322.045C52.1748 321.68 50.7631 320.273 50.3969 318.473L50.0253 316.647C49.8499 315.784 48.6132 315.784 48.4377 316.647L48.0661 318.473C47.6999 320.273 46.2883 321.68 44.4821 322.045L42.6491 322.415C41.7839 322.59 41.7839 323.822 42.6491 323.997L44.4821 324.367C46.2883 324.732 47.7 326.139 48.0661 327.938Z" fill="#E1DDFF"/>
<path fill-rule="evenodd" clip-rule="evenodd" d="M190.066 334.938L190.438 336.765C190.613 337.627 191.85 337.627 192.025 336.765L192.397 334.938C192.763 333.139 194.175 331.732 195.981 331.367L197.814 330.997C198.679 330.822 198.679 329.59 197.814 329.415L195.981 329.045C194.175 328.68 192.763 327.273 192.397 325.473L192.025 323.647C191.85 322.784 190.613 322.784 190.438 323.647L190.066 325.473C189.7 327.273 188.288 328.68 186.482 329.045L184.649 329.415C183.784 329.59 183.784 330.822 184.649 330.997L186.482 331.367C188.288 331.732 189.7 333.139 190.066 334.938Z" fill="#E1DDFF"/>
<path fill-rule="evenodd" clip-rule="evenodd" d="M176.564 209.822L177.15 212.702C177.426 214.061 179.376 214.061 179.653 212.702L180.239 209.822C180.816 206.985 183.042 204.767 185.889 204.192L188.779 203.608C190.143 203.332 190.143 201.389 188.779 201.114L185.889 200.53C183.042 199.955 180.816 197.737 180.239 194.899L179.653 192.02C179.376 190.66 177.426 190.66 177.15 192.02L176.564 194.899C175.986 197.737 173.761 199.955 170.913 200.53L168.023 201.114C166.659 201.389 166.659 203.332 168.023 203.608L170.913 204.192C173.761 204.767 175.987 206.985 176.564 209.822Z" fill="#E1DDFF"/>
<path d="M76.2588 215.338C76.2588 215.338 71.0669 223.583 68.9842 228.924C66.9015 234.265 64.4158 247.563 64.4158 247.563C64.4158 247.563 59.3724 254.45 50.4837 257.712C41.595 260.974 31.7094 261.73 31.7094 261.73C31.7094 261.73 25.1687 260.32 23.1817 260.792C21.1947 261.264 20.1494 262.938 18.8028 263.392C13.8804 265.051 11.2056 265.017 11.2056 265.5C11.2056 266.423 12.296 267.262 12.296 267.262C12.296 267.262 2.90249 269.51 2.49911 271.519C2.09573 273.529 7.17738 275.042 10.6818 276.023C14.1863 277.004 19.8064 277.717 23.1817 276.6C26.557 275.483 27.4058 274.611 29.6768 273.449C31.9478 272.288 33.4636 272.049 33.4636 272.049C33.4636 272.049 38.9595 272.647 47.3418 271.638C55.7242 270.628 71.0863 266.844 71.0863 266.844C71.0863 266.844 73.2023 265.461 75.2439 258.814C77.2855 252.167 79.4111 239.739 79.4111 239.739L76.2588 215.338Z" fill="#F3B78B" stroke="#D59B86" stroke-width="0.64"/>
<path d="M19.7358 267.782L11.8938 267.682" stroke="#E6A67D" stroke-width="0.64"/>
<path d="M21.307 266.696C21.307 266.696 22.6005 268.612 23.3875 269.379C24.1745 270.146 25.468 270.752 25.468 270.752" stroke="#E6A67D" stroke-width="0.64"/>
<path d="M31.833 265.099C31.6038 265.099 30.2452 265.921 27.9612 265.921C27.0753 265.921 24.9417 265.099 24.9417 265.099" stroke="#E6A67D" stroke-width="0.64"/>
<path d="M112.357 200.686C112.357 200.686 111.168 205.222 111.847 207.052C112.526 208.883 117.208 212.646 117.208 212.646C117.208 212.646 108.753 215.131 104.379 215.03C100.006 214.928 89.9586 211.88 89.9586 211.88C89.9586 211.88 93.8445 209.002 94.7454 207.052C95.6464 205.103 95.7494 200.686 95.7494 200.686H112.357Z" fill="#E1A078"/>
<path d="M109.063 363.746L111.017 421.976L107.177 428.587C107.177 428.587 124.434 430.836 123.948 430.298C123.735 430.062 123.41 428.708 122.673 426.605C122.291 425.517 120.838 422.706 120.838 422.706L127.984 365.501L109.063 363.746Z" fill="#F3B78B" stroke="#D59B86" stroke-width="0.64"/>
<path d="M98.5796 364.83L95.6058 423.017L99.3288 429.694C99.3288 429.694 82.0357 431.642 82.5305 431.113C82.748 430.88 83.0966 429.532 83.8708 427.442C84.2713 426.362 85.7731 423.576 85.7731 423.576L79.6307 366.256L98.5796 364.83Z" fill="#F3B78B" stroke="#D59B86" stroke-width="0.64"/>
<path d="M128.584 434.011C128.584 434.011 129.386 427.784 118.355 426.763C107.325 425.742 103.798 430.259 103.798 430.259C103.798 430.259 98.9281 425.521 88.9432 426.763C78.9584 428.005 78.9584 434.011 78.9584 434.011H128.584Z" fill="#DA3337"/>
<path d="M130.191 237.911C130.191 237.911 129.105 249.194 128.357 254.749C127.789 258.959 126.685 265.299 126.184 268.119C126.017 269.058 126.152 270.019 126.546 270.888C128.624 275.477 135.347 291.529 137.789 312.046C140.693 336.446 139.97 364.026 139.97 364.026H65.3092C65.3092 364.026 64.4388 336.899 68.1677 313.946C71.3389 294.426 79.0884 276.007 81.3356 270.933C81.7335 270.035 81.8405 269.046 81.6284 268.086C80.979 265.15 79.5285 258.531 78.8051 254.749C77.8557 249.786 76.3628 240.322 76.3628 240.322L65.3092 238.954C65.3092 238.954 67.8402 223.977 72.2315 219.032C79.9978 210.286 90.9694 211.02 91.3753 211.02C91.774 211.02 97.0789 213.607 104.496 213.911C108.248 214.065 117.052 212.053 117.052 212.053C117.052 212.053 127.267 211.143 133.729 217.326C140.192 223.509 140.724 235.406 140.724 235.406L130.191 237.911Z" fill="#1E2147"/>
<path d="M128.357 254.749C127.789 258.959 126.685 265.299 126.184 268.119C126.017 269.058 126.152 270.019 126.546 270.888C128.624 275.477 135.347 291.529 137.789 312.046C140.049 331.034 140.113 353.474 140.03 362.494C140.009 364.751 138.169 366.546 135.913 366.546H69.3453C67.0974 366.546 65.2628 364.766 65.24 362.518C65.1498 353.643 65.2712 331.776 68.1678 313.946C71.339 294.426 79.0884 276.007 81.3357 270.933C81.7335 270.035 81.8405 269.046 81.6284 268.086C80.979 265.15 79.5286 258.531 78.8051 254.749C77.8557 249.786 76.3628 240.322 76.3628 240.322C76.3628 240.322 85.9867 211.513 86.376 211.382C86.5388 211.328 87.6576 211.165 88.8257 211.072C89.5202 211.017 91.0381 211.024 91.0381 211.024C91.0381 211.024 86.1847 239.12 91.3753 250.851C93.771 256.265 110.98 256.483 115.736 251.723C120.493 246.964 116.65 212.157 116.65 212.157C116.65 212.157 118.708 211.933 119.801 211.933C120.893 211.933 122.678 212.157 122.678 212.157L130.138 237.992C130.138 237.992 128.376 254.606 128.357 254.749Z" fill="#48BF82"/>
<path d="M139.568 236C140.76 240.974 142.136 252.973 143.834 259.2C147.62 273.087 151.332 305.504 151.332 305.504C151.332 305.504 152.242 308.999 152.242 311.415C152.242 313.831 149.649 318.393 149.649 318.393C149.649 318.393 140.627 322.53 139.098 322.53C137.57 322.53 136.784 321.489 136.301 320.448C135.818 319.407 136.301 316.487 136.301 316.487C136.301 316.487 136.208 310.56 136.703 308.999C137.197 307.437 139.884 303.794 139.884 303.794C139.884 303.794 135.606 275.728 133.412 267.681C133.032 266.287 130.601 260.09 128.343 253.419C128.575 249.786 129.263 247.005 129.574 244.8C130.054 241.393 130.168 239.334 130.462 237.43C136.703 236.8 134.232 237.122 139.568 236Z" fill="#F3B78B" stroke="#D59B86" stroke-width="0.5"/>
<path d="M140.724 311.415C140.724 311.415 140.114 314.073 140.114 315.549C140.114 317.024 138.938 318.071 138.563 318.903C138.187 319.734 138.012 318.971 137.363 318.393C136.714 317.815 136.402 316.805 136.402 316.805" stroke="#D59B86" stroke-width="0.52"/>
<path d="M143.844 317.464C143.844 317.589 143.315 318.638 141.821 320.448C141.307 321.07 139.797 322.53 139.797 322.53" stroke="#D59B86" stroke-width="0.52"/>
<path d="M146.558 317.715C146.558 317.715 146.294 318.85 145.725 319.52C145.155 320.191 143.491 321.326 143.491 321.326" stroke="#D59B86" stroke-width="0.52"/>
<path d="M103.622 223.055C102.04 223.055 100.758 221.787 100.758 220.222C100.758 218.657 102.04 217.388 103.622 217.388C105.204 217.388 106.487 218.657 106.487 220.222C106.487 221.787 105.204 223.055 103.622 223.055Z" fill="#FFDE63"/>
<path d="M103.622 236.302C102.04 236.302 100.758 235.034 100.758 233.469C100.758 231.904 102.04 230.635 103.622 230.635C105.204 230.635 106.487 231.904 106.487 233.469C106.487 235.034 105.204 236.302 103.622 236.302Z" fill="#FFDE63"/>
<path d="M103.622 248.603C102.04 248.603 100.758 247.334 100.758 245.769C100.758 244.204 102.04 242.935 103.622 242.935C105.204 242.935 106.487 244.204 106.487 245.769C106.487 247.334 105.204 248.603 103.622 248.603Z" fill="#FFDE63"/>
<path d="M129.574 277.956L78.5156 277.6L81.5433 269.73H126.378L129.574 277.956Z" fill="#4C5B9D"/>
<path d="M103.268 131.368C117.058 132.329 128.882 123.914 129.678 112.572C130.474 101.23 119.94 91.2562 106.15 90.2954C92.3607 89.3345 80.5367 97.7501 79.7407 109.092C78.9448 120.434 89.4784 130.408 103.268 131.368Z" fill="#3C1715"/>
<path d="M62.6281 177.616C66.0728 177.616 68.8652 173.919 68.8652 169.358C68.8652 164.798 66.0728 161.101 62.6281 161.101C59.1835 161.101 56.3911 164.798 56.3911 169.358C56.3911 173.919 59.1835 177.616 62.6281 177.616Z" fill="#E1A078"/>
<path d="M142.116 173.835C145.56 173.835 148.353 170.138 148.353 165.578C148.353 161.017 145.56 157.32 142.116 157.32C138.671 157.32 135.879 161.017 135.879 165.578C135.879 170.138 138.671 173.835 142.116 173.835Z" fill="#E1A078"/>
<path d="M103.778 203.445C126.15 203.445 144.286 186.687 144.286 166.016C144.286 145.344 126.15 128.587 103.778 128.587C81.4059 128.587 63.2698 145.344 63.2698 166.016C63.2698 186.687 81.4059 203.445 103.778 203.445Z" fill="#F3B78B"/>
<path d="M58.3655 163.286C58.3655 163.286 58.8686 111.94 101.815 111.94C144.761 111.94 146.237 159.434 146.237 159.434C146.237 159.434 122 151.261 112.627 147.34C105.052 144.171 96.3674 138.242 86.1716 138.242C81.4501 138.242 74.1085 141.068 68.4966 148.157C66.0296 151.273 63.5847 161.166 63.5847 161.166C63.5847 161.166 62.0177 161.002 61.0364 161.402C60.055 161.801 58.3655 163.286 58.3655 163.286Z" fill="#53231B"/>
<path d="M63.5488 161.134C63.5488 161.134 63.4931 121.459 102.089 121.459C140.685 121.459 143.559 158.443 143.559 158.443C143.559 158.443 125.637 153.401 114.063 148.048C105.708 144.184 92.0867 136.999 83.4134 138.488C71.6118 140.515 63.5488 161.134 63.5488 161.134Z" fill="#723322"/>
<path d="M82.3775 174.711C84.066 174.711 85.4347 172.68 85.4347 170.175C85.4347 167.669 84.066 165.638 82.3775 165.638C80.6891 165.638 79.3203 167.669 79.3203 170.175C79.3203 172.68 80.6891 174.711 82.3775 174.711Z" fill="black"/>
<path d="M120.593 173.199C122.281 173.199 123.65 171.168 123.65 168.662C123.65 166.157 122.281 164.125 120.593 164.125C118.904 164.125 117.535 166.157 117.535 168.662C117.535 171.168 118.904 173.199 120.593 173.199Z" fill="black"/>
<path d="M82.3775 170.175C83.2217 170.175 83.9061 169.497 83.9061 168.662C83.9061 167.827 83.2217 167.15 82.3775 167.15C81.5333 167.15 80.8489 167.827 80.8489 168.662C80.8489 169.497 81.5333 170.175 82.3775 170.175Z" fill="white"/>
<path d="M120.593 168.662C121.437 168.662 122.121 167.985 122.121 167.15C122.121 166.315 121.437 165.638 120.593 165.638C119.748 165.638 119.064 166.315 119.064 167.15C119.064 167.985 119.748 168.662 120.593 168.662Z" fill="white"/>
<path d="M78.9382 186.81C81.6819 186.81 83.9062 184.609 83.9062 181.895C83.9062 179.18 81.6819 176.98 78.9382 176.98C76.1945 176.98 73.9702 179.18 73.9702 181.895C73.9702 184.609 76.1945 186.81 78.9382 186.81Z" fill="#EFA481"/>
<path d="M130.529 182.273C133.483 182.273 135.879 179.903 135.879 176.98C135.879 174.057 133.483 171.687 130.529 171.687C127.574 171.687 125.178 174.057 125.178 176.98C125.178 179.903 127.574 182.273 130.529 182.273Z" fill="#EFA481"/>
<path d="M143.559 179.248C145.669 179.248 147.38 177.217 147.38 174.711C147.38 172.206 145.669 170.174 143.559 170.174C141.448 170.174 139.737 172.206 139.737 174.711C139.737 177.217 141.448 179.248 143.559 179.248Z" fill="#DA3337"/>
<path d="M63.2698 180.76C65.3803 180.76 67.0913 178.729 67.0913 176.224C67.0913 173.718 65.3803 171.687 63.2698 171.687C61.1592 171.687 59.4482 173.718 59.4482 176.224C59.4482 178.729 61.1592 180.76 63.2698 180.76Z" fill="#DA3337"/>
<path d="M89.3264 183.923C89.3264 183.923 99.5822 185.3 105.195 185.2C110.808 185.1 120.004 183.011 120.004 183.011C120.004 183.011 114.223 195.188 105.605 195.636C96.9874 196.085 89.3264 183.923 89.3264 183.923Z" fill="#AA4F44"/>
<path d="M89.5444 184.032C89.5444 184.032 99.6215 185.491 105.234 185.461C110.847 185.431 119.686 183.213 119.686 183.213C119.686 183.213 114.223 188.183 105.605 188.317C96.9874 188.451 89.5444 184.032 89.5444 184.032Z" fill="white"/>
<path d="M95.6267 191.561C95.6267 191.561 97.9875 191.596 102.74 191.561C107.494 191.527 114.214 191.561 114.214 191.561C114.214 191.561 109.909 195.615 104.933 195.615C99.9565 195.615 95.6267 191.561 95.6267 191.561Z" fill="#CC5F54"/>
<path d="M105.581 167.533C105.581 167.533 107.239 174.33 106.391 176.067C105.542 177.804 100.202 177.593 100.202 177.593C100.202 177.593 104.1 176.268 104.955 174.518C105.81 172.767 105.581 167.533 105.581 167.533Z" fill="#CC8D66"/>
<path d="M84.0404 157.052C84.0404 157.052 78.5942 156.697 76.9753 157.543C75.3564 158.389 74.8523 161.854 74.8523 161.854C74.8523 161.854 77.129 159.845 78.755 159.401C80.381 158.956 83.8317 159.401 83.8317 159.401L84.0404 157.052Z" fill="#3C1715"/>
<path d="M119.064 157.425C119.064 157.425 124.51 157.07 126.129 157.916C127.748 158.762 128.252 162.227 128.252 162.227C128.252 162.227 125.975 160.218 124.349 159.774C122.723 159.329 119.273 159.774 119.273 159.774L119.064 157.425Z" fill="#3C1715"/>
<path d="M103.905 282.825C99.2625 282.825 95.4991 279.06 95.4991 274.417C95.4991 269.774 99.2625 266.01 103.905 266.01C108.548 266.01 112.311 269.774 112.311 274.417C112.311 279.06 108.548 282.825 103.905 282.825Z" fill="#4C5B9D" stroke="#7567DB" stroke-width="1.04"/>
<mask id="mask0" mask-type="alpha" maskUnits="userSpaceOnUse" x="94" y="265" width="19" height="19">
<path d="M103.905 282.825C99.2625 282.825 95.4991 279.06 95.4991 274.417C95.4991 269.774 99.2625 266.01 103.905 266.01C108.548 266.01 112.311 269.774 112.311 274.417C112.311 279.06 108.548 282.825 103.905 282.825Z" fill="white" stroke="white" stroke-width="1.04"/>
</mask>
<g mask="url(#mask0)">
<path fill-rule="evenodd" clip-rule="evenodd" d="M99.0177 282.323C99.3025 282.323 99.5236 282.241 99.681 282.077C99.8384 281.913 99.9171 281.692 99.9171 281.415V277.849L103.208 277.834C103.702 277.825 104.152 277.755 104.557 277.626C105.941 277.17 106.633 276.18 106.633 274.656V272.207C106.628 271.89 106.54 271.654 106.37 271.5C106.211 271.361 106.003 271.292 105.748 271.292C105.474 271.292 105.251 271.366 105.081 271.515C104.926 271.654 104.849 271.863 104.849 272.14V274.21C104.849 274.914 104.658 275.438 104.276 275.78C103.893 276.123 103.247 276.294 102.338 276.294H101.401C100.547 276.304 100.052 276.309 99.9171 276.309V272.2C99.9171 271.912 99.8372 271.686 99.6773 271.523C99.5324 271.369 99.3125 271.292 99.0177 271.292C98.7329 271.292 98.5143 271.371 98.3619 271.53C98.2095 271.689 98.1333 271.912 98.1333 272.2V281.415C98.1333 281.692 98.212 281.913 98.3694 282.077C98.5268 282.241 98.7429 282.323 99.0177 282.323Z" fill="#FFDE63"/>
</g>
<g filter="url(#filter0_d)">
<path fill-rule="evenodd" clip-rule="evenodd" d="M326.76 80.495C322.352 122.434 277.385 132.232 223.777 126.597C215.003 126.492 206.337 125.653 198.042 124.109C193.918 128.521 188.051 134.571 184.417 137.338C180.113 140.616 172.989 143.398 169.208 144.739C168.573 144.964 168.101 144.189 168.578 143.714C171.601 140.698 177.332 134.833 179.167 131.93C182.341 126.909 183.723 123.136 184.326 120.806C152.58 111.297 129.446 90.3787 132.629 60.091C136.529 22.9882 181.983 8.56758 235.59 14.202C289.198 19.8364 330.831 41.763 326.76 80.495Z" fill="white"/>
</g>
<path opacity="0.8" d="M200.016 55.2112C199.697 55.1776 199.456 55.0573 199.293 54.8501C199.137 54.6435 199.075 54.3807 199.108 54.0616L200.145 44.1987L193.974 43.5502L192.938 53.413C192.904 53.7321 192.786 53.9761 192.584 54.1449C192.388 54.3144 192.133 54.3827 191.82 54.3497C191.501 54.3162 191.26 54.1958 191.097 53.9886C190.94 53.782 190.879 53.5192 190.912 53.2001L192.024 42.6193C192.059 42.2889 192.171 42.0415 192.361 41.8771C192.557 41.7133 192.82 41.6488 193.151 41.6836L201.347 42.545C201.672 42.5791 201.91 42.6964 202.062 42.8967C202.219 43.0976 202.281 43.3632 202.246 43.6937L201.134 54.2745C201.1 54.5936 200.983 54.8375 200.781 55.0064C200.584 55.1759 200.329 55.2441 200.016 55.2112ZM210.509 54.7759C209.617 55.6385 208.57 56.0066 207.368 55.8803C205.967 55.7329 205.028 55.2339 204.553 54.3833L204.149 58.3071C204.115 58.6318 204.002 58.8821 203.811 59.0579C203.619 59.2393 203.372 59.3142 203.07 59.2825C202.785 59.2525 202.568 59.1317 202.417 58.92C202.251 58.6894 202.185 58.4174 202.218 58.1041L203.38 47.0447C203.414 46.7256 203.536 46.4677 203.747 46.2709C203.937 46.1009 204.175 46.0308 204.46 46.0607C205.053 46.123 205.351 46.5433 205.356 47.3214C206.054 46.5423 207.087 46.2245 208.454 46.3682C209.725 46.5018 210.677 47.1146 211.311 48.2066C211.893 49.201 212.114 50.359 211.975 51.6809C211.843 52.9344 211.354 53.9661 210.509 54.7759ZM209.662 49.2689C209.248 48.4881 208.637 48.0552 207.828 47.9701C206.996 47.8827 206.302 48.1526 205.747 48.7797C205.296 49.2911 205.028 49.9427 204.945 50.7347C204.86 51.5438 204.98 52.2621 205.306 52.8897C205.709 53.6637 206.332 54.0949 207.175 54.1836C207.967 54.2668 208.637 54.006 209.184 53.401C209.679 52.8597 209.969 52.1787 210.056 51.3583C210.133 50.6176 210.002 49.9211 209.662 49.2689ZM219.893 57.3262C219.357 57.27 219.102 56.8716 219.128 56.1312C218.433 56.8819 217.373 57.1824 215.949 57.0327C214.912 56.9237 214.12 56.5409 213.572 55.8842C213.025 55.2276 212.804 54.3979 212.909 53.395L213.46 48.1559C213.494 47.8312 213.62 47.5678 213.837 47.366C214.022 47.1896 214.263 47.117 214.559 47.1482C214.856 47.1793 215.079 47.3007 215.23 47.5124C215.384 47.7418 215.444 48.0246 215.408 48.3607L214.907 53.1298C214.838 53.7907 214.977 54.3527 215.326 54.8156C215.679 55.2963 216.197 55.5725 216.881 55.6444C217.57 55.7169 218.135 55.5515 218.575 55.1484C218.995 54.7663 219.24 54.2477 219.309 53.5924L219.81 48.8234C219.844 48.4986 219.967 48.235 220.178 48.0325C220.37 47.8568 220.608 47.7839 220.893 47.8138C221.2 47.8461 221.429 47.9682 221.58 48.1798C221.734 48.4092 221.794 48.692 221.759 49.0282L220.991 56.327C220.959 56.6404 220.843 56.8932 220.644 57.0855C220.445 57.2777 220.195 57.358 219.893 57.3262ZM230.757 56.7312C230.555 57.1133 230.323 57.3741 230.061 57.5136C229.309 57.9242 228.344 58.0676 227.164 57.9436L223.421 57.5502C223.09 57.5154 222.848 57.3805 222.694 57.1454C222.526 56.8858 222.461 56.5679 222.501 56.1918L223.232 49.2349C223.273 48.8474 223.406 48.536 223.632 48.3005C223.82 48.1071 224.076 48.0274 224.401 48.0615L227.888 48.4281C229.255 48.5718 230.141 49.1027 230.546 50.0209C230.668 50.2872 230.712 50.5741 230.68 50.8818C230.626 51.3946 230.453 51.8401 230.159 52.2183C229.834 52.6334 229.416 52.8804 228.906 52.9594C230.526 53.1699 231.253 54.0672 231.086 55.6512C231.046 56.0329 230.936 56.3929 230.757 56.7312ZM226.954 49.8334L225.142 49.643L224.894 52.0019L226.706 52.1923C227.959 52.3241 228.63 51.9683 228.719 51.125C228.796 50.3957 228.207 49.9652 226.954 49.8334ZM227.054 53.8102L224.729 53.5659L224.457 56.1556L226.996 56.4223C228.409 56.5709 229.161 56.2092 229.253 55.3375C229.343 54.4828 228.61 53.9737 227.054 53.8102ZM240.195 55.3124L233.862 54.6467C233.79 55.4975 234.084 56.2082 234.744 56.7787C235.267 57.2312 235.907 57.4972 236.665 57.5769C237.12 57.6248 237.631 57.5632 238.196 57.3922C238.287 57.3499 238.711 57.1813 239.468 56.8864C239.63 56.8228 239.771 56.7973 239.891 56.8099C240.067 56.8284 240.219 56.9193 240.346 57.0824C240.482 57.2638 240.54 57.4542 240.519 57.6536C240.475 58.0696 240.025 58.4341 239.169 58.7473C238.209 59.1073 237.233 59.2352 236.242 59.131C234.84 58.9837 233.746 58.405 232.959 57.3948C232.178 56.3852 231.862 55.1796 232.009 53.778C232.148 52.4504 232.708 51.3427 233.689 50.4549C234.632 49.5977 235.75 49.2371 237.043 49.373C237.977 49.4712 238.8 49.8371 239.511 50.4706C240.201 51.0904 240.679 51.8607 240.945 52.7816C241.101 53.3279 241.15 53.8689 241.094 54.4045C241.025 55.0654 240.725 55.3681 240.195 55.3124ZM238.603 51.7145C238.195 51.2108 237.624 50.9203 236.889 50.8431C236.171 50.7676 235.551 50.9386 235.029 51.3561C234.777 51.5601 234.549 51.8357 234.345 52.183C234.15 52.5081 234.033 52.7954 233.996 53.0449L239.277 53.6001C239.272 52.8852 239.047 52.2566 238.603 51.7145ZM254.005 60.8857C253.732 60.8569 253.523 60.737 253.378 60.5259C253.219 60.2846 253.156 60.0015 253.19 59.6767L253.692 54.9077C253.758 54.2809 253.651 53.7339 253.372 53.2668C253.072 52.7744 252.606 52.495 251.973 52.4285C251.33 52.3609 250.81 52.5367 250.414 52.956C250.044 53.3549 249.826 53.8677 249.76 54.4945L249.259 59.2635C249.224 59.5997 249.107 59.8639 248.908 60.0561C248.734 60.2337 248.498 60.3069 248.202 60.2758C247.911 60.2452 247.699 60.125 247.566 59.9151C247.411 59.6857 247.352 59.4029 247.387 59.0668L247.888 54.2977C247.954 53.671 247.848 53.124 247.568 52.6568C247.269 52.1645 246.803 51.8851 246.17 51.8186C244.854 51.6803 244.116 52.3689 243.957 53.8845L243.456 58.6536C243.42 58.9897 243.306 59.2514 243.114 59.4385C242.928 59.6206 242.689 59.6964 242.399 59.6658C242.125 59.6371 241.916 59.5171 241.771 59.3061C241.612 59.0647 241.55 58.7816 241.584 58.4568L242.35 51.1665C242.384 50.8417 242.504 50.5778 242.71 50.3748C242.896 50.1984 243.125 50.1246 243.399 50.1534C243.638 50.1785 243.833 50.2941 243.984 50.5001C244.142 50.701 244.221 50.9368 244.221 51.2076C244.82 50.5505 245.786 50.292 247.12 50.4321C248.162 50.5417 248.94 51.0613 249.453 51.9908C249.787 51.6111 250.263 51.3271 250.882 51.1386C251.441 50.9727 251.982 50.9173 252.507 50.9724C253.646 51.0922 254.476 51.4732 254.996 52.1154C255.517 52.752 255.722 53.5916 255.613 54.6343L255.062 59.8734C255.027 60.2096 254.913 60.4713 254.72 60.6584C254.534 60.8405 254.296 60.9162 254.005 60.8857ZM259.954 57.3114C259.697 57.4629 259.38 57.5189 259.003 57.4793C258.65 57.4422 258.363 57.3228 258.142 57.121C257.936 56.9438 257.846 56.7327 257.872 56.4877L258.624 49.3341C258.652 49.0663 258.78 48.8666 259.007 48.7349C259.234 48.5975 259.545 48.5495 259.938 48.5908C260.752 48.6764 261.129 49.0098 261.068 49.591L260.316 56.7446C260.289 57.001 260.169 57.1899 259.954 57.3114ZM258.583 61.4792C258.247 61.4438 257.954 61.3238 257.705 61.119C257.419 60.8816 257.293 60.6033 257.326 60.2842C257.36 59.9594 257.542 59.7135 257.87 59.5464C258.157 59.3979 258.468 59.3414 258.804 59.3767C259.14 59.412 259.433 59.5321 259.682 59.7369C259.969 59.9686 260.095 60.2469 260.061 60.5717C260.028 60.8907 259.846 61.1367 259.517 61.3095C259.231 61.4579 258.919 61.5145 258.583 61.4792ZM155.638 73.35C155.331 73.3176 155.099 73.1982 154.942 72.9916C154.784 72.7907 154.722 72.5335 154.755 72.2202L155.063 69.2887L147.439 68.4874L147.131 71.4189C147.098 71.7323 146.984 71.9708 146.788 72.1346C146.592 72.3041 146.34 72.3726 146.032 72.3403C145.713 72.3068 145.475 72.1867 145.318 71.9801C145.161 71.7792 145.098 71.5221 145.131 71.2087L145.514 67.5678C145.564 67.0949 145.803 66.7945 146.231 66.6667C146.256 66.6463 146.295 66.6331 146.347 66.6271C146.405 66.6217 146.505 66.6091 146.645 66.5893C147.509 66.4842 148.029 65.5884 148.206 63.9018L148.215 63.8249L148.879 57.172C148.913 56.8529 149.028 56.6058 149.225 56.4306C149.408 56.2771 149.662 56.2174 149.987 56.2515L156.047 56.8884C156.377 56.9231 156.616 57.0346 156.763 57.2229C156.92 57.4295 156.981 57.6952 156.947 58.02L155.941 67.5923C156.445 67.674 156.785 67.8106 156.961 68.0019C157.116 68.1737 157.175 68.4362 157.137 68.7895L156.755 72.4304C156.722 72.7437 156.607 72.9823 156.412 73.1461C156.215 73.3155 155.958 73.3835 155.638 73.35ZM154.864 58.5183L150.805 58.0916L150.25 63.2007C150.11 64.534 149.784 65.7728 149.272 66.9172L153.93 67.4068L154.864 58.5183ZM165.784 70.7093C165.123 70.6398 164.822 70.1646 164.88 69.2835C164.318 70.1922 163.307 70.5699 161.849 70.4166C160.943 70.3214 160.175 69.9758 159.547 69.3797C158.95 68.8043 158.544 68.0646 158.328 67.1605C158.176 66.5224 158.138 65.8444 158.214 65.1265C158.348 63.8445 158.827 62.7714 159.649 61.9073C160.55 60.9593 161.624 60.5508 162.872 60.682C164.216 60.8233 165.138 61.404 165.635 62.4241C165.689 61.917 165.858 61.5661 166.143 61.3715C166.342 61.2368 166.555 61.1814 166.783 61.2054C167.188 61.2479 167.439 61.4068 167.537 61.6821C167.598 61.8614 167.603 62.1961 167.552 62.6861L166.843 69.4294C166.782 70.0163 166.643 70.4021 166.428 70.5868C166.295 70.6996 166.08 70.7404 165.784 70.7093ZM164.191 62.8427C163.883 62.6028 163.506 62.4596 163.061 62.4128C162.241 62.3266 161.556 62.5945 161.007 63.2165C160.522 63.7762 160.234 64.4805 160.145 65.3295C160.059 66.1499 160.187 66.8749 160.53 67.5043C160.936 68.2497 161.557 68.6664 162.395 68.7545C163.193 68.8383 163.863 68.5689 164.407 67.9463C164.891 67.3923 165.177 66.6994 165.265 65.8675C165.405 64.5343 165.047 63.526 164.191 62.8427ZM176.61 70.1449C176.409 70.527 176.177 70.7877 175.914 70.9272C175.163 71.3379 174.197 71.4812 173.018 71.3572L169.274 70.9638C168.944 70.9291 168.702 70.7942 168.548 70.5591C168.379 70.2994 168.315 69.9815 168.354 69.6055L169.085 62.6485C169.126 62.2611 169.26 61.9496 169.486 61.7142C169.673 61.5207 169.93 61.4411 170.254 61.4752L173.741 61.8417C175.109 61.9854 175.995 62.5164 176.4 63.4345C176.521 63.7008 176.566 63.9878 176.534 64.2955C176.48 64.8083 176.306 65.2538 176.013 65.632C175.687 66.047 175.269 66.294 174.76 66.373C176.38 66.5836 177.106 67.4808 176.94 69.0648C176.9 69.4466 176.79 69.8066 176.61 70.1449ZM172.807 63.2471L170.995 63.0566L170.747 65.4155L172.559 65.606C173.813 65.7377 174.484 65.3819 174.573 64.5387C174.649 63.8094 174.061 63.3788 172.807 63.2471ZM172.908 67.2239L170.583 66.9796L170.311 69.5692L172.849 69.836C174.262 69.9845 175.015 69.6229 175.106 68.7511C175.196 67.8965 174.463 67.3874 172.908 67.2239ZM185.749 72.8077C185.088 72.7382 184.787 72.263 184.845 71.3819C184.283 72.2906 183.272 72.6684 181.814 72.515C180.908 72.4198 180.14 72.0742 179.512 71.4781C178.916 70.9028 178.509 70.163 178.293 69.2589C178.141 68.6208 178.103 67.9428 178.179 67.2249C178.313 65.9429 178.792 64.8698 179.615 64.0057C180.515 63.0577 181.589 62.6492 182.837 62.7804C184.181 62.9217 185.103 63.5024 185.6 64.5225C185.654 64.0154 185.823 63.6646 186.108 63.4699C186.307 63.3352 186.52 63.2799 186.748 63.3038C187.153 63.3463 187.404 63.5052 187.502 63.7805C187.563 63.9598 187.569 64.2945 187.517 64.7845L186.808 71.5278C186.747 72.1147 186.608 72.5005 186.393 72.6853C186.26 72.798 186.045 72.8388 185.749 72.8077ZM184.156 64.9411C183.848 64.7012 183.471 64.558 183.026 64.5113C182.206 64.425 181.521 64.6929 180.972 65.3149C180.487 65.8746 180.2 66.5789 180.11 67.4279C180.024 68.2484 180.152 68.9733 180.495 69.6027C180.901 70.3481 181.522 70.7649 182.36 70.8529C183.158 70.9367 183.828 70.6673 184.372 70.0447C184.856 69.4907 185.142 68.7978 185.23 67.966C185.37 66.6327 185.012 65.6244 184.156 64.9411ZM195.239 62.2692C194.715 62.5368 194.129 62.6365 193.479 62.5682L193.402 62.5601C192.747 62.4912 192.198 62.2607 191.755 61.8686C191.313 61.4707 191.122 60.9897 191.181 60.4256C191.201 60.2319 191.292 60.0773 191.454 59.9618C191.617 59.8406 191.798 59.7905 191.997 59.8115C192.202 59.8331 192.366 59.9165 192.489 60.062C192.618 60.208 192.672 60.3807 192.651 60.5801C192.604 61.0246 192.928 61.289 193.622 61.3735C193.639 61.3753 193.656 61.3771 193.673 61.3788C194.237 61.4381 194.574 61.2517 194.682 60.8196C194.704 60.6144 194.793 60.451 194.95 60.3292C195.113 60.208 195.296 60.1582 195.501 60.1798C195.701 60.2008 195.867 60.2874 196.001 60.4397C196.136 60.5863 196.192 60.7594 196.171 60.9588C196.171 60.9645 196.17 60.9702 196.17 60.9759C196.11 61.5456 195.799 61.9768 195.239 62.2692ZM195.455 73.8624C195.21 73.8366 195.003 73.7227 194.834 73.5206C194.671 73.3134 194.595 73.075 194.607 72.8054C194.03 73.4706 192.998 73.7251 191.511 73.5688C190.474 73.4598 189.68 73.0855 189.131 72.446C188.583 71.8007 188.36 70.9881 188.463 70.0081L189 64.8972C189.034 64.5724 189.153 64.317 189.357 64.1311C189.536 63.9598 189.783 63.8906 190.096 63.9236C190.392 63.9547 190.616 64.0761 190.766 64.2878C190.923 64.5001 190.983 64.7715 190.949 65.102L190.46 69.7514C190.393 70.3895 190.534 70.9429 190.882 71.4116C191.23 71.8802 191.749 72.1508 192.438 72.2232C193.128 72.2957 193.692 72.1361 194.13 71.7444C194.55 71.368 194.794 70.8578 194.862 70.214L195.35 65.5646C195.384 65.2398 195.501 64.9841 195.699 64.7976C195.884 64.6269 196.127 64.5575 196.429 64.5892C196.737 64.6216 196.966 64.7436 197.117 64.9553C197.273 65.1675 197.334 65.4389 197.299 65.7694L196.551 72.8888C196.518 73.1965 196.403 73.4436 196.205 73.6301C196.007 73.8167 195.757 73.8941 195.455 73.8624ZM210.388 75.406C210.115 75.3773 209.906 75.2574 209.761 75.0463C209.602 74.8049 209.539 74.5218 209.574 74.197L210.075 69.428C210.141 68.8012 210.034 68.2543 209.755 67.7871C209.455 67.2948 208.989 67.0154 208.357 66.9489C207.713 66.8812 207.193 67.057 206.798 67.4763C206.427 67.8752 206.209 68.388 206.143 69.0148L205.642 73.7838C205.607 74.12 205.49 74.3842 205.291 74.5765C205.117 74.754 204.881 74.8272 204.585 74.7961C204.295 74.7655 204.082 74.6453 203.949 74.4354C203.795 74.2061 203.735 73.9233 203.77 73.5871L204.272 68.8181C204.337 68.1913 204.231 67.6443 203.951 67.1772C203.652 66.6848 203.186 66.4054 202.553 66.3389C201.237 66.2006 200.499 66.8892 200.34 68.4048L199.839 73.1739C199.804 73.5101 199.69 73.7717 199.497 73.9589C199.311 74.1409 199.073 74.2167 198.782 74.1861C198.508 74.1574 198.299 74.0375 198.154 73.8264C197.995 73.585 197.933 73.3019 197.967 72.9772L198.733 65.6869C198.767 65.3621 198.887 65.0982 199.093 64.8951C199.279 64.7188 199.508 64.645 199.782 64.6737C200.021 64.6989 200.216 64.8144 200.367 65.0204C200.525 65.2213 200.604 65.4572 200.604 65.7279C201.203 65.0708 202.169 64.8123 203.503 64.9525C204.545 65.062 205.323 65.5816 205.836 66.5112C206.17 66.1315 206.646 65.8474 207.265 65.659C207.824 65.4931 208.366 65.4376 208.89 65.4927C210.029 65.6125 210.859 65.9935 211.379 66.6358C211.9 67.2723 212.105 68.112 211.996 69.1547L211.445 74.3938C211.41 74.7299 211.296 74.9916 211.103 75.1788C210.917 75.3608 210.679 75.4366 210.388 75.406ZM221.192 72.4198L214.859 71.7542C214.787 72.6049 215.081 73.3156 215.741 73.8862C216.264 74.3386 216.904 74.6046 217.662 74.6843C218.118 74.7322 218.629 74.6706 219.194 74.4996C219.285 74.4573 219.709 74.2887 220.465 73.9938C220.628 73.9302 220.769 73.9047 220.888 73.9173C221.065 73.9358 221.217 74.0267 221.343 74.1898C221.48 74.3712 221.538 74.5616 221.517 74.761C221.473 75.177 221.023 75.5416 220.166 75.8548C219.207 76.2148 218.231 76.3427 217.24 76.2385C215.838 76.0911 214.744 75.5124 213.957 74.5022C213.176 73.4927 212.859 72.2871 213.006 70.8854C213.146 69.5578 213.706 68.4501 214.686 67.5623C215.629 66.7051 216.747 66.3445 218.041 66.4804C218.975 66.5787 219.798 66.9445 220.509 67.5781C221.198 68.1978 221.676 68.9681 221.942 69.889C222.098 70.4354 222.148 70.9763 222.091 71.5119C222.022 72.1729 221.722 72.4755 221.192 72.4198ZM219.6 68.822C219.193 68.3182 218.621 68.0277 217.886 67.9505C217.168 67.875 216.548 68.046 216.026 68.4636C215.774 68.6675 215.547 68.9431 215.343 69.2904C215.148 69.6155 215.031 69.9028 214.993 70.1523L220.275 70.7075C220.269 69.9926 220.045 69.3641 219.6 68.822ZM237.416 77.9702C236.734 78.1578 236.071 78.2177 235.427 78.15C234.059 78.0063 232.996 77.4106 232.236 76.363C231.502 75.3468 231.206 74.1635 231.348 72.8131C231.487 71.4856 232.053 70.3785 233.045 69.4919C234.01 68.6371 235.145 68.2782 236.45 68.4154C237.704 68.5471 238.602 68.9065 239.145 69.4936C239.285 69.6465 239.343 69.8312 239.32 70.0478C239.295 70.2871 239.198 70.5015 239.028 70.691C238.897 70.8386 238.743 70.9031 238.567 70.8845C238.356 70.8624 238.021 70.7378 237.561 70.5109C237.101 70.284 236.719 70.1546 236.418 70.1229C235.512 70.0277 234.766 70.2978 234.181 70.9334C233.699 71.4645 233.412 72.1603 233.322 73.0206C233.234 73.8525 233.385 74.5855 233.773 75.2197C234.237 75.9598 234.896 76.3747 235.751 76.4645C236.116 76.5028 236.571 76.4498 237.116 76.3055C237.579 76.1756 237.833 76.113 237.879 76.1178C238.106 76.1418 238.286 76.2385 238.418 76.4079C238.557 76.5722 238.614 76.7683 238.59 76.9962C238.543 77.4406 238.152 77.7653 237.416 77.9702ZM246.626 81.8503C245.705 82.4966 244.476 82.739 242.937 82.5773C242.168 82.4965 241.363 82.2678 240.521 81.8913C239.579 81.4755 239.133 81.034 239.182 80.5668C239.199 80.4129 239.302 80.251 239.493 80.0809C239.664 79.9261 239.822 79.8562 239.964 79.8712C240.163 79.8922 240.586 80.0633 241.232 80.3847C241.998 80.7705 242.692 80.9961 243.313 81.0614C244.122 81.1464 244.803 80.9962 245.356 80.6108C245.909 80.231 246.227 79.6395 246.312 78.8361L246.42 77.8019L246.241 77.9473C245.571 78.6257 244.572 78.8951 243.244 78.7556C241.916 78.6161 240.955 78.0369 240.359 77.018C239.808 76.0671 239.602 74.9308 239.741 73.6089C239.839 72.6745 240.134 71.8413 240.626 71.1096C241.568 69.7051 242.812 69.084 244.356 69.2463C245.706 69.3882 246.621 69.9452 247.101 70.9174C247.102 70.906 247.103 70.8946 247.104 70.8832C247.19 70.0684 247.569 69.6963 248.241 69.767C248.543 69.7988 248.767 69.9173 248.913 70.1227C249.068 70.3464 249.128 70.6235 249.093 70.9539L248.282 78.6716C248.13 80.1188 247.578 81.1784 246.626 81.8503ZM244.55 70.9344C243.758 70.8512 243.091 71.1123 242.549 71.7179C242.055 72.2592 241.764 72.9373 241.679 73.7521C241.594 74.5612 241.709 75.2732 242.025 75.8882C242.407 76.6369 243.031 77.0568 243.897 77.1479C244.734 77.2359 245.428 76.9632 245.979 76.3298C246.43 75.8184 246.697 75.1696 246.78 74.3833C246.868 73.54 246.734 72.7942 246.375 72.1459C245.973 71.4239 245.365 71.0201 244.55 70.9344ZM258.063 76.295L251.73 75.6294C251.658 76.4802 251.952 77.1908 252.612 77.7614C253.134 78.2138 253.775 78.4799 254.533 78.5595C254.988 78.6074 255.499 78.5459 256.064 78.3748C256.155 78.3325 256.579 78.1639 257.336 77.869C257.498 77.8054 257.639 77.7799 257.759 77.7925C257.935 77.8111 258.087 77.9019 258.214 78.065C258.35 78.2464 258.408 78.4368 258.387 78.6363C258.343 79.0522 257.893 79.4168 257.036 79.73C256.077 80.09 255.101 80.2179 254.11 80.1137C252.708 79.9664 251.614 79.3876 250.827 78.3775C250.046 77.3679 249.729 76.1623 249.877 74.7606C250.016 73.433 250.576 72.3254 251.557 71.4376C252.499 70.5804 253.618 70.2197 254.911 70.3557C255.845 70.4539 256.668 70.8198 257.379 71.4533C258.069 72.073 258.547 72.8433 258.813 73.7642C258.968 74.3106 259.018 74.8516 258.962 75.3871C258.892 76.0481 258.593 76.3507 258.063 76.295ZM256.471 72.6972C256.063 72.1934 255.491 71.903 254.756 71.8257C254.038 71.7502 253.419 71.9213 252.896 72.3388C252.645 72.5427 252.417 72.8184 252.213 73.1657C252.018 73.4908 251.901 73.7781 251.864 74.0276L257.145 74.5827C257.14 73.8678 256.915 73.2393 256.471 72.6972ZM266.857 81.2547C266.236 81.1894 265.95 80.9232 265.999 80.4559L266.756 73.2511L263.226 72.8801L262.788 76.7225C262.596 78.5515 261.98 79.7225 260.941 80.2354C260.516 80.4442 260.052 80.5222 259.551 80.4695C259.54 80.4683 259.528 80.4671 259.517 80.4659C259.221 80.4291 258.994 80.3188 258.834 80.135C258.727 80.0085 258.676 79.8563 258.684 79.6785C258.72 79.4979 258.818 79.3585 258.978 79.2601C259.016 79.2295 259.177 79.2032 259.462 79.1813C260.299 79.108 260.789 78.3961 260.931 77.0458L260.939 76.9688L261.434 71.8449C261.482 71.3834 261.82 71.1856 262.447 71.2514L267.848 71.8191C268.464 71.8838 268.747 72.1498 268.698 72.617L267.853 80.6509C267.804 81.1181 267.472 81.3194 266.857 81.2547ZM277.216 82.4212C276.555 82.3518 276.253 81.8765 276.311 80.9954C275.749 81.9042 274.739 82.2819 273.28 82.1286C272.374 82.0333 271.607 81.6877 270.978 81.0916C270.382 80.5163 269.976 79.7765 269.76 78.8724C269.608 78.2343 269.57 77.5563 269.645 76.8384C269.78 75.5564 270.259 74.4833 271.081 73.6193C271.981 72.6712 273.055 72.2627 274.303 72.3939C275.648 72.5352 276.569 73.116 277.067 74.1361C277.12 73.629 277.289 73.2781 277.575 73.0834C277.773 72.9487 277.987 72.8934 278.215 72.9173C278.619 72.9598 278.87 73.1187 278.968 73.394C279.03 73.5733 279.035 73.908 278.984 74.398L278.275 81.1413C278.213 81.7282 278.075 82.114 277.859 82.2988C277.726 82.4115 277.512 82.4524 277.216 82.4212ZM275.623 74.5546C275.314 74.3148 274.937 74.1715 274.493 74.1248C273.672 74.0385 272.988 74.3064 272.438 74.9285C271.953 75.4881 271.666 76.1924 271.577 77.0414C271.491 77.8619 271.619 78.5868 271.962 79.2162C272.367 79.9616 272.989 80.3784 273.826 80.4664C274.624 80.5502 275.295 80.2808 275.838 79.6582C276.323 79.1043 276.609 78.4113 276.696 77.5795C276.836 76.2462 276.479 75.2379 275.623 74.5546ZM287.993 79.4408L281.66 78.7752C281.588 79.626 281.882 80.3366 282.542 80.9072C283.065 81.3596 283.705 81.6257 284.463 81.7053C284.919 81.7532 285.429 81.6917 285.995 81.5207C286.085 81.4784 286.509 81.3098 287.266 81.0149C287.428 80.9513 287.569 80.9258 287.689 80.9383C287.866 80.9569 288.017 81.0477 288.144 81.2108C288.281 81.3922 288.338 81.5827 288.317 81.7821C288.274 82.198 287.824 82.5626 286.967 82.8758C286.007 83.2358 285.032 83.3637 284.04 83.2595C282.639 83.1122 281.545 82.5334 280.758 81.5233C279.977 80.5137 279.66 79.3081 279.807 77.9064C279.947 76.5789 280.507 75.4712 281.487 74.5834C282.43 73.7262 283.548 73.3656 284.841 73.5015C285.776 73.5997 286.599 73.9656 287.31 74.5991C287.999 75.2188 288.477 75.9892 288.743 76.91C288.899 77.4564 288.949 77.9974 288.892 78.533C288.823 79.1939 288.523 79.4965 287.993 79.4408ZM286.401 75.843C285.993 75.3393 285.422 75.0488 284.687 74.9715C283.969 74.8961 283.349 75.0671 282.827 75.4846C282.575 75.6886 282.347 75.9642 282.144 76.3115C281.948 76.6366 281.832 76.9239 281.794 77.1734L287.076 77.7285C287.07 77.0136 286.845 76.3851 286.401 75.843ZM288.773 82.7113L288.834 82.5449L291.528 75.4054C291.625 75.1448 291.818 74.8915 292.109 74.6456C292.305 74.4818 292.56 74.4164 292.873 74.4493C293.175 74.4811 293.403 74.5857 293.557 74.7632C293.665 74.884 293.792 75.1623 293.936 75.598L295.784 81.0374L298.568 76.0849C298.782 75.6983 298.961 75.4492 299.105 75.3377C299.286 75.2012 299.534 75.1494 299.847 75.1824C300.166 75.2159 300.404 75.3331 300.562 75.534C300.78 75.8161 300.911 76.1036 300.955 76.3962L301.973 83.1568C302.083 83.5371 302.138 83.8309 302.139 84.0384C302.137 84.1188 302.129 84.2217 302.116 84.347C302.094 84.5521 301.998 84.7033 301.826 84.8005C301.612 84.922 301.373 84.9689 301.111 84.9414C300.655 84.8935 300.391 84.6151 300.318 84.1062L299.527 77.8966L296.442 83.4915C296.322 83.7035 296.158 83.9455 295.951 84.2175C295.807 84.3234 295.61 84.3632 295.359 84.3368C295.086 84.3081 294.888 84.2182 294.766 84.067C294.715 83.9984 294.616 83.7374 294.468 83.284L292.563 77.3201L290.549 83.0795C290.383 83.5632 290.069 83.7808 289.607 83.7323C289.317 83.7018 289.095 83.5949 288.941 83.4117C288.819 83.2606 288.763 83.0271 288.773 82.7113ZM182.868 90.6849L182.929 90.5185L185.623 83.379C185.72 83.1184 185.913 82.8651 186.204 82.6192C186.4 82.4554 186.655 82.39 186.968 82.4229C187.27 82.4547 187.498 82.5593 187.652 82.7368C187.76 82.8576 187.887 83.1359 188.031 83.5716L189.879 89.011L192.663 84.0585C192.877 83.6719 193.056 83.4228 193.2 83.3112C193.381 83.1748 193.629 83.123 193.942 83.1559C194.261 83.1895 194.499 83.3067 194.657 83.5076C194.875 83.7897 195.006 84.0772 195.05 84.3698L196.068 91.1304C196.178 91.5106 196.233 91.8045 196.234 92.012C196.232 92.0924 196.224 92.1953 196.211 92.3206C196.189 92.5257 196.092 92.6769 195.921 92.7741C195.707 92.8956 195.468 92.9425 195.206 92.915C194.75 92.8671 194.486 92.5887 194.413 92.0798L193.622 85.8702L190.537 91.4651C190.417 91.6771 190.253 91.9191 190.046 92.1911C189.902 92.297 189.705 92.3368 189.454 92.3104C189.181 92.2817 188.983 92.1918 188.86 92.0406C188.81 91.972 188.711 91.7109 188.563 91.2575L186.658 85.2937L184.644 91.053C184.478 91.5368 184.164 91.7544 183.702 91.7059C183.412 91.6753 183.19 91.5685 183.036 91.3853C182.914 91.2341 182.858 91.0007 182.868 90.6849ZM204.331 93.9C203.796 93.8437 203.541 93.4454 203.567 92.705C202.872 93.4557 201.812 93.7562 200.387 93.6064C199.35 93.4974 198.558 93.1146 198.011 92.458C197.463 91.8013 197.242 90.9716 197.348 89.9688L197.898 84.7297C197.933 84.4049 198.058 84.1416 198.275 83.9397C198.461 83.7634 198.702 83.6908 198.998 83.7219C199.294 83.7531 199.518 83.8745 199.668 84.0862C199.823 84.3155 199.882 84.5983 199.847 84.9345L199.346 89.7035C199.276 90.3645 199.416 90.9264 199.765 91.3894C200.118 91.87 200.636 92.1463 201.32 92.2182C202.009 92.2906 202.574 92.1253 203.014 91.7222C203.434 91.3401 203.678 90.8214 203.747 90.1662L204.249 85.3971C204.283 85.0723 204.405 84.8087 204.617 84.6063C204.808 84.4305 205.046 84.3576 205.331 84.3876C205.639 84.4199 205.868 84.5419 206.019 84.7536C206.173 84.983 206.233 85.2658 206.197 85.6019L205.43 92.9008C205.397 93.2142 205.281 93.467 205.083 93.6592C204.884 93.8515 204.633 93.9317 204.331 93.9ZM214.741 93.4301C213.85 94.2927 212.803 94.6608 211.601 94.5344C210.199 94.3871 209.261 93.8881 208.786 93.0374L208.382 96.9613C208.348 97.286 208.235 97.5363 208.044 97.7121C207.852 97.8935 207.605 97.9684 207.303 97.9366C207.018 97.9067 206.8 97.7859 206.65 97.5742C206.484 97.3436 206.418 97.0716 206.45 96.7583L207.613 85.6989C207.646 85.3798 207.769 85.1219 207.979 84.9251C208.17 84.7551 208.408 84.685 208.693 84.7149C209.285 84.7772 209.584 85.1975 209.588 85.9756C210.287 85.1964 211.32 84.8787 212.687 85.0224C213.958 85.156 214.91 85.7688 215.544 86.8608C216.125 87.8551 216.346 89.0132 216.207 90.3351C216.076 91.5886 215.587 92.6203 214.741 93.4301ZM213.894 87.9231C213.481 87.1423 212.87 86.7094 212.061 86.6243C211.229 86.5369 210.535 86.8068 209.98 87.4339C209.528 87.9452 209.261 88.5969 209.178 89.3889C209.093 90.198 209.213 90.9163 209.539 91.5439C209.942 92.3179 210.564 92.7491 211.408 92.8378C212.2 92.921 212.869 92.6602 213.417 92.0552C213.912 91.5139 214.202 90.8329 214.288 90.0125C214.366 89.2717 214.235 88.5753 213.894 87.9231ZM232.74 96.8945C232.723 96.8927 232.705 96.8909 232.688 96.8891C232.455 96.8645 232.269 96.7672 232.131 96.5972C231.978 96.414 231.917 96.1714 231.949 95.8695L232.157 93.8866C232.188 93.596 232.236 93.1662 232.301 92.597C231.676 93.2802 230.663 93.5481 229.262 93.4008C228.15 93.2841 227.319 92.8942 226.766 92.2312C226.214 91.5683 225.99 90.7354 226.096 89.7326L226.308 87.7156C226.342 87.3908 226.467 87.1275 226.684 86.9257C226.87 86.7493 227.108 86.6764 227.399 86.7069C227.701 86.7387 227.927 86.8604 228.077 87.0721C228.232 87.3015 228.292 87.5842 228.256 87.9204L228.094 89.4674C228.025 90.1169 228.165 90.676 228.514 91.1447C228.876 91.6379 229.394 91.9199 230.066 91.9905C230.739 92.0612 231.302 91.8842 231.755 91.4595C232.183 91.0666 232.429 90.5567 232.495 89.93L232.658 88.383C232.692 88.0526 232.812 87.7886 233.017 87.5913C233.203 87.4149 233.444 87.3423 233.74 87.3735C234.048 87.4058 234.277 87.5307 234.427 87.7481C234.577 87.9654 234.634 88.2451 234.598 88.5869L233.83 95.8943C233.756 96.5952 233.393 96.9285 232.74 96.8945ZM242.467 97.9082C241.931 97.8519 241.676 97.4535 241.702 96.7131C241.007 97.4638 239.947 97.7643 238.523 97.6146C237.486 97.5056 236.693 97.1228 236.146 96.4662C235.599 95.8095 235.378 94.9798 235.483 93.977L236.034 88.7379C236.068 88.4131 236.193 88.1498 236.411 87.9479C236.596 87.7716 236.837 87.699 237.133 87.7301C237.43 87.7612 237.653 87.8826 237.804 88.0943C237.958 88.3237 238.018 88.6065 237.982 88.9427L237.481 93.7117C237.412 94.3727 237.551 94.9346 237.9 95.3976C238.253 95.8782 238.771 96.1545 239.455 96.2263C240.144 96.2988 240.709 96.1335 241.149 95.7304C241.569 95.3483 241.814 94.8296 241.883 94.1743L242.384 89.4053C242.418 89.0805 242.541 88.8169 242.752 88.6145C242.943 88.4387 243.182 88.3658 243.466 88.3957C243.774 88.4281 244.003 88.5501 244.154 88.7618C244.308 88.9912 244.368 89.2739 244.333 89.6101L243.565 96.909C243.532 97.2223 243.417 97.4752 243.218 97.6674C243.019 97.8597 242.769 97.9399 242.467 97.9082ZM259.219 102.616L259.151 102.608C258.935 102.586 258.765 102.473 258.642 102.27C258.525 102.073 258.482 101.818 258.515 101.505L258.732 99.4449C258.041 99.3895 257.655 99.3576 257.575 99.3493C257.102 99.2996 256.838 98.9146 256.781 98.1943C255.995 98.8721 255.061 99.1541 253.979 99.0404C253.973 99.0398 253.967 99.0392 253.961 99.0386C252.805 98.9113 251.937 98.3793 251.355 97.4426C250.904 97.9539 250.35 98.2701 249.692 98.391C249.292 98.47 248.753 98.4738 248.075 98.4025C247.077 98.2977 246.316 97.9268 245.789 97.2896C245.284 96.6719 245.085 95.856 245.191 94.8418L245.731 89.7052C245.765 89.3862 245.884 89.1251 246.09 88.9221C246.269 88.7508 246.496 88.6795 246.769 88.7083C247.06 88.7388 247.275 88.8565 247.415 89.0613C247.564 89.2844 247.621 89.564 247.586 89.9002L247.094 94.5752C247.031 95.1792 247.134 95.7027 247.404 96.1459C247.718 96.6686 248.183 96.9622 248.798 97.0269C249.431 97.0934 249.955 96.9036 250.37 96.4576C250.727 96.0803 250.937 95.5897 251 94.9857L251.491 90.3107C251.526 89.9802 251.64 89.7186 251.833 89.5257C252.007 89.3538 252.239 89.2832 252.529 89.3137C252.82 89.3443 253.032 89.4616 253.166 89.6658C253.321 89.8952 253.381 90.1751 253.346 90.5056L252.855 95.1806C252.791 95.7846 252.895 96.3082 253.165 96.7514C253.479 97.274 253.943 97.5677 254.559 97.6323C255.863 97.7695 256.595 97.0888 256.752 95.5903L257.243 90.9152C257.277 90.5962 257.399 90.3354 257.611 90.1329C257.79 89.9617 258.014 89.8901 258.281 89.9183C258.572 89.9488 258.79 90.0668 258.935 90.2722C259.079 90.4947 259.133 90.774 259.098 91.1102L258.35 98.2295L259.786 98.3805C260.293 98.4338 260.511 98.7994 260.439 99.4775L260.202 101.734C260.176 101.984 260.067 102.201 259.875 102.382C259.683 102.563 259.464 102.641 259.219 102.616ZM269.145 96.5644L262.812 95.8988C262.739 96.7496 263.033 97.4602 263.694 98.0308C264.216 98.4832 264.857 98.7493 265.614 98.8289C266.07 98.8768 266.581 98.8153 267.146 98.6442C267.237 98.6019 267.661 98.4333 268.418 98.1384C268.58 98.0749 268.721 98.0493 268.84 98.0619C269.017 98.0805 269.169 98.1713 269.296 98.3344C269.432 98.5158 269.49 98.7063 269.469 98.9057C269.425 99.3216 268.975 99.6862 268.118 99.9994C267.159 100.359 266.183 100.487 265.192 100.383C263.79 100.236 262.696 99.657 261.909 98.6469C261.128 97.6373 260.811 96.4317 260.959 95.03C261.098 93.7025 261.658 92.5948 262.639 91.707C263.581 90.8498 264.699 90.4891 265.993 90.6251C266.927 90.7233 267.75 91.0892 268.461 91.7227C269.151 92.3424 269.628 93.1127 269.895 94.0336C270.05 94.58 270.1 95.121 270.044 95.6566C269.974 96.3175 269.675 96.6201 269.145 96.5644ZM267.553 92.9666C267.145 92.4629 266.573 92.1724 265.838 92.0951C265.12 92.0197 264.5 92.1907 263.978 92.6082C263.726 92.8121 263.499 93.0878 263.295 93.4351C263.1 93.7602 262.983 94.0475 262.945 94.297L268.227 94.8521C268.222 94.1372 267.997 93.5087 267.553 92.9666Z" fill="black"/>
<path fill-rule="evenodd" clip-rule="evenodd" d="M156.112 368.761L159.758 369.952L156.675 375.539C156.16 376.471 155.021 376.79 154.13 376.252C153.239 375.714 152.934 374.522 153.448 373.589L156.112 368.761Z" fill="#48ADE1"/>
<path fill-rule="evenodd" clip-rule="evenodd" d="M176.228 365.652C176.302 365.726 177.326 366.779 177.326 367.759V369.233V369.33C177.316 369.619 177.205 370.47 176.221 370.47H169.628V377.905H162.456V370.861L151.698 367.57V363.051C151.698 363.051 165.742 357.015 176.228 365.652Z" fill="#D1D2D4"/>
<path fill-rule="evenodd" clip-rule="evenodd" d="M164.354 371.187H164.086H163.036H162.769C162.687 371.187 162.608 371.195 162.531 371.209V378.902H165.682V376.402V375.134V372.543C165.682 371.794 165.088 371.187 164.354 371.187Z" fill="#B3B7BC"/>
<path fill-rule="evenodd" clip-rule="evenodd" d="M155.249 365.151C155.249 364.134 156.848 363.659 156.921 363.582C162.526 361.994 165.076 362.085 169.007 361.84C165.12 360.579 158.092 360.579 152.026 363.117C152.026 363.223 152.026 367.815 152.026 367.815L155.249 368.835V365.151Z" fill="#B3B7BC"/>
<path fill-rule="evenodd" clip-rule="evenodd" d="M170.019 382.005H166.821H162.445C161.977 382.005 161.535 382.108 161.139 382.286V378.819C161.139 377.746 162.065 376.876 163.207 376.876H169.863C171.004 376.876 171.93 377.746 171.93 378.819V382.005H170.019V382.005Z" fill="#34394C"/>
<path fill-rule="evenodd" clip-rule="evenodd" d="M166.535 376.876H163.21C162.067 376.876 161.14 377.794 161.14 378.925V382.286H163.054H164.465V378.925C164.465 377.794 165.392 376.876 166.535 376.876Z" fill="#282F44"/>
<path fill-rule="evenodd" clip-rule="evenodd" d="M155.635 428.002H158.966H161.965H164.63H169.461H172.459H174.126H174.738C174.931 428.002 175.119 427.981 175.302 427.943V429.785C175.302 431.008 174.387 432 173.256 432H157.116C155.986 432 155.07 431.008 155.07 429.785V427.943C155.253 427.981 155.442 428.002 155.635 428.002Z" fill="#34394C"/>
<path fill-rule="evenodd" clip-rule="evenodd" d="M155.776 428.084C155.958 428.12 156.144 428.141 156.336 428.141H155.776V428.084Z" fill="#282F44"/>
<path fill-rule="evenodd" clip-rule="evenodd" d="M172.599 429.862V428.141H173.039H174.693H175.301C175.493 428.141 175.68 428.12 175.862 428.083V429.862C175.862 431.042 174.952 432 173.83 432H170.568C171.69 432 172.599 431.043 172.599 429.862Z" fill="#282F44"/>
<path fill-rule="evenodd" clip-rule="evenodd" d="M159.34 391.637V384.286C159.34 382.629 160.674 381.286 162.321 381.286H166.627H169.773H172.042C172.042 381.286 172.82 381.309 173.453 381.796C173.573 381.903 173.692 382.017 173.809 382.143C173.83 382.167 173.85 382.189 173.87 382.209C176.288 384.893 178 391.532 178 399.3V425.619C178 427.276 176.665 428.619 175.019 428.619H174.41H172.754H169.773H164.97H162.321H159.34H156.028C154.381 428.619 153.047 427.276 153.047 425.619V399.354C153.047 395.535 155.752 392.351 159.34 391.637Z" fill="#48ADE1"/>
<path fill-rule="evenodd" clip-rule="evenodd" d="M156.314 425.619V399.3C156.314 397.708 156.727 396.331 158.405 394.721C160.083 393.111 161.74 393.427 162.488 392.215C163.235 391.003 161.746 384.093 163.444 382.209C163.464 382.19 163.484 382.167 163.504 382.143C163.621 382.017 163.74 381.903 163.86 381.796C164.494 381.309 168.547 381.286 165.271 381.286H164.273H162.004C162.004 381.286 161.226 381.309 160.592 381.796C160.472 381.903 160.353 382.017 160.236 382.143C160.216 382.167 160.196 382.189 160.176 382.209C158.822 383.183 159.296 386.826 159.296 391.591C159.296 391.938 157.642 391.504 155.266 393.85C153.466 395.626 153.047 398.003 153.047 399.3V425.619C153.047 427.276 154.381 428.619 156.028 428.619H156.637H158.293H159.296C157.649 428.619 156.314 427.276 156.314 425.619Z" fill="#299ECC"/>
<path fill-rule="evenodd" clip-rule="evenodd" d="M161.853 421.857H178V399.543H153.047V421.857H158.044" fill="#FFCF11"/>
<rect width="3.37209" height="22.3143" transform="matrix(-1 0 0 1 156.419 399.543)" fill="#FF9E00"/>
<path fill-rule="evenodd" clip-rule="evenodd" d="M165.523 416.448C162.357 416.448 159.791 413.874 159.791 410.7C159.791 407.526 162.357 404.952 165.523 404.952C168.689 404.952 171.256 407.526 171.256 410.7C171.256 413.874 168.689 416.448 165.523 416.448Z" fill="#7567DB"/>
<path fill-rule="evenodd" clip-rule="evenodd" d="M172.379 384.778H175.682C175.987 385.495 176.27 386.296 176.527 387.17H172.379C171.765 387.17 171.268 386.634 171.268 385.974C171.268 385.313 171.765 384.778 172.379 384.778Z" fill="#6CC3E5"/>
<path fill-rule="evenodd" clip-rule="evenodd" d="M177.452 391.316H173.58C172.966 391.316 172.469 390.78 172.469 390.12C172.469 389.459 172.966 388.924 173.58 388.924H176.984C177.159 389.682 177.315 390.482 177.452 391.316Z" fill="#6CC3E5"/>
<path fill-rule="evenodd" clip-rule="evenodd" d="M174.568 393.069H177.702C177.798 393.844 177.877 394.643 177.939 395.462H174.568C173.954 395.462 173.457 394.926 173.457 394.266C173.457 393.605 173.954 393.069 174.568 393.069Z" fill="#6CC3E5"/>
<path fill-rule="evenodd" clip-rule="evenodd" d="M149.836 363.489L153.274 363.161L154.27 363.728V367.064L153.926 367.505L149.836 367.237C149.489 367.237 149.208 366.972 149.208 366.646V364.08C149.208 363.753 149.489 363.489 149.836 363.489Z" fill="#48ADE1"/>
<path fill-rule="evenodd" clip-rule="evenodd" d="M149.836 363.489L150.743 363.41H150.864V367.308H150.743L149.836 367.237C149.489 367.237 149.208 366.972 149.208 366.646V364.08C149.208 363.753 149.489 363.489 149.836 363.489Z" fill="#299ECC"/>
<defs>
<filter id="filter0_d" x="118.223" y="0" width="220.433" height="168.482" filterUnits="userSpaceOnUse" color-interpolation-filters="sRGB">
<feFlood flood-opacity="0" result="BackgroundImageFix"/>
<feColorMatrix in="SourceAlpha" type="matrix" values="0 0 0 0 0 0 0 0 0 0 0 0 0 0 0 0 0 0 127 0"/>
<feOffset dy="2"/>
<feGaussianBlur stdDeviation="3"/>
<feColorMatrix type="matrix" values="0 0 0 0 0 0 0 0 0 0 0 0 0 0 0 0 0 0 0.5 0"/>
<feBlend mode="normal" in2="BackgroundImageFix" result="effect1_dropShadow"/>
<feBlend mode="normal" in="SourceGraphic" in2="effect1_dropShadow" result="shape"/>
</filter>
</defs>
</svg>
