<svg width="329" height="435" viewBox="0 0 329 435" fill="none" xmlns="http://www.w3.org/2000/svg">
<path fill-rule="evenodd" clip-rule="evenodd" d="M148.702 203.881L149.321 206.923C149.613 208.359 151.672 208.359 151.964 206.923L152.583 203.881C153.193 200.884 155.544 198.541 158.552 197.934L161.604 197.317C163.045 197.026 163.045 194.974 161.604 194.683L158.552 194.066C155.544 193.458 153.193 191.116 152.583 188.119L151.964 185.077C151.672 183.641 149.613 183.641 149.321 185.077L148.702 188.119C148.092 191.116 145.741 193.459 142.733 194.066L139.681 194.683C138.24 194.974 138.24 197.026 139.681 197.317L142.733 197.934C145.741 198.541 148.092 200.884 148.702 203.881Z" fill="#7567DB"/>
<path fill-rule="evenodd" clip-rule="evenodd" d="M258.266 61.5385L258.638 63.3649C258.813 64.2272 260.05 64.2272 260.225 63.3649L260.597 61.5385C260.963 59.7386 262.375 58.3319 264.181 57.9671L266.014 57.5968C266.879 57.422 266.879 56.1896 266.014 56.0148L264.181 55.6445C262.375 55.2796 260.963 53.873 260.597 52.0731L260.225 50.2467C260.05 49.3844 258.813 49.3844 258.638 50.2467L258.266 52.0731C257.9 53.873 256.488 55.2797 254.682 55.6445L252.849 56.0148C251.984 56.1896 251.984 57.422 252.849 57.5968L254.682 57.9671C256.488 58.3319 257.9 59.7386 258.266 61.5385Z" fill="#7567DB"/>
<path fill-rule="evenodd" clip-rule="evenodd" d="M179.866 344.738L180.238 346.565C180.413 347.427 181.65 347.427 181.825 346.565L182.197 344.738C182.563 342.939 183.975 341.532 185.781 341.167L187.614 340.797C188.479 340.622 188.479 339.39 187.614 339.215L185.781 338.845C183.975 338.48 182.563 337.073 182.197 335.273L181.825 333.447C181.65 332.584 180.413 332.584 180.238 333.447L179.866 335.273C179.5 337.073 178.088 338.48 176.282 338.845L174.449 339.215C173.584 339.39 173.584 340.622 174.449 340.797L176.282 341.167C178.088 341.532 179.5 342.939 179.866 344.738Z" fill="#7567DB"/>
<path fill-rule="evenodd" clip-rule="evenodd" d="M296.666 404.738L297.038 406.565C297.213 407.427 298.45 407.427 298.625 406.565L298.997 404.738C299.363 402.939 300.775 401.532 302.581 401.167L304.414 400.797C305.279 400.622 305.279 399.39 304.414 399.215L302.581 398.845C300.775 398.48 299.363 397.073 298.997 395.273L298.625 393.447C298.45 392.584 297.213 392.584 297.038 393.447L296.666 395.273C296.3 397.073 294.888 398.48 293.082 398.845L291.249 399.215C290.384 399.39 290.384 400.622 291.249 400.797L293.082 401.167C294.888 401.532 296.3 402.939 296.666 404.738Z" fill="#7567DB"/>
<path fill-rule="evenodd" clip-rule="evenodd" d="M314.564 134.022L315.15 136.902C315.426 138.261 317.376 138.261 317.653 136.902L318.239 134.022C318.816 131.185 321.042 128.967 323.889 128.392L326.779 127.808C328.143 127.532 328.143 125.589 326.779 125.314L323.889 124.73C321.042 124.154 318.816 121.937 318.239 119.099L317.653 116.22C317.376 114.86 315.426 114.86 315.15 116.22L314.564 119.099C313.986 121.937 311.761 124.155 308.913 124.73L306.023 125.314C304.659 125.589 304.659 127.532 306.023 127.808L308.913 128.392C311.761 128.967 313.987 131.185 314.564 134.022Z" fill="#7567DB"/>
<path d="M207.259 215.338C207.259 215.338 202.067 223.583 199.984 228.924C197.902 234.265 195.416 247.563 195.416 247.563C195.416 247.563 190.372 254.45 181.484 257.712C172.595 260.974 162.709 261.73 162.709 261.73C162.709 261.73 156.169 260.32 154.182 260.792C152.195 261.264 151.149 262.938 149.803 263.392C144.88 265.051 142.206 265.017 142.206 265.5C142.206 266.423 143.296 267.262 143.296 267.262C143.296 267.262 133.902 269.51 133.499 271.519C133.096 273.529 138.177 275.042 141.682 276.023C145.186 277.004 150.806 277.717 154.182 276.6C157.557 275.483 158.406 274.611 160.677 273.449C162.948 272.288 164.464 272.049 164.464 272.049C164.464 272.049 169.959 272.647 178.342 271.638C186.724 270.628 202.086 266.844 202.086 266.844C202.086 266.844 204.202 265.461 206.244 258.814C208.285 252.167 210.411 239.739 210.411 239.739L207.259 215.338Z" fill="#F3B78B" stroke="#D59B86" stroke-width="0.64"/>
<path d="M150.736 267.782L142.894 267.682" stroke="#E6A67D" stroke-width="0.64"/>
<path d="M152.307 266.696C152.307 266.696 153.6 268.612 154.387 269.379C155.175 270.146 156.468 270.752 156.468 270.752" stroke="#E6A67D" stroke-width="0.64"/>
<path d="M162.833 265.099C162.604 265.099 161.245 265.921 158.961 265.921C158.075 265.921 155.942 265.099 155.942 265.099" stroke="#E6A67D" stroke-width="0.64"/>
<path d="M243.357 200.686C243.357 200.686 242.168 205.222 242.847 207.052C243.526 208.883 248.208 212.646 248.208 212.646C248.208 212.646 239.753 215.131 235.379 215.03C231.006 214.928 220.959 211.88 220.959 211.88C220.959 211.88 224.844 209.002 225.745 207.052C226.646 205.103 226.749 200.686 226.749 200.686H243.357Z" fill="#E1A078"/>
<path d="M240.063 363.746L242.017 421.976L238.177 428.587C238.177 428.587 255.434 430.836 254.948 430.298C254.735 430.062 254.41 428.708 253.673 426.605C253.291 425.517 251.838 422.706 251.838 422.706L258.984 365.501L240.063 363.746Z" fill="#F3B78B" stroke="#D59B86" stroke-width="0.64"/>
<path d="M229.58 364.83L226.606 423.017L230.329 429.694C230.329 429.694 213.036 431.642 213.531 431.113C213.748 430.88 214.097 429.532 214.871 427.442C215.271 426.362 216.773 423.576 216.773 423.576L210.631 366.256L229.58 364.83Z" fill="#F3B78B" stroke="#D59B86" stroke-width="0.64"/>
<path d="M259.584 434.011C259.584 434.011 260.386 427.784 249.355 426.763C238.325 425.742 234.798 430.259 234.798 430.259C234.798 430.259 229.928 425.521 219.943 426.763C209.958 428.005 209.958 434.011 209.958 434.011H259.584Z" fill="#DA3337"/>
<path d="M261.191 237.911C261.191 237.911 260.105 249.194 259.357 254.749C258.789 258.959 257.685 265.299 257.184 268.119C257.017 269.058 257.152 270.019 257.546 270.888C259.624 275.477 266.347 291.529 268.789 312.046C271.693 336.446 270.97 364.026 270.97 364.026H196.309C196.309 364.026 195.439 336.899 199.168 313.946C202.339 294.426 210.088 276.007 212.336 270.933C212.733 270.035 212.841 269.046 212.628 268.086C211.979 265.15 210.529 258.531 209.805 254.749C208.856 249.786 207.363 240.322 207.363 240.322L196.309 238.954C196.309 238.954 198.84 223.977 203.231 219.032C210.998 210.286 221.969 211.02 222.375 211.02C222.774 211.02 228.079 213.607 235.496 213.911C239.248 214.065 248.052 212.053 248.052 212.053C248.052 212.053 258.267 211.143 264.729 217.326C271.192 223.509 271.724 235.406 271.724 235.406L261.191 237.911Z" fill="#1E2147"/>
<path d="M259.357 254.749C258.789 258.959 257.685 265.299 257.184 268.119C257.017 269.058 257.152 270.019 257.546 270.888C259.624 275.477 266.347 291.529 268.789 312.046C271.049 331.034 271.113 353.474 271.03 362.494C271.009 364.751 269.169 366.546 266.913 366.546H200.345C198.097 366.546 196.263 364.766 196.24 362.518C196.15 353.643 196.271 331.776 199.168 313.946C202.339 294.426 210.088 276.007 212.336 270.933C212.734 270.035 212.841 269.046 212.628 268.086C211.979 265.15 210.529 258.531 209.805 254.749C208.856 249.786 207.363 240.322 207.363 240.322C207.363 240.322 216.987 211.513 217.376 211.382C217.539 211.328 218.658 211.165 219.826 211.072C220.52 211.017 222.038 211.024 222.038 211.024C222.038 211.024 217.185 239.12 222.375 250.851C224.771 256.265 241.98 256.483 246.736 251.723C251.493 246.964 247.65 212.157 247.65 212.157C247.65 212.157 249.708 211.933 250.801 211.933C251.893 211.933 253.678 212.157 253.678 212.157L261.138 237.992C261.138 237.992 259.376 254.606 259.357 254.749Z" fill="#48BF82"/>
<path d="M270.568 236C271.76 240.974 273.136 252.973 274.834 259.2C278.62 273.087 282.332 305.504 282.332 305.504C282.332 305.504 283.242 308.999 283.242 311.415C283.242 313.831 280.649 318.393 280.649 318.393C280.649 318.393 271.627 322.53 270.098 322.53C268.57 322.53 267.784 321.489 267.301 320.448C266.818 319.407 267.301 316.487 267.301 316.487C267.301 316.487 267.208 310.56 267.703 308.999C268.197 307.437 270.884 303.794 270.884 303.794C270.884 303.794 266.606 275.728 264.412 267.681C264.032 266.287 261.601 260.09 259.343 253.419C259.575 249.786 260.263 247.005 260.574 244.8C261.054 241.393 261.168 239.334 261.462 237.43C267.703 236.8 265.232 237.122 270.568 236Z" fill="#F3B78B" stroke="#D59B86" stroke-width="0.5"/>
<path d="M271.724 311.415C271.724 311.415 271.114 314.073 271.114 315.549C271.114 317.024 269.938 318.071 269.563 318.903C269.187 319.734 269.012 318.971 268.363 318.393C267.714 317.815 267.402 316.805 267.402 316.805" stroke="#D59B86" stroke-width="0.52"/>
<path d="M274.844 317.464C274.844 317.589 274.315 318.638 272.821 320.448C272.307 321.07 270.797 322.53 270.797 322.53" stroke="#D59B86" stroke-width="0.52"/>
<path d="M277.558 317.715C277.558 317.715 277.294 318.85 276.725 319.52C276.155 320.191 274.491 321.326 274.491 321.326" stroke="#D59B86" stroke-width="0.52"/>
<path d="M234.622 223.055C233.04 223.055 231.758 221.787 231.758 220.222C231.758 218.657 233.04 217.388 234.622 217.388C236.204 217.388 237.487 218.657 237.487 220.222C237.487 221.787 236.204 223.055 234.622 223.055Z" fill="#FFDE63"/>
<path d="M234.622 236.302C233.04 236.302 231.758 235.034 231.758 233.469C231.758 231.904 233.04 230.635 234.622 230.635C236.204 230.635 237.487 231.904 237.487 233.469C237.487 235.034 236.204 236.302 234.622 236.302Z" fill="#FFDE63"/>
<path d="M234.622 248.603C233.04 248.603 231.758 247.334 231.758 245.769C231.758 244.204 233.04 242.935 234.622 242.935C236.204 242.935 237.487 244.204 237.487 245.769C237.487 247.334 236.204 248.603 234.622 248.603Z" fill="#FFDE63"/>
<path d="M260.574 277.956L209.516 277.6L212.543 269.73H257.378L260.574 277.956Z" fill="#4C5B9D"/>
<path d="M234.268 131.368C248.058 132.329 259.882 123.914 260.678 112.572C261.474 101.23 250.94 91.2562 237.15 90.2954C223.361 89.3345 211.537 97.7501 210.741 109.092C209.945 120.434 220.478 130.408 234.268 131.368Z" fill="#3C1715"/>
<path d="M193.628 177.616C197.073 177.616 199.865 173.919 199.865 169.358C199.865 164.798 197.073 161.101 193.628 161.101C190.184 161.101 187.391 164.798 187.391 169.358C187.391 173.919 190.184 177.616 193.628 177.616Z" fill="#E1A078"/>
<path d="M273.116 173.835C276.56 173.835 279.353 170.138 279.353 165.578C279.353 161.017 276.56 157.32 273.116 157.32C269.671 157.32 266.879 161.017 266.879 165.578C266.879 170.138 269.671 173.835 273.116 173.835Z" fill="#E1A078"/>
<path d="M234.778 203.445C257.15 203.445 275.286 186.687 275.286 166.016C275.286 145.344 257.15 128.587 234.778 128.587C212.406 128.587 194.27 145.344 194.27 166.016C194.27 186.687 212.406 203.445 234.778 203.445Z" fill="#F3B78B"/>
<path d="M189.365 163.286C189.365 163.286 189.869 111.94 232.815 111.94C275.761 111.94 277.237 159.434 277.237 159.434C277.237 159.434 253 151.261 243.627 147.34C236.052 144.171 227.367 138.242 217.172 138.242C212.45 138.242 205.108 141.068 199.497 148.157C197.03 151.273 194.585 161.166 194.585 161.166C194.585 161.166 193.018 161.002 192.036 161.402C191.055 161.801 189.365 163.286 189.365 163.286Z" fill="#53231B"/>
<path d="M194.549 161.134C194.549 161.134 194.493 121.459 233.089 121.459C271.685 121.459 274.559 158.443 274.559 158.443C274.559 158.443 256.637 153.401 245.063 148.048C236.708 144.184 223.087 136.999 214.413 138.488C202.612 140.515 194.549 161.134 194.549 161.134Z" fill="#723322"/>
<path d="M213.378 174.711C215.066 174.711 216.435 172.68 216.435 170.175C216.435 167.669 215.066 165.638 213.378 165.638C211.689 165.638 210.32 167.669 210.32 170.175C210.32 172.68 211.689 174.711 213.378 174.711Z" fill="black"/>
<path d="M251.593 173.199C253.281 173.199 254.65 171.168 254.65 168.662C254.65 166.157 253.281 164.125 251.593 164.125C249.904 164.125 248.535 166.157 248.535 168.662C248.535 171.168 249.904 173.199 251.593 173.199Z" fill="black"/>
<path d="M213.377 170.175C214.222 170.175 214.906 169.497 214.906 168.662C214.906 167.827 214.222 167.15 213.377 167.15C212.533 167.15 211.849 167.827 211.849 168.662C211.849 169.497 212.533 170.175 213.377 170.175Z" fill="white"/>
<path d="M251.593 168.662C252.437 168.662 253.121 167.985 253.121 167.15C253.121 166.315 252.437 165.638 251.593 165.638C250.748 165.638 250.064 166.315 250.064 167.15C250.064 167.985 250.748 168.662 251.593 168.662Z" fill="white"/>
<path d="M209.938 186.81C212.682 186.81 214.906 184.609 214.906 181.895C214.906 179.18 212.682 176.98 209.938 176.98C207.194 176.98 204.97 179.18 204.97 181.895C204.97 184.609 207.194 186.81 209.938 186.81Z" fill="#EFA481"/>
<path d="M261.529 182.273C264.483 182.273 266.879 179.903 266.879 176.98C266.879 174.057 264.483 171.687 261.529 171.687C258.574 171.687 256.178 174.057 256.178 176.98C256.178 179.903 258.574 182.273 261.529 182.273Z" fill="#EFA481"/>
<path d="M274.559 179.248C276.669 179.248 278.38 177.217 278.38 174.711C278.38 172.206 276.669 170.174 274.559 170.174C272.448 170.174 270.737 172.206 270.737 174.711C270.737 177.217 272.448 179.248 274.559 179.248Z" fill="#DA3337"/>
<path d="M194.27 180.76C196.38 180.76 198.091 178.729 198.091 176.224C198.091 173.718 196.38 171.687 194.27 171.687C192.159 171.687 190.448 173.718 190.448 176.224C190.448 178.729 192.159 180.76 194.27 180.76Z" fill="#DA3337"/>
<path d="M220.326 183.923C220.326 183.923 230.582 185.3 236.195 185.2C241.808 185.1 251.004 183.011 251.004 183.011C251.004 183.011 245.223 195.188 236.605 195.636C227.987 196.085 220.326 183.923 220.326 183.923Z" fill="#AA4F44"/>
<path d="M220.544 184.032C220.544 184.032 230.622 185.491 236.234 185.461C241.847 185.431 250.686 183.213 250.686 183.213C250.686 183.213 245.223 188.183 236.605 188.317C227.987 188.451 220.544 184.032 220.544 184.032Z" fill="white"/>
<path d="M226.627 191.561C226.627 191.561 228.987 191.596 233.74 191.561C238.494 191.527 245.214 191.561 245.214 191.561C245.214 191.561 240.909 195.615 235.933 195.615C230.957 195.615 226.627 191.561 226.627 191.561Z" fill="#CC5F54"/>
<path d="M236.581 167.533C236.581 167.533 238.239 174.33 237.391 176.067C236.542 177.804 231.202 177.593 231.202 177.593C231.202 177.593 235.1 176.268 235.955 174.518C236.81 172.767 236.581 167.533 236.581 167.533Z" fill="#CC8D66"/>
<path d="M215.04 157.052C215.04 157.052 209.594 156.697 207.975 157.543C206.356 158.389 205.852 161.854 205.852 161.854C205.852 161.854 208.129 159.845 209.755 159.401C211.381 158.956 214.832 159.401 214.832 159.401L215.04 157.052Z" fill="#3C1715"/>
<path d="M250.064 157.425C250.064 157.425 255.51 157.07 257.129 157.916C258.748 158.762 259.252 162.227 259.252 162.227C259.252 162.227 256.975 160.218 255.349 159.774C253.723 159.329 250.273 159.774 250.273 159.774L250.064 157.425Z" fill="#3C1715"/>
<path d="M234.905 282.825C230.262 282.825 226.499 279.06 226.499 274.417C226.499 269.774 230.262 266.01 234.905 266.01C239.548 266.01 243.311 269.774 243.311 274.417C243.311 279.06 239.548 282.825 234.905 282.825Z" fill="#4C5B9D" stroke="#7567DB" stroke-width="1.04"/>
<mask id="mask0" mask-type="alpha" maskUnits="userSpaceOnUse" x="225" y="265" width="19" height="19">
<path d="M234.905 282.825C230.262 282.825 226.499 279.06 226.499 274.417C226.499 269.774 230.262 266.01 234.905 266.01C239.548 266.01 243.311 269.774 243.311 274.417C243.311 279.06 239.548 282.825 234.905 282.825Z" fill="white" stroke="white" stroke-width="1.04"/>
</mask>
<g mask="url(#mask0)">
<path fill-rule="evenodd" clip-rule="evenodd" d="M230.018 282.323C230.303 282.323 230.524 282.241 230.681 282.077C230.838 281.913 230.917 281.692 230.917 281.415V277.849L234.208 277.834C234.702 277.825 235.152 277.755 235.557 277.626C236.941 277.17 237.633 276.18 237.633 274.656V272.207C237.628 271.89 237.54 271.654 237.37 271.5C237.211 271.361 237.003 271.292 236.748 271.292C236.474 271.292 236.251 271.366 236.081 271.515C235.926 271.654 235.849 271.863 235.849 272.14V274.21C235.849 274.914 235.658 275.438 235.276 275.78C234.893 276.123 234.247 276.294 233.338 276.294H232.401C231.547 276.304 231.052 276.309 230.917 276.309V272.2C230.917 271.912 230.837 271.686 230.677 271.523C230.532 271.369 230.313 271.292 230.018 271.292C229.733 271.292 229.514 271.371 229.362 271.53C229.209 271.689 229.133 271.912 229.133 272.2V281.415C229.133 281.692 229.212 281.913 229.369 282.077C229.527 282.241 229.743 282.323 230.018 282.323Z" fill="#FFDE63"/>
</g>
<g filter="url(#filter0_d)">
<path fill-rule="evenodd" clip-rule="evenodd" d="M11.8953 80.495C16.3033 122.434 61.2708 132.232 114.879 126.597C123.653 126.492 132.318 125.653 140.614 124.109C144.738 128.521 150.605 134.571 154.239 137.338C158.543 140.616 165.666 143.398 169.447 144.739C170.082 144.964 170.555 144.189 170.077 143.714C167.055 140.698 161.323 134.833 159.488 131.93C156.315 126.909 154.932 123.136 154.33 120.806C186.075 111.297 209.209 90.3787 206.026 60.091C202.126 22.9882 156.673 8.56758 103.065 14.202C49.4576 19.8364 7.82445 41.763 11.8953 80.495Z" fill="white"/>
</g>
<path opacity="0.8" d="M78.3856 61.5442C78.0665 61.5777 77.8059 61.51 77.6039 61.3412C77.4075 61.1717 77.2925 60.9274 77.259 60.6084L76.2223 50.7455L70.0516 51.3941L71.0883 61.2569C71.1218 61.576 71.0573 61.8391 70.8947 62.0463C70.7379 62.2529 70.5027 62.3727 70.1893 62.4056C69.8703 62.4392 69.6097 62.3715 69.4076 62.2026C69.2112 62.0332 69.0962 61.7889 69.0627 61.4698L67.9506 50.889C67.9159 50.5586 67.9744 50.2932 68.1262 50.0929C68.2836 49.892 68.5276 49.7742 68.8581 49.7395L77.0543 48.878C77.3791 48.8439 77.6365 48.909 77.8266 49.0733C78.0224 49.2371 78.1377 49.4842 78.1724 49.8147L79.2845 60.3955C79.3181 60.7145 79.2535 60.9777 79.091 61.1849C78.9341 61.3915 78.699 61.5112 78.3856 61.5442ZM88.5586 58.9368C87.8661 59.9659 86.9187 60.5436 85.7164 60.67C84.3148 60.8173 83.2931 60.5243 82.6515 59.791L83.0724 63.713C83.1065 64.0378 83.0483 64.306 82.8977 64.5177C82.7477 64.7351 82.5218 64.8597 82.2198 64.8914C81.9349 64.9214 81.6968 64.8484 81.5055 64.6727C81.2953 64.4816 81.1738 64.2294 81.1408 63.916L79.9784 52.8566C79.9449 52.5376 80.0108 52.2599 80.176 52.0236C80.3272 51.8176 80.5452 51.6996 80.8301 51.6697C81.4227 51.6074 81.8021 51.9564 81.9684 52.7166C82.4895 51.8093 83.4337 51.2837 84.8012 51.14C86.0718 51.0064 87.1308 51.4079 87.9781 52.3442C88.7531 53.196 89.2101 54.2828 89.349 55.6047C89.4808 56.8582 89.2173 57.9689 88.5586 58.9368ZM86.5852 53.7263C86.0185 53.0485 85.3307 52.7521 84.5216 52.8371C83.6897 52.9245 83.0672 53.3327 82.6542 54.0617C82.3191 54.6557 82.1932 55.3487 82.2765 56.1407C82.3615 56.9498 82.6286 57.6274 83.0777 58.1735C83.6324 58.8468 84.3314 59.1392 85.1746 59.0505C85.9666 58.9673 86.5675 58.5729 86.9773 57.8674C87.3486 57.235 87.4912 56.5085 87.4049 55.6881C87.3271 54.9473 87.0538 54.2934 86.5852 53.7263ZM98.2679 59.4804C97.7323 59.5367 97.4002 59.2 97.2717 58.4704C96.7477 59.3492 95.7734 59.8635 94.349 60.0132C93.312 60.1222 92.4575 59.9125 91.7856 59.384C91.1136 58.8555 90.7249 58.0899 90.6195 57.087L90.0689 51.8479C90.0348 51.5232 90.1029 51.2395 90.2732 50.9969C90.4181 50.7858 90.6387 50.6647 90.935 50.6336C91.2313 50.6024 91.4751 50.6747 91.6664 50.8505C91.8651 51.0427 91.9822 51.307 92.0175 51.6431L92.5188 56.4122C92.5882 57.0731 92.8417 57.5937 93.2792 57.9741C93.7241 58.3709 94.2885 58.5333 94.9722 58.4615C95.6616 58.389 96.1796 58.1099 96.526 57.6242C96.8578 57.163 96.9892 56.6048 96.9203 55.9495L96.4191 51.1805C96.3849 50.8557 96.4502 50.5724 96.6149 50.3304C96.7654 50.1187 96.9832 49.9979 97.2681 49.9679C97.5757 49.9356 97.8252 50.0073 98.0165 50.1831C98.2153 50.3753 98.3324 50.6395 98.3677 50.9757L99.1349 58.2746C99.1678 58.5879 99.107 58.8593 98.9525 59.0887C98.7981 59.3181 98.5698 59.4486 98.2679 59.4804ZM108.771 56.6396C108.653 57.0552 108.48 57.3585 108.253 57.5495C107.603 58.1075 106.688 58.4485 105.509 58.5724L101.765 58.9659C101.435 59.0006 101.17 58.919 100.97 58.7211C100.752 58.5021 100.622 58.2046 100.583 57.8286L99.8517 50.8716C99.811 50.4841 99.8768 50.1517 100.049 49.8744C100.192 49.6462 100.426 49.515 100.751 49.4809L104.238 49.1144C105.606 48.9706 106.583 49.3058 107.169 50.1197C107.344 50.3549 107.447 50.6263 107.48 50.9339C107.534 51.4467 107.456 51.9186 107.248 52.3495C107.016 52.8233 106.659 53.1517 106.177 53.3349C107.805 53.2041 108.702 53.9307 108.868 55.5147C108.909 55.8964 108.876 56.2714 108.771 56.6396ZM103.617 50.6832L101.805 50.8737L102.053 53.2326L103.865 53.0421C105.118 52.9104 105.701 52.4229 105.612 51.5796C105.535 50.8503 104.87 50.5515 103.617 50.6832ZM104.542 54.5523L102.217 54.7966L102.489 57.3862L105.028 57.1194C106.441 56.9709 107.101 56.4608 107.01 55.589C106.92 54.7344 106.097 54.3888 104.542 54.5523ZM117.708 53.2894L111.375 53.9551C111.481 54.8023 111.916 55.4363 112.681 55.8571C113.286 56.191 113.968 56.3181 114.725 56.2384C115.181 56.1905 115.668 56.0242 116.185 55.7394C116.265 55.6791 116.645 55.4261 117.324 54.9803C117.469 54.8843 117.602 54.8301 117.721 54.8175C117.898 54.7989 118.065 54.8562 118.223 54.9894C118.395 55.1385 118.491 55.3127 118.512 55.5121C118.555 55.9281 118.191 56.3783 117.418 56.8628C116.554 57.4144 115.627 57.7423 114.635 57.8465C113.234 57.9938 112.043 57.6552 111.063 56.8307C110.089 56.0056 109.529 54.8922 109.382 53.4906C109.242 52.163 109.559 50.9631 110.334 49.8908C111.078 48.8564 112.096 48.2712 113.39 48.1352C114.324 48.037 115.205 48.2238 116.032 48.6956C116.836 49.1585 117.463 49.8126 117.915 50.658C118.181 51.1601 118.342 51.6789 118.398 52.2145C118.468 52.8754 118.238 53.2338 117.708 53.2894ZM115.402 50.1012C114.899 49.6933 114.279 49.528 113.544 49.6052C112.826 49.6807 112.256 49.9769 111.832 50.4938C111.628 50.7457 111.462 51.0626 111.335 51.4446C111.212 51.8033 111.157 52.1085 111.172 52.3604L116.454 51.8053C116.3 51.1072 115.95 50.5391 115.402 50.1012ZM132.375 55.8697C132.101 55.8984 131.872 55.8246 131.686 55.6482C131.481 55.4452 131.361 55.1813 131.327 54.8565L130.825 50.0875C130.759 49.4607 130.541 48.9479 130.171 48.549C129.776 48.1297 129.262 47.9533 128.629 48.0198C127.985 48.0874 127.514 48.3674 127.214 48.8598C126.935 49.327 126.828 49.8739 126.894 50.5007L127.395 55.2697C127.43 55.6059 127.371 55.8887 127.216 56.118C127.083 56.3279 126.868 56.4485 126.572 56.4796C126.281 56.5101 126.049 56.4366 125.875 56.2591C125.676 56.0668 125.559 55.8026 125.523 55.4664L125.022 50.6974C124.956 50.0706 124.738 49.5578 124.368 49.1589C123.972 48.7396 123.458 48.5632 122.826 48.6297C121.51 48.768 120.931 49.595 121.091 51.1106L121.592 55.8797C121.627 56.2158 121.57 56.4955 121.421 56.7185C121.277 56.9353 121.059 57.059 120.769 57.0895C120.495 57.1183 120.266 57.0445 120.08 56.8681C119.874 56.6651 119.754 56.4012 119.72 56.0764L118.954 48.7861C118.92 48.4613 118.982 48.1782 119.141 47.9368C119.286 47.7258 119.495 47.6058 119.769 47.5771C120.008 47.5519 120.223 47.6244 120.414 47.7945C120.61 47.9582 120.736 48.1725 120.792 48.4373C121.242 47.67 122.133 47.2163 123.466 47.0761C124.509 46.9665 125.378 47.313 126.073 48.1156C126.32 47.6748 126.727 47.2979 127.293 46.985C127.806 46.7065 128.324 46.5397 128.848 46.4846C129.988 46.3648 130.879 46.5649 131.521 47.085C132.162 47.5994 132.538 48.378 132.648 49.4207L133.198 54.6598C133.234 54.9959 133.177 55.2756 133.027 55.4987C132.883 55.7154 132.666 55.8391 132.375 55.8697ZM137.451 51.1366C137.23 51.3384 136.932 51.459 136.556 51.4985C136.203 51.5357 135.897 51.4785 135.639 51.327C135.401 51.1965 135.269 51.0088 135.243 50.7638L134.491 43.6102C134.463 43.3424 134.546 43.1205 134.741 42.9445C134.935 42.7628 135.228 42.6513 135.622 42.61C136.436 42.5244 136.874 42.7721 136.935 43.3533L137.687 50.5069C137.714 50.7633 137.635 50.9732 137.451 51.1366ZM136.976 55.4984C136.64 55.5337 136.329 55.4771 136.042 55.3287C135.713 55.1559 135.532 54.9099 135.498 54.5909C135.464 54.2661 135.59 53.9878 135.877 53.7561C136.126 53.5513 136.419 53.4312 136.755 53.3959C137.091 53.3606 137.403 53.4171 137.689 53.5656C138.018 53.7327 138.199 53.9786 138.233 54.3034C138.267 54.6225 138.14 54.9008 137.854 55.1382C137.605 55.343 137.312 55.463 136.976 55.4984ZM38.7492 88.5132C38.4415 88.5455 38.1895 88.4769 37.9931 88.3075C37.7973 88.1437 37.6829 87.9051 37.65 87.5918L37.3419 84.6603L29.7183 85.4615L30.0264 88.393C30.0593 88.7064 29.997 88.9636 29.8396 89.1644C29.6827 89.371 29.4504 89.4905 29.1428 89.5228C28.8237 89.5564 28.5659 89.4884 28.3696 89.319C28.1738 89.1552 28.0594 88.9166 28.0265 88.6032L27.6438 84.9624C27.5941 84.4894 27.7654 84.146 28.1576 83.9319C28.178 83.9067 28.2133 83.8857 28.2634 83.8689C28.3191 83.8516 28.4136 83.8186 28.5468 83.77C29.3697 83.4877 29.6925 82.5032 29.5152 80.8167L29.5071 80.7398L28.7741 74.094C28.7405 73.775 28.8019 73.5093 28.9582 73.297C29.1055 73.1087 29.3415 72.9975 29.6662 72.9633L35.7258 72.3265C36.0563 72.2917 36.3131 72.3511 36.4963 72.5047C36.6927 72.6742 36.808 72.9213 36.8421 73.2461L37.8482 82.8183C38.3583 82.7935 38.7192 82.8564 38.9309 83.007C39.118 83.1428 39.2301 83.3874 39.2673 83.7407L39.6499 87.3816C39.6829 87.6949 39.6206 87.9521 39.4631 88.153C39.3063 88.3596 39.0683 88.4796 38.7492 88.5132ZM34.9082 74.1665L30.8486 74.5932L31.3686 79.7059C31.5088 81.0392 31.4474 82.3188 31.1845 83.5446L35.8425 83.0551L34.9082 74.1665ZM48.1242 83.8208C47.4632 83.8903 47.0695 83.4881 46.9431 82.6142C46.5822 83.6199 45.6724 84.1994 44.2138 84.3528C43.3079 84.448 42.4855 84.2694 41.7466 83.8171C41.0438 83.3783 40.4927 82.7391 40.0934 81.8997C39.8122 81.3071 39.6339 80.6518 39.5584 79.9339C39.4237 78.6519 39.6687 77.5028 40.2935 76.4866C40.9771 75.3721 41.9428 74.7492 43.1907 74.6181C44.5353 74.4768 45.5571 74.8533 46.256 75.7476C46.2027 75.2405 46.2954 74.8621 46.5341 74.6123C46.7003 74.4393 46.8973 74.3408 47.1253 74.3169C47.5298 74.2744 47.8085 74.3776 47.9614 74.6265C48.0591 74.789 48.1338 75.1153 48.1853 75.6053L48.894 82.3487C48.9557 82.9355 48.9005 83.3417 48.7283 83.5672C48.6218 83.7051 48.4204 83.7896 48.1242 83.8208ZM44.9307 76.4572C44.5787 76.2868 44.1804 76.225 43.736 76.2717C42.9155 76.3579 42.3013 76.7624 41.8934 77.485C41.5352 78.1333 41.4008 78.8819 41.49 79.7309C41.5762 80.5514 41.8525 81.2338 42.3187 81.7782C42.8704 82.423 43.565 82.7014 44.4026 82.6133C45.2002 82.5295 45.8002 82.1266 46.2025 81.4045C46.5612 80.7619 46.6969 80.0247 46.6094 79.1928C46.4693 77.8595 45.9097 76.9477 44.9307 76.4572ZM58.5963 81.0178C58.4787 81.4334 58.3061 81.7367 58.0785 81.9277C57.4285 82.4857 56.5139 82.8267 55.3344 82.9506L51.591 83.3441C51.2605 83.3788 50.9956 83.2972 50.7962 83.0993C50.5773 82.8803 50.4481 82.5828 50.4086 82.2068L49.6774 75.2498C49.6366 74.8623 49.7025 74.5299 49.875 74.2525C50.0181 74.0244 50.252 73.8932 50.5768 73.8591L54.0638 73.4926C55.4313 73.3488 56.4084 73.684 56.9951 74.4979C57.1696 74.733 57.273 75.0045 57.3054 75.3121C57.3593 75.8249 57.2821 76.2968 57.0739 76.7277C56.8415 77.2014 56.4842 77.5299 56.0023 77.7131C57.6304 77.5823 58.5276 78.3089 58.6941 79.8928C58.7343 80.2746 58.7017 80.6496 58.5963 81.0178ZM53.4424 75.0614L51.6305 75.2519L51.8784 77.6107L53.6903 77.4203C54.9438 77.2886 55.5263 76.8011 55.4376 75.9578C55.361 75.2285 54.6959 74.9297 53.4424 75.0614ZM54.3675 78.9305L52.0428 79.1748L52.315 81.7644L54.8533 81.4976C56.2664 81.3491 56.9271 80.839 56.8355 79.9672C56.7456 79.1126 55.923 78.767 54.3675 78.9305ZM68.0892 81.7224C67.4282 81.7918 67.0346 81.3896 66.9081 80.5158C66.5472 81.5215 65.6375 82.101 64.1788 82.2543C63.2729 82.3496 62.4505 82.171 61.7117 81.7187C61.0088 81.2798 60.4577 80.6407 60.0584 79.8013C59.7772 79.2087 59.5989 78.5534 59.5235 77.8355C59.3887 76.5535 59.6338 75.4044 60.2586 74.3882C60.9422 73.2737 61.9079 72.6508 63.1557 72.5197C64.5004 72.3784 65.5221 72.7549 66.221 73.6492C66.1677 73.1421 66.2604 72.7637 66.4992 72.5139C66.6653 72.3409 66.8624 72.2424 67.0903 72.2185C67.4948 72.176 67.7735 72.2792 67.9264 72.5281C68.0242 72.6906 68.0988 73.0169 68.1503 73.5069L68.859 80.2502C68.9207 80.8371 68.8655 81.2433 68.6933 81.4688C68.5868 81.6067 68.3855 81.6912 68.0892 81.7224ZM64.8957 74.3588C64.5437 74.1884 64.1455 74.1266 63.701 74.1733C62.8806 74.2595 62.2664 74.664 61.8584 75.3866C61.5002 76.0349 61.3658 76.7835 61.455 77.6325C61.5413 78.453 61.8175 79.1354 62.2837 79.6797C62.8354 80.3246 63.53 80.603 64.3676 80.5149C65.1653 80.4311 65.7652 80.0282 66.1675 79.3061C66.5262 78.6635 66.6619 77.9263 66.5745 77.0944C66.4343 75.7611 65.8748 74.8493 64.8957 74.3588ZM75.1802 69.4412C74.7238 69.8118 74.1707 70.0312 73.5212 70.0995L73.4443 70.1076C72.789 70.1765 72.2041 70.0651 71.6896 69.7735C71.1745 69.4763 70.8872 69.0456 70.8279 68.4815C70.8076 68.2878 70.8646 68.1176 70.999 67.971C71.1327 67.8187 71.2993 67.7321 71.4987 67.7111C71.7039 67.6895 71.8817 67.7371 72.0322 67.8538C72.1884 67.9699 72.277 68.1276 72.298 68.327C72.3447 68.7715 72.7162 68.9628 73.4125 68.9012C73.4296 68.8994 73.4467 68.8976 73.4638 68.8958C74.0279 68.8365 74.3182 68.5842 74.3348 68.1389C74.3132 67.9338 74.3665 67.7553 74.4945 67.6036C74.6283 67.4513 74.7978 67.3644 75.0029 67.3428C75.2023 67.3218 75.3833 67.372 75.5458 67.4931C75.7077 67.6086 75.7991 67.7661 75.8201 67.9655C75.8207 67.9712 75.8213 67.9769 75.8219 67.9826C75.8818 68.5523 75.6679 69.0386 75.1802 69.4412ZM77.8018 80.7361C77.5568 80.7619 77.3307 80.6935 77.1235 80.5309C76.9214 80.362 76.7977 80.1446 76.7525 79.8786C76.3266 80.6492 75.37 81.1127 73.8829 81.269C72.8459 81.378 71.9923 81.1768 71.3222 80.6654C70.6514 80.1483 70.2646 79.3997 70.1616 78.4197L69.6244 73.3088C69.5902 72.984 69.6536 72.7095 69.8143 72.4852C69.9541 72.2804 70.1807 72.1615 70.4941 72.1286C70.7903 72.0975 71.0341 72.1698 71.2254 72.3455C71.4224 72.5207 71.5383 72.7735 71.573 73.104L72.0617 77.7534C72.1288 78.3915 72.3813 78.9036 72.8194 79.2896C73.2575 79.6756 73.8212 79.8324 74.5106 79.7599C75.2001 79.6875 75.7186 79.4141 76.0662 78.9397C76.3986 78.4843 76.5309 77.9346 76.4632 77.2907L75.9746 72.6414C75.9404 72.3166 76.0009 72.0424 76.156 71.8187C76.3014 71.6133 76.5252 71.4947 76.8271 71.463C77.1348 71.4306 77.3843 71.5023 77.5756 71.6781C77.7726 71.8533 77.8885 72.1061 77.9232 72.4365L78.6715 79.5559C78.7038 79.8636 78.6424 80.1293 78.4874 80.353C78.3323 80.5767 78.1038 80.7044 77.8018 80.7361ZM92.7301 79.1412C92.4566 79.1699 92.2271 79.0961 92.0415 78.9197C91.8358 78.7167 91.7159 78.4528 91.6818 78.128L91.1805 73.359C91.1146 72.7322 90.8966 72.2194 90.5263 71.8205C90.1308 71.4012 89.6168 71.2248 88.9844 71.2912C88.3405 71.3589 87.8688 71.6389 87.5691 72.1313C87.2899 72.5985 87.1832 73.1454 87.2491 73.7722L87.7503 78.5412C87.7856 78.8774 87.7261 79.1602 87.5716 79.3895C87.4381 79.5994 87.2232 79.72 86.9269 79.7511C86.6364 79.7816 86.404 79.7081 86.2298 79.5306C86.031 79.3383 85.9139 79.0741 85.8786 78.7379L85.3773 73.9689C85.3115 73.3421 85.0934 72.8293 84.7231 72.4304C84.3276 72.0111 83.8137 71.8347 83.1812 71.9012C81.865 72.0395 81.2866 72.8665 81.4459 74.3821L81.9471 79.1512C81.9824 79.4873 81.9254 79.7669 81.776 79.99C81.6318 80.2068 81.4143 80.3305 81.1238 80.361C80.8503 80.3898 80.6207 80.316 80.4351 80.1396C80.2294 79.9366 80.1095 79.6727 80.0754 79.3479L79.3091 72.0576C79.275 71.7328 79.3374 71.4497 79.4964 71.2083C79.6413 70.9972 79.8505 70.8773 80.124 70.8486C80.3633 70.8234 80.5783 70.8959 80.769 71.0659C80.9648 71.2297 81.091 71.444 81.1476 71.7088C81.5969 70.9415 82.4883 70.4878 83.8215 70.3476C84.8642 70.238 85.7331 70.5845 86.4281 71.3871C86.6755 70.9463 87.0824 70.5694 87.6486 70.2565C88.1608 69.978 88.679 69.8112 89.2032 69.7561C90.3428 69.6363 91.2337 69.8364 91.876 70.3565C92.5176 70.8709 92.8932 71.6495 93.0028 72.6922L93.5535 77.9313C93.5888 78.2674 93.5318 78.5471 93.3824 78.7702C93.2382 78.9869 93.0207 79.1106 92.7301 79.1412ZM102.677 73.9739L96.3442 74.6395C96.4505 75.4867 96.8859 76.1207 97.6502 76.5415C98.2556 76.8754 98.9372 77.0025 99.695 76.9228C100.151 76.8749 100.637 76.7086 101.155 76.4238C101.235 76.3635 101.614 76.1105 102.293 75.6647C102.439 75.5687 102.571 75.5145 102.691 75.5019C102.868 75.4833 103.035 75.5406 103.193 75.6738C103.364 75.8229 103.46 75.9971 103.481 76.1965C103.525 76.6125 103.16 77.0627 102.388 77.5472C101.524 78.0988 100.596 78.4267 99.6048 78.5309C98.2031 78.6783 97.0125 78.3397 96.0329 77.5151C95.0591 76.69 94.4985 75.5766 94.3512 74.175C94.2116 72.8474 94.5291 71.6475 95.3035 70.5752C96.0474 69.5408 97.066 68.9556 98.3594 68.8196C99.2939 68.7214 100.175 68.9082 101.002 69.3801C101.805 69.8429 102.433 70.497 102.885 71.3425C103.151 71.8445 103.312 72.3633 103.368 72.8989C103.437 73.5599 103.207 73.9182 102.677 73.9739ZM100.372 70.7856C99.8683 70.3777 99.2489 70.2124 98.5139 70.2897C97.796 70.3651 97.2251 70.6613 96.8013 71.1782C96.5974 71.4301 96.4319 71.747 96.305 72.1291C96.1814 72.4877 96.1271 72.793 96.1421 73.0449L101.424 72.4897C101.27 71.7916 100.919 71.2236 100.372 70.7856ZM119.7 76.03C119.072 76.3552 118.436 76.5517 117.792 76.6194C116.425 76.7631 115.26 76.4016 114.299 75.5348C113.37 74.6935 112.834 73.5976 112.692 72.2472C112.553 70.9197 112.876 69.7191 113.662 68.6457C114.428 67.6088 115.464 67.0218 116.769 66.8847C118.022 66.753 118.976 66.9177 119.629 67.3791C119.797 67.4996 119.893 67.6682 119.916 67.8847C119.941 68.124 119.89 68.354 119.764 68.5747C119.666 68.7462 119.529 68.8412 119.353 68.8598C119.142 68.882 118.788 68.8299 118.291 68.7036C117.794 68.5772 117.394 68.5299 117.092 68.5617C116.186 68.6569 115.513 69.0762 115.073 69.8195C114.712 70.4393 114.576 71.1794 114.667 72.0397C114.754 72.8716 115.054 73.5573 115.565 74.0969C116.173 74.7243 116.904 74.9931 117.759 74.9033C118.123 74.865 118.557 74.7186 119.06 74.464C119.486 74.2407 119.722 74.1266 119.768 74.1218C119.996 74.0979 120.192 74.155 120.356 74.2933C120.525 74.4253 120.622 74.6052 120.646 74.8331C120.693 75.2776 120.378 75.6765 119.7 76.03ZM129.516 77.9104C128.749 78.734 127.597 79.2267 126.059 79.3884C125.29 79.4692 124.454 79.413 123.553 79.2198C122.545 79.0088 122.017 78.6697 121.968 78.2025C121.952 78.0486 122.019 77.8687 122.17 77.6627C122.306 77.4756 122.446 77.3746 122.588 77.3596C122.787 77.3387 123.236 77.4182 123.935 77.5982C124.765 77.8164 125.49 77.8928 126.111 77.8275C126.92 77.7425 127.555 77.454 128.016 76.9619C128.478 76.4756 128.666 75.8307 128.582 75.0274L128.473 73.9932L128.328 74.1727C127.813 74.9757 126.892 75.4469 125.564 75.5865C124.237 75.726 123.176 75.3594 122.381 74.4866C121.644 73.6711 121.207 72.6024 121.068 71.2805C120.969 70.3461 121.085 69.4699 121.413 68.6519C122.043 67.0821 123.131 66.2161 124.675 66.0538C126.025 65.9119 127.036 66.2665 127.707 67.1176C127.706 67.1062 127.705 67.0948 127.704 67.0834C127.618 66.2687 127.911 65.8259 128.584 65.7553C128.886 65.7235 129.129 65.793 129.314 65.9637C129.512 66.1502 129.629 66.4087 129.663 66.7392L130.475 74.4568C130.627 75.9041 130.307 77.0553 129.516 77.9104ZM125.216 67.6647C124.424 67.7479 123.825 68.142 123.421 68.847C123.05 69.4793 122.907 70.2029 122.993 71.0177C123.078 71.8268 123.339 72.4993 123.775 73.0353C124.305 73.6882 125.003 73.9691 125.869 73.8781C126.706 73.7901 127.328 73.379 127.735 72.645C128.07 72.051 128.196 71.3608 128.114 70.5745C128.025 69.7313 127.738 69.0298 127.253 68.4702C126.709 67.8475 126.03 67.579 125.216 67.6647ZM139.548 70.0986L133.215 70.7643C133.321 71.6114 133.756 72.2455 134.521 72.6663C135.126 73.0002 135.808 73.1273 136.565 73.0476C137.021 72.9997 137.508 72.8334 138.025 72.5485C138.105 72.4883 138.485 72.2352 139.164 71.7894C139.309 71.6935 139.442 71.6392 139.561 71.6267C139.738 71.6081 139.905 71.6654 140.063 71.7986C140.235 71.9476 140.331 72.1219 140.352 72.3213C140.395 72.7372 140.031 73.1875 139.258 73.6719C138.394 74.2236 137.467 74.5515 136.475 74.6557C135.073 74.803 133.883 74.4644 132.903 73.6399C131.929 72.8148 131.369 71.7014 131.222 70.2997C131.082 68.9722 131.399 67.7722 132.174 66.7C132.918 65.6655 133.936 65.0803 135.23 64.9444C136.164 64.8462 137.045 65.033 137.872 65.5048C138.676 65.9677 139.303 66.6218 139.755 67.4672C140.021 67.9693 140.182 68.4881 140.238 69.0237C140.308 69.6846 140.078 70.0429 139.548 70.0986ZM137.242 66.9104C136.739 66.5025 136.119 66.3372 135.384 66.4144C134.666 66.4899 134.095 66.7861 133.672 67.303C133.468 67.5549 133.302 67.8718 133.175 68.2538C133.052 68.6125 132.997 68.9177 133.012 69.1696L138.294 68.6145C138.14 67.9163 137.79 67.3483 137.242 66.9104ZM149.18 73.1216C148.559 73.1868 148.224 72.9859 148.175 72.5187L147.418 65.3138L143.888 65.6848L144.258 69.5344C144.45 71.3634 144.092 72.6368 143.182 73.3545C142.81 73.6472 142.373 73.8198 141.871 73.8725C141.86 73.8737 141.848 73.8749 141.837 73.8761C141.54 73.9016 141.295 73.8409 141.101 73.6943C140.969 73.5929 140.888 73.4545 140.858 73.279C140.856 73.0949 140.923 72.9381 141.06 72.8086C141.09 72.7708 141.242 72.7116 141.516 72.631C142.32 72.3852 142.651 71.5871 142.509 70.2367L142.501 70.1598L141.92 65.0449C141.871 64.5833 142.161 64.3196 142.787 64.2538L148.189 63.686C148.804 63.6214 149.136 63.8226 149.185 64.2899L150.03 72.3237C150.079 72.7909 149.796 73.0569 149.18 73.1216ZM159.556 72.1089C158.895 72.1783 158.501 71.7761 158.375 70.9023C158.014 71.908 157.104 72.4875 155.645 72.6408C154.739 72.7361 153.917 72.5575 153.178 72.1052C152.475 71.6663 151.924 71.0272 151.525 70.1878C151.244 69.5952 151.065 68.9399 150.99 68.222C150.855 66.94 151.1 65.7909 151.725 64.7747C152.409 63.6602 153.374 63.0373 154.622 62.9062C155.967 62.7648 156.989 63.1413 157.687 64.0357C157.634 63.5286 157.727 63.1502 157.966 62.9004C158.132 62.7274 158.329 62.6289 158.557 62.605C158.961 62.5624 159.24 62.6656 159.393 62.9146C159.491 63.0771 159.565 63.4034 159.617 63.8934L160.326 70.6367C160.387 71.2236 160.332 71.6298 160.16 71.8553C160.053 71.9932 159.852 72.0777 159.556 72.1089ZM156.362 64.7453C156.01 64.5749 155.612 64.5131 155.168 64.5598C154.347 64.646 153.733 65.0505 153.325 65.7731C152.967 66.4214 152.832 67.17 152.922 68.019C153.008 68.8395 153.284 69.5219 153.75 70.0662C154.302 70.7111 154.996 70.9895 155.834 70.9014C156.632 70.8176 157.232 70.4146 157.634 69.6926C157.993 69.05 158.128 68.3128 158.041 67.4809C157.901 66.1476 157.341 65.2358 156.362 64.7453ZM169.478 66.9528L163.145 67.6185C163.251 68.4656 163.687 69.0996 164.451 69.5205C165.056 69.8543 165.738 69.9815 166.496 69.9018C166.952 69.8539 167.438 69.6875 167.956 69.4027C168.036 69.3425 168.415 69.0894 169.094 68.6436C169.24 68.5477 169.372 68.4934 169.492 68.4808C169.668 68.4623 169.836 68.5196 169.994 68.6528C170.165 68.8018 170.261 68.9761 170.282 69.1755C170.326 69.5914 169.961 70.0416 169.188 70.5261C168.325 71.0778 167.397 71.4057 166.406 71.5099C165.004 71.6572 163.813 71.3186 162.834 70.4941C161.86 69.669 161.299 68.5556 161.152 67.1539C161.012 65.8263 161.33 64.6264 162.104 63.5542C162.848 62.5197 163.867 61.9345 165.16 61.7986C166.095 61.7004 166.976 61.8872 167.803 62.359C168.606 62.8219 169.234 63.476 169.685 64.3214C169.951 64.8235 170.112 65.3423 170.169 65.8779C170.238 66.5388 170.008 66.8971 169.478 66.9528ZM167.173 63.7646C166.669 63.3567 166.05 63.1914 165.315 63.2686C164.597 63.3441 164.026 63.6403 163.602 64.1572C163.398 64.409 163.233 64.726 163.106 65.108C162.982 65.4666 162.928 65.7719 162.943 66.0238L168.225 65.4687C168.071 64.7705 167.72 64.2025 167.173 63.7646ZM170.921 69.9898L170.945 69.8143L172.097 62.2706C172.137 61.9956 172.274 61.7076 172.507 61.4066C172.665 61.2057 172.9 61.0888 173.213 61.0558C173.515 61.0241 173.76 61.079 173.948 61.2206C174.079 61.3163 174.26 61.5622 174.492 61.9584L177.43 66.8947L179.124 61.4715C179.253 61.049 179.376 60.7682 179.494 60.6291C179.643 60.4579 179.874 60.3558 180.188 60.3228C180.507 60.2893 180.764 60.3544 180.96 60.5182C181.232 60.7488 181.42 61.0027 181.524 61.2798L183.925 67.6811C184.111 68.0302 184.227 68.3061 184.271 68.5088C184.285 68.588 184.299 68.6902 184.312 68.8156C184.333 69.0207 184.27 69.1886 184.123 69.3194C183.938 69.4828 183.715 69.5782 183.453 69.6058C182.997 69.6537 182.681 69.4364 182.503 68.9539L180.439 63.0443L178.584 69.1584C178.511 69.3907 178.401 69.6615 178.255 69.9707C178.136 70.1041 177.952 70.184 177.701 70.2103C177.428 70.2391 177.215 70.1923 177.064 70.0699C177.001 70.0132 176.849 69.7785 176.61 69.3659L173.507 63.9284L172.734 69.9806C172.672 70.4883 172.411 70.7664 171.949 70.8149C171.659 70.8454 171.419 70.7871 171.231 70.6398C171.08 70.5174 170.976 70.3007 170.921 69.9898ZM68.9877 99.808L69.0125 99.6326L70.1638 92.0889C70.2041 91.8139 70.3408 91.5259 70.5742 91.2248C70.7317 91.0239 70.9671 90.907 71.2805 90.8741C71.5824 90.8424 71.8273 90.8973 72.015 91.0388C72.146 91.1345 72.3274 91.3804 72.5592 91.7766L75.4975 96.7129L77.1914 91.2898C77.3199 90.8672 77.443 90.5864 77.5609 90.4473C77.7099 90.2761 77.9412 90.174 78.2545 90.1411C78.5736 90.1075 78.8311 90.1727 79.0269 90.3364C79.2988 90.5671 79.4868 90.821 79.5908 91.0981L81.9918 97.4993C82.1783 97.8484 82.2937 98.1243 82.3381 98.3271C82.3521 98.4062 82.3658 98.5085 82.3789 98.6338C82.4005 98.839 82.3375 99.0069 82.1899 99.1376C82.0055 99.301 81.7822 99.3965 81.5201 99.424C81.0643 99.4719 80.7477 99.2546 80.5702 98.7721L78.506 92.8625L76.6514 98.9766C76.5779 99.209 76.4681 99.4798 76.322 99.7889C76.2035 99.9223 76.0189 100.002 75.7682 100.029C75.4947 100.057 75.2824 100.011 75.1313 99.8881C75.0677 99.8315 74.9163 99.5968 74.6771 99.1841L71.5737 93.7467L70.8014 99.7988C70.7395 100.307 70.4778 100.585 70.0163 100.633C69.7257 100.664 69.4863 100.605 69.298 100.458C69.1468 100.336 69.0434 100.119 68.9877 99.808ZM90.6507 98.4903C90.1151 98.5466 89.783 98.2099 89.6545 97.4803C89.1304 98.3592 88.1562 98.8734 86.7318 99.0232C85.6948 99.1322 84.8403 98.9224 84.1683 98.3939C83.4964 97.8654 83.1077 97.0998 83.0023 96.097L82.4517 90.8579C82.4175 90.5331 82.4857 90.2494 82.656 90.0068C82.8009 89.7957 83.0215 89.6746 83.3178 89.6435C83.6141 89.6123 83.8578 89.6847 84.0491 89.8604C84.2479 90.0527 84.365 90.3169 84.4003 90.653L84.9016 95.4221C84.971 96.083 85.2245 96.6037 85.662 96.984C86.1069 97.3808 86.6713 97.5433 87.355 97.4714C88.0444 97.3989 88.5624 97.1198 88.9088 96.6341C89.2405 96.1729 89.372 95.6147 89.3031 94.9595L88.8019 90.1904C88.7677 89.8656 88.833 89.5823 88.9977 89.3403C89.1482 89.1286 89.366 89.0078 89.6509 88.9778C89.9585 88.9455 90.208 89.0172 90.3993 89.193C90.5981 89.3852 90.7152 89.6494 90.7505 89.9856L91.5176 97.2845C91.5506 97.5978 91.4898 97.8692 91.3353 98.0986C91.1809 98.328 90.9526 98.4586 90.6507 98.4903ZM100.736 95.8663C100.043 96.8954 99.0955 97.4731 97.8933 97.5994C96.4917 97.7468 95.47 97.4538 94.8284 96.7205L95.2492 100.642C95.2834 100.967 95.2252 101.236 95.0746 101.447C94.9246 101.665 94.6986 101.789 94.3967 101.821C94.1118 101.851 93.8737 101.778 93.6824 101.602C93.4722 101.411 93.3506 101.159 93.3177 100.846L92.1553 89.7861C92.1218 89.467 92.1876 89.1894 92.3529 88.9531C92.5041 88.7471 92.7221 88.6291 93.007 88.5992C93.5996 88.5369 93.979 88.8859 94.1453 89.6461C94.6664 88.7387 95.6106 88.2132 96.9781 88.0695C98.2487 87.9359 99.3076 88.3373 100.155 89.2737C100.93 90.1255 101.387 91.2123 101.526 92.5342C101.658 93.7877 101.394 94.8984 100.736 95.8663ZM98.7621 90.6557C98.1954 89.9779 97.5076 89.6815 96.6985 89.7666C95.8666 89.854 95.2441 90.2622 94.8311 90.9911C94.496 91.5852 94.3701 92.2782 94.4534 93.0701C94.5384 93.8792 94.8055 94.5568 95.2546 95.103C95.8093 95.7763 96.5083 96.0686 97.3515 95.98C98.1435 95.8968 98.7444 95.5024 99.1541 94.7968C99.5255 94.1644 99.668 93.438 99.5818 92.6175C99.504 91.8768 99.2307 91.2229 98.7621 90.6557ZM119.061 95.5129C119.044 95.5147 119.027 95.5165 119.009 95.5183C118.776 95.5429 118.574 95.4863 118.404 95.3486C118.216 95.2014 118.106 94.9767 118.074 94.6748L117.866 92.6919C117.835 92.4013 117.793 91.9709 117.738 91.4005C117.269 92.1987 116.334 92.6714 114.932 92.8188C113.821 92.9355 112.927 92.7271 112.248 92.1935C111.57 91.66 111.178 90.8918 111.073 89.8889L110.861 87.8719C110.827 87.5472 110.895 87.2635 111.065 87.0209C111.21 86.8098 111.428 86.689 111.718 86.6585C112.02 86.6267 112.267 86.6987 112.458 86.8745C112.657 87.0667 112.774 87.331 112.809 87.6671L112.972 89.2141C113.04 89.8636 113.293 90.3814 113.732 90.7674C114.189 91.1744 114.754 91.3426 115.426 91.2719C116.099 91.2013 116.613 90.9111 116.968 90.4013C117.304 89.9282 117.439 89.3782 117.374 88.7514L117.211 87.2045C117.176 86.874 117.239 86.591 117.398 86.3553C117.543 86.1442 117.764 86.0231 118.06 85.9919C118.368 85.9596 118.617 86.0341 118.809 86.2156C119.001 86.3971 119.115 86.6587 119.151 87.0006L119.919 94.308C119.993 95.0088 119.707 95.4105 119.061 95.5129ZM128.786 94.4821C128.25 94.5384 127.918 94.2017 127.79 93.4721C127.266 94.351 126.291 94.8653 124.867 95.015C123.83 95.124 122.976 94.9142 122.304 94.3857C121.632 93.8572 121.243 93.0916 121.138 92.0888L120.587 86.8497C120.553 86.5249 120.621 86.2412 120.791 85.9987C120.936 85.7876 121.157 85.6664 121.453 85.6353C121.749 85.6042 121.993 85.6765 122.184 85.8522C122.383 86.0445 122.5 86.3087 122.536 86.6449L123.037 91.4139C123.106 92.0749 123.36 92.5955 123.797 92.9758C124.242 93.3726 124.807 93.5351 125.49 93.4632C126.18 93.3908 126.698 93.1116 127.044 92.6259C127.376 92.1647 127.507 91.6065 127.438 90.9513L126.937 86.1822C126.903 85.8575 126.968 85.5741 127.133 85.3321C127.283 85.1204 127.501 84.9996 127.786 84.9697C128.094 84.9373 128.343 85.009 128.535 85.1848C128.733 85.3771 128.85 85.6413 128.886 85.9774L129.653 93.2763C129.686 93.5897 129.625 93.8611 129.471 94.0904C129.316 94.3198 129.088 94.4504 128.786 94.4821ZM146.151 95.6035L146.083 95.6107C145.866 95.6335 145.677 95.5583 145.515 95.3853C145.359 95.2173 145.265 94.9767 145.232 94.6633L145.015 92.6035C144.328 92.6931 143.944 92.7421 143.864 92.7504C143.391 92.8001 143.052 92.4786 142.847 91.7859C142.219 92.6122 141.364 93.0823 140.282 93.1961C140.276 93.1967 140.27 93.1973 140.265 93.1979C139.107 93.3138 138.147 92.974 137.384 92.1786C137.049 92.7726 136.572 93.1972 135.953 93.4523C135.579 93.6126 135.052 93.7285 134.374 93.7997C133.377 93.9045 132.555 93.7 131.907 93.1862C131.285 92.6871 130.92 91.9305 130.813 90.9163L130.273 85.7797C130.24 85.4607 130.303 85.1804 130.462 84.9391C130.601 84.7343 130.808 84.6175 131.082 84.5887C131.372 84.5582 131.607 84.6286 131.786 84.7998C131.979 84.987 132.093 85.2486 132.128 85.5848L132.619 90.2598C132.683 90.8638 132.893 91.3544 133.249 91.7317C133.665 92.1777 134.18 92.3684 134.796 92.3037C135.428 92.2372 135.901 91.9427 136.215 91.42C136.485 90.9769 136.589 90.4533 136.525 89.8493L136.034 85.1743C135.999 84.8438 136.056 84.5642 136.205 84.3354C136.339 84.1312 136.551 84.0138 136.842 83.9833C137.133 83.9528 137.365 84.0234 137.538 84.1953C137.737 84.3875 137.854 84.6489 137.889 84.9794L138.38 89.6544C138.443 90.2584 138.653 90.749 139.01 91.1263C139.425 91.5723 139.941 91.7629 140.556 91.6982C141.861 91.5611 142.435 90.7433 142.277 89.2448L141.786 84.5697C141.752 84.2507 141.818 83.9701 141.983 83.7282C142.122 83.5234 142.326 83.4069 142.594 83.3787C142.884 83.3482 143.122 83.4183 143.307 83.5889C143.494 83.7767 143.605 84.0386 143.64 84.3748L144.389 91.4942L145.825 91.3433C146.332 91.29 146.621 91.6023 146.692 92.2804L146.929 94.5367C146.956 94.7874 146.894 95.0214 146.744 95.2388C146.594 95.4562 146.396 95.5778 146.151 95.6035ZM154.602 87.6211L148.268 88.2867C148.375 89.1339 148.81 89.7679 149.574 90.1887C150.18 90.5226 150.861 90.6497 151.619 90.57C152.075 90.5221 152.562 90.3558 153.079 90.071C153.159 90.0107 153.539 89.7577 154.218 89.3119C154.363 89.2159 154.496 89.1617 154.615 89.1491C154.792 89.1305 154.959 89.1878 155.117 89.321C155.288 89.4701 155.385 89.6443 155.405 89.8437C155.449 90.2597 155.085 90.7099 154.312 91.1944C153.448 91.746 152.52 92.0739 151.529 92.1781C150.127 92.3254 148.937 91.9868 147.957 91.1623C146.983 90.3372 146.423 89.2238 146.275 87.8222C146.136 86.4946 146.453 85.2947 147.228 84.2224C147.972 83.188 148.99 82.6028 150.284 82.4668C151.218 82.3686 152.099 82.5554 152.926 83.0273C153.73 83.4901 154.357 84.1442 154.809 84.9897C155.075 85.4917 155.236 86.0105 155.292 86.5461C155.362 87.207 155.131 87.5654 154.602 87.6211ZM152.296 84.4328C151.793 84.0249 151.173 83.8596 150.438 83.9369C149.72 84.0123 149.149 84.3085 148.726 84.8254C148.522 85.0773 148.356 85.3942 148.229 85.7763C148.106 86.1349 148.051 86.4402 148.066 86.6921L153.348 86.1369C153.194 85.4388 152.844 84.8708 152.296 84.4328Z" fill="black"/>
<defs>
<filter id="filter0_d" x="0" y="0" width="220.433" height="168.482" filterUnits="userSpaceOnUse" color-interpolation-filters="sRGB">
<feFlood flood-opacity="0" result="BackgroundImageFix"/>
<feColorMatrix in="SourceAlpha" type="matrix" values="0 0 0 0 0 0 0 0 0 0 0 0 0 0 0 0 0 0 127 0"/>
<feOffset dy="2"/>
<feGaussianBlur stdDeviation="3"/>
<feColorMatrix type="matrix" values="0 0 0 0 0 0 0 0 0 0 0 0 0 0 0 0 0 0 0.5 0"/>
<feBlend mode="normal" in2="BackgroundImageFix" result="effect1_dropShadow"/>
<feBlend mode="normal" in="SourceGraphic" in2="effect1_dropShadow" result="shape"/>
</filter>
</defs>
</svg>
