<svg width="132" height="40" viewBox="0 0 132 40" fill="none" xmlns="http://www.w3.org/2000/svg">
<path d="M19.0578 38.4935C29.5831 38.4935 38.1155 29.8859 38.1155 19.268C38.1155 8.65003 29.5831 0.0424805 19.0578 0.0424805C8.53245 0.0424805 0 8.65003 0 19.268C0 29.8859 8.53245 38.4935 19.0578 38.4935Z" fill="white"/>
<mask id="mask0" mask-type="alpha" maskUnits="userSpaceOnUse" x="0" y="0" width="39" height="39">
<path d="M19.0578 38.4935C29.5831 38.4935 38.1155 29.8859 38.1155 19.268C38.1155 8.65003 29.5831 0.0424805 19.0578 0.0424805C8.53245 0.0424805 0 8.65003 0 19.268C0 29.8859 8.53245 38.4935 19.0578 38.4935Z" fill="white"/>
</mask>
<g mask="url(#mask0)">
<path fill-rule="evenodd" clip-rule="evenodd" d="M30.8686 38.5374C30.1803 38.5374 29.646 38.3379 29.2656 37.9387C28.8852 37.5396 28.695 37.0014 28.695 36.324V27.6338L20.7433 27.5975C19.5478 27.5733 18.461 27.404 17.4829 27.0895C14.1379 25.9768 12.4655 23.5639 12.4655 19.8507V13.8818C12.4775 13.1078 12.6889 12.5333 13.0994 12.1583C13.4858 11.8197 13.987 11.6503 14.6028 11.6503C15.267 11.6503 15.8043 11.8318 16.2149 12.1946C16.5893 12.5333 16.7764 13.0412 16.7764 13.7186V18.7622C16.7764 20.4797 17.2383 21.7557 18.1621 22.5902C19.0859 23.4248 20.6466 23.842 22.8444 23.842H25.1086C27.1735 23.8662 28.369 23.8783 28.695 23.8783V13.8637C28.695 13.1622 28.8882 12.6119 29.2747 12.2127C29.6248 11.8378 30.1562 11.6503 30.8686 11.6503C31.5569 11.6503 32.0852 11.8438 32.4535 12.2309C32.8219 12.6179 33.006 13.1622 33.006 13.8637V36.324C33.006 37.0014 32.8158 37.5396 32.4354 37.9387C32.0551 38.3379 31.5328 38.5374 30.8686 38.5374Z" fill="#7567DB"/>
</g>
<path fill-rule="evenodd" clip-rule="evenodd" d="M62.0997 38.0887C61.4488 38.0887 60.9369 37.8935 60.5641 37.5029C60.1913 37.1124 60.0049 36.5857 60.0049 35.923L60.0226 19.5023L46.0156 37.1479C45.8262 37.3727 45.5126 37.5976 45.0747 37.8225C44.7314 38 44.4415 38.0887 44.2048 38.0887C43.5538 38.0887 43.0449 37.8935 42.678 37.5029C42.3111 37.1124 42.1277 36.5857 42.1277 35.923V13.9459C42.1277 13.2595 42.3052 12.7269 42.6603 12.3482C43.0153 11.9695 43.5302 11.7802 44.2048 11.7802C44.8912 11.7802 45.4149 11.9695 45.7759 12.3482C46.1369 12.7269 46.3174 13.2595 46.3174 13.9459V30.2068L60.2889 12.721C60.4783 12.4725 60.8097 12.2299 61.2831 11.9932C61.5908 11.8512 61.863 11.7802 62.0997 11.7802C62.7743 11.7802 63.2921 11.9695 63.6531 12.3482C64.0141 12.7269 64.1946 13.2595 64.1946 13.9459V35.923C64.1946 36.5857 64.0082 37.1124 63.6353 37.5029C63.2625 37.8935 62.7507 38.0887 62.0997 38.0887ZM84.638 37.6432C83.0753 38.2101 81.3278 38.4935 79.3953 38.4935C75.602 38.4935 72.5006 37.1708 70.091 34.5255C67.7649 31.9746 66.6019 28.8451 66.6019 25.1368C66.6019 21.3105 67.8007 18.116 70.1983 15.5533C72.5483 13.0379 75.6139 11.7802 79.3953 11.7802C82.6042 11.7802 84.9481 12.4415 86.4273 13.7642C86.8448 14.1421 87.0535 14.644 87.0535 15.2699C87.0535 15.7659 86.9044 16.1822 86.6062 16.5188C86.308 16.8553 85.9203 17.0236 85.4432 17.0236C85.2165 17.0236 84.5247 16.811 83.3676 16.3859C82.0912 15.9135 80.7671 15.6773 79.3953 15.6773C76.6875 15.6773 74.5702 16.7047 73.0433 18.7596C71.7431 20.5075 71.093 22.6686 71.093 25.2431C71.093 27.8885 71.7908 30.0496 73.1865 31.7266C74.7611 33.6397 76.8307 34.5963 79.3953 34.5963C80.8029 34.5963 82.1807 34.307 83.5286 33.7283C84.6618 33.2323 85.3776 32.9843 85.6758 32.9843C86.4869 32.9843 87.0535 33.439 87.3756 34.3483C87.4352 34.5255 87.4651 34.6672 87.4651 34.7735C87.4651 36.0017 86.5227 36.9582 84.638 37.6432ZM104.405 15.815H99.0751V35.9389C99.0751 36.5968 98.8834 37.1196 98.5001 37.5072C98.1167 37.8949 97.5843 38.0887 96.9028 38.0887C96.2091 38.0887 95.6706 37.8949 95.2872 37.5072C94.9039 37.1196 94.7122 36.5968 94.7122 35.9389V15.815H89.3818C88.7855 15.815 88.317 15.6534 87.9762 15.3304C87.6354 15.0073 87.4651 14.5638 87.4651 13.9999C87.4651 13.5065 87.6507 13.0807 88.0218 12.7224C88.393 12.3641 88.8463 12.1849 89.3818 12.1849H104.405C104.965 12.1849 105.425 12.3552 105.784 12.6959C106.143 13.0366 106.322 13.4713 106.322 13.9999C106.322 14.5873 106.161 15.0367 105.838 15.348C105.516 15.6593 105.038 15.815 104.405 15.815ZM128.484 34.6317C126.104 37.2063 123.06 38.4935 119.353 38.4935C115.597 38.4935 112.53 37.1708 110.15 34.5255C107.866 31.9864 106.723 28.8569 106.723 25.1368C106.723 21.3341 107.854 18.181 110.114 15.6773C112.47 13.0792 115.55 11.7802 119.353 11.7802C123.048 11.7802 126.104 13.1205 128.52 15.8013C130.84 18.364 132 21.4758 132 25.1368C132 28.9277 130.828 32.0927 128.484 34.6317ZM122.989 16.2401C121.948 15.6953 120.739 15.4229 119.362 15.4229C116.692 15.4229 114.591 16.4546 113.058 18.5181C111.777 20.2337 111.137 22.3725 111.137 24.9344C111.137 27.5659 111.813 29.7569 113.166 31.5073C114.663 33.4665 116.728 34.446 119.362 34.446C122.067 34.446 124.169 33.4201 125.665 31.3682C126.946 29.6062 127.587 27.4616 127.587 24.9344C127.587 20.7496 126.054 17.8515 122.989 16.2401Z" fill="white"/>
</svg>
