<svg width="51" height="34" viewBox="0 0 51 34" fill="none" xmlns="http://www.w3.org/2000/svg">
<path fill-rule="evenodd" clip-rule="evenodd" d="M51 8.7887C50.9988 8.0068 50.7711 7.21383 50.2676 6.56019L46.2266 1.33867C45.5498 0.470769 44.5199 0.0288698 43.4908 0.0271598C42.8783 0.0271598 42.2546 0.185692 41.7036 0.532734L37.7634 3.0083C37.349 3.27517 36.6386 3.45834 35.9524 3.45362C35.4193 3.45593 34.9041 3.3482 34.564 3.1785L30.7055 1.29109C30.0831 0.988515 29.3894 0.864485 28.6917 0.863278C27.6897 0.868006 26.675 1.11667 25.8596 1.68733L25.4094 2.0063C25.0665 1.83351 24.5511 1.57454 23.9645 1.27973L23.9617 1.27834L23.8766 1.23557C23.1295 0.865692 22.251 0.716515 21.3637 0.713598C20.5622 0.715911 19.7608 0.840645 19.0572 1.14081L16.4291 2.27327C16.0014 2.46057 15.321 2.58289 14.6453 2.57988C13.9695 2.58279 13.2904 2.46047 12.8627 2.27327L10.2322 1.14021C9.75236 0.933592 9.23947 0.845272 8.73116 0.844669C8.14586 0.845272 7.56404 0.961757 7.02326 1.18296C6.48318 1.40537 5.98184 1.7337 5.58261 2.18425L0.793392 7.60071C0.262574 8.19933 -0.0010923 8.95317 3.40086e-06 9.69523C-0.0010923 10.5801 0.373837 11.4679 1.097 12.09L5.56448 15.9391L3.44519 18.1717C2.86098 18.7874 2.57012 19.5857 2.57012 20.3751C2.56903 21.2149 2.89933 22.0629 3.55357 22.6873L3.98348 23.0998C4.38859 23.4879 4.87538 23.7347 5.38479 23.8664C5.12929 24.341 4.98964 24.8613 4.99073 25.3827C4.98964 26.2232 5.31994 27.0705 5.97298 27.6956L5.97188 27.695L6.40309 28.1093C7.01689 28.6969 7.81257 28.9895 8.59649 28.989C9.01784 28.9896 9.43968 28.9041 9.83613 28.7367C9.97528 29.3068 10.2627 29.8487 10.7147 30.2817L11.1459 30.6961C11.7597 31.2836 12.5541 31.5762 13.3393 31.5757C13.9531 31.5763 14.5697 31.3937 15.1005 31.0391C15.2558 31.5435 15.5218 32.0217 15.9268 32.4102L16.3581 32.8246C16.9706 33.4121 17.7662 33.7048 18.5504 33.7043C19.3854 33.7049 20.2287 33.3736 20.8515 32.717L22.7246 30.7417L25.2693 33.1201C25.8784 33.6907 26.6603 33.9745 27.432 33.9728C28.2799 33.9747 29.1352 33.6316 29.7594 32.9569L30.1656 32.5174C30.5162 32.137 30.7451 31.6869 30.8779 31.217L31.8636 32.1358C32.4739 32.7041 33.2546 32.9867 34.0253 32.9861C34.8742 32.9867 35.732 32.6437 36.3567 31.9684L36.7606 31.5295C37.2271 31.0262 37.4897 30.4028 37.5708 29.7662C37.8309 29.8335 38.0946 29.8792 38.3606 29.8792C39.2095 29.8792 40.0649 29.5367 40.6902 28.8621L41.0953 28.4231C41.6615 27.8103 41.9432 27.0244 41.942 26.2495C41.942 26.009 41.9079 25.7697 41.8551 25.5332C42.5592 25.4389 43.2419 25.1218 43.7611 24.5588L44.1673 24.1193C44.7335 23.5065 45.014 22.7205 45.014 21.9451C45.0151 21.0919 44.6744 20.2309 44.0021 19.6036L43.2424 18.8949L50.0993 11.2389C50.7149 10.5497 50.9989 9.66244 51 8.7887ZM6.17718 22.2373C5.8139 22.2362 5.4586 22.105 5.18099 21.8394L4.75037 21.4268C4.45244 21.1424 4.30532 20.7638 4.30412 20.3752C4.30532 20.0106 4.43451 19.6547 4.70057 19.3744L9.04115 14.8002C9.32394 14.5022 9.70126 14.353 10.0883 14.3525C10.4505 14.3531 10.8046 14.4848 11.0845 14.7511L11.5134 15.1642C11.5134 15.1642 11.9573 15.8272 11.9584 16.2164C11.9573 16.5078 11.8704 16.7917 11.7017 17.0375C11.6873 17.0521 7.01689 21.9675 7.01689 21.9675C6.76886 22.1448 6.47561 22.236 6.17718 22.2373ZM8.59779 27.2464C8.98487 27.2452 9.36159 27.0966 9.64378 26.7998L15.4319 20.698C15.6968 20.4176 15.8271 20.0612 15.8283 19.6967C15.8272 19.3075 15.6799 18.9282 15.3833 18.645L14.9521 18.2306C14.6734 17.9644 14.3191 17.8333 13.9559 17.8327C13.5879 17.8333 13.2316 17.972 12.9551 18.2406C12.9064 18.2992 7.12048 24.3815 7.12048 24.3815C6.85572 24.6619 6.72533 25.0178 6.72533 25.3823C6.72533 25.771 6.87375 26.1507 7.16929 26.434L7.17038 26.4346L7.60159 26.8484C7.8803 27.1141 8.23451 27.2458 8.59779 27.2464ZM14.3859 29.3859C14.1043 29.6833 13.7277 29.8321 13.3405 29.8332C12.9772 29.8326 12.623 29.7009 12.3443 29.4346L11.9119 29.0208C11.6153 28.7369 11.4668 28.3578 11.4668 27.9691C11.4668 27.6438 11.5764 27.3283 11.7861 27.0655L15.8155 22.8184C16.0873 22.5709 16.428 22.4404 16.781 22.4404C17.1443 22.441 17.4985 22.5721 17.7772 22.8383L18.2096 23.2527C18.5051 23.5359 18.6536 23.9152 18.6546 24.3038C18.6535 24.669 18.522 25.0254 18.2582 25.3051L14.3859 29.3859ZM19.5971 31.5146L22.0421 28.9376C22.3069 28.6579 22.4373 28.3015 22.4387 27.9363C22.4375 27.5477 22.2903 27.1685 21.9947 26.8852L21.5623 26.4714C21.2836 26.2045 20.9283 26.0735 20.5662 26.0729C20.1791 26.0735 19.8017 26.2228 19.519 26.52L17.075 29.0969C16.8101 29.376 16.6797 29.7324 16.6786 30.0976C16.6797 30.4863 16.8281 30.8661 17.1237 31.1493L17.5549 31.5632C17.8336 31.8294 18.1878 31.9611 18.5511 31.9617C18.9381 31.9606 19.3154 31.8118 19.5971 31.5146ZM43.2826 21.9474C43.2821 22.3053 43.1551 22.6559 42.8978 22.9344L42.4927 23.3734C42.2099 23.6789 41.8262 23.8334 41.4333 23.834C41.0769 23.8334 40.728 23.707 40.4511 23.4484L33.6243 17.0728L32.4439 18.3492L39.751 25.1853C40.0553 25.4698 40.2082 25.8561 40.2105 26.2505C40.2082 26.6098 40.0824 26.9598 39.8257 27.2384L39.4218 27.6774C39.139 27.9829 38.7553 28.1368 38.3625 28.138C38.0061 28.1369 37.656 28.0099 37.3813 27.753L30.5528 21.3775L29.3735 22.6539L35.4335 28.3131C35.7256 28.5958 35.8752 28.9721 35.8752 29.3583C35.8752 29.7165 35.7494 30.067 35.4927 30.345L35.0876 30.784C34.8059 31.0895 34.4211 31.244 34.0272 31.2451C33.6696 31.244 33.3207 31.1169 33.0449 30.86L26.997 25.2213H26.9959L26.9948 25.2202L25.8179 26.4989L25.8191 26.5L25.8417 26.5216L28.8708 29.3448C29.1391 29.6234 29.2782 29.9804 29.2793 30.3496C29.2782 30.706 29.1535 31.0548 28.8968 31.3329L28.4917 31.7724C28.2089 32.0779 27.8264 32.2312 27.4346 32.2324C27.0782 32.2313 26.7293 32.1049 26.4535 31.8468L23.8161 29.3806C24.0456 28.926 24.1737 28.4325 24.1737 27.9374C24.1748 27.0976 23.8445 26.2508 23.1915 25.6252L22.7591 25.2109C22.1466 24.6238 21.352 24.3307 20.5679 24.3318C20.5329 24.3318 20.4977 24.3365 20.4628 24.3411L20.4628 24.3411C20.437 24.3445 20.4114 24.3479 20.3861 24.3494C20.3861 24.3421 20.3869 24.3347 20.3878 24.3272C20.3886 24.3197 20.3894 24.3123 20.3894 24.305C20.3905 23.4651 19.4072 21.9916 19.4072 21.9916L18.976 21.5784C18.5176 21.1394 17.9583 20.8656 17.3766 20.7556C17.4965 20.4127 17.5643 20.0557 17.5643 19.6981C17.5643 18.8582 17.2351 18.0107 16.5821 17.3859L16.1509 16.9715C15.5371 16.384 14.7427 16.0908 13.9586 16.0914C13.8999 16.0914 13.8417 16.0991 13.7834 16.1067H13.7834L13.7833 16.1068C13.7508 16.1111 13.7182 16.1154 13.6856 16.1183C13.6607 15.3119 13.3391 14.506 12.7132 13.9056V13.905L12.2832 13.4925C11.6694 12.9043 10.8751 12.6111 10.0909 12.6117C9.25461 12.6111 8.41261 12.9423 7.78976 13.599L6.76517 14.6787L2.22637 10.7693C1.90015 10.4873 1.73729 10.0975 1.7361 9.69724C1.73719 9.36187 1.85025 9.03354 2.0913 8.76093L6.88042 3.34457C7.07048 3.12921 7.35157 2.93436 7.68078 2.79906C8.00999 2.66387 8.38373 2.58963 8.73316 2.59014C9.03746 2.59014 9.32304 2.64576 9.55145 2.74525L12.1807 3.87821C12.9219 4.19367 13.7825 4.32303 14.6473 4.32585C15.5131 4.32293 16.3725 4.19357 17.1138 3.87821L19.7419 2.74575C20.147 2.5673 20.7583 2.45665 21.3662 2.45896C22.0385 2.45484 22.7118 2.59537 23.1024 2.79665C23.3504 2.92128 23.5857 3.03958 23.8042 3.15013L21.1239 5.05282C20.2626 5.66442 19.7985 6.63704 19.7997 7.61852C19.7986 8.26814 20.0025 8.92943 20.4174 9.49063L20.4163 9.48942L20.7704 9.96985C21.4426 10.8724 22.4909 11.3364 23.5387 11.3387C24.1304 11.3387 24.7331 11.1877 25.2703 10.8623L26.8732 9.89018C27.2001 9.68829 27.6938 9.56074 28.2043 9.56305C28.8041 9.55953 29.4086 9.73869 29.772 10.0084L34.2065 13.219C35.1934 13.933 36.8009 15.2573 37.6917 16.0908L42.8245 20.8832C43.1284 21.1678 43.2814 21.5524 43.2826 21.9474ZM41.9746 17.7094L48.8124 10.0739C49.0975 9.75961 49.2685 9.27848 49.2678 8.7895C49.2678 8.35223 49.1328 7.93035 48.8998 7.63129L44.8589 2.40978C44.557 2.01244 44.0239 1.76901 43.4918 1.77011C43.1771 1.77011 42.8752 1.85209 42.6236 2.01063L38.6823 4.48669C37.883 4.98241 36.9129 5.19305 35.9533 5.19777C35.2064 5.19596 34.4641 5.0655 33.8062 4.74652L29.9479 2.85912C29.6332 2.7022 29.1737 2.60452 28.6927 2.60683C28.0002 2.6016 27.2712 2.81174 26.8614 3.1113L22.122 6.47408C21.7337 6.75091 21.5332 7.17692 21.5309 7.6159C21.5322 7.90621 21.6196 8.19299 21.8074 8.4487L21.8086 8.44991L22.1615 8.92973C22.4616 9.34235 22.9999 9.59585 23.5378 9.59404C23.8387 9.59343 24.1284 9.51728 24.3741 9.36811L25.9758 8.39599C26.6492 7.99111 27.4292 7.8207 28.2035 7.81839C29.1133 7.82181 30.0336 8.05428 30.7853 8.59204L35.2186 11.8026C36.2942 12.5828 37.8977 13.9048 38.8701 14.8113L41.9746 17.7094Z" fill="#6254C9"/>
</svg>
