<svg width="95" height="76" viewBox="0 0 95 76" fill="none" xmlns="http://www.w3.org/2000/svg">
<path fill-rule="evenodd" clip-rule="evenodd" d="M68.8944 75.9646H47.9062C45.2672 75.9646 43.1201 73.8251 43.1201 71.1953V33.695C43.1201 33.3566 43.2262 33.0429 43.4071 32.785C43.4256 32.7456 43.4459 32.7067 43.4679 32.6684L48.49 23.924C49.0236 22.9951 49.9628 22.3258 51.0774 22.0393V16.3846C51.0774 15.0697 52.1509 14 53.4704 14H63.3299C64.6494 14 65.7229 15.0697 65.7229 16.3846V22.0392C66.8375 22.3258 67.7766 22.9949 68.3103 23.9238L73.3325 32.6682C73.3546 32.7067 73.375 32.7456 73.3933 32.785C73.5742 33.0427 73.6803 33.3566 73.6803 33.6949V71.1952C73.6805 73.8251 71.5334 75.9646 68.8944 75.9646ZM76.0294 75.9646H89.6266C92.192 75.9646 94.2789 73.9939 94.2785 71.5719V60.0183L94.2785 60.0039L94.2781 59.976L94.2785 59.9511L94.2785 59.9337V53.3978V50.1889V46.9137V43.705V38.3024C94.2808 38.1388 94.2575 37.974 94.208 37.8142C94.1567 37.6486 94.0791 37.4945 93.9797 37.3568L89.4248 30.8603C88.9878 30.2399 88.2841 29.7712 87.4519 29.5172V24.9241C87.4519 23.6092 86.3784 22.5395 85.0589 22.5395H76.8271C75.5075 22.5395 74.434 23.6092 74.434 24.9241V30.8929C74.434 31.7709 75.1482 32.4827 76.0294 32.4827H85.9911C86.4443 32.4827 86.7453 32.6278 86.8216 32.6989L90.4578 37.8851H77.5244C76.6433 37.8851 75.929 38.5968 75.929 39.4748C75.929 40.3529 76.6433 41.0646 77.5244 41.0646H91.0878V44.7552C90.8707 44.8822 90.6618 45.0192 90.4629 45.1663L90.4562 45.1714C89.0108 46.2433 86.5003 46.3069 85.4818 45.2974C84.8572 44.6782 83.847 44.6811 83.2256 45.3035C82.6042 45.9259 82.6069 46.9325 83.2317 47.5517C85.2203 49.5227 88.6178 49.5691 91.088 48.4602V51.2394C90.8684 51.3679 90.6575 51.5065 90.4552 51.6564C89.0093 52.7274 86.4998 52.7904 85.4813 51.7812C84.8566 51.1622 83.8464 51.1649 83.2252 51.7876C82.6039 52.4101 82.6068 53.4166 83.2315 54.0358C85.2203 56.0064 88.618 56.0528 91.0881 54.9445V58.4284H77.5247C76.6436 58.4284 75.9293 59.1401 75.9293 60.0182C75.9293 60.8962 76.6436 61.6079 77.5247 61.6079H91.0881V71.5718C91.0881 72.2409 90.4324 72.7851 89.6266 72.7851H76.0294C75.1482 72.7851 74.434 73.4968 74.434 74.3748C74.434 75.2528 75.1482 75.9646 76.0294 75.9646ZM84.2613 29.3033H79.2134V29.3032H77.6249V25.719H84.2613V29.3033ZM46.3109 71.1953V59.2301H70.4897V71.1953C70.4897 72.0719 69.7741 72.7851 68.8944 72.7851H47.9062C47.0266 72.7851 46.3109 72.0719 46.3109 71.1953ZM46.3109 56.0506H70.4897V35.2848H46.3109V56.0506ZM69.3329 32.1053H47.4677L51.2594 25.5034C51.3818 25.29 51.7947 25.0635 52.3186 25.0635H64.482C65.006 25.0635 65.4188 25.29 65.5412 25.5032L69.3329 32.1053ZM54.2683 21.884H62.5323V17.1795H54.2683V21.884ZM54.4159 45.1469C55.693 45.1469 56.7284 44.1975 56.7284 43.0265C56.7284 41.8553 55.693 40.9061 54.4159 40.9061C53.1388 40.9061 52.1034 41.8553 52.1034 43.0265C52.1034 44.1975 53.1388 45.1469 54.4159 45.1469ZM62.3848 40.9061C61.1077 40.9061 60.0723 41.8555 60.0723 43.0265C60.0723 44.1975 61.1077 45.1469 62.3848 45.1469C63.6619 45.1469 64.6973 44.1975 64.6973 43.0265C64.6973 41.8553 63.662 40.9061 62.3848 40.9061ZM56.0695 49.2783C56.0695 48.1073 57.1049 47.1579 58.382 47.1579C59.6591 47.1579 60.6943 48.1073 60.6945 49.2783C60.6945 50.4493 59.6591 51.3987 58.382 51.3987C57.1049 51.3987 56.0695 50.4495 56.0695 49.2783Z" fill="#7567DB"/>
<path fill-rule="evenodd" clip-rule="evenodd" d="M5.19571 15.2949C5.19571 19.153 3.68747 22.7803 0.948875 25.5084C-0.0227966 26.4762 -0.0227966 28.0455 0.949173 29.0133C1.43478 29.4974 2.07149 29.7393 2.70819 29.7393C3.3449 29.7393 3.98161 29.4974 4.46722 29.0134C8.1456 25.3491 10.1715 20.4772 10.1715 15.295V14.8697H15.147V21.3009C8.77142 28.0216 5.19586 36.9292 5.19586 46.2366V68.5651C5.19586 72.6646 8.54389 75.9999 12.6592 75.9999H37.5367C41.652 75.9999 45 72.6646 45 68.5651V46.2365C45 36.9133 41.4139 28.0105 35.0489 21.3008V14.4433C37.9444 13.4202 40.0244 10.6657 40.0244 7.43479C40.0244 3.33524 36.6763 0 32.5611 0H2.7079C1.33391 0 0.220081 1.10972 0.220081 2.47831V12.3913C0.220081 13.76 1.33406 14.8696 2.7079 14.8696H5.19571V15.2949ZM10.1712 61.1306V46.2366C10.1712 43.9966 10.4059 41.7927 10.8626 39.6521H20.1223V61.1306H10.1712ZM12.3617 34.6956H22.61C23.9838 34.6956 25.0978 35.8052 25.0978 37.1739V63.6087C25.0978 64.9773 23.984 66.0871 22.61 66.0871H10.1712V68.5654C10.1712 69.9319 11.2873 71.0437 12.659 71.0437H37.5366C38.9083 71.0437 40.0244 69.9319 40.0244 68.5654V46.2366C40.0244 38.1958 37.008 30.6173 31.508 24.7827H18.6872C15.934 27.7035 13.8034 31.0616 12.3617 34.6956ZM30.0733 14.8696V19.8261H20.1222V14.8696H30.0733ZM15.1467 9.9131H32.5611C33.9328 9.9131 35.0489 8.8013 35.0489 7.43479C35.0489 6.06827 33.9328 4.95648 32.5611 4.95648H15.1467V9.9131ZM5.19571 4.95648H10.1712V9.91295H5.19571V4.95648Z" fill="#7567DB"/>
</svg>
