<svg width="20" height="20" viewBox="0 0 20 20" fill="none" xmlns="http://www.w3.org/2000/svg">
<g id="window">
<path id="Shape" fill-rule="evenodd" clip-rule="evenodd" d="M20 0V2H19.3333V18H20V20H0V18H0.666667V2H0V0H20ZM19.3333 0.666667H0.666667V1.33333H19.3333V0.666667ZM19.3333 19.3333H0.666667V18.6667H19.3333V19.3333ZM1.33333 18H18.6667V2H1.33333V18Z" fill="white"/>
<path id="Shape_2" fill-rule="evenodd" clip-rule="evenodd" d="M2 10.3333H9.66667V17.3333H2V10.3333ZM2.66667 16.6667H9V11H2.66667V16.6667Z" fill="white"/>
<path id="Shape_3" fill-rule="evenodd" clip-rule="evenodd" d="M10.3335 2.66666H18.0002V17.3333H10.3335V2.66666ZM11.0002 16.6667H17.3335V3.33332H11.0002V16.6667Z" fill="white"/>
<path id="Shape_4" fill-rule="evenodd" clip-rule="evenodd" d="M2 2.66666H9.66667V9.66666H2V2.66666ZM2.66667 8.99999H9V3.33332H2.66667V8.99999Z" fill="white"/>
<path id="Path" fill-rule="evenodd" clip-rule="evenodd" d="M3.33342 5.66668C3.41875 5.66668 3.50408 5.63401 3.56908 5.56901L4.90242 4.23568C5.03275 4.10535 5.03275 3.89468 4.90242 3.76435C4.77208 3.63401 4.56142 3.63401 4.43108 3.76435L3.09775 5.09768C2.96742 5.22801 2.96742 5.43868 3.09775 5.56901C3.16275 5.63401 3.24808 5.66668 3.33342 5.66668Z" fill="white"/>
<path id="Path_2" fill-rule="evenodd" clip-rule="evenodd" d="M3.33342 7.33333C3.41875 7.33333 3.50408 7.30066 3.56908 7.23566L4.23575 6.56899C4.36608 6.43866 4.36608 6.22799 4.23575 6.09766C4.10542 5.96733 3.89475 5.96733 3.76442 6.09766L3.09775 6.76433C2.96742 6.89466 2.96742 7.10533 3.09775 7.23566C3.16275 7.30066 3.24808 7.33333 3.33342 7.33333Z" fill="white"/>
<path id="Path_3" fill-rule="evenodd" clip-rule="evenodd" d="M4.43016 5.42999C4.37016 5.49299 4.3335 5.57999 4.3335 5.66666C4.3335 5.75333 4.37016 5.83999 4.43016 5.90333C4.4935 5.96333 4.58016 5.99999 4.66683 5.99999C4.7535 5.99999 4.84016 5.96333 4.9035 5.90333C4.9635 5.83999 5.00016 5.75333 5.00016 5.66666C5.00016 5.57999 4.9635 5.49299 4.9035 5.42999C4.77683 5.30666 4.55683 5.30666 4.43016 5.42999Z" fill="white"/>
<path id="Path_4" fill-rule="evenodd" clip-rule="evenodd" d="M5.09775 5.23568C5.16275 5.30068 5.24808 5.33335 5.33342 5.33335C5.41875 5.33335 5.50408 5.30068 5.56908 5.23568L6.56908 4.23568C6.69942 4.10535 6.69942 3.89468 6.56908 3.76435C6.43875 3.63401 6.22808 3.63401 6.09775 3.76435L5.09775 4.76435C4.96742 4.89468 4.96742 5.10535 5.09775 5.23568Z" fill="white"/>
<path id="Path_5" fill-rule="evenodd" clip-rule="evenodd" d="M11.6664 5.66668C11.7518 5.66668 11.8371 5.63401 11.9021 5.56901L13.2354 4.23568C13.3658 4.10535 13.3658 3.89468 13.2354 3.76435C13.1051 3.63401 12.8944 3.63401 12.7641 3.76435L11.4308 5.09768C11.3004 5.22801 11.3004 5.43868 11.4308 5.56901C11.4958 5.63401 11.5811 5.66668 11.6664 5.66668Z" fill="white"/>
<path id="Path_6" fill-rule="evenodd" clip-rule="evenodd" d="M11.6664 7.33333C11.7518 7.33333 11.8371 7.30066 11.9021 7.23566L12.5688 6.56899C12.6991 6.43866 12.6991 6.22799 12.5688 6.09766C12.4384 5.96733 12.2278 5.96733 12.0974 6.09766L11.4308 6.76433C11.3004 6.89466 11.3004 7.10533 11.4308 7.23566C11.4958 7.30066 11.5811 7.33333 11.6664 7.33333Z" fill="white"/>
<path id="Path_7" fill-rule="evenodd" clip-rule="evenodd" d="M12.7632 5.42999C12.7032 5.49299 12.6665 5.57999 12.6665 5.66666C12.6665 5.75333 12.7032 5.83999 12.7632 5.90333C12.8265 5.96333 12.9132 5.99999 12.9998 5.99999C13.0865 5.99999 13.1732 5.96333 13.2365 5.90333C13.2965 5.83999 13.3332 5.75333 13.3332 5.66666C13.3332 5.57999 13.2965 5.49299 13.2365 5.42999C13.1098 5.30666 12.8898 5.30666 12.7632 5.42999Z" fill="white"/>
<path id="Path_8" fill-rule="evenodd" clip-rule="evenodd" d="M13.4308 5.23568C13.4958 5.30068 13.5811 5.33335 13.6664 5.33335C13.7518 5.33335 13.8371 5.30068 13.9021 5.23568L14.9021 4.23568C15.0324 4.10535 15.0324 3.89468 14.9021 3.76435C14.7718 3.63401 14.5611 3.63401 14.4308 3.76435L13.4308 4.76435C13.3004 4.89468 13.3004 5.10535 13.4308 5.23568Z" fill="white"/>
<path id="Path_9" fill-rule="evenodd" clip-rule="evenodd" d="M3.33342 13.3333C3.41875 13.3333 3.50408 13.3007 3.56908 13.2357L4.90242 11.9023C5.03275 11.772 5.03275 11.5613 4.90242 11.431C4.77208 11.3007 4.56142 11.3007 4.43108 11.431L3.09775 12.7643C2.96742 12.8947 2.96742 13.1053 3.09775 13.2357C3.16275 13.3007 3.24808 13.3333 3.33342 13.3333Z" fill="white"/>
<path id="Path_10" fill-rule="evenodd" clip-rule="evenodd" d="M3.33342 15C3.41875 15 3.50408 14.9673 3.56908 14.9023L4.23575 14.2357C4.36608 14.1053 4.36608 13.8947 4.23575 13.7643C4.10542 13.634 3.89475 13.634 3.76442 13.7643L3.09775 14.431C2.96742 14.5613 2.96742 14.772 3.09775 14.9023C3.16275 14.9673 3.24808 15 3.33342 15Z" fill="white"/>
<path id="Path_11" fill-rule="evenodd" clip-rule="evenodd" d="M4.43016 13.0967C4.37016 13.1597 4.3335 13.2467 4.3335 13.3333C4.3335 13.4233 4.37016 13.5067 4.43016 13.57C4.4935 13.63 4.58016 13.6667 4.66683 13.6667C4.7535 13.6667 4.84016 13.63 4.9035 13.57C4.9635 13.5067 5.00016 13.42 5.00016 13.3333C5.00016 13.2467 4.96683 13.1597 4.9035 13.0967C4.78016 12.9733 4.55683 12.9733 4.43016 13.0967Z" fill="white"/>
<path id="Path_12" fill-rule="evenodd" clip-rule="evenodd" d="M5.09775 12.9023C5.16275 12.9673 5.24808 13 5.33342 13C5.41875 13 5.50408 12.9673 5.56908 12.9023L6.56908 11.9023C6.69942 11.772 6.69942 11.5613 6.56908 11.431C6.43875 11.3007 6.22808 11.3007 6.09775 11.431L5.09775 12.431C4.96742 12.5613 4.96742 12.772 5.09775 12.9023Z" fill="white"/>
</g>
</svg>
