<svg width="13" height="20" viewBox="0 0 13 20" fill="none" xmlns="http://www.w3.org/2000/svg">
<g id="Group 5">
<path id="Line" d="M6.49999 9L6.5017 19.5" stroke="white" stroke-width="0.8" stroke-linecap="round"/>
<path id="Path 30" d="M0.973145 8V11.7196L12.0429 11.833V8" stroke="white" stroke-width="0.8" stroke-linecap="round" stroke-linejoin="round"/>
<rect id="Rectangle" x="1.4" y="10.4" width="10.2" height="2.2" rx="1.1" fill="#7567DB" stroke="white" stroke-width="0.8"/>
<path id="Rectangle Copy" d="M3.4 6.07886C3.4 6.03946 3.40186 6.0056 3.40593 5.97262C3.44706 5.6391 3.64275 4.23762 4.15055 2.92942C4.40478 2.27445 4.72721 1.66977 5.1265 1.23474C5.52012 0.805888 5.96926 0.560187 6.5 0.560187C7.03074 0.560187 7.47988 0.805888 7.8735 1.23474C8.27279 1.66977 8.59522 2.27445 8.84945 2.92942C9.35725 4.23762 9.55294 5.6391 9.59407 5.97262C9.59814 6.0056 9.6 6.03946 9.6 6.07886V7.5C9.6 8.10751 9.10751 8.6 8.5 8.6H4.5C3.89249 8.6 3.4 8.10751 3.4 7.5V6.07886Z" stroke="white" stroke-width="0.8"/>
<path id="Path 29" d="M2.99121 19.464V19.464C2.99121 18.7472 3.57232 18.1661 4.28915 18.1661L6.51183 18.1661L8.71445 18.1661C9.43128 18.1661 10.0124 18.7472 10.0124 19.464V19.464" stroke="white" stroke-width="0.8" stroke-linecap="round" stroke-linejoin="round"/>
</g>
</svg>
