<svg width="24" height="21" viewBox="0 0 24 21" fill="none" xmlns="http://www.w3.org/2000/svg">
<g id="Group 7">
<g id="Group 17">
<path id="Path" fill-rule="evenodd" clip-rule="evenodd" d="M19.8156 1.04656C20.577 1.04656 21.1999 1.66582 21.1999 2.42265V6.89499C21.1999 7.10142 21.1652 7.34222 21.0614 7.54862C20.7154 8.64949 20.7846 9.61279 21.1652 10.3352L21.4421 11.0577C21.6498 11.5393 21.2691 12.0553 20.75 12.0553H18.0853C17.5662 12.0553 17.1855 11.5393 17.3932 11.0232L17.67 10.3352C18.0853 9.61275 18.1199 8.71827 17.7738 7.54862C17.7738 7.34219 17.7392 7.13579 17.7392 6.89499V2.42265C17.7392 1.66578 18.3621 1.04656 19.1235 1.04656H19.8156Z" fill="#7567DB" stroke="white" stroke-width="0.7"/>
<path id="Path_2" fill-rule="evenodd" clip-rule="evenodd" d="M20.8537 12.0554H18.0852L17.1162 13.5526C16.8394 13.9804 16.6317 14.4082 16.4587 14.8971C16.1819 15.661 16.0435 16.4555 16.0435 17.2499V20H22.9647V17.2194C22.9647 16.4249 22.8263 15.6305 22.5495 14.8666C22.3764 14.4082 22.1342 13.9499 21.892 13.5221L20.8537 12.0554Z" stroke="white" stroke-width="0.7"/>
<path id="Path_3" fill-rule="evenodd" clip-rule="evenodd" d="M18.7775 5.17487H17.7393V4.48682H18.7775C18.9851 4.48682 19.1235 4.62443 19.1235 4.83086C19.1235 5.0373 18.9851 5.17487 18.7775 5.17487Z" fill="white"/>
<path id="Path_4" fill-rule="evenodd" clip-rule="evenodd" d="M18.7775 3.79877H17.7393V3.11072H18.7775C18.9851 3.11072 19.1235 3.24833 19.1235 3.45477C19.1235 3.66116 18.9851 3.79877 18.7775 3.79877Z" fill="white"/>
</g>
<g id="paint-roller">
<path id="Path_5" fill-rule="evenodd" clip-rule="evenodd" d="M12.8698 3.40625C12.6778 3.40625 12.522 3.56375 12.522 3.75781C12.522 3.95187 12.6778 4.10938 12.8698 4.10938C13.0618 4.10938 13.2176 3.95187 13.2176 3.75781C13.2176 3.56375 13.0618 3.40625 12.8698 3.40625Z" fill="white"/>
<path id="Path_6" fill-rule="evenodd" clip-rule="evenodd" d="M7.65203 17.8906C7.46003 17.8906 7.3042 18.0481 7.3042 18.2422C7.3042 18.4362 7.46003 18.5938 7.65203 18.5938C7.84403 18.5938 7.99985 18.4362 7.99985 18.2422C7.99985 18.0481 7.84403 17.8906 7.65203 17.8906Z" fill="white"/>
<path id="Shape" fill-rule="evenodd" clip-rule="evenodd" d="M14.6087 4.10938H14.9565C15.5319 4.10938 16 4.58251 16 5.16406V7.47875C16 8.0017 15.6299 8.43911 15.1195 8.52057L8.30282 9.74267L8.29492 9.74397C8.12403 9.77052 8 9.9167 8 10.0916V10.543H9.04348C9.61885 10.543 10.087 11.0161 10.087 11.5977C10.087 11.8793 9.9784 12.1441 9.78129 12.3433C9.59537 12.5313 9.35172 12.6394 9.09089 12.6511L9.72035 17.6071L9.72042 17.608C9.73283 17.702 9.73917 17.797 9.73917 17.8906C9.73917 19.0537 8.80296 20 7.65221 20C6.50146 20 5.56525 19.0537 5.56525 17.8906C5.56525 17.7969 5.57158 17.7017 5.58403 17.6076L5.58407 17.6071L5.58431 17.6052L5.58435 17.6048V17.6048L6.21353 12.6511C5.66004 12.626 5.21739 12.1631 5.21739 11.5977C5.21739 11.3161 5.32595 11.0513 5.5231 10.852C5.72024 10.6527 5.98226 10.543 6.26087 10.543H7.30435V10.0916C7.30435 9.56861 7.67437 9.13116 8.18487 9.04974L15.0015 7.82764L15.0094 7.82634C15.1803 7.7998 15.3043 7.65362 15.3043 7.47875V5.16406C15.3043 4.97021 15.1483 4.8125 14.9565 4.8125H14.6087V5.97266C14.6087 6.55421 14.1406 7.02734 13.5652 7.02734H1.73913C1.16376 7.02734 0.695652 6.55421 0.695652 5.97266V4.8125H0.347826C0.155722 4.8125 0 4.65507 0 4.46094C0 4.2668 0.155722 4.10938 0.347826 4.10938H0.695652V3.05469C0.695652 2.47313 1.16376 2 1.73913 2H13.5652C14.1406 2 14.6087 2.47313 14.6087 3.05469V4.10938ZM13.5652 6.32422C13.757 6.32422 13.913 6.16651 13.913 5.97266V3.05469C13.913 2.86084 13.757 2.70312 13.5652 2.70312H1.73913C1.54734 2.70312 1.3913 2.86084 1.3913 3.05469V5.97266C1.3913 6.16651 1.54734 6.32422 1.73913 6.32422H13.5652ZM7.65217 19.2969C6.88501 19.2969 6.26087 18.666 6.26087 17.8906C6.26087 17.8273 6.26522 17.7629 6.27374 17.699L6.27384 17.6978L6.27402 17.6967L6.91471 12.6523H8.3896L9.0303 17.6967L9.0305 17.6979L9.03061 17.699C9.03917 17.7629 9.04348 17.8273 9.04348 17.8906C9.04348 18.666 8.41934 19.2969 7.65217 19.2969ZM9.3913 11.5977C9.3913 11.4038 9.23527 11.2461 9.04348 11.2461H6.26087C6.16807 11.2461 6.08073 11.2827 6.01499 11.3492C5.94925 11.4156 5.91304 11.5039 5.91304 11.5977C5.91304 11.7915 6.06908 11.9492 6.26087 11.9492H6.6087H8.69565H9.04348C9.13628 11.9492 9.22355 11.9126 9.28932 11.8461C9.3551 11.7797 9.3913 11.6915 9.3913 11.5977Z" fill="white"/>
<path id="Path_7" fill-rule="evenodd" clip-rule="evenodd" d="M11.4782 3.40625H2.43474C2.24264 3.40625 2.08691 3.56368 2.08691 3.75781C2.08691 3.95195 2.24264 4.10938 2.43474 4.10938H11.4782C11.6703 4.10938 11.826 3.95195 11.826 3.75781C11.826 3.56368 11.6703 3.40625 11.4782 3.40625Z" fill="white"/>
</g>
</g>
</svg>
