<svg width="151" height="70" viewBox="0 0 151 70" fill="none" xmlns="http://www.w3.org/2000/svg">
<path d="M29.0578 38.8225C39.5831 38.8225 48.1155 30.1414 48.1155 19.4327C48.1155 8.72397 39.5831 0.0428467 29.0578 0.0428467C18.5324 0.0428467 10 8.72397 10 19.4327C10 30.1414 18.5324 38.8225 29.0578 38.8225Z" fill="white"/>
<mask id="mask0" mask-type="alpha" maskUnits="userSpaceOnUse" x="10" y="0" width="39" height="39">
<path d="M29.0578 38.8225C39.5831 38.8225 48.1155 30.1414 48.1155 19.4327C48.1155 8.72397 39.5831 0.0428467 29.0578 0.0428467C18.5324 0.0428467 10 8.72397 10 19.4327C10 30.1414 18.5324 38.8225 29.0578 38.8225Z" fill="white"/>
</mask>
<g mask="url(#mask0)">
<path fill-rule="evenodd" clip-rule="evenodd" d="M40.8685 38.8668C40.1802 38.8668 39.6459 38.6656 39.2655 38.263C38.8851 37.8605 38.6949 37.3176 38.6949 36.6345V27.87L30.7431 27.8334C29.5476 27.809 28.4609 27.6383 27.4827 27.3211C24.1378 26.1989 22.4653 23.7653 22.4653 20.0204V14.0005C22.4774 13.2198 22.6887 12.6404 23.0993 12.2623C23.4857 11.9207 23.9869 11.7499 24.6027 11.7499C25.2669 11.7499 25.8042 11.9329 26.2148 12.2989C26.5891 12.6404 26.7763 13.1527 26.7763 13.8359V18.9226C26.7763 20.6547 27.2382 21.9416 28.162 22.7833C29.0858 23.625 30.6465 24.0459 32.8443 24.0459H35.1085C37.1734 24.0703 38.3689 24.0825 38.6949 24.0825V13.9822C38.6949 13.2747 38.8881 12.7197 39.2745 12.3172C39.6247 11.939 40.156 11.7499 40.8685 11.7499C41.5568 11.7499 42.0851 11.9451 42.4534 12.3355C42.8217 12.7258 43.0059 13.2747 43.0059 13.9822V36.6345C43.0059 37.3176 42.8157 37.8605 42.4353 38.263C42.0549 38.6656 41.5327 38.8668 40.8685 38.8668Z" fill="#7567DB"/>
</g>
<path fill-rule="evenodd" clip-rule="evenodd" d="M72.0995 38.4143C71.4485 38.4143 70.9367 38.2174 70.5638 37.8235C70.191 37.4296 70.0046 36.8985 70.0046 36.23L70.0224 19.669L56.0153 37.4654C55.826 37.6922 55.5123 37.919 55.0744 38.1458C54.7312 38.3248 54.4412 38.4143 54.2045 38.4143C53.5536 38.4143 53.0447 38.2174 52.6778 37.8235C52.3109 37.4296 52.1274 36.8985 52.1274 36.23V14.0651C52.1274 13.3728 52.305 12.8357 52.66 12.4538C53.0151 12.0718 53.5299 11.8809 54.2045 11.8809C54.891 11.8809 55.4147 12.0718 55.7757 12.4538C56.1366 12.8357 56.3171 13.3728 56.3171 14.0651V30.465L70.2887 12.8298C70.478 12.5791 70.8094 12.3344 71.2828 12.0957C71.5906 11.9525 71.8628 11.8809 72.0995 11.8809C72.7741 11.8809 73.2919 12.0718 73.6528 12.4538C74.0138 12.8357 74.1943 13.3728 74.1943 14.0651V36.23C74.1943 36.8985 74.0079 37.4296 73.6351 37.8235C73.2623 38.2174 72.7504 38.4143 72.0995 38.4143ZM94.6377 37.965C93.0751 38.5367 91.3275 38.8225 89.3951 38.8225C85.6018 38.8225 82.5003 37.4886 80.0907 34.8206C77.7646 32.2479 76.6016 29.0916 76.6016 25.3517C76.6016 21.4927 77.8004 18.2709 80.1981 15.6863C82.5481 13.1493 85.6137 11.8809 89.3951 11.8809C92.6039 11.8809 94.9479 12.5478 96.427 13.8818C96.8445 14.263 97.0533 14.7692 97.0533 15.4004C97.0533 15.9007 96.9042 16.3205 96.606 16.66C96.3077 16.9994 95.9201 17.1691 95.4429 17.1691C95.2163 17.1691 94.5244 16.9548 93.3673 16.526C92.091 16.0495 90.7669 15.8113 89.3951 15.8113C86.6873 15.8113 84.57 16.8475 83.0431 18.92C81.7429 20.6828 81.0927 22.8624 81.0927 25.4589C81.0927 28.1269 81.7906 30.3065 83.1862 31.9978C84.7608 33.9273 86.8304 34.892 89.3951 34.892C90.8027 34.892 92.1804 34.6002 93.5284 34.0166C94.6616 33.5164 95.3773 33.2662 95.6755 33.2662C96.4867 33.2662 97.0533 33.7248 97.3754 34.6419C97.435 34.8206 97.4648 34.9635 97.4648 35.0707C97.4648 36.3094 96.5225 37.2741 94.6377 37.965ZM114.405 15.9502H109.075V36.2461C109.075 36.9096 108.883 37.4368 108.5 37.8278C108.116 38.2188 107.584 38.4143 106.903 38.4143C106.209 38.4143 105.67 38.2188 105.287 37.8278C104.904 37.4368 104.712 36.9096 104.712 36.2461V15.9502H99.3816C98.7853 15.9502 98.3167 15.7872 97.976 15.4614C97.6352 15.1356 97.4648 14.6883 97.4648 14.1196C97.4648 13.622 97.6504 13.1925 98.0216 12.8311C98.3928 12.4697 98.8461 12.2891 99.3816 12.2891H114.405C114.965 12.2891 115.424 12.4609 115.783 12.8045C116.142 13.1481 116.322 13.5864 116.322 14.1196C116.322 14.712 116.161 15.1652 115.838 15.4792C115.516 15.7932 115.038 15.9502 114.405 15.9502ZM138.484 34.9278C136.104 37.5243 133.06 38.8225 129.353 38.8225C125.597 38.8225 122.53 37.4886 120.15 34.8206C117.865 32.2598 116.723 29.1035 116.723 25.3517C116.723 21.5165 117.853 18.3364 120.114 15.8113C122.47 13.191 125.549 11.8809 129.353 11.8809C133.048 11.8809 136.104 13.2327 138.52 15.9364C140.84 18.521 142 21.6594 142 25.3517C142 29.175 140.828 32.367 138.484 34.9278ZM132.989 16.379C131.947 15.8295 130.738 15.5547 129.361 15.5547C126.692 15.5547 124.591 16.5953 123.058 18.6763C121.777 20.4067 121.137 22.5638 121.137 25.1476C121.137 27.8016 121.813 30.0112 123.166 31.7767C124.662 33.7525 126.728 34.7404 129.361 34.7404C132.067 34.7404 134.168 33.7058 135.665 31.6364C136.946 29.8592 137.586 27.6963 137.586 25.1476C137.586 20.9269 136.054 18.0041 132.989 16.379Z" fill="white"/>
<path d="M17.5628 54.2H16.1208L11.8228 58.89L16.2608 64H17.7868L13.1948 58.806L17.5628 54.2ZM10.3948 64H11.5848V54.2H10.3948V64ZM23.3093 64H24.4293V57.7H20.0473L19.9353 59.66C19.7813 62.572 18.8853 63.034 18.4093 62.992L18.4933 64.084C19.7953 64.084 20.7473 63.468 21.0273 59.884L21.0973 58.82H23.3093V64ZM27.5684 64L31.2084 59.31V64H32.3284V57.7H31.2084L27.5684 62.39V57.7H26.4484V64H27.5684ZM38.9844 64H40.1044V57.7H38.9844V60.29H35.4844V57.7H34.3644V64H35.4844V61.34H38.9844V64ZM43.2501 64L46.8901 59.31V64H48.0101V57.7H46.8901L43.2501 62.39V57.7H42.1301V64H43.2501ZM54.6661 64H55.7861V57.7H54.6661V60.29H51.1661V57.7H50.0461V64H51.1661V61.34H54.6661V64ZM57.8117 64H58.9317V58.75H61.8017V57.7H57.8117V64ZM62.2589 60.85C62.2589 62.74 63.6029 64.14 65.6189 64.14C67.6349 64.14 68.9789 62.74 68.9789 60.85C68.9789 58.96 67.6349 57.56 65.6189 57.56C63.6029 57.56 62.2589 58.96 62.2589 60.85ZM63.4489 60.85C63.4489 59.52 64.3869 58.61 65.6189 58.61C66.8789 58.61 67.7889 59.534 67.7889 60.85C67.7889 62.194 66.8789 63.09 65.6189 63.09C64.3589 63.09 63.4489 62.166 63.4489 60.85ZM70.5949 64C71.1689 64 72.1209 64.056 72.9049 64.056C74.8649 64.056 75.8029 63.412 75.8029 62.222C75.8029 61.438 75.3409 60.92 74.3329 60.738V60.71C75.0889 60.598 75.5929 60.01 75.5929 59.268C75.5929 58.134 74.6409 57.644 72.8769 57.644C71.9669 57.644 71.1409 57.7 70.5949 57.7V64ZM73.0589 61.172C74.0669 61.172 74.6129 61.48 74.6129 62.138C74.6129 62.796 74.0389 63.146 73.0029 63.146C72.4989 63.146 72.0509 63.118 71.7149 63.104V61.172H73.0589ZM72.9609 58.554C73.7729 58.554 74.4029 58.806 74.4029 59.492C74.4029 60.108 73.8709 60.472 73.1289 60.472H71.7149V58.596C71.9949 58.582 72.4569 58.554 72.9609 58.554ZM77.5129 64H79.5429C81.5169 64 82.1609 62.866 82.1609 61.76C82.1609 60.64 81.6009 59.59 79.6689 59.59H78.6329V57.7H77.5129V64ZM83.3649 64H84.4849V57.7H83.3649V64ZM79.4589 60.64C80.5369 60.64 80.9709 61.046 80.9709 61.802C80.9709 62.544 80.5649 62.95 79.4449 62.95H78.6329V60.64H79.4589ZM87.6153 64L91.2553 59.31V64H92.3753V57.7H91.2553L87.6153 62.39V57.7H86.4953V64H87.6153ZM87.3913 54.48C87.3913 55.586 88.1333 56.44 89.5193 56.44C90.7793 56.44 91.5913 55.586 91.5913 54.48H90.5413C90.4853 55.236 90.1353 55.586 89.5193 55.586C88.8473 55.586 88.4973 55.236 88.4413 54.48H87.3913ZM104.836 62.152C104.164 62.698 103.268 63.02 102.33 63.02C100.062 63.02 98.5079 61.438 98.5079 59.1C98.5079 56.776 100.02 55.18 102.148 55.18C103.17 55.18 103.926 55.432 104.57 55.908L105.116 55.012C104.416 54.41 103.394 54.06 102.134 54.06C99.0679 54.06 97.2479 56.286 97.2479 59.1C97.2479 62.152 99.2779 64.14 102.218 64.14C103.436 64.14 104.654 63.72 105.312 63.048L104.836 62.152ZM111.331 62.432C110.925 62.81 110.211 63.09 109.399 63.09C108.167 63.09 107.299 62.39 107.201 61.2H112.045C112.087 61.004 112.115 60.752 112.115 60.444C112.115 58.708 110.813 57.56 109.189 57.56C107.117 57.56 105.941 59.016 105.941 60.85C105.941 62.838 107.271 64.14 109.315 64.14C110.155 64.14 111.065 63.874 111.681 63.314L111.331 62.432ZM109.133 58.61C110.225 58.61 110.897 59.254 110.953 60.29H107.131C107.257 59.324 107.985 58.61 109.133 58.61ZM113.634 66.8H114.754V63.706C115.202 64 115.86 64.14 116.532 64.14C118.506 64.14 119.808 62.67 119.808 60.752C119.808 58.89 118.688 57.56 116.896 57.56C116.028 57.56 115.188 57.938 114.754 58.442V57.7H113.634V66.8ZM116.574 58.61C117.876 58.61 118.618 59.52 118.618 60.794C118.618 62.124 117.778 63.09 116.434 63.09C115.832 63.09 115.314 62.978 114.754 62.6V59.478C115.146 58.988 115.832 58.61 116.574 58.61ZM121.413 64C121.987 64 122.939 64.056 123.723 64.056C125.683 64.056 126.621 63.412 126.621 62.222C126.621 61.438 126.159 60.92 125.151 60.738V60.71C125.907 60.598 126.411 60.01 126.411 59.268C126.411 58.134 125.459 57.644 123.695 57.644C122.785 57.644 121.959 57.7 121.413 57.7V64ZM123.877 61.172C124.885 61.172 125.431 61.48 125.431 62.138C125.431 62.796 124.857 63.146 123.821 63.146C123.317 63.146 122.869 63.118 122.533 63.104V61.172H123.877ZM123.779 58.554C124.591 58.554 125.221 58.806 125.221 59.492C125.221 60.108 124.689 60.472 123.947 60.472H122.533V58.596C122.813 58.582 123.275 58.554 123.779 58.554ZM129.451 64L133.091 59.31V64H134.211V57.7H133.091L129.451 62.39V57.7H128.331V64H129.451ZM141.091 62.278C140.671 62.754 140.041 63.09 139.285 63.09C138.039 63.09 137.017 62.236 137.017 60.85C137.017 59.52 138.039 58.61 139.173 58.61C139.831 58.61 140.447 58.778 140.979 59.268L141.497 58.386C140.909 57.798 140.027 57.56 139.019 57.56C137.171 57.56 135.827 59.016 135.827 60.85C135.827 62.838 137.199 64.14 139.201 64.14C140.167 64.14 141.091 63.776 141.623 63.09L141.091 62.278Z" fill="white"/>
</svg>
