<svg width="614" height="295" viewBox="0 0 614 295" fill="none" xmlns="http://www.w3.org/2000/svg">
<rect width="614" height="295" fill="#1E2147"/>
<mask id="mask0" mask-type="alpha" maskUnits="userSpaceOnUse" x="0" y="0" width="614" height="295">
<rect width="614" height="295" fill="white"/>
</mask>
<g mask="url(#mask0)">
<g opacity="0.1">
<g opacity="0.698986" filter="url(#filter0_d)">
<path d="M614 163C704.022 163 777 90.0224 777 0C777 -90.0224 704.022 -163 614 -163C523.978 -163 451 -90.0224 451 0C451 90.0224 523.978 163 614 163Z" fill="#8072EB"/>
</g>
<g opacity="0.8" filter="url(#filter1_d)">
<path d="M614.5 74C655.093 74 688 41.0929 688 0.5C688 -40.0929 655.093 -73 614.5 -73C573.907 -73 541 -40.0929 541 0.5C541 41.0929 573.907 74 614.5 74Z" fill="#A89DFF"/>
</g>
<path opacity="0.698986" d="M614.5 262C758.922 262 876 144.922 876 0.5C876 -143.922 758.922 -261 614.5 -261C470.078 -261 353 -143.922 353 0.5C353 144.922 470.078 262 614.5 262Z" fill="#7A6DDA"/>
</g>
</g>
<defs>
<filter id="filter0_d" x="401" y="-209" width="426" height="426" filterUnits="userSpaceOnUse" color-interpolation-filters="sRGB">
<feFlood flood-opacity="0" result="BackgroundImageFix"/>
<feColorMatrix in="SourceAlpha" type="matrix" values="0 0 0 0 0 0 0 0 0 0 0 0 0 0 0 0 0 0 127 0"/>
<feOffset dy="4"/>
<feGaussianBlur stdDeviation="25"/>
<feColorMatrix type="matrix" values="0 0 0 0 0 0 0 0 0 0 0 0 0 0 0 0 0 0 0.1 0"/>
<feBlend mode="normal" in2="BackgroundImageFix" result="effect1_dropShadow"/>
<feBlend mode="normal" in="SourceGraphic" in2="effect1_dropShadow" result="shape"/>
</filter>
<filter id="filter1_d" x="491" y="-119" width="247" height="247" filterUnits="userSpaceOnUse" color-interpolation-filters="sRGB">
<feFlood flood-opacity="0" result="BackgroundImageFix"/>
<feColorMatrix in="SourceAlpha" type="matrix" values="0 0 0 0 0 0 0 0 0 0 0 0 0 0 0 0 0 0 127 0"/>
<feOffset dy="4"/>
<feGaussianBlur stdDeviation="25"/>
<feColorMatrix type="matrix" values="0 0 0 0 0 0 0 0 0 0 0 0 0 0 0 0 0 0 0.5 0"/>
<feBlend mode="normal" in2="BackgroundImageFix" result="effect1_dropShadow"/>
<feBlend mode="normal" in="SourceGraphic" in2="effect1_dropShadow" result="shape"/>
</filter>
</defs>
</svg>
