<svg width="108" height="108" viewBox="0 0 108 108" fill="none" xmlns="http://www.w3.org/2000/svg">
<path d="M106 54L107.175 54.2414L107.225 54L107.175 53.7586L106 54ZM102.929 59.7357L102.076 58.8913L102.051 58.9166L102.028 58.9432L102.929 59.7357ZM102.929 48.2643L102.028 49.0568L102.051 49.0834L102.076 49.1087L102.929 48.2643ZM99.2169 41.8785L98.0394 42.1096L98.0553 42.1907L98.0821 42.2688L99.2169 41.8785ZM99.2169 34.2766L98.0551 33.9761L98.0462 34.0106L98.0394 34.0455L99.2169 34.2766ZM99.0404 28L100.183 27.6347L100.105 27.3882L99.9314 27.1962L99.0404 28ZM93.6132 24.6561L93.2283 25.7927L93.2616 25.8039L93.2956 25.8133L93.6132 24.6561ZM87.0954 20.9097L86.1908 21.6981L86.245 21.7604L86.3073 21.8146L87.0954 20.9097ZM83.349 14.3894L82.1921 14.7081L82.2013 14.7414L82.2124 14.7741L83.349 14.3894ZM80 8.95957L80.8039 8.06863L80.6126 7.89601L80.3673 7.81715L80 8.95957ZM73.7209 8.77803L73.9543 9.95511L73.9883 9.94837L74.0218 9.93968L73.7209 8.77803ZM66.1189 8.77803L65.7286 9.91278L65.8057 9.93927L65.8856 9.95511L66.1189 8.77803ZM59.7332 5.06846L58.8888 5.9211L58.914 5.94607L58.9407 5.9695L59.7332 5.06846ZM54 2L54.2416 0.824564L54 0.774923L53.7584 0.824564L54 2ZM48.2643 5.06846L49.0575 5.96892L49.0832 5.94624L49.1076 5.92213L48.2643 5.06846ZM41.8785 8.78057L42.1119 9.95765L42.1915 9.94187L42.2683 9.91551L41.8785 8.78057ZM34.274 8.78057L33.9743 9.94252L34.0072 9.95103L34.0406 9.95765L34.274 8.78057ZM28 8.95703L27.6351 7.81385L27.3879 7.89275L27.1954 8.06676L28 8.95703ZM24.6535 14.3868L25.7903 14.7712L25.8013 14.7386L25.8104 14.7055L24.6535 14.3868ZM20.9097 20.9046L21.6981 21.8092L21.7602 21.7551L21.8143 21.693L20.9097 20.9046ZM14.3894 24.651L14.7072 25.8081L14.7409 25.7988L14.7741 25.7876L14.3894 24.651ZM8.95703 28L8.06644 27.1957L7.89253 27.3883L7.81372 27.6355L8.95703 28ZM8.78057 34.2791L9.95813 34.0481L9.95135 34.0136L9.94257 33.9795L8.78057 34.2791ZM8.78057 41.8836L9.91532 42.2739L9.94221 42.1957L9.95813 42.1146L8.78057 41.8836ZM5.06846 48.2693L5.92145 49.1134L5.94623 49.0883L5.9695 49.0619L5.06846 48.2693ZM2 54L0.824592 53.7583L0.774923 53.9999L0.824536 54.2414L2 54ZM5.071 59.7357L5.97203 58.9432L5.9486 58.9166L5.92364 58.8913L5.071 59.7357ZM8.78311 66.1215L9.96064 65.8904L9.94473 65.8093L9.91786 65.7312L8.78311 66.1215ZM8.78311 73.7234L9.94489 74.0239L9.95379 73.9894L9.96064 73.9545L8.78311 73.7234ZM8.95957 80L7.81653 80.3653L7.89529 80.6118L8.0686 80.8038L8.95957 80ZM14.3868 83.3439L14.7717 82.2074L14.7384 82.1961L14.7044 82.1867L14.3868 83.3439ZM20.9046 87.0903L21.8092 86.3019L21.755 86.2396L21.6927 86.1854L20.9046 87.0903ZM24.651 93.6106L25.8079 93.2919L25.7987 93.2586L25.7876 93.2259L24.651 93.6106ZM28 99.0404L27.1961 99.9314L27.3882 100.105L27.6347 100.183L28 99.0404ZM34.2791 99.222L34.098 98.0357L34.0388 98.0447L33.9808 98.0596L34.2791 99.222ZM38.6996 98.8373L38.6839 97.6374L38.6739 97.6376L38.6996 98.8373ZM41.8709 99.2194L42.2608 98.0846L42.2166 98.0694L42.1713 98.0576L41.8709 99.2194ZM48.2566 102.929L49.101 102.076L49.0758 102.051L49.0492 102.028L48.2566 102.929ZM54 106L53.7595 107.176L54.0006 107.225L54.2416 107.175L54 106ZM59.7357 102.932L58.9425 102.031L58.9168 102.054L58.8924 102.078L59.7357 102.932ZM66.1215 99.2194L65.8887 98.0422L65.8088 98.058L65.7317 98.0845L66.1215 99.2194ZM73.726 99.2194L74.0237 98.057L73.9915 98.0487L73.9588 98.0422L73.726 99.2194ZM80 99.043L80.3627 100.187L80.6112 100.108L80.8046 99.9332L80 99.043ZM83.3465 93.6132L82.2097 93.2288L82.1987 93.2614L82.1896 93.2945L83.3465 93.6132ZM87.0903 87.0954L86.3019 86.1908L86.2398 86.2449L86.1857 86.307L87.0903 87.0954ZM93.6106 83.349L93.2928 82.1919L93.259 82.2011L93.2259 82.2124L93.6106 83.349ZM99.043 80L99.9336 80.8043L100.107 80.6117L100.186 80.3645L99.043 80ZM99.2194 73.7209L98.0419 73.9519L98.0487 73.9864L98.0574 74.0205L99.2194 73.7209ZM99.2194 66.1164L98.0848 65.7257L98.0578 65.8041L98.0419 65.8854L99.2194 66.1164ZM89.2041 44.7134L88.0437 45.0193L88.3497 46.1798L89.5102 45.8737L89.2041 44.7134ZM94.2327 43.3867L94.5388 44.547L95.7 44.2407L95.3928 43.0797L94.2327 43.3867ZM87.6908 40.1989L87.2355 39.0887L86.1252 39.544L86.5806 40.6543L87.6908 40.1989ZM92.5011 38.2261L93.6116 37.7715L93.1567 36.6602L92.0457 37.1158L92.5011 38.2261ZM87.1005 28.8087L88.0543 28.0805L87.3267 27.1274L86.373 27.8543L87.1005 28.8087ZM90.1118 33.3409L90.7078 34.3824L91.7505 33.7857L91.1527 32.7437L90.1118 33.3409ZM82.9669 31.9597L82.2394 31.0053L81.2854 31.7326L82.0123 32.6869L82.9669 31.9597ZM85.5974 35.9244L84.5559 36.5205L85.1519 37.5619L86.1934 36.9659L85.5974 35.9244ZM83.5306 24.7106L84.3762 25.5621L85.2268 24.7174L84.3829 23.8659L83.5306 24.7106ZM79.4643 21.1103L80.1998 20.1621L79.2517 19.4267L78.5162 20.3746L79.4643 21.1103ZM79.8413 28.3745L78.9894 29.2197L79.835 30.072L80.6869 29.226L79.8413 28.3745ZM76.2765 25.2185L75.3284 24.4828L74.5926 25.4311L75.5411 26.1667L76.2765 25.2185ZM70.104 15.6373L70.5703 14.5316L69.4638 14.0649L68.9979 15.1719L70.104 15.6373ZM74.9638 18.0685L75.9997 18.6741L76.6057 17.6376L75.5689 17.0322L74.9638 18.0685ZM68.0867 20.4311L66.9807 19.9656L66.5153 21.0715L67.6211 21.537L68.0867 20.4311ZM72.3409 22.555L71.737 23.5919L72.7722 24.1949L73.3769 23.1606L72.3409 22.555ZM64.9611 13.8612L66.1187 14.1774L66.4346 13.0209L65.2784 12.7039L64.9611 13.8612ZM59.6316 12.7771L59.7919 11.5878L58.6038 11.4277L58.4425 12.6156L59.6316 12.7771ZM63.5913 18.8771L63.2743 20.0345L64.4326 20.3517L64.7489 19.1933L63.5913 18.8771ZM58.9321 17.9301L57.743 17.7687L57.5815 18.9588L58.7717 19.1193L58.9321 17.9301ZM54 12.4L55.1992 12.3555L55.1563 11.2H54V12.4ZM54.193 17.6V18.8H55.4383L55.3921 17.5555L54.193 17.6ZM48.5791 12.7479L48.4261 11.5576L47.2349 11.7108L47.389 12.9019L48.5791 12.7479ZM49.2469 17.9072L48.0568 18.0613L48.2109 19.2516L49.4011 19.0973L49.2469 17.9072ZM44.5852 18.8327L44.8942 19.9922L46.0544 19.683L45.7445 18.523L44.5852 18.8327ZM43.2433 13.8092L44.4026 13.4995L44.093 12.3405L42.9339 12.6497L43.2433 13.8092ZM40.0821 20.3612L38.9742 20.8222L39.4347 21.9292L40.5422 21.4695L40.0821 20.3612ZM38.0852 15.5611L37.6242 14.4532L36.5163 14.9141L36.9772 16.0221L38.0852 15.5611ZM33.2 17.9669L34.2392 17.3669L33.639 16.3273L32.5996 16.9279L33.2 17.9669ZM35.8 22.4699L36.4005 23.5088L37.439 22.9086L36.8392 21.8699L35.8 22.4699ZM28.6729 20.9935L27.9422 20.0416L26.9892 20.7731L27.7218 21.7252L28.6729 20.9935ZM31.8454 25.1169L30.8943 25.8486L31.626 26.7996L32.577 26.0681L31.8454 25.1169ZM24.5938 24.5761V23.3761H21.6968L23.7453 25.4246L24.5938 24.5761ZM21.0188 28.6576L20.0674 27.9264L19.3365 28.8774L20.2872 29.6088L21.0188 28.6576ZM25.1397 31.8276L24.4081 32.7788L25.359 33.5102L26.0907 32.5596L25.1397 31.8276ZM28.278 28.2603L29.1256 29.1097L29.976 28.2612L29.1266 27.4117L28.278 28.2603ZM24.604 24.5761L25.4522 25.4249L27.5026 23.3761H24.604V24.5761ZM17.9771 33.1683V31.9683H13.5007L17.3768 34.2074L17.9771 33.1683ZM17.9872 33.1683L19.0244 33.7718L20.0738 31.9683H17.9872V33.1683ZM22.4775 35.7683L23.5162 36.3692L24.1175 35.3299L23.0778 34.7292L22.4775 35.7683ZM20.3663 40.0275L19.9054 41.1355L21.0114 41.5956L21.4735 40.4904L20.3663 40.0275ZM15.5662 38.0306L14.4595 37.5667L13.9944 38.6764L15.1053 39.1385L15.5662 38.0306ZM13.8168 43.1912V41.9912L13.507 44.3505L13.8168 43.1912ZM12.7567 48.5372L11.567 48.3805L11.4103 49.5702L12.6 49.7269L12.7567 48.5372ZM17.9123 49.2164L17.7556 50.4061L18.9452 50.5628L19.102 49.3732L17.9123 49.2164ZM18.8403 44.5356L19.9999 44.8447L20.3086 43.6863L19.1506 43.3764L18.8403 44.5356ZM13.8193 43.1912L14.9784 43.5019L15.3834 41.9912H13.8193V43.1912ZM12.4 54.0546L12.3874 52.8547L11.2008 52.8671L11.2 54.0537L12.4 54.0546ZM17.6 54H18.8V52.7873L17.5874 52.8001L17.6 54ZM12.7428 59.4209L11.5525 59.5737L11.7054 60.7646L12.8962 60.611L12.7428 59.4209ZM17.9021 58.7557L18.0556 59.9458L19.2464 59.7923L19.0922 58.6016L17.9021 58.7557ZM13.7914 64.7148H12.5914V66.2748L14.0992 65.8747L13.7914 64.7148ZM15.5205 69.8603L14.4104 70.3159L14.8655 71.4249L15.975 70.9709L15.5205 69.8603ZM20.3384 67.8887L20.7929 68.9993L21.9051 68.5441L21.4483 67.4326L20.3384 67.8887ZM18.8162 63.3806L19.9755 63.0706L19.666 61.9133L18.5082 62.2208L18.8162 63.3806ZM13.7914 64.7047L14.9518 64.399L12.5914 64.7047H13.7914ZM17.9326 74.753H16.7326V76.8304L18.5321 75.7925L17.9326 74.753ZM17.9326 74.7429L18.9713 74.142L16.7326 70.2723V74.7429H17.9326ZM22.4382 72.153L23.476 71.5505L22.875 70.5155L21.8384 71.1137L22.4382 72.153ZM25.0801 76.1L25.8092 77.0531L26.7628 76.3235L26.0328 75.3704L25.0801 76.1ZM20.9516 79.2586L19.9994 79.9889L20.7288 80.9399L21.6807 80.2117L20.9516 79.2586ZM24.5316 83.3795L23.6844 82.5296L22.8345 83.3769L23.6819 84.2268L24.5316 83.3795ZM28.6081 86.9735L27.8739 87.9227L28.8239 88.6575L29.5579 87.707L28.6081 86.9735ZM28.2133 79.7093L29.0637 78.8627L28.2165 78.0116L27.3661 78.8594L28.2133 79.7093ZM31.7883 82.8552L32.7381 83.5886L33.4724 82.6376L32.5205 81.9044L31.7883 82.8552ZM38.0026 92.4173L37.5414 93.5251L38.6531 93.988L39.1121 92.8747L38.0026 92.4173ZM33.1251 90.0026L32.086 89.4024L31.486 90.4409L32.5243 91.0414L33.1251 90.0026ZM39.9831 87.6134L41.0925 88.0708L41.5488 86.964L40.4431 86.5051L39.9831 87.6134ZM35.7251 85.5022L36.3287 84.465L35.2883 83.8595L34.686 84.9019L35.7251 85.5022ZM43.1366 94.1781L41.9788 93.8628L41.6634 95.0207L42.8214 95.336L43.1366 94.1781ZM48.475 95.2522L48.3174 96.4418L49.5067 96.5993L49.6646 95.4101L48.475 95.2522ZM44.5026 89.1622L44.8169 88.0041L43.6598 87.6901L43.3448 88.8469L44.5026 89.1622ZM49.1593 90.0979L50.3488 90.2558L50.5068 89.0659L49.3169 88.9082L49.1593 90.0979ZM54 95.6L52.8002 95.6223L52.8221 96.8008L54.0009 96.8L54 95.6ZM53.9035 90.4V89.2H52.681L52.7037 90.4223L53.9035 90.4ZM59.3193 95.2623L59.4701 96.4528L60.661 96.302L60.5098 95.1111L59.3193 95.2623ZM58.6643 90.1042L59.8547 89.953L59.7035 88.7623L58.5128 88.9138L58.6643 90.1042ZM64.6653 94.201L63.5058 94.5101L63.8142 95.6668L64.9717 95.3612L64.6653 94.201ZM69.3943 92.6407L69.8389 93.7553L69.8484 93.7516L69.8578 93.7476L69.3943 92.6407ZM63.326 89.1774L63.0166 88.018L61.8574 88.3273L62.1665 89.4866L63.326 89.1774ZM67.4862 87.7949L67.9319 88.9091L67.9368 88.9071L67.4862 87.7949ZM67.8341 87.654L68.9436 87.1969L68.4892 86.0939L67.3835 86.5418L67.8341 87.654ZM69.8158 92.4643L70.2792 93.5712L71.3799 93.1104L70.9253 92.0072L69.8158 92.4643ZM74.7111 90.0826V91.2826H76.7843L75.7517 89.4849L74.7111 90.0826ZM74.7035 90.0826L74.1078 89.0409L70.1874 91.2826H74.7035V90.0826ZM72.1251 85.5745L71.5268 84.5343L70.4878 85.1319L71.0842 86.1716L72.1251 85.5745ZM76.0898 82.9377L77.044 82.21L76.3162 81.2557L75.362 81.9836L76.0898 82.9377ZM79.2434 87.0726L79.9702 88.0274L80.9259 87.2999L80.1975 86.3448L79.2434 87.0726ZM83.3389 83.4976V84.6976H86.2254L84.1896 82.6512L83.3389 83.4976ZM86.9367 79.4224L87.8854 80.1572L88.6207 79.2078L87.6709 78.4732L86.9367 79.4224ZM82.8234 76.2409L83.5576 75.2917L82.609 74.558L81.8747 75.5061L82.8234 76.2409ZM79.6725 79.8096L78.8259 78.9591L77.976 79.8052L78.8214 80.6556L79.6725 79.8096ZM83.33 83.4976L82.4844 82.6461L80.4188 84.6976H83.33V83.4976ZM89.976 74.9168L89.3726 75.954L90.6421 73.9186L89.976 74.9168ZM85.4806 72.3016L84.4445 71.6962L83.838 72.7343L84.8771 73.3388L85.4806 72.3016ZM89.9684 74.9117L88.9328 74.3053L88.3611 75.2818L89.3023 75.9099L89.9684 74.9117ZM92.3995 70.0494L93.5056 70.5147L93.9718 69.4064L92.8627 68.9424L92.3995 70.0494ZM87.602 68.0423L88.0651 66.9353L86.9574 66.4718L86.4947 67.5798L87.602 68.0423ZM89.1444 63.5494L87.986 63.2363L87.6731 64.394L88.8306 64.7076L89.1444 63.5494ZM94.1616 64.9091L93.8477 66.0673L94.8269 63.9104L94.1616 64.9091ZM90.0826 58.8877L90.2423 57.6984L89.0536 57.5388L88.8934 58.7274L90.0826 58.8877ZM95.2356 59.5796L96.4247 59.7409L96.5863 58.5502L95.3953 58.3903L95.2356 59.5796ZM94.154 64.904L92.9963 64.5881L92.7685 65.4229L93.4887 65.9027L94.154 64.904ZM90.4 54.1409H89.2V55.3739L90.4325 55.3405L90.4 54.1409ZM95.6 54L95.6325 55.1996L96.8 55.1679V54H95.6ZM95.2699 48.7251L96.4606 48.5756L96.3109 47.3833L95.1188 47.5346L95.2699 48.7251ZM90.1093 49.3802L89.9582 48.1897L88.7689 48.3407L88.9187 49.5301L90.1093 49.3802ZM104.825 53.7586C104.426 55.7001 103.472 57.4825 102.076 58.8913L103.782 60.5801C105.504 58.8405 106.683 56.6391 107.175 54.2414L104.825 53.7586ZM102.076 49.1087C103.472 50.5175 104.426 52.2999 104.825 54.2414L107.175 53.7586C106.683 51.3609 105.504 49.1595 103.782 47.4199L102.076 49.1087ZM98.0821 42.2688C98.9419 44.7686 100.283 47.0735 102.028 49.0568L103.83 47.4717C102.292 45.7226 101.109 43.6908 100.352 41.4882L98.0821 42.2688ZM98.0394 34.0455C97.5168 36.7079 97.5168 39.4471 98.0394 42.1096L100.394 41.6474C99.9318 39.2902 99.9318 36.8649 100.394 34.5077L98.0394 34.0455ZM97.8974 28.3653C98.4784 30.1833 98.5329 32.1285 98.0551 33.9761L100.379 34.577C100.97 32.2911 100.902 29.8843 100.183 27.6347L97.8974 28.3653ZM93.2956 25.8133C95.1658 26.3265 96.8507 27.3644 98.1495 28.8038L99.9314 27.1962C98.3254 25.4161 96.2424 24.1332 93.9308 23.4988L93.2956 25.8133ZM86.3073 21.8146C88.3331 23.5789 90.6841 24.9311 93.2283 25.7927L93.9981 23.5195C91.751 22.7585 89.6739 21.564 87.8835 20.0048L86.3073 21.8146ZM82.2124 14.7741C83.0737 17.3191 84.4245 19.6717 86.1908 21.6981L88 20.1212C86.4401 18.3315 85.2468 16.2534 84.4857 14.0046L82.2124 14.7741ZM79.1961 9.85051C80.6372 11.1508 81.6764 12.8361 82.1921 14.7081L84.5059 14.0706C83.8689 11.7582 82.5849 9.6756 80.8039 8.06863L79.1961 9.85051ZM74.0218 9.93968C75.8695 9.46102 77.8151 9.51766 79.6327 10.102L80.3673 7.81715C78.1174 7.09387 75.7084 7.02355 73.42 7.61637L74.0218 9.93968ZM65.8856 9.95511C68.5495 10.4833 71.2903 10.4833 73.9543 9.95511L73.4875 7.60094C71.1317 8.06805 68.7081 8.06805 66.3523 7.60094L65.8856 9.95511ZM58.9407 5.9695C60.9245 7.71451 63.2296 9.05323 65.7286 9.91278L66.5092 7.64327C64.306 6.88545 62.2743 5.70541 60.5257 4.16742L58.9407 5.9695ZM53.7584 3.17544C55.6993 3.57428 57.4816 4.52751 58.8888 5.9211L60.5776 4.21581C58.8389 2.49397 56.6374 1.31693 54.2416 0.824564L53.7584 3.17544ZM49.1076 5.92213C50.5182 4.52855 52.3012 3.57418 54.2416 3.17544L53.7584 0.824564C51.3621 1.31703 49.1613 2.49547 47.4209 4.21478L49.1076 5.92213ZM42.2683 9.91551C44.7682 9.057 47.0749 7.71533 49.0575 5.96892L47.4711 4.16799C45.7238 5.70713 43.6912 6.88929 41.4888 7.64562L42.2683 9.91551ZM34.0406 9.95765C36.7046 10.4859 39.4479 10.4859 42.1119 9.95765L41.6451 7.60348C39.2894 8.07058 36.8632 8.07058 34.5074 7.60348L34.0406 9.95765ZM28.3649 10.1002C30.1818 9.52029 32.1261 9.46573 33.9743 9.94252L34.5738 7.61861C32.2883 7.029 29.8832 7.09631 27.6351 7.81385L28.3649 10.1002ZM25.8104 14.7055C26.3261 12.8335 27.3643 11.149 28.8046 9.84731L27.1954 8.06676C25.4162 9.67478 24.1336 11.7558 23.4966 14.0681L25.8104 14.7055ZM21.8143 21.693C23.5793 19.6678 24.9302 17.3152 25.7903 14.7712L23.5167 14.0025C22.757 16.2497 21.5637 18.3277 20.005 20.1162L21.8143 21.693ZM14.7741 25.7876C17.3191 24.9263 19.6717 23.5755 21.6981 21.8092L20.1212 20C18.3315 21.5599 16.2534 22.7532 14.0046 23.5143L14.7741 25.7876ZM9.84762 28.8043C11.1496 27.3625 12.8351 26.3224 14.7072 25.8081L14.0715 23.4938C11.7567 24.1297 9.67422 25.4154 8.06644 27.1957L9.84762 28.8043ZM9.94257 33.9795C9.46572 32.13 9.52024 30.1842 10.1003 28.3645L7.81372 27.6355C7.09636 29.8859 7.029 32.292 7.61857 34.5787L9.94257 33.9795ZM9.95813 42.1146C10.4806 39.4509 10.4806 36.7118 9.95813 34.0481L7.60301 34.5101C8.06566 36.8687 8.06566 39.294 7.60301 41.6526L9.95813 42.1146ZM5.9695 49.0619C7.71403 47.0785 9.05553 44.7736 9.91532 42.2739L7.64581 41.4933C6.88822 43.6959 5.70589 45.7277 4.16742 47.4768L5.9695 49.0619ZM3.17541 54.2417C3.57411 52.3027 4.52834 50.5213 5.92145 49.1134L4.21547 47.4253C2.49568 49.1633 1.3171 51.3631 0.824592 53.7583L3.17541 54.2417ZM5.92364 58.8913C4.52846 57.4825 3.57423 55.7001 3.17546 53.7586L0.824536 54.2414C1.31698 56.6391 2.49557 58.8405 4.21835 60.5801L5.92364 58.8913ZM9.91786 65.7312C9.05807 63.2314 7.71657 60.9265 5.97203 58.9432L4.16996 60.5283C5.70843 62.2774 6.89076 64.3092 7.64835 66.5118L9.91786 65.7312ZM9.96064 73.9545C10.4832 71.2921 10.4832 68.5529 9.96064 65.8904L7.60557 66.3526C8.0682 68.7098 8.0682 71.1351 7.60557 73.4923L9.96064 73.9545ZM10.1026 79.6347C9.52158 77.8167 9.46708 75.8715 9.94489 74.0239L7.62132 73.423C7.03018 75.7089 7.09756 78.1157 7.81653 80.3653L10.1026 79.6347ZM14.7044 82.1867C12.8342 81.6735 11.1493 80.6356 9.85054 79.1962L8.0686 80.8038C9.67458 82.5839 11.7576 83.8668 14.0692 84.5012L14.7044 82.1867ZM21.6927 86.1854C19.6669 84.4211 17.3159 83.0689 14.7717 82.2074L14.0019 84.4805C16.249 85.2415 18.3261 86.436 20.1165 87.9952L21.6927 86.1854ZM25.7876 93.2259C24.9263 90.6809 23.5755 88.3283 21.8092 86.3019L20 87.8788C21.5599 89.6685 22.7532 91.7466 23.5143 93.9953L25.7876 93.2259ZM28.8039 98.1495C27.3628 96.8492 26.3236 95.1638 25.8079 93.2919L23.4941 93.9294C24.1311 96.2418 25.4151 98.3244 27.1961 99.9314L28.8039 98.1495ZM33.9808 98.0596C32.131 98.5343 30.1837 98.4785 28.3653 97.8974L27.6347 100.183C29.8839 100.902 32.2911 100.971 34.5774 100.384L33.9808 98.0596ZM38.6739 97.6376C37.1408 97.6704 35.6124 97.8046 34.098 98.0357L34.4602 100.408C35.8733 100.193 37.2979 100.068 38.7253 100.037L38.6739 97.6376ZM42.1713 98.0576C41.032 97.763 39.8593 97.6221 38.6839 97.6374L38.7153 100.037C39.6779 100.025 40.638 100.14 41.5705 100.381L42.1713 98.0576ZM49.0492 102.028C47.0654 100.283 44.7591 98.9429 42.2608 98.0846L41.481 100.354C43.6825 101.111 45.7154 102.292 47.4641 103.83L49.0492 102.028ZM54.2405 104.824C52.2964 104.427 50.5106 103.472 49.101 102.076L47.4122 103.782C49.1536 105.506 51.3593 106.685 53.7595 107.176L54.2405 104.824ZM58.8924 102.078C57.4818 103.471 55.6988 104.426 53.7584 104.825L54.2416 107.175C56.6379 106.683 58.8387 105.505 60.5791 103.785L58.8924 102.078ZM65.7317 98.0845C63.2318 98.943 60.9251 100.285 58.9425 102.031L60.5289 103.832C62.2762 102.293 64.3088 101.111 66.5112 100.354L65.7317 98.0845ZM73.9588 98.0422C71.2952 97.5154 68.5523 97.5154 65.8887 98.0422L66.3543 100.397C68.7104 99.9307 71.137 99.9307 73.4932 100.397L73.9588 98.0422ZM79.6373 97.8991C77.8177 98.4761 75.8731 98.5307 74.0237 98.057L73.4282 100.382C75.7125 100.967 78.1148 100.9 80.3627 100.187L79.6373 97.8991ZM82.1896 93.2945C81.6739 95.1665 80.6357 96.851 79.1954 98.1527L80.8046 99.9332C82.5838 98.3252 83.8664 96.2442 84.5034 93.9319L82.1896 93.2945ZM86.1857 86.307C84.4207 88.3322 83.0698 90.6848 82.2097 93.2288L84.4833 93.9975C85.243 91.7503 86.4363 89.6723 87.995 87.8838L86.1857 86.307ZM93.2259 82.2124C90.6809 83.0737 88.3283 84.4245 86.3019 86.1908L87.8788 88C89.6685 86.4401 91.7466 85.2468 93.9954 84.4857L93.2259 82.2124ZM98.1524 79.1957C96.8504 80.6375 95.1649 81.6776 93.2928 82.1919L93.9285 84.5062C96.2433 83.8703 98.3258 82.5846 99.9336 80.8043L98.1524 79.1957ZM98.0574 74.0205C98.5343 75.87 98.4798 77.8158 97.8997 79.6355L100.186 80.3645C100.904 78.1141 100.971 75.708 100.381 73.4213L98.0574 74.0205ZM98.0419 65.8854C97.5194 68.5491 97.5194 71.2882 98.0419 73.9519L100.397 73.4899C99.9343 71.1313 99.9343 68.706 100.397 66.3474L98.0419 65.8854ZM102.028 58.9432C100.285 60.9254 98.9445 63.2289 98.0848 65.7257L100.354 66.5071C101.112 64.3066 102.293 62.276 103.83 60.5282L102.028 58.9432ZM89.5102 45.8737L94.5388 44.547L93.9266 42.2264L88.898 43.5531L89.5102 45.8737ZM86.5806 40.6543C87.1636 42.0756 87.6521 43.5338 88.0437 45.0193L90.3645 44.4075C89.9461 42.8206 89.4241 41.2625 88.801 39.7435L86.5806 40.6543ZM92.0457 37.1158L87.2355 39.0887L88.1462 41.3092L92.9564 39.3363L92.0457 37.1158ZM95.3928 43.0797C94.9148 41.2735 94.3193 39.5002 93.6116 37.7715L91.3905 38.6807C92.059 40.3137 92.6214 41.9884 93.0726 43.6937L95.3928 43.0797ZM86.1467 29.5369C87.2168 30.9386 88.1932 32.4081 89.071 33.9381L91.1527 32.7437C90.2227 31.1227 89.1881 29.5657 88.0543 28.0805L86.1467 29.5369ZM83.6944 32.914L87.828 29.763L86.373 27.8543L82.2394 31.0053L83.6944 32.914ZM86.6388 35.3283C85.824 33.9046 84.9151 32.5367 83.9215 31.2325L82.0123 32.6869C82.9433 33.909 83.794 35.1893 84.5559 36.5205L86.6388 35.3283ZM89.5158 32.2994L85.0013 34.8829L86.1934 36.9659L90.7078 34.3824L89.5158 32.2994ZM84.3829 23.8659C83.0702 22.5415 81.6727 21.3047 80.1998 20.1621L78.7288 22.0584C80.1199 23.1375 81.4392 24.3052 82.6783 25.5554L84.3829 23.8659ZM80.6869 29.226L84.3762 25.5621L82.685 23.8592L78.9957 27.5231L80.6869 29.226ZM75.5411 26.1667C76.7553 27.1084 77.9073 28.1289 78.9894 29.2197L80.6932 27.5293C79.5384 26.3654 78.3087 25.276 77.0119 24.2702L75.5411 26.1667ZM78.5162 20.3746L75.3284 24.4828L77.2245 25.9541L80.4123 21.8459L78.5162 20.3746ZM69.6377 16.743C71.2606 17.4274 72.838 18.2167 74.3587 19.1047L75.5689 17.0322C73.9589 16.0921 72.2888 15.2564 70.5703 14.5316L69.6377 16.743ZM69.1928 20.8965L71.2101 16.1028L68.9979 15.1719L66.9807 19.9656L69.1928 20.8965ZM72.9448 21.518C71.5294 20.6937 70.0626 19.9609 68.5523 19.3251L67.6211 21.537C69.0358 22.1326 70.4102 22.8192 71.737 23.5919L72.9448 21.518ZM73.9278 17.4628L71.305 21.9494L73.3769 23.1606L75.9997 18.6741L73.9278 17.4628ZM65.2784 12.7039C63.476 12.2099 61.6437 11.8374 59.7919 11.5878L59.4713 13.9663C61.2175 14.2017 62.9449 14.5528 64.6439 15.0185L65.2784 12.7039ZM64.7489 19.1933L66.1187 14.1774L63.8035 13.5451L62.4337 18.561L64.7489 19.1933ZM58.7717 19.1193C60.2909 19.3242 61.7963 19.6298 63.2743 20.0345L63.9083 17.7198C62.3267 17.2866 60.7167 16.9599 59.0925 16.7408L58.7717 19.1193ZM58.4425 12.6156L57.743 17.7687L60.1212 18.0915L60.8207 12.9385L58.4425 12.6156ZM52.8008 12.4445L52.9938 17.6445L55.3921 17.5555L55.1992 12.3555L52.8008 12.4445ZM48.7321 13.9381C50.4794 13.7135 52.2387 13.6 54 13.6V11.2C52.1356 11.2 50.2741 11.3201 48.4261 11.5576L48.7321 13.9381ZM50.437 17.7532L49.7692 12.5938L47.389 12.9019L48.0568 18.0613L50.437 17.7532ZM54 16.4C52.3588 16.4 50.7203 16.5062 49.0926 16.7172L49.4011 19.0973C50.927 18.8995 52.4623 18.8 54 18.8V16.4ZM54.193 16.4H54V18.8H54.193V16.4ZM45.7445 18.523L44.4026 13.4995L42.0839 14.1189L43.4258 19.1424L45.7445 18.523ZM40.5422 21.4695C41.9587 20.8816 43.4127 20.3871 44.8942 19.9922L44.2761 17.6732C42.6904 18.0959 41.1356 18.6247 39.6221 19.2529L40.5422 21.4695ZM36.9772 16.0221L38.9742 20.8222L41.1901 19.9003L39.1931 15.1002L36.9772 16.0221ZM42.9339 12.6497C41.1267 13.1319 39.352 13.7344 37.6242 14.4532L38.5461 16.6691C40.1749 15.9914 41.8483 15.4234 43.5526 14.9686L42.9339 12.6497ZM32.1608 18.5669L34.7608 23.07L36.8392 21.8699L34.2392 17.3669L32.1608 18.5669ZM29.4035 21.9454C30.8041 20.8702 32.2726 19.8888 33.8004 19.0059L32.5996 16.9279C30.9815 17.863 29.4259 18.9026 27.9422 20.0416L29.4035 21.9454ZM32.7965 24.3851L29.6239 20.2617L27.7218 21.7252L30.8943 25.8486L32.7965 24.3851ZM35.1995 21.431C33.7791 22.252 32.415 23.1649 31.1138 24.1657L32.577 26.0681C33.7946 25.1316 35.0711 24.2773 36.4005 23.5088L35.1995 21.431ZM25.4475 23.7326L25.4424 23.7275L23.7453 25.4246L23.7504 25.4297L25.4475 23.7326ZM21.9703 29.3889C23.0413 27.9953 24.2035 26.6728 25.4472 25.43L23.7507 23.7323C22.4337 25.0485 21.2025 26.4495 20.0674 27.9264L21.9703 29.3889ZM25.8714 30.8765L21.7505 27.7065L20.2872 29.6088L24.4081 32.7788L25.8714 30.8765ZM27.4305 27.4108C26.2716 28.567 25.1884 29.797 24.1888 31.0957L26.0907 32.5596C27.0259 31.3446 28.0399 30.193 29.1256 29.1097L27.4305 27.4108ZM23.7504 25.4297L27.4295 29.1088L29.1266 27.4117L25.4475 23.7326L23.7504 25.4297ZM23.7558 23.7272L23.7507 23.7323L25.4471 25.43L25.4522 25.4249L23.7558 23.7272ZM24.5938 25.7761H24.604V23.3761H24.5938V25.7761ZM17.3768 34.2074L17.3844 34.2117L18.5849 32.1336L18.5773 32.1292L17.3768 34.2074ZM17.9872 31.9683H17.9771V34.3683H17.9872V31.9683ZM19.0218 33.7762L19.0244 33.7718L16.95 32.5647L16.9475 32.5691L19.0218 33.7762ZM23.0778 34.7292L18.5849 32.1336L17.3844 34.2117L21.8773 36.8073L23.0778 34.7292ZM21.4735 40.4904C22.0656 39.0739 22.7473 37.6982 23.5162 36.3692L21.4389 35.1673C20.6183 36.5856 19.8909 38.0536 19.2592 39.5647L21.4735 40.4904ZM15.1053 39.1385L19.9054 41.1355L20.8272 38.9196L16.0271 36.9226L15.1053 39.1385ZM16.9474 32.5693C16.0108 34.1794 15.1798 35.8482 14.4595 37.5667L16.6729 38.4944C17.3529 36.8721 18.1375 35.2964 19.0219 33.776L16.9474 32.5693ZM14.1289 42.0325L14.1266 42.0319L13.507 44.3505L13.5094 44.3512L14.1289 42.0325ZM13.9465 48.6939C14.177 46.9433 14.5222 45.2085 14.9785 43.5018L12.6599 42.8819C12.1768 44.6888 11.8112 46.526 11.567 48.3805L13.9465 48.6939ZM18.069 48.0267L12.9135 47.3475L12.6 49.7269L17.7556 50.4061L18.069 48.0267ZM17.6808 44.2266C17.2574 45.8154 16.9376 47.429 16.7226 49.0596L19.102 49.3732C19.3035 47.8452 19.6032 46.3332 19.9999 44.8447L17.6808 44.2266ZM13.5089 44.351L18.5301 45.6948L19.1506 43.3764L14.1294 42.0326L13.5089 44.351ZM12.6603 42.8805L12.6601 42.8811L14.9782 43.5026L14.9784 43.5019L12.6603 42.8805ZM13.8168 44.3912H13.8193V41.9912H13.8168V44.3912ZM12.4126 55.2545L17.6126 55.1999L17.5874 52.8001L12.3874 52.8547L12.4126 55.2545ZM13.933 59.2681C13.7109 57.5385 13.5988 55.7972 13.6 54.0554L11.2 54.0537C11.1987 55.8997 11.3176 57.7436 11.5525 59.5737L13.933 59.2681ZM17.7487 57.5655L12.5893 58.2308L12.8962 60.611L18.0556 59.9458L17.7487 57.5655ZM16.4 54.0546C16.4 55.6773 16.5036 57.2992 16.7121 58.9098L19.0922 58.6016C18.897 57.0942 18.8 55.5752 18.8 54.0546H16.4ZM16.4 54V54.0546H18.8V54H16.4ZM13.4861 63.5543L13.4836 63.555L14.0992 65.8747L14.1017 65.874L13.4861 63.5543ZM16.6306 69.4046C15.9625 67.7766 15.4025 66.1083 14.9543 64.4083L12.6336 65.0201C13.1087 66.8225 13.7023 68.5908 14.4104 70.3159L16.6306 69.4046ZM19.8839 66.7781L15.066 68.7496L15.975 70.9709L20.7929 68.9993L19.8839 66.7781ZM17.6569 63.6905C18.0803 65.274 18.6059 66.8297 19.2284 68.3447L21.4483 67.4326C20.8648 66.0125 20.3722 64.5543 19.9755 63.0706L17.6569 63.6905ZM14.1019 65.874L19.1242 64.5404L18.5082 62.2208L13.4859 63.5544L14.1019 65.874ZM12.631 65.0104L12.6335 65.0199L14.9543 64.4085L14.9518 64.399L12.631 65.0104ZM14.9914 64.7148V64.7047H12.5914V64.7148H14.9914ZM18.5321 75.7925L18.5366 75.79L17.3375 73.711L17.3331 73.7135L18.5321 75.7925ZM16.7326 74.7429V74.753H19.1326V74.7429H16.7326ZM18.9757 74.1496L18.9713 74.142L16.8939 75.3438L16.8983 75.3514L18.9757 74.1496ZM21.8384 71.1137L17.3372 73.7111L18.5368 75.7898L23.038 73.1924L21.8384 71.1137ZM26.0328 75.3704C25.1001 74.1527 24.2463 72.8773 23.476 71.5505L21.4004 72.7555C22.2221 74.1709 23.1329 75.5311 24.1274 76.8297L26.0328 75.3704ZM21.6807 80.2117L25.8092 77.0531L24.3509 75.1469L20.2224 78.3055L21.6807 80.2117ZM16.8984 75.3516C17.8309 76.9627 18.8663 78.5116 19.9994 79.9889L21.9037 78.5283C20.834 77.1335 19.8563 75.671 18.9756 74.1494L16.8984 75.3516ZM23.6819 84.2268C24.9992 85.548 26.3987 86.7817 27.8739 87.9227L29.3423 86.0243C27.9483 84.9462 26.626 83.7805 25.3814 82.5322L23.6819 84.2268ZM27.3661 78.8594L23.6844 82.5296L25.3788 84.2293L29.0605 80.5591L27.3661 78.8594ZM32.5205 81.9044C31.3021 80.9661 30.1471 79.9509 29.0637 78.8627L27.3628 80.5559C28.5215 81.7198 29.7557 82.8044 31.0561 83.8059L32.5205 81.9044ZM29.5579 87.707L32.7381 83.5886L30.8385 82.1217L27.6583 86.2401L29.5579 87.707ZM38.4639 91.3095C36.8353 90.6314 35.2531 89.8471 33.7259 88.9639L32.5243 91.0414C34.1404 91.9761 35.8158 92.8067 37.5414 93.5251L38.4639 91.3095ZM38.8737 87.156L36.8932 91.9599L39.1121 92.8747L41.0925 88.0708L38.8737 87.156ZM35.1215 86.5393C36.5374 87.3634 38.0085 88.093 39.5231 88.7217L40.4431 86.5051C39.0276 85.9175 37.6524 85.2354 36.3287 84.465L35.1215 86.5393ZM34.1642 90.6029L36.7642 86.1024L34.686 84.9019L32.086 89.4024L34.1642 90.6029ZM42.8214 95.336C44.6269 95.8276 46.4633 96.1961 48.3174 96.4418L48.6326 94.0625C46.8838 93.8308 45.1528 93.4834 43.4519 93.0203L42.8214 95.336ZM43.3448 88.8469L41.9788 93.8628L44.2945 94.4934L45.6605 89.4775L43.3448 88.8469ZM49.3169 88.9082C47.7979 88.707 46.2951 88.4052 44.8169 88.0041L44.1884 90.3203C45.7697 90.7495 47.3773 91.0723 49.0017 91.2875L49.3169 88.9082ZM49.6646 95.4101L50.3488 90.2558L47.9697 89.9399L47.2854 95.0942L49.6646 95.4101ZM55.1998 95.5777L55.1033 90.3777L52.7037 90.4223L52.8002 95.6223L55.1998 95.5777ZM59.1686 94.0718C57.4535 94.289 55.7275 94.3988 53.9991 94.4L54.0009 96.8C55.8297 96.7987 57.6559 96.6825 59.4701 96.4528L59.1686 94.0718ZM57.4738 90.2554L58.1289 95.4135L60.5098 95.1111L59.8547 89.953L57.4738 90.2554ZM54 91.6C55.6097 91.6 57.2193 91.4978 58.8157 91.2946L58.5128 88.9138C57.0166 89.1042 55.5082 89.2 54 89.2V91.6ZM53.9035 91.6H54V89.2H53.9035V91.6ZM64.9717 95.3612C66.6242 94.9249 68.2497 94.3892 69.8389 93.7553L68.9498 91.5261C67.4515 92.1237 65.9183 92.629 64.359 93.0407L64.9717 95.3612ZM62.1665 89.4866L63.5058 94.5101L65.8248 93.8918L64.4855 88.8683L62.1665 89.4866ZM67.0406 86.6807C65.7262 87.2065 64.3828 87.6534 63.0166 88.018L63.6354 90.3369C65.0951 89.9473 66.5294 89.4701 67.9319 88.9091L67.0406 86.6807ZM67.3835 86.5418L67.0357 86.6827L67.9368 88.9071L68.2846 88.7662L67.3835 86.5418ZM70.9253 92.0072L68.9436 87.1969L66.7246 88.1111L68.7063 92.9214L70.9253 92.0072ZM69.8578 93.7476L70.2792 93.5712L69.3524 91.3574L68.9309 91.5338L69.8578 93.7476ZM75.7517 89.4849L75.7498 89.4816L73.6687 90.677L73.6706 90.6803L75.7517 89.4849ZM74.7035 91.2826H74.7111V88.8826H74.7035V91.2826ZM74.1136 89.0376L74.1078 89.0409L75.2992 91.1243L75.3049 91.1211L74.1136 89.0376ZM71.0842 86.1716L73.6684 90.6764L75.7502 89.4822L73.166 84.9774L71.0842 86.1716ZM75.362 81.9836C74.1399 82.9158 72.8591 83.7681 71.5268 84.5343L72.7234 86.6148C74.146 85.7966 75.5134 84.8867 76.8176 83.8918L75.362 81.9836ZM80.1975 86.3448L77.044 82.21L75.1357 83.6654L78.2892 87.8003L80.1975 86.3448ZM75.3052 91.1209C76.9275 90.1926 78.485 89.1579 79.9702 88.0274L78.5165 86.1177C77.1132 87.1859 75.643 88.1625 74.1133 89.0378L75.3052 91.1209ZM82.4837 84.3395L82.4882 84.3439L84.1896 82.6512L84.1852 82.6468L82.4837 84.3395ZM85.988 78.6876C84.9095 80.08 83.7409 81.3992 82.4892 82.6414L84.1797 84.3449C85.5044 83.0303 86.7423 81.6331 87.8854 80.1572L85.988 78.6876ZM82.0893 77.1901L86.2026 80.3716L87.6709 78.4732L83.5576 75.2917L82.0893 77.1901ZM80.5191 80.66C81.6817 79.5027 82.7682 78.2719 83.7722 76.9757L81.8747 75.5061C80.9337 76.721 79.9154 77.8745 78.8259 78.9591L80.5191 80.66ZM84.1855 82.6471L80.5235 78.9635L78.8214 80.6556L82.4834 84.3391L84.1855 82.6471ZM84.1756 84.349L84.1801 84.3446L82.4888 82.6417L82.4844 82.6461L84.1756 84.349ZM83.3389 82.2976H83.33V84.6976H83.3389V82.2976ZM90.5794 73.8795L86.084 71.2643L84.8771 73.3388L89.3726 75.954L90.5794 73.8795ZM89.3023 75.9099L89.3099 75.9149L90.6421 73.9186L90.6345 73.9136L89.3023 75.9099ZM91.2934 69.5841C90.6102 71.2083 89.8225 72.7861 88.9328 74.3053L91.0039 75.5181C91.9475 73.9067 92.7822 72.2345 93.5056 70.5147L91.2934 69.5841ZM87.1388 69.1493L91.9364 71.1564L92.8627 68.9424L88.0651 66.9353L87.1388 69.1493ZM86.5167 72.9069C87.3448 71.4896 88.0769 70.0187 88.7093 68.5048L86.4947 67.5798C85.9032 68.9959 85.2185 70.3713 84.4445 71.6962L86.5167 72.9069ZM88.8306 64.7076L93.8477 66.0673L94.4755 63.7509L89.4583 62.3912L88.8306 64.7076ZM88.8934 58.7274C88.6882 60.2497 88.3861 61.7563 87.986 63.2363L90.3029 63.8626C90.7305 62.2804 91.053 60.6716 91.2719 59.048L88.8934 58.7274ZM95.3953 58.3903L90.2423 57.6984L89.9229 60.077L95.076 60.7689L95.3953 58.3903ZM95.3117 65.2199C95.803 63.4192 96.174 61.589 96.4247 59.7409L94.0465 59.4182C93.8098 61.163 93.4597 62.8899 92.9963 64.5881L95.3117 65.2199ZM94.8269 63.9104L94.8193 63.9053L93.4887 65.9027L93.4963 65.9078L94.8269 63.9104ZM91.6 54.1409V54H89.2V54.1409H91.6ZM95.5675 52.8004L90.3675 52.9414L90.4325 55.3405L95.6325 55.1996L95.5675 52.8004ZM94.0793 48.8746C94.2927 50.5745 94.4 52.2867 94.4 54H96.8C96.8 52.1865 96.6864 50.3745 96.4606 48.5756L94.0793 48.8746ZM90.2604 50.5706L95.421 49.9155L95.1188 47.5346L89.9582 48.1897L90.2604 50.5706ZM91.6 54C91.6 52.4043 91.499 50.8118 91.2999 49.2302L88.9187 49.5301C89.1055 51.0132 89.2 52.5056 89.2 54H91.6Z" fill="#7567DB"/>
<path d="M54.8 78.6C68.0549 78.6 78.8 67.631 78.8 54.1C78.8 40.569 68.0549 29.6 54.8 29.6C41.5452 29.6 30.8 40.569 30.8 54.1C30.8 67.631 41.5452 78.6 54.8 78.6Z" fill="#7567DB" stroke="#7567DB" stroke-width="3.6"/>
<mask id="mask0" mask-type="alpha" maskUnits="userSpaceOnUse" x="29" y="27" width="52" height="54">
<path d="M54.8 78.6C68.0549 78.6 78.8 67.631 78.8 54.1C78.8 40.569 68.0549 29.6 54.8 29.6C41.5452 29.6 30.8 40.569 30.8 54.1C30.8 67.631 41.5452 78.6 54.8 78.6Z" fill="white" stroke="white" stroke-width="3.6"/>
</mask>
<g mask="url(#mask0)">
<path fill-rule="evenodd" clip-rule="evenodd" d="M67.0946 79.6C66.2233 79.6 65.547 79.3402 65.0655 78.8207C64.584 78.3011 64.3433 77.6005 64.3433 76.7188V65.4063L54.278 65.3591C52.7648 65.3276 51.3891 65.1072 50.151 64.6978C45.917 63.2493 43.8 60.1084 43.8 55.2748V47.5049C43.8153 46.4972 44.0828 45.7494 44.6025 45.2613C45.0916 44.8204 45.726 44.6 46.5055 44.6C47.3462 44.6 48.0264 44.8362 48.5461 45.3085C49.0199 45.7494 49.2568 46.4106 49.2568 47.2923V53.8578C49.2568 56.0935 49.8415 57.7545 51.0108 58.8409C52.1801 59.9273 54.1557 60.4705 56.9376 60.4705H59.8036C62.4173 60.5019 63.9306 60.5177 64.3433 60.5177V47.4812C64.3433 46.5681 64.5878 45.8517 65.0769 45.3321C65.5202 44.844 66.1928 44.6 67.0946 44.6C67.9658 44.6 68.6346 44.8519 69.1008 45.3557C69.567 45.8596 69.8 46.5681 69.8 47.4812V76.7188C69.8 77.6005 69.5593 78.3011 69.0778 78.8207C68.5963 79.3402 67.9353 79.6 67.0946 79.6Z" fill="#F6F6F6"/>
</g>
</svg>
