<svg width="88" height="104" viewBox="0 0 88 104" fill="none" xmlns="http://www.w3.org/2000/svg">
<path fill-rule="evenodd" clip-rule="evenodd" d="M87.8935 28.2847L87.8967 28.3654C88.1269 40.5577 88.4131 55.7315 83.3499 69.5194C80.5739 77.0806 76.3732 83.6535 70.8653 89.0567C64.595 95.2074 56.3836 100.094 46.4598 103.58C46.135 103.694 45.7968 103.786 45.4546 103.855C44.9729 103.952 44.4864 104 44.0008 104C43.5151 104 43.0294 103.952 42.5469 103.855C42.2047 103.786 41.8689 103.694 41.5456 103.581C31.61 100.101 23.3899 95.2177 17.1141 89.0662C11.6039 83.6646 7.4032 77.0933 4.62955 69.5337C-0.414744 55.7869 -0.12776 40.6416 0.103246 28.4724L0.107976 28.2847C0.152916 27.2805 0.183664 26.2257 0.20101 25.06C0.28537 19.3361 4.81562 14.602 10.5135 14.2829C22.395 13.6161 31.5863 9.72467 39.4398 2.03602L39.5068 1.97187C42.0691 -0.38723 45.9332 -0.38723 48.4947 1.97187L48.5617 2.03602C56.4152 9.72467 65.6065 13.6161 77.488 14.2821C83.1867 14.602 87.7161 19.3361 87.8005 25.0592C87.8186 26.2328 87.8486 27.2877 87.8935 28.2847ZM44.4588 97.8302C61.48 91.8513 72.3404 81.901 77.6607 67.4122C82.3234 54.7139 82.0663 40.8 81.8345 28.5207C81.7872 27.4738 81.7557 26.3698 81.7376 25.1503C81.7005 22.6083 79.6853 20.5057 77.1506 20.364C70.4261 19.987 64.5193 18.682 59.0919 16.3743C53.6723 14.0699 48.8582 10.8215 44.376 6.44379C44.149 6.24977 43.8533 6.25056 43.6255 6.44379C39.1441 10.8215 34.33 14.0699 28.9097 16.3743C23.4822 18.682 17.5754 19.987 10.8517 20.364C8.31698 20.5057 6.30178 22.6083 6.26394 25.1495C6.24659 26.3627 6.21506 27.4666 6.16775 28.5207L6.16618 28.5888C5.93359 40.8539 5.67026 54.7567 10.3196 67.428C15.6359 81.9176 26.5034 91.8624 43.5427 97.8302C43.6026 97.8508 43.6673 97.8683 43.7335 97.8817C43.9117 97.9174 44.0906 97.9174 44.2664 97.8825C44.3335 97.869 44.3981 97.8508 44.4588 97.8302Z" fill="#7567DB"/>
<path fill-rule="evenodd" clip-rule="evenodd" d="M18.2456 52.1029C18.2456 37.8399 29.7983 26.2352 43.9993 26.2352C58.1994 26.2352 69.7529 37.8399 69.7529 52.1029C69.7529 66.3668 58.1994 77.9715 43.9993 77.9715C29.7983 77.9715 18.2456 66.3668 18.2456 52.1029ZM24.3093 52.1029C24.3093 63.0083 33.142 71.8801 43.9993 71.8801C54.8558 71.8801 63.6884 63.0083 63.6884 52.1029C63.6884 41.1976 54.8558 32.3258 43.9993 32.3258C33.142 32.3258 24.3093 41.1976 24.3093 52.1029Z" fill="#7567DB"/>
<path fill-rule="evenodd" clip-rule="evenodd" d="M51.4009 44.0722L39.4391 56.087L36.1924 52.826C35.0082 51.6365 33.0884 51.6365 31.9042 52.826C30.7207 54.0154 30.7207 55.9437 31.9042 57.1324L37.2954 62.5475C37.8875 63.1422 38.6633 63.4391 39.4391 63.4391C40.2149 63.4391 40.9907 63.1422 41.5828 62.5475L55.6891 48.3786C56.8726 47.1891 56.8726 45.2608 55.6891 44.0722C54.5049 42.8819 52.5851 42.8819 51.4009 44.0722Z" fill="#7567DB"/>
</svg>
