<svg width="130" height="111" viewBox="0 0 130 111" fill="none" xmlns="http://www.w3.org/2000/svg">
<g id="Group 2">
<g id="washing-clothes">
<g id="Group">
<path id="Oval" fill-rule="evenodd" clip-rule="evenodd" d="M64.0567 46.9366C67.7461 46.9366 70.737 43.9394 70.737 40.2422C70.737 36.545 67.7461 33.5479 64.0567 33.5479C60.3673 33.5479 57.3765 36.545 57.3765 40.2422C57.3765 43.9394 60.3673 46.9366 64.0567 46.9366Z" fill="#6AD2F3"/>
<path id="Oval_2" fill-rule="evenodd" clip-rule="evenodd" d="M7.83065 35.475C10.2906 35.475 12.2848 33.4766 12.2848 31.0114C12.2848 28.5463 10.2906 26.5479 7.83065 26.5479C5.37067 26.5479 3.37646 28.5463 3.37646 31.0114C3.37646 33.4766 5.37067 35.475 7.83065 35.475Z" fill="#6AD2F3"/>
</g>
<g id="Group_2">
<path id="Path" fill-rule="evenodd" clip-rule="evenodd" d="M53.249 56.349C54.3626 51.0084 50.9462 45.7725 45.6146 44.6566C42.8086 44.0698 39.8844 44.7348 37.6083 46.48V46.4309C37.7241 42.0476 34.2744 38.401 29.9005 38.2827C25.5267 38.1644 21.8876 41.6237 21.7695 46.0068C21.7562 46.5379 21.7939 47.0692 21.8852 47.5936C18.2084 45.2993 13.3711 46.4263 11.0796 50.1111C9.92599 51.9723 9.59852 54.2332 10.1775 56.349H53.249Z" fill="#6AD2F3"/>
<path id="Path_2" fill-rule="evenodd" clip-rule="evenodd" d="M113.467 56.349C113.532 55.9807 113.57 55.6081 113.581 55.2331C113.601 50.9392 110.142 47.4419 105.857 47.4218C105.272 47.4195 104.688 47.482 104.118 47.6116C102.377 42.3603 96.7176 39.5169 91.475 41.2598C86.2348 43.005 83.3974 48.6761 85.1369 53.9297C85.4197 54.7866 85.8182 55.5991 86.3194 56.349H113.467Z" fill="#97D3E6"/>
</g>
<g id="Group_3">
<path id="Path_3" fill-rule="evenodd" clip-rule="evenodd" d="M111.354 109.912H23.5576C20.2197 109.912 17.3462 107.555 16.6929 104.282L8.9082 65.2759H120.262L111.354 109.912Z" fill="#4398D1"/>
<path id="Path_4" fill-rule="evenodd" clip-rule="evenodd" d="M4.45418 56.349H124.717C127.177 56.349 129.171 58.3465 129.171 60.8126C129.171 63.2787 127.177 65.2762 124.717 65.2762H4.45418C1.99329 65.2759 0 63.2787 0 60.8123C0 58.3462 1.99329 56.349 4.45418 56.349Z" fill="#4398D1"/>
</g>
<path id="Path_5" fill-rule="evenodd" clip-rule="evenodd" d="M96.7933 109.912C97.5683 108.586 97.9825 107.08 97.9915 105.542C98.0048 100.677 94.0809 96.7198 89.2258 96.7041C85.2929 96.6931 81.8319 99.2975 80.7473 103.087C78.2597 100.384 74.0571 100.215 71.3601 102.708C69.3824 104.538 68.7011 107.381 69.6342 109.912H96.7933Z" fill="#97D3E6"/>
<path id="Path_6" fill-rule="evenodd" clip-rule="evenodd" d="M119.037 71.4135L120.262 65.2759H8.9082L10.1331 71.4135H119.037Z" fill="#398CC4"/>
<path id="Path_7" fill-rule="evenodd" clip-rule="evenodd" d="M44.5413 56.349H26.7246V78.6669C26.7246 81.133 28.7179 83.1305 31.1788 83.1305C33.6397 83.1305 35.633 81.133 35.633 78.6669V69.7398C35.633 67.2737 37.6263 65.2762 40.0872 65.2762C42.548 65.2762 44.5413 67.2737 44.5413 69.7398V71.9715C44.5413 74.4376 46.5346 76.4351 48.9955 76.4351C51.4564 76.4351 53.4497 74.4376 53.4497 71.9715V56.349H44.5413V56.349Z" fill="#97D3E6"/>
</g>
<g id="window-cleaner">
<g id="Group_4">
<path id="Path_8" fill-rule="evenodd" clip-rule="evenodd" d="M88.5512 12.0244L94.1738 13.869L89.4186 22.5246C88.6253 23.969 86.8679 24.4639 85.4935 23.63C84.1188 22.7961 83.6483 20.9491 84.4415 19.5047L88.5512 12.0244Z" fill="#48ADE1"/>
</g>
<path id="Path_9" fill-rule="evenodd" clip-rule="evenodd" d="M119.58 7.20741C119.693 7.32211 121.272 8.95386 121.272 10.4724V12.7557V12.9049C121.257 13.3528 121.086 14.6725 119.569 14.6725H109.398V26.1905H98.3357V15.278L81.7421 10.1785V3.17768C81.7421 3.17768 103.404 -6.17364 119.58 7.20741Z" fill="#D1D2D4"/>
<g id="Group_5">
<path id="Path_10" fill-rule="evenodd" clip-rule="evenodd" d="M101.263 15.782H100.85H99.2308H98.8181C98.6926 15.782 98.5705 15.7953 98.4517 15.8174V27.7354H103.313V23.8622V21.8979V17.8839C103.313 16.7229 102.395 15.782 101.263 15.782Z" fill="#B3B7BC"/>
<path id="Path_11" fill-rule="evenodd" clip-rule="evenodd" d="M87.2198 6.4316C87.2198 4.85547 89.6861 4.1191 89.7987 4.00007C98.4444 1.54006 102.377 1.68158 108.44 1.3015C102.445 -0.652146 91.6044 -0.652146 82.2485 3.28027C82.2485 3.44348 82.2485 10.5589 82.2485 10.5589L87.2198 12.1389V6.4316Z" fill="#B3B7BC"/>
</g>
<path id="Path_12" fill-rule="evenodd" clip-rule="evenodd" d="M110.002 30.9935H105.069H98.3187C97.5968 30.9935 96.916 31.1526 96.3055 31.4286V26.0577C96.3055 24.3953 97.7327 23.0476 99.4942 23.0476H109.761C111.522 23.0476 112.95 24.3953 112.95 26.0577V30.9937H110.002V30.9935Z" fill="#34394C"/>
<path id="Path_13" fill-rule="evenodd" clip-rule="evenodd" d="M104.628 23.0476H99.4992C97.7357 23.0476 96.3057 24.469 96.3057 26.2224V31.4286H99.2577H101.435V26.2224C101.435 24.469 102.864 23.0476 104.628 23.0476Z" fill="#282F44"/>
<path id="Path_14" fill-rule="evenodd" clip-rule="evenodd" d="M87.8145 103.807H92.9533H97.5784H101.69H109.141H113.766H116.336H117.28C117.578 103.807 117.869 103.773 118.151 103.714V106.568C118.151 108.463 116.738 110 114.995 110H90.0988C88.3564 110 86.9431 108.463 86.9431 106.568V103.714C87.226 103.773 87.5166 103.807 87.8145 103.807Z" fill="#34394C"/>
<g id="Group_6">
<path id="Path_15" fill-rule="evenodd" clip-rule="evenodd" d="M88.0319 103.932C88.3125 103.989 88.6008 104.021 88.897 104.021H88.0319V103.932Z" fill="#282F44"/>
<path id="Path_16" fill-rule="evenodd" clip-rule="evenodd" d="M113.982 106.687V104.021H114.661H117.212H118.149C118.445 104.021 118.734 103.989 119.014 103.932V106.687C119.014 108.516 117.611 110 115.881 110H110.849C112.579 110 113.982 108.517 113.982 106.687Z" fill="#282F44"/>
</g>
<path id="Path_17" fill-rule="evenodd" clip-rule="evenodd" d="M93.5296 47.466V36.0765C93.5296 33.5097 95.5881 31.4286 98.1276 31.4286H104.769H109.622H113.122C113.122 31.4286 114.322 31.4645 115.299 32.2186C115.484 32.3847 115.668 32.5615 115.848 32.7569C115.879 32.7947 115.91 32.8287 115.941 32.8592C119.671 37.0173 122.312 47.3025 122.312 59.3374V100.114C122.312 102.681 120.253 104.762 117.714 104.762H116.775H114.22H109.622H102.214H98.1272H93.5291H88.4204C85.881 104.762 83.8224 102.681 83.8224 100.114V59.4223C83.8228 53.5043 87.9957 48.5726 93.5296 47.466Z" fill="#48ADE1"/>
<path id="Path_18" fill-rule="evenodd" clip-rule="evenodd" d="M88.8621 100.114V59.3374C88.8621 56.8717 89.4987 54.7384 92.087 52.244C94.6753 49.7497 97.2318 50.2388 98.3844 48.3614C99.5371 46.484 97.2408 35.7775 99.8592 32.8592C99.8901 32.8289 99.9209 32.7947 99.9524 32.7569C100.133 32.5615 100.316 32.3847 100.501 32.2186C101.479 31.4647 107.731 31.4286 102.678 31.4286H101.139H97.6383C97.6383 31.4286 96.4388 31.4645 95.4612 32.2186C95.2762 32.3847 95.0927 32.5615 94.9122 32.7569C94.8809 32.7947 94.8501 32.8287 94.8192 32.8592C92.7298 34.3683 93.4613 40.0127 93.4613 47.3947C93.4613 47.9326 90.9107 47.2592 87.2458 50.8938C84.4699 53.6467 83.8223 57.3279 83.8223 59.3374V100.114C83.8223 102.681 85.8812 104.762 88.4211 104.762H89.3598H91.9152H93.4613C90.9214 104.762 88.8621 102.681 88.8621 100.114Z" fill="#299ECC"/>
<path id="Path_19" fill-rule="evenodd" clip-rule="evenodd" d="M97.4058 94.2857H122.312V59.7143H83.8224V94.2857H91.5308" fill="#FFCF11"/>
<rect id="Rectangle" width="5.2013" height="34.5714" transform="matrix(-1 0 0 1 89.0239 59.7143)" fill="#FF9E00"/>
<path id="Oval_3" fill-rule="evenodd" clip-rule="evenodd" d="M103.067 85.9047C98.1836 85.9047 94.2248 81.9179 94.2248 77C94.2248 72.082 98.1836 68.0952 103.067 68.0952C107.95 68.0952 111.909 72.082 111.909 77C111.909 81.9179 107.95 85.9047 103.067 85.9047Z" fill="#7567DB"/>
<g id="Group_7">
<path id="Path_20" fill-rule="evenodd" clip-rule="evenodd" d="M113.642 36.8385H118.736C119.208 37.9507 119.644 39.1913 120.04 40.5449H113.642C112.695 40.5449 111.928 39.7152 111.928 38.6918C111.928 37.6684 112.695 36.8385 113.642 36.8385Z" fill="#6CC3E5"/>
<path id="Path_21" fill-rule="evenodd" clip-rule="evenodd" d="M121.466 46.9682H115.494C114.548 46.9682 113.78 46.1385 113.78 45.1152C113.78 44.0918 114.548 43.2621 115.494 43.2621H120.745C121.014 44.4376 121.256 45.676 121.466 46.9682Z" fill="#6CC3E5"/>
<path id="Path_22" fill-rule="evenodd" clip-rule="evenodd" d="M117.018 49.6852H121.853C122.001 50.8852 122.123 52.1225 122.218 53.3915H117.018C116.072 53.3915 115.305 52.5618 115.305 51.5385C115.305 50.5149 116.072 49.6852 117.018 49.6852Z" fill="#6CC3E5"/>
</g>
<g id="Group 3">
<path id="Path_23" fill-rule="evenodd" clip-rule="evenodd" d="M78.8702 3.85583L84.1732 3.34766L85.71 4.22695V9.39468L85.1784 10.0787L78.8702 9.66275C78.3351 9.66275 77.9015 9.25315 77.9015 8.74766V4.77112C77.9013 4.26564 78.3351 3.85583 78.8702 3.85583Z" fill="#48ADE1"/>
<path id="Path Copy" fill-rule="evenodd" clip-rule="evenodd" d="M78.8701 3.85584L80.2683 3.73456H80.4561V9.7723H80.2683L78.8701 9.66276C78.335 9.66276 77.9014 9.25316 77.9014 8.74767V4.77114C77.9012 4.26565 78.335 3.85584 78.8701 3.85584Z" fill="#299ECC"/>
</g>
</g>
</g>
</svg>
