<svg width="114" height="111" viewBox="0 0 114 111" fill="none" xmlns="http://www.w3.org/2000/svg">
<path fill-rule="evenodd" clip-rule="evenodd" d="M108.362 68.5434H32.6483C32.3154 68.5425 31.9841 68.5095 31.6579 68.4443C21.5277 66.4194 2.36279 56.9786 2.36279 35.7478C2.36279 14.5169 21.5277 5.07608 31.6579 3.05123C34.3919 2.505 32.6585 3.76187 33.2049 6.4947C33.7505 9.22245 36.3769 12.393 33.6489 12.9451C32.7076 13.1374 12.4582 17.5665 12.4582 35.7478C12.4582 52.702 30.0702 57.6984 33.2049 58.4521H108.362C111.149 58.4521 113.409 60.7116 113.409 63.4978C113.409 66.2839 111.149 68.5434 108.362 68.5434Z" fill="#1E2147"/>
<path fill-rule="evenodd" clip-rule="evenodd" d="M40.3811 60.5456C40.3811 63.3318 38.1207 65.5912 35.3334 65.5912C32.5452 65.5912 30.2856 63.3318 30.2856 60.5456C30.2856 57.7586 32.5452 55.5 35.3334 55.5C38.1207 55.5 40.3811 57.7586 40.3811 60.5456Z" fill="#080B36"/>
<path fill-rule="evenodd" clip-rule="evenodd" d="M30.2855 0C33.0729 0 35.3332 2.25943 35.3332 5.04561V90.8184C35.3332 93.6046 33.0729 95.864 30.2855 95.864C27.4982 95.864 25.2378 93.6046 25.2378 90.8184V5.04561C25.2378 2.25943 27.4982 0 30.2855 0Z" fill="#7C7F95"/>
<path fill-rule="evenodd" clip-rule="evenodd" d="M35.3332 80.7272C35.3332 83.5142 33.0729 85.7728 30.2855 85.7728C27.4982 85.7728 25.2378 83.5142 25.2378 80.7272C25.2378 77.941 27.4982 75.6816 30.2855 75.6816C33.0729 75.6816 35.3332 77.941 35.3332 80.7272Z" fill="#4C4F6E"/>
<path fill-rule="evenodd" clip-rule="evenodd" d="M80.7614 100.909C80.7614 106.482 76.2414 111 70.6659 111C65.0912 111 60.5713 106.482 60.5713 100.909C60.5713 95.3364 65.0912 90.8184 70.6659 90.8184C76.2414 90.8184 80.7614 95.3364 80.7614 100.909Z" fill="#1E2147"/>
<path fill-rule="evenodd" clip-rule="evenodd" d="M90.8564 10.0912C96.4311 10.0912 100.951 14.6092 100.951 20.1816V36.5641C100.951 38.3823 100.951 52.436 100.951 54.2542V61.7913C100.951 63.6095 100.951 77.6632 100.951 79.4814V90.8184C100.951 96.3916 96.4311 100.909 90.8564 100.909H50.4755C44.8999 100.909 40.3809 96.3907 40.3809 90.8184V20.1816C40.3809 14.6092 44.9008 10.0912 50.4755 10.0912L90.8564 10.0912Z" fill="#FFCF11"/>
<path fill-rule="evenodd" clip-rule="evenodd" d="M80.761 79.4814C80.761 77.6632 81.6573 75.8645 83.2849 75.0515C84.5464 74.4206 85.8087 73.1588 85.8087 70.6368C85.8087 68.114 84.5464 66.8522 83.2849 66.2213C81.6573 65.4083 80.761 63.6095 80.761 61.7913V54.2542C80.761 52.436 81.6573 50.6373 83.2849 49.8243C84.5464 49.1934 85.8087 47.9316 85.8087 45.4088C85.8087 42.8868 84.5464 41.625 83.2849 40.9941C81.6573 40.1811 80.761 38.3823 80.761 36.5641V20.1816C80.761 14.6092 76.2411 10.0912 70.6655 10.0912H50.4755C44.8999 10.0912 40.3809 14.6092 40.3809 20.1816V36.5641C40.3809 38.3823 40.3809 52.436 40.3809 54.2542V61.7913C40.3809 63.6095 40.3809 77.6632 40.3809 79.4814V90.8184C40.3809 96.3916 44.9008 100.909 50.4755 100.909H70.6655C76.2411 100.909 80.761 96.3916 80.761 90.8184V79.4814Z" fill="#FFCF11"/>
<path fill-rule="evenodd" clip-rule="evenodd" d="M49.0167 11.8625C49.9705 11.8625 50.7438 16.2924 50.7438 21.7561V37.8191C50.7438 39.6019 50.7438 53.3814 50.7438 55.1642V62.5543C50.7438 64.337 50.7438 78.1166 50.7438 79.8994V91.0152C50.7438 96.4797 49.9705 100.909 49.0167 100.909H42.1079C41.154 100.909 40.3809 96.4789 40.3809 91.0152V21.7561C40.3809 16.2924 41.1542 11.8625 42.1079 11.8625L49.0167 11.8625Z" fill="#FF9E00"/>
<path fill-rule="evenodd" clip-rule="evenodd" d="M88.3325 40.364H98.4271C99.8207 40.364 100.951 41.4929 100.951 42.8868C100.951 44.2799 99.8207 45.4088 98.4271 45.4088H88.3325C86.9388 45.4088 85.8086 44.2799 85.8086 42.8868C85.8086 41.4929 86.9388 40.364 88.3325 40.364Z" fill="#FFEEAB"/>
<path fill-rule="evenodd" clip-rule="evenodd" d="M42.9047 40.364H78.2371C79.6308 40.364 80.761 41.4929 80.761 42.8868C80.761 44.2799 79.6308 45.4088 78.2371 45.4088H42.9047C41.5102 45.4088 40.3809 44.2799 40.3809 42.8868C40.3809 41.4929 41.5102 40.364 42.9047 40.364Z" fill="#FFEEAB"/>
<path fill-rule="evenodd" clip-rule="evenodd" d="M42.9047 65.5912H78.2371C79.6308 65.5912 80.761 66.7201 80.761 68.114C80.761 69.5071 79.6308 70.6368 78.2371 70.6368H42.9047C41.5102 70.6368 40.3809 69.5071 40.3809 68.114C40.3809 66.7201 41.5102 65.5912 42.9047 65.5912Z" fill="#FFEEAB"/>
<path fill-rule="evenodd" clip-rule="evenodd" d="M95.9033 10.0912H50.4755C44.8999 10.0912 40.3809 14.6092 40.3809 20.1816V30.2728H100.951C103.739 30.2728 105.999 28.0142 105.999 25.2272V20.1816C105.999 14.6092 101.479 10.0912 95.9033 10.0912Z" fill="#080B36"/>
<path fill-rule="evenodd" clip-rule="evenodd" d="M75.7131 10.0912H45.4276C39.8529 10.0912 35.333 14.6092 35.333 20.1816V25.2272C35.333 28.0142 37.5925 30.2728 40.3807 30.2728H80.7609C83.5482 30.2728 85.8086 28.0142 85.8086 25.2272V20.1816C85.8086 14.6092 81.2887 10.0912 75.7131 10.0912Z" fill="#2C2F53"/>
<path fill-rule="evenodd" clip-rule="evenodd" d="M42.9047 25.2272H78.2371C79.6308 25.2272 80.761 26.3569 80.761 27.75C80.761 29.1431 79.6308 30.2728 78.2371 30.2728H42.9047C41.5102 30.2728 40.3809 29.1431 40.3809 27.75C40.3809 26.3569 41.5102 25.2272 42.9047 25.2272Z" fill="#1E2147"/>
<path fill-rule="evenodd" clip-rule="evenodd" d="M37.8572 85.7728H103.475C107.657 85.7728 111.047 89.1611 111.047 93.3412C111.047 97.5205 107.657 100.909 103.475 100.909H37.8572C33.6754 100.909 30.2856 97.5205 30.2856 93.3412C30.2856 89.1611 33.6754 85.7728 37.8572 85.7728V85.7728Z" fill="#1E2147"/>
<path fill-rule="evenodd" clip-rule="evenodd" d="M37.8572 85.7728H73.1896C77.3715 85.7728 80.7612 89.1611 80.7612 93.3412C80.7612 97.5205 77.3715 100.909 73.1896 100.909H37.8572C33.6754 100.909 30.2856 97.5205 30.2856 93.3412C30.2856 89.1611 33.6754 85.7728 37.8572 85.7728V85.7728Z" fill="#2C2F53"/>
<path fill-rule="evenodd" clip-rule="evenodd" d="M105.999 100.909C105.999 106.482 101.479 111 95.9032 111C90.3285 111 85.8086 106.482 85.8086 100.909C85.8086 95.3364 90.3285 90.8184 95.9032 90.8184C101.479 90.8184 105.999 95.3364 105.999 100.909Z" fill="#4C4F6E"/>
<path fill-rule="evenodd" clip-rule="evenodd" d="M105.999 100.909H85.809C83.0208 100.909 80.7612 98.6502 80.7612 95.864V85.7728C80.7612 80.1996 85.2811 75.6816 90.8567 75.6816H100.951C106.527 75.6816 111.047 80.1996 111.047 85.7728V95.864C111.047 98.6502 108.786 100.909 105.999 100.909Z" fill="#1E2147"/>
<path fill-rule="evenodd" clip-rule="evenodd" d="M60.5712 10.0912C60.5712 5.04561 65.6189 5.04561 65.6189 5.04561V0H60.5712L55.5234 5.04561V10.0912H60.5712Z" fill="#1E2147"/>
<path fill-rule="evenodd" clip-rule="evenodd" d="M45.4276 105.954C45.4276 108.741 43.1681 111 40.3807 111C37.5925 111 35.333 108.741 35.333 105.954C35.333 103.168 37.5925 100.909 40.3807 100.909C43.1681 100.909 45.4276 103.168 45.4276 105.954Z" fill="#4C4F6E"/>
<path fill-rule="evenodd" clip-rule="evenodd" d="M75.7133 105.954C75.7133 108.741 73.4537 111 70.6655 111C67.8782 111 65.6187 108.741 65.6187 105.954C65.6187 103.168 67.8782 100.909 70.6655 100.909C73.4537 100.909 75.7133 103.168 75.7133 105.954Z" fill="#4C4F6E"/>
<path fill-rule="evenodd" clip-rule="evenodd" d="M80.761 10.0912C80.761 10.0912 80.761 5.04561 75.7133 5.04561H60.5709C55.5232 5.04561 55.5232 10.0912 55.5232 10.0912H45.4277C45.4277 10.0912 45.4277 0 60.5709 0H80.761C90.8564 0 95.9033 5.04561 95.9033 10.0912H80.761Z" fill="#2C2F53"/>
<path fill-rule="evenodd" clip-rule="evenodd" d="M70.6657 60.5456C70.6657 66.1188 66.1466 70.6368 60.571 70.6368C54.9955 70.6368 50.4756 66.1188 50.4756 60.5456C50.4756 54.9724 54.9955 50.4544 60.571 50.4544C66.1466 50.4544 70.6657 54.9724 70.6657 60.5456Z" fill="#4C4F6E"/>
<path fill-rule="evenodd" clip-rule="evenodd" d="M70.6658 63.0684C70.6658 67.2485 67.2761 70.6368 63.095 70.6368C58.9132 70.6368 55.5234 67.2485 55.5234 63.0684C55.5234 58.8883 58.9132 55.5 63.095 55.5C67.2761 55.5 70.6658 58.8883 70.6658 63.0684Z" fill="#080B36"/>
<path fill-rule="evenodd" clip-rule="evenodd" d="M37.8569 95.864H73.1893C74.5829 95.864 75.7131 96.9929 75.7131 98.386C75.7131 99.7799 74.5829 100.909 73.1893 100.909H37.8569C36.4624 100.909 35.333 99.7799 35.333 98.386C35.333 96.9929 36.4624 95.864 37.8569 95.864Z" fill="#1E2147"/>
<path fill-rule="evenodd" clip-rule="evenodd" d="M86.2382 76.7014C66.4421 76.7014 59.9948 67.8923 59.3247 66.8871C57.7785 64.5684 58.4054 61.435 60.7251 59.8894C62.9965 58.3761 66.0592 58.9418 67.6401 61.1665C67.8866 61.4671 72.3625 66.611 86.2382 66.611C100.464 66.611 104.807 61.2055 104.847 61.1513C106.512 59.0036 109.643 58.4862 111.84 60.063C114.06 61.6035 114.642 64.6336 113.152 66.8871C112.482 67.8923 106.034 76.7014 86.2382 76.7014Z" fill="#2C2F53"/>
<path fill-rule="evenodd" clip-rule="evenodd" d="M25.2378 85.7728L3.17283 94.5954C1.25643 95.361 0 97.2165 0 99.2794V105.954C0 108.741 2.26038 111 5.04773 111H55.5233C58.3107 111 60.571 108.741 60.571 105.954V99.2794C60.571 97.2165 59.3146 95.361 57.3982 94.5954L35.3333 85.7728H25.2378Z" fill="#4C4F6E"/>
<path fill-rule="evenodd" clip-rule="evenodd" d="M25.2377 90.8184H35.3331C38.1205 90.8184 40.3809 93.077 40.3809 95.864C40.3809 98.6502 38.1205 100.909 35.3331 100.909H25.2377C22.4503 100.909 20.1899 98.6502 20.1899 95.864C20.1899 93.077 22.4503 90.8184 25.2377 90.8184Z" fill="#2C2F53"/>
<path fill-rule="evenodd" clip-rule="evenodd" d="M27.7615 80.7272H32.8093C36.9903 80.7272 40.3809 84.1155 40.3809 88.2956C40.3809 92.4749 36.9911 95.864 32.8093 95.864H27.7615C23.5805 95.864 20.1899 92.4757 20.1899 88.2956C20.1899 84.1155 23.5797 80.7272 27.7615 80.7272V80.7272Z" fill="#999AAC"/>
<path fill-rule="evenodd" clip-rule="evenodd" d="M30.2855 55.5C33.0729 55.5 35.3332 57.7594 35.3332 60.5456V70.6368C35.3332 73.423 33.0729 75.6816 30.2855 75.6816C27.4982 75.6816 25.2378 73.423 25.2378 70.6368V60.5456C25.2378 57.7594 27.4982 55.5 30.2855 55.5Z" fill="#4C4F6E"/>
<path fill-rule="evenodd" clip-rule="evenodd" d="M5.04773 100.909H55.5233C58.3107 100.909 60.571 103.168 60.571 105.954C60.571 108.741 58.3107 111 55.5233 111H5.04773C2.26038 111 0 108.741 0 105.954C0 103.168 2.26038 100.909 5.04773 100.909Z" fill="#2C2F53"/>
<path fill-rule="evenodd" clip-rule="evenodd" d="M7.57172 105.954H52.9996C54.3932 105.954 55.5234 107.084 55.5234 108.477C55.5234 109.87 54.3932 111 52.9996 111H7.57172C6.17804 111 5.04785 109.87 5.04785 108.477C5.04785 107.084 6.17804 105.954 7.57172 105.954V105.954Z" fill="#7C7F95"/>
<path fill-rule="evenodd" clip-rule="evenodd" d="M100.951 75.6816H90.8066C90.8015 75.6816 90.7973 75.6816 90.7922 75.6824H90.7575C90.7524 75.6824 90.7481 75.6824 90.7422 75.6824H90.7278C90.7261 75.6824 90.7244 75.6833 90.7227 75.6824H90.7083C90.7032 75.6833 90.6982 75.6833 90.6931 75.6833H90.6922C90.688 75.6833 90.6829 75.6833 90.6787 75.6833H90.6583C90.655 75.6833 90.6507 75.6841 90.6465 75.6841H90.6439C90.6389 75.6841 90.6346 75.6841 90.6295 75.6841H90.6244C90.6211 75.685 90.6177 75.685 90.6143 75.685H90.6092C90.6067 75.685 90.6024 75.685 90.5999 75.685H90.594C90.5897 75.685 90.5855 75.685 90.5804 75.6858H90.5762C90.5728 75.6858 90.5694 75.6858 90.5651 75.6858H90.5609C90.5575 75.6858 90.5533 75.6858 90.5499 75.6867H90.5457C90.5406 75.6867 90.5363 75.6867 90.5313 75.6867H90.5287C90.5245 75.6867 90.5202 75.6875 90.516 75.6875H90.5118C90.5084 75.6875 90.505 75.6875 90.5016 75.6875H90.4965C90.4923 75.6884 90.488 75.6884 90.4838 75.6884H90.4821C90.4762 75.6892 90.472 75.6892 90.4669 75.6892H90.4626L90.4525 75.69H90.4474C90.444 75.69 90.4398 75.69 90.4364 75.69H90.4321C90.4279 75.6909 90.4228 75.6909 90.4186 75.6909H90.4143C90.411 75.6909 90.4067 75.6917 90.4033 75.6917H90.3881L90.3838 75.6926C90.3788 75.6926 90.3745 75.6926 90.3703 75.6926L90.366 75.6934C90.3627 75.6934 90.3584 75.6934 90.3542 75.6943H90.3398L90.3347 75.6951C90.3313 75.6951 90.3271 75.6951 90.3228 75.6951H90.3203L90.3059 75.696L90.3017 75.6968H90.2864C90.2822 75.6977 90.2788 75.6977 90.2754 75.6977L90.2712 75.6985L90.2568 75.6994H90.2542C90.25 75.6994 90.2466 75.6994 90.2424 75.6994L90.2373 75.7002L90.2271 75.7011H90.2229L90.2085 75.7019H90.2051C90.2017 75.7019 90.1975 75.7028 90.1932 75.7028H90.189C90.1856 75.7036 90.1822 75.7036 90.1788 75.7036L90.1737 75.7044L90.1449 75.7061H90.1407C90.1373 75.7061 90.1339 75.707 90.1297 75.707H90.1254L90.1144 75.7078L90.111 75.7087L90.0958 75.7095H90.0924L90.0814 75.7104H90.0763L90.0653 75.7112L90.0619 75.7121L90.0475 75.7129H90.0458L90.0331 75.7138L90.028 75.7146L90.0178 75.7155H90.0136C90.0094 75.7163 90.0043 75.7163 90 75.7163H89.9992C89.9941 75.7171 89.9899 75.718 89.9848 75.718L89.9797 75.7188C89.9763 75.7188 89.9738 75.7188 89.9704 75.7188L89.9653 75.7197L89.9551 75.7205H89.9501C89.9458 75.7214 89.9416 75.7222 89.9365 75.7222H89.9314L89.9221 75.7231L89.917 75.7239L89.9069 75.7248H89.9026C89.8975 75.7256 89.8933 75.7256 89.8882 75.7265L89.8848 75.7273L89.8738 75.7282H89.8687L89.8586 75.729L89.8543 75.7299L89.8425 75.7307L89.8365 75.7315L89.8264 75.7324C89.8238 75.7324 89.8221 75.7332 89.8196 75.7332L89.812 75.7341C89.8094 75.7341 89.8069 75.7341 89.8052 75.7341L89.7967 75.7349L89.7908 75.7358C89.7866 75.7366 89.7823 75.7366 89.7781 75.7375C89.7755 75.7375 89.7738 75.7375 89.7721 75.7383L89.7637 75.7392C89.7611 75.7392 89.7594 75.7392 89.7569 75.7392L89.7484 75.74C89.7467 75.74 89.745 75.7409 89.7433 75.7409C89.7383 75.7417 89.734 75.7417 89.7298 75.7426H89.7247C89.7213 75.7434 89.7179 75.7442 89.7154 75.7442H89.7095L89.701 75.7459C89.6993 75.7459 89.6967 75.7459 89.6951 75.7459C89.6908 75.7468 89.6866 75.7468 89.6823 75.7476H89.6806C89.6764 75.7485 89.6713 75.7485 89.6671 75.7493L89.662 75.7502L89.6527 75.751L89.6476 75.7519C89.6442 75.7519 89.6408 75.7527 89.6366 75.7527L89.6332 75.7536L89.6188 75.7553H89.6154L89.6044 75.7586L89.5993 75.7595C89.5968 75.7603 89.5934 75.7603 89.59 75.7603C89.5883 75.7612 89.5866 75.7612 89.5849 75.7612L89.5714 75.7629L89.5671 75.7637C89.5637 75.7637 89.5603 75.7637 89.557 75.7646C89.5553 75.7646 89.5536 75.7654 89.5519 75.7654L89.5426 75.7663L89.5375 75.7671L89.5248 75.7688L89.5214 75.7697L89.5095 75.7705C89.5078 75.7713 89.5061 75.7713 89.5044 75.7713C89.501 75.7722 89.4976 75.7722 89.4951 75.7722L89.49 75.773C89.4866 75.7739 89.4824 75.7747 89.4782 75.7747L89.4756 75.7756L89.4621 75.7773H89.457C89.4536 75.7781 89.4511 75.779 89.4477 75.779L89.4417 75.7798L89.4324 75.7807C89.4316 75.7815 89.4299 75.7815 89.4282 75.7815C89.4239 75.7824 89.4189 75.7832 89.4146 75.784H89.4095C89.4061 75.7849 89.4036 75.7857 89.4002 75.7857L89.3951 75.7866C89.3917 75.7874 89.3892 75.7874 89.3858 75.7874L89.3807 75.7883C89.3765 75.7891 89.3731 75.7891 89.3697 75.79C89.3672 75.79 89.3646 75.7908 89.3621 75.7917C89.3587 75.7917 89.3562 75.7917 89.3528 75.7925L89.3468 75.7934L89.3384 75.7942L89.3333 75.7951C89.3299 75.7959 89.3274 75.7968 89.324 75.7968L89.3189 75.7976C89.3146 75.7984 89.3096 75.7984 89.3053 75.8001H89.3011C89.2977 75.801 89.2943 75.801 89.2909 75.8018L89.2867 75.8027L89.2757 75.8044L89.2723 75.8052C89.2672 75.8052 89.263 75.8061 89.2579 75.8069L89.2536 75.8078C89.2511 75.8078 89.2469 75.8086 89.2443 75.8095L89.2384 75.8103C89.2359 75.8103 89.2333 75.8111 89.2299 75.8111C89.2282 75.812 89.2257 75.812 89.224 75.8128L89.2113 75.8145H89.2071L89.1969 75.8171L89.191 75.8179L89.1825 75.8188L89.1774 75.8196C89.174 75.8205 89.1706 75.8205 89.1672 75.8213L89.1622 75.8222C89.1579 75.823 89.1537 75.8239 89.1503 75.8247L89.1444 75.8255C89.141 75.8255 89.1393 75.8264 89.1359 75.8264C89.1342 75.8272 89.1317 75.8281 89.13 75.8281L89.1215 75.8298L89.1156 75.8306C89.1113 75.8306 89.1071 75.8315 89.1028 75.8323L89.0978 75.8332C89.0944 75.834 89.0918 75.8349 89.0884 75.8349C89.0867 75.8349 89.0851 75.8357 89.0825 75.8357C89.08 75.8366 89.0783 75.8366 89.0757 75.8374L89.0681 75.8382C89.0656 75.8391 89.063 75.8391 89.0605 75.8399C89.0571 75.8399 89.0537 75.8408 89.0503 75.8416L89.0418 75.8433C89.0402 75.8433 89.0376 75.8442 89.0359 75.8442L89.0274 75.8459L89.0215 75.8467C89.019 75.8476 89.0164 75.8476 89.0139 75.8484L88.9952 75.8518L88.9885 75.8526L88.9817 75.8543L88.9741 75.8552C88.9724 75.856 88.9698 75.856 88.9673 75.8569L88.9605 75.8577L88.9487 75.8603L88.941 75.862C88.9385 75.862 88.9368 75.8628 88.9351 75.8628L88.9275 75.8645L88.9207 75.8653C88.9182 75.8662 88.9156 75.8662 88.9139 75.867C88.9097 75.8679 88.9054 75.8687 88.9012 75.8696L88.8953 75.8704C88.8927 75.8713 88.8902 75.8713 88.8877 75.8721L88.88 75.873C88.8783 75.8738 88.8758 75.8747 88.8741 75.8747C88.8716 75.8755 88.869 75.8755 88.8665 75.8764L88.8605 75.8772L88.8461 75.8797L88.8411 75.8814C88.8385 75.8814 88.8351 75.8823 88.8326 75.8831L88.8283 75.884L88.819 75.8857L88.8156 75.8865C88.8055 75.8882 88.7962 75.8908 88.786 75.8924L88.7809 75.8933L88.7724 75.895L88.7673 75.8958L88.7589 75.8975L88.7529 75.8992L88.7402 75.9018L88.7343 75.9035L88.7258 75.9052C88.7241 75.9052 88.7224 75.9052 88.7207 75.906C88.7182 75.9068 88.7157 75.9068 88.7131 75.9077L88.7063 75.9085C88.7021 75.9102 88.6979 75.9111 88.6928 75.9119L88.6877 75.9128C88.6852 75.9136 88.6826 75.9145 88.6801 75.9145L88.6742 75.9162C88.6716 75.9162 88.6691 75.917 88.6665 75.9179L88.6597 75.9187L88.6504 75.9212C88.6479 75.9221 88.6445 75.9221 88.6411 75.9229L88.6343 75.9246C88.6318 75.9255 88.6293 75.9255 88.6267 75.9263L88.6208 75.9272L88.6132 75.9297C88.6115 75.9297 88.6089 75.9306 88.6064 75.9306L88.6013 75.9314C88.5962 75.9331 88.592 75.9339 88.5869 75.9356L88.581 75.9365L88.5733 75.9382L88.5674 75.9399C88.5649 75.9407 88.5623 75.9407 88.5598 75.9416L88.5538 75.9424L88.5411 75.9458L88.5344 75.9475C88.5318 75.9475 88.5301 75.9483 88.5276 75.9492L88.5208 75.95L88.514 75.9517C88.5115 75.9526 88.5098 75.9526 88.5073 75.9534L88.4988 75.9551C88.4945 75.956 88.492 75.9568 88.4886 75.9577L88.481 75.9594C88.4784 75.9602 88.4768 75.961 88.4742 75.961L88.4674 75.9627L88.4615 75.9644L88.4539 75.9661L88.4479 75.9678C88.4437 75.9687 88.4395 75.9695 88.4352 75.9704L88.4285 75.9721C88.4259 75.9729 88.4234 75.9737 88.4208 75.9737C88.4191 75.9746 88.4166 75.9754 88.4149 75.9754L88.4081 75.9771L88.4022 75.9788C88.3971 75.9797 88.3929 75.9814 88.3886 75.9822L88.3827 75.9839L88.3751 75.9856C88.3734 75.9856 88.3717 75.9865 88.37 75.9865C88.3675 75.9873 88.3641 75.9881 88.3615 75.989L88.3573 75.9898C88.3505 75.9915 88.3446 75.9932 88.3378 75.9949H88.337C88.3344 75.9958 88.331 75.9966 88.3285 75.9975L88.3243 75.9983C88.3209 75.9992 88.3183 76 88.3158 76.0008L88.3115 76.0017C88.3014 76.0042 88.2912 76.0068 88.281 76.0093L88.2785 76.0102C88.2751 76.011 88.2726 76.0119 88.2692 76.0127L88.2649 76.0144C88.2624 76.0144 88.259 76.0152 88.2565 76.0161L88.2539 76.0169C88.248 76.0186 88.2421 76.0203 88.2353 76.022L88.2328 76.0229C88.2294 76.0229 88.226 76.0246 88.2234 76.0254L88.2192 76.0263C88.2167 76.0271 88.2133 76.0279 88.2099 76.0288L88.2073 76.0296L88.187 76.0347H88.1862C88.1836 76.0356 88.1811 76.0364 88.1777 76.0373L88.1734 76.039L88.165 76.0406L88.1607 76.0423L88.1523 76.0449H88.1506C88.1438 76.0466 88.1379 76.0483 88.1319 76.05L88.1277 76.0517C88.1252 76.0525 88.1218 76.0525 88.1192 76.0534L88.1158 76.055L88.1065 76.0576H88.1057C88.098 76.0593 88.0913 76.0618 88.0845 76.0635L88.0828 76.0644L88.0735 76.0669L88.0701 76.0677L88.0608 76.0703L88.0574 76.0711C88.0481 76.0745 88.0379 76.0771 88.0277 76.0796L88.0243 76.0813L88.015 76.0838L88.0116 76.0847C88.0023 76.0881 87.9913 76.0906 87.982 76.0932L87.9786 76.094L87.9701 76.0965L87.9659 76.0982L87.9566 76.1008C87.9498 76.1033 87.943 76.105 87.9362 76.1067L87.9337 76.1076C87.9303 76.1084 87.9278 76.1101 87.9244 76.1109L87.921 76.1118L87.9117 76.1143H87.9108C87.9006 76.1177 87.8896 76.1211 87.8795 76.1245L87.8761 76.1253L87.8659 76.1287H87.8651C87.8549 76.1321 87.8439 76.1355 87.8329 76.1389L87.8312 76.1397L87.821 76.1431H87.8193C87.8091 76.1465 87.799 76.1499 87.7888 76.1524L87.7854 76.1541L87.7761 76.1567L87.7727 76.1575C87.7693 76.1592 87.7668 76.1592 87.7634 76.1609H87.7625C87.7515 76.1643 87.7414 76.1677 87.7304 76.1719H87.7287C87.7253 76.1728 87.7219 76.1745 87.7193 76.1753L87.7168 76.1761C87.7066 76.1795 87.6956 76.1829 87.6854 76.1863L87.6838 76.1872C87.6804 76.188 87.677 76.1889 87.6744 76.1905L87.6719 76.1914C87.66 76.1948 87.6499 76.1982 87.6389 76.2016L87.6287 76.2058H87.627L87.5838 76.221H87.5821C87.5677 76.2261 87.5533 76.2312 87.5389 76.2363L87.5372 76.2371C87.5338 76.238 87.5304 76.2388 87.527 76.2405H87.5253C87.5109 76.2456 87.4965 76.2507 87.4821 76.2558V76.2566C87.4669 76.2617 87.4525 76.2668 87.4381 76.2718L87.4364 76.2727L87.4262 76.2761H87.4254C87.3957 76.2871 87.3669 76.2972 87.3372 76.3091H87.3364C87.322 76.3142 87.3076 76.3201 87.2932 76.3252H87.2923L87.2491 76.3421H87.2483C85.2023 77.128 83.4663 78.5558 82.3014 80.4122C82.2929 80.4257 82.2853 80.4376 82.2768 80.4511L82.276 80.4528C82.2683 80.4655 82.2599 80.4782 82.2522 80.4909L82.2514 80.4918C82.2438 80.5045 82.2353 80.518 82.2277 80.5307V80.5316C82.2251 80.535 82.2234 80.5375 82.2217 80.5409V80.5417C82.215 80.551 82.2099 80.5612 82.2039 80.5705L82.2031 80.5714C82.2014 80.5748 82.1997 80.5773 82.198 80.5807L82.1972 80.5824C82.1955 80.5858 82.1929 80.5883 82.1921 80.5908L82.1904 80.5917C82.187 80.5985 82.1836 80.6044 82.1802 80.6103L82.1794 80.6112L82.1743 80.6196L82.1726 80.6222L82.1667 80.634C82.1616 80.6425 82.1565 80.651 82.1514 80.6594L82.1489 80.6628L82.1446 80.6704L82.1421 80.6747C82.137 80.6832 82.1328 80.6916 82.1277 80.6992L82.1252 80.7026C82.1243 80.7052 82.1226 80.7077 82.1218 80.7103C82.1209 80.7119 82.1192 80.7136 82.1184 80.7153L82.115 80.7221L82.1116 80.7263C82.1091 80.7306 82.1065 80.7348 82.1048 80.739L82.1023 80.7433C82.1006 80.745 82.0989 80.7475 82.098 80.7501L82.0955 80.7551L82.0913 80.7619L82.0887 80.767L82.0811 80.7797L82.0786 80.7831C82.0777 80.7856 82.076 80.7882 82.0752 80.7907L82.0718 80.7949C82.0709 80.7975 82.0692 80.8 82.0684 80.8017L82.065 80.8068L82.0616 80.8136C82.0608 80.8153 82.0599 80.817 82.0582 80.8186L82.0523 80.8305C82.0514 80.833 82.0506 80.8339 82.0489 80.8356C82.0481 80.8381 82.0464 80.8407 82.0455 80.8424L82.043 80.8466L82.0387 80.8542L82.037 80.8576C82.0345 80.8618 82.032 80.8669 82.0294 80.8712L82.0269 80.8762L82.0226 80.883L82.0201 80.8872C82.0193 80.8898 82.0176 80.8923 82.0159 80.8949L82.0133 80.8991C82.0116 80.9033 82.0091 80.9067 82.0074 80.911C82.0057 80.9127 82.0048 80.9152 82.004 80.9169C82.0032 80.9186 82.0015 80.9211 82.0006 80.9228L81.9972 80.9279L81.9913 80.9398C81.9871 80.9482 81.982 80.9558 81.9777 80.9643L81.976 80.9685L81.9718 80.9762L81.9693 80.9804L81.965 80.988L81.9625 80.9931C81.9599 80.9965 81.9583 80.9999 81.9566 81.0033C81.9557 81.0058 81.9549 81.0075 81.9532 81.01C81.9523 81.0117 81.9515 81.0143 81.9498 81.016L81.9464 81.0219L81.9438 81.0278L81.9396 81.0346L81.9362 81.0422L81.9311 81.0507L81.9286 81.0566L81.9218 81.0685L81.9159 81.0803L81.9091 81.0922L81.9083 81.0956C81.9066 81.099 81.9049 81.1015 81.9032 81.104L81.9006 81.1091L81.8964 81.1167L81.8939 81.121C81.8922 81.1252 81.8905 81.1294 81.8879 81.1337L81.882 81.1455L81.8795 81.1498C81.8786 81.1523 81.8761 81.1557 81.8752 81.1582L81.8727 81.1616L81.8676 81.1735L81.8668 81.1743C81.8651 81.1786 81.8625 81.1828 81.8608 81.187L81.8591 81.1904C81.8574 81.1938 81.8557 81.1964 81.854 81.1997L81.8523 81.2031C81.8507 81.2065 81.8481 81.2107 81.8473 81.2141L81.8464 81.2158L81.8396 81.2285L81.8388 81.2311L81.8329 81.2404L81.832 81.2438C81.8303 81.2472 81.8278 81.2514 81.8261 81.2548L81.8185 81.27L81.8125 81.2827L81.8108 81.2853L81.8066 81.2954L81.8049 81.298L81.7922 81.3242L81.7913 81.3259C81.7897 81.3293 81.7871 81.3335 81.7863 81.3369L81.7846 81.3395C81.7803 81.3488 81.7761 81.3564 81.7719 81.3657L81.771 81.3674C81.7693 81.3708 81.7676 81.3742 81.7659 81.3784L81.7642 81.381C81.7625 81.3844 81.7608 81.3886 81.7592 81.392L81.7583 81.3937L81.7456 81.4208L81.7448 81.4216C81.7431 81.4258 81.7414 81.4301 81.7388 81.4343V81.4352C81.7346 81.4445 81.7303 81.4538 81.7261 81.4623H81.7253C81.7236 81.4665 81.7219 81.4716 81.7193 81.4758V81.4767C81.7126 81.4902 81.7066 81.5038 81.6998 81.5182C81.6931 81.5326 81.6871 81.5453 81.6804 81.5597V81.5605L81.6558 81.6147L81.6549 81.6155C81.5812 81.779 81.5143 81.9467 81.4457 82.1127C81.0161 83.2847 80.7857 84.5203 80.7637 85.7686V95.8589C80.762 98.6451 83.0215 100.905 85.8089 100.906C88.5962 100.907 90.8574 98.6493 90.8583 95.8632C90.8583 95.8615 90.8583 95.8606 90.8583 95.8589V85.7728C90.8583 82.9866 93.1187 80.7272 95.906 80.7272H100.954C102.347 80.7272 103.478 79.5975 103.478 78.2044C103.475 76.8113 102.345 75.6816 100.951 75.6816V75.6816Z" fill="#2C2F53"/>
<path fill-rule="evenodd" clip-rule="evenodd" d="M27.7617 90.8184H32.8094C34.2031 90.8184 35.3332 91.9473 35.3332 93.3412C35.3332 94.7343 34.2031 95.864 32.8094 95.864H27.7617C26.368 95.864 25.2378 94.7343 25.2378 93.3412C25.2378 91.9473 26.368 90.8184 27.7617 90.8184V90.8184Z" fill="#7C7F95"/>
</svg>
