<svg width="101" height="24" viewBox="0 0 101 24" fill="none" xmlns="http://www.w3.org/2000/svg">
<rect width="101" height="24" rx="12" fill="#ADA3F4"/>
<path fill-rule="evenodd" clip-rule="evenodd" d="M17.0016 3.54187C12.5301 3.54187 8.89282 7.19525 8.89282 11.6866C8.89282 13.4678 9.46488 15.1197 10.4373 16.4605L9.42667 19.4866L12.5443 18.4861C13.8266 19.3384 15.3568 19.8315 17.0063 19.8315C21.4778 19.8315 25.115 16.178 25.115 11.6867C25.115 7.19538 21.4778 3.54201 17.0063 3.54201H17.0016V3.54187Z" fill="#6254C9"/>
<path fill-rule="evenodd" clip-rule="evenodd" d="M14.7372 7.67903C14.58 7.30079 14.4608 7.28646 14.2225 7.27673C14.132 7.27088 14.0414 7.26772 13.9507 7.26727C13.6408 7.26727 13.3167 7.35822 13.1212 7.5593C12.8829 7.80349 12.2917 8.37322 12.2917 9.5416C12.2917 10.71 13.1403 11.84 13.2546 11.9981C13.3738 12.1559 14.9089 14.5884 17.2924 15.5797C19.1563 16.3554 19.7094 16.2835 20.1336 16.1925C20.7533 16.0585 21.5303 15.5986 21.7258 15.0434C21.9213 14.4878 21.9213 14.0138 21.864 13.9132C21.8068 13.8127 21.6494 13.7554 21.4111 13.6355C21.1729 13.5158 20.0144 12.9412 19.7951 12.8646C19.5805 12.7832 19.3756 12.812 19.2136 13.0419C18.9848 13.3627 18.7607 13.6884 18.5795 13.8846C18.4365 14.0378 18.2028 14.057 18.0075 13.9755C17.7453 13.8655 17.0112 13.6067 16.1054 12.7975C15.4046 12.1704 14.9279 11.39 14.7897 11.1554C14.6514 10.9161 14.7755 10.777 14.885 10.6478C15.0042 10.4993 15.1185 10.394 15.2377 10.2551C15.3569 10.1163 15.4237 10.0444 15.4999 9.8816C15.5811 9.72362 15.5238 9.56079 15.4666 9.44106C15.4094 9.32133 14.9327 8.15295 14.7372 7.67903Z" fill="#ADA3F4"/>
<path d="M43.9866 6.6H42.5706L40.8906 12.6L38.9706 6.6H37.5066L35.6346 12.588L33.9426 6.6H32.2866L34.7946 15H36.1866L38.1786 8.928L40.2066 15H41.5866L43.9866 6.6ZM44.8188 15H46.1988V11.292C46.5108 10.98 46.9428 10.8 47.3868 10.8C48.1428 10.8 48.5868 11.244 48.5868 12.048V15H49.9668V11.868C49.9668 10.176 49.0668 9.504 47.7468 9.504C47.1228 9.504 46.5468 9.756 46.1988 10.092V6.6H44.8188V15ZM51.7896 10.992C52.1856 10.812 52.5816 10.62 53.2056 10.62C54.0096 10.62 54.2496 11.112 54.2136 12.012C53.9496 11.82 53.4696 11.664 52.9896 11.664C51.8976 11.664 51.0216 12.228 51.0216 13.416C51.0216 14.46 51.7296 15.072 52.7136 15.072C53.4456 15.072 54.0216 14.784 54.3096 14.376V15H55.5096V11.712C55.5096 10.284 54.9456 9.468 53.3496 9.468C52.6416 9.468 51.9096 9.708 51.4416 9.984L51.7896 10.992ZM53.1696 13.908C52.7376 13.908 52.4016 13.68 52.4016 13.272C52.4016 12.816 52.8096 12.6 53.2656 12.6C53.6616 12.6 53.9736 12.684 54.2136 12.864V13.416C54.0456 13.656 53.7456 13.908 53.1696 13.908ZM56.8043 12.948C56.8043 14.328 57.2603 15.12 58.4843 15.12C59.1803 15.12 59.7563 14.856 60.0803 14.592L59.6603 13.524C59.4683 13.668 59.2043 13.836 58.8323 13.836C58.3763 13.836 58.1843 13.452 58.1843 12.864V10.896H59.9243V9.6H58.1843V8.1H56.8043V12.948ZM63.9845 13.476C63.9845 13.812 63.6725 13.98 63.2765 13.98C62.7365 13.98 61.9205 13.656 61.5965 13.308L60.9245 14.208C61.1765 14.592 62.1845 15.132 63.1805 15.132C64.5005 15.132 65.3645 14.472 65.3645 13.404C65.3645 11.496 62.4485 11.988 62.4485 11.088C62.4485 10.848 62.7005 10.62 63.1205 10.62C63.6965 10.62 64.2605 10.884 64.5845 11.136L65.1005 10.152C64.7645 9.84 64.0925 9.468 63.0485 9.468C61.9325 9.468 61.0685 10.056 61.0685 11.112C61.0685 13.08 63.9845 12.6 63.9845 13.476ZM65.8965 15H67.3845L68.2605 12.852H71.8485L72.7245 15H74.2965L70.7445 6.576H69.4485L65.8965 15ZM70.0605 8.484L71.2845 11.472H68.8245L70.0605 8.484ZM75.1586 17.4H76.5386V14.868C76.8506 15.048 77.3186 15.132 77.7986 15.132C79.5266 15.132 80.6546 13.86 80.6546 12.216C80.6546 10.62 79.6946 9.468 78.2066 9.468C77.5106 9.468 76.8746 9.756 76.5386 10.116V9.6H75.1586V17.4ZM77.7746 10.764C78.6866 10.764 79.1906 11.388 79.1906 12.252C79.1906 13.152 78.6386 13.848 77.6786 13.848C77.2226 13.848 76.9106 13.776 76.5386 13.536V11.352C76.8746 10.98 77.3066 10.764 77.7746 10.764ZM81.85 17.4H83.23V14.868C83.542 15.048 84.01 15.132 84.49 15.132C86.218 15.132 87.346 13.86 87.346 12.216C87.346 10.62 86.386 9.468 84.898 9.468C84.202 9.468 83.566 9.756 83.23 10.116V9.6H81.85V17.4ZM84.466 10.764C85.378 10.764 85.882 11.388 85.882 12.252C85.882 13.152 85.33 13.848 84.37 13.848C83.914 13.848 83.602 13.776 83.23 13.536V11.352C83.566 10.98 83.998 10.764 84.466 10.764Z" fill="#6254C9"/>
</svg>
